<svg xmlns="http://www.w3.org/2000/svg" xmlns:xlink="http://www.w3.org/1999/xlink" viewBox="0 0 327.5 614.55"><defs><style>.cls-1,.cls-27{fill:none;}.cls-2{isolation:isolate;}.cls-3{clip-path:url(#clip-path);}.cls-4{fill:#f8c589;}.cls-5,.cls-7{fill:#c4c4c3;}.cls-5,.cls-6{mix-blend-mode:multiply;}.cls-8{fill:#7b7b7b;}.cls-9{fill:#e8f3fa;}.cls-10{fill:#acdcf6;}.cls-11{fill:#37454e;}.cls-12{fill:#bc706d;}.cls-13{fill:#404d56;}.cls-14{fill:#d4ebfa;}.cls-15{clip-path:url(#clip-path-2);}.cls-16{fill:#3c3c3b;}.cls-17{fill:#2f2f2e;}.cls-18{fill:#e7e7e8;}.cls-19{fill:#fff;}.cls-20{fill:#6b6b6a;}.cls-21{clip-path:url(#clip-path-3);}.cls-22{fill:#eaeaea;}.cls-23{fill:#393938;}.cls-24{fill:#173d6e;}.cls-25{fill:#00a8d0;}.cls-26{fill:#2d4d77;}.cls-27{stroke:#389e40;stroke-miterlimit:10;}.cls-28{fill:#2e2e2e;}.cls-29{fill:#389e40;}</style><clipPath id="clip-path" transform="translate(-0.14)"><rect class="cls-1" y="35.29" width="94" height="100"/></clipPath><clipPath id="clip-path-2" transform="translate(-0.14)"><rect class="cls-1" y="225.29" width="94" height="100"/></clipPath><clipPath id="clip-path-3" transform="translate(-0.14)"><rect class="cls-1" y="415.29" width="94" height="100"/></clipPath></defs><g class="cls-2"><g id="レイヤー_2" data-name="レイヤー 2"><g id="text"><g class="cls-3"><rect class="cls-4" x="38.84" y="112.05" width="13.8" height="13.52"/><path class="cls-5" d="M40.19,121.82c3.78-3.3,9.43-2.42,12.59-6.67v-3.1H39v11.27A5.91,5.91,0,0,1,40.19,121.82Z" transform="translate(-0.14)"/><path class="cls-4" d="M66.27,84.93c-.49,3.67,1,6.89,3.29,7.19s4.57-2.41,5.06-6.08-1-6.89-3.3-7.19S66.75,81.26,66.27,84.93Z" transform="translate(-0.14)"/><g class="cls-6"><path class="cls-7" d="M69.09,83.84a5.32,5.32,0,0,1,.09-.54A6,6,0,0,1,69.65,82c.25-.49.68-1.06,1.26-1.1a1.34,1.34,0,0,1,.44,0,1.78,1.78,0,0,1,.23.09,1.2,1.2,0,0,1,.17.11,2,2,0,0,1,.6.78,4.61,4.61,0,0,1,.34,1,4.27,4.27,0,0,1,.08,1c0,.37,0,.74-.11,1.06s-.11.64-.15.92-.14.56-.18.79-.12.44-.17.61l-.14.54.28-.48a5.94,5.94,0,0,0,.29-.57c.1-.23.22-.48.33-.76a10,10,0,0,0,.29-1,7.5,7.5,0,0,0,.21-1.07,3.74,3.74,0,0,0,0-1.25A5,5,0,0,0,73,81.57a2.65,2.65,0,0,0-.86-1.06,1.56,1.56,0,0,0-.34-.18,2,2,0,0,0-.32-.1,2,2,0,0,0-.69,0,1.7,1.7,0,0,0-1.08.66,3.06,3.06,0,0,0-.48.93A4.75,4.75,0,0,0,69,83.28,3.69,3.69,0,0,0,69.09,83.84Z" transform="translate(-0.14)"/></g><path class="cls-5" d="M69.09,83.84s-.23-.39,1.27-.51c0,0,1.69.22.82,2.06a4.83,4.83,0,0,0-.42,1.23c-.11.62.21,1.44-.16,2a1.15,1.15,0,0,1-1.95-.47c-.1-.61.6-1.67.93-2.11A1.43,1.43,0,0,0,69.09,83.84Z" transform="translate(-0.14)"/><g class="cls-6"><path class="cls-7" d="M68.64,88.07a.72.72,0,0,0-.1.1,1,1,0,0,0-.21.34,2,2,0,0,0-.06.26,1,1,0,0,0,0,.3c0,.11,0,.22.06.33a1.2,1.2,0,0,0,.15.3.92.92,0,0,0,.19.28,1.1,1.1,0,0,0,.23.2,1,1,0,0,0,.48.26,1.82,1.82,0,0,0,.52.1,2.51,2.51,0,0,0-.27-.44,1.09,1.09,0,0,0-.13-.17c0-.07-.08-.14-.13-.2a.91.91,0,0,0-.13-.19.66.66,0,0,1-.11-.2,2.56,2.56,0,0,1-.21-.4,1.67,1.67,0,0,1-.08-.2,1.59,1.59,0,0,0-.07-.2C68.69,88.29,68.64,88.07,68.64,88.07Z" transform="translate(-0.14)"/></g><path class="cls-4" d="M25.48,84.93c.5,3.67-1,6.89-3.28,7.19S17.63,89.71,17.14,86s1-6.89,3.29-7.19S25,81.26,25.48,84.93Z" transform="translate(-0.14)"/><g class="cls-6"><path class="cls-7" d="M22.66,83.84a5.32,5.32,0,0,0-.09-.54A6.41,6.41,0,0,0,22.11,82c-.26-.49-.69-1.06-1.27-1.1a1.3,1.3,0,0,0-.43,0,1.78,1.78,0,0,0-.23.09,1.2,1.2,0,0,0-.17.11,1.94,1.94,0,0,0-.61.78,4.59,4.59,0,0,0-.33,1A4.27,4.27,0,0,0,19,84c0,.37,0,.74.1,1.06s.11.64.16.92.13.56.18.79a4.81,4.81,0,0,0,.16.61l.14.54s-.11-.18-.27-.48-.2-.34-.3-.57l-.33-.76c-.11-.29-.2-.62-.3-1s-.13-.7-.2-1.07a4,4,0,0,1,0-1.25,5,5,0,0,1,.38-1.23,2.67,2.67,0,0,1,.87-1.06,1.29,1.29,0,0,1,.33-.18,2,2,0,0,1,.32-.1,2,2,0,0,1,.69,0,1.7,1.7,0,0,1,1.08.66,3.06,3.06,0,0,1,.48.93,4.46,4.46,0,0,1,.21,1.47A3.69,3.69,0,0,1,22.66,83.84Z" transform="translate(-0.14)"/></g><path class="cls-5" d="M22.66,83.84s.24-.39-1.26-.51c0,0-1.7.22-.83,2.06A4.48,4.48,0,0,1,21,86.62c.12.62-.21,1.44.16,2a1.16,1.16,0,0,0,2-.47c.1-.61-.61-1.67-.94-2.11A1.44,1.44,0,0,1,22.66,83.84Z" transform="translate(-0.14)"/><g class="cls-6"><path class="cls-7" d="M23.11,88.07a.51.51,0,0,1,.11.1,1.26,1.26,0,0,1,.2.34,2,2,0,0,1,.06.26,1,1,0,0,1,0,.3c0,.11,0,.22-.06.33a1.68,1.68,0,0,1-.15.3.9.9,0,0,1-.18.28,1.5,1.5,0,0,1-.24.2,1,1,0,0,1-.47.26,1.87,1.87,0,0,1-.52.1,2.85,2.85,0,0,1,.26-.44,1.15,1.15,0,0,1,.14-.17,1.32,1.32,0,0,1,.12-.2.67.67,0,0,1,.14-.19.93.93,0,0,0,.1-.2,1.93,1.93,0,0,0,.21-.4.84.84,0,0,0,.08-.2,1.59,1.59,0,0,0,.07-.2A4.19,4.19,0,0,0,23.11,88.07Z" transform="translate(-0.14)"/></g><path class="cls-4" d="M46,43.41h-.16C40.27,43.72,16.2,47.17,22,84.26l1.41,15.52a16.47,16.47,0,0,0,5.55,6.77s7.44,6.26,13.69,9c0,0,1.36.39,3.19,1.07v0l.08,0,.09,0v0c1.83-.68,3.2-1.07,3.2-1.07,6.23-2.78,13.67-9,13.67-9,4.32-3.29,4.53-6.78,4.53-6.78L69.8,84.25C75.54,47.16,51.46,43.72,46,43.41Z" transform="translate(-0.14)"/><path class="cls-8" d="M24.4,48.36c-6.89,10.12-4.54,31.07-4.54,31.07l1.72,4.38.62,4.34h1.2s-2.34-14.27,2.23-18.46c0,0,.88-10.85,5.92-12.29a43,43,0,0,1,14.21-1.59c5.13-.6,14.7.89,14.7.89,5.36.88,5.72,13,5.72,13,4.57,4.19,2.22,18.46,2.22,18.46h1.2l.62-4.34L71.94,79s3.44-20.49-4.18-31.13c4.23-6.71-4-12.49-4-12.49s-10.59,7.8-27.95,6.25C35.81,41.6,26.81,42.52,24.4,48.36Z" transform="translate(-0.14)"/><path class="cls-8" d="M45.76,55.81Z" transform="translate(-0.14)"/><path class="cls-4" d="M19,168.22H72.57l3.77-26.57a10.35,10.35,0,0,0-4.07-11.21l-20.15-8H39.49l-20.16,8a10.34,10.34,0,0,0-4.06,11.21Z" transform="translate(-0.14)"/><path class="cls-9" d="M16.38,168.22H75.15l1.19-26.57a10.35,10.35,0,0,0-4.07-11.21l-19.58-7.79-7,2.86-6.77-2.88-19.61,7.81a10.34,10.34,0,0,0-4.06,11.21Z" transform="translate(-0.14)"/><path class="cls-10" d="M.14,168.22H17.48c1.23-7.21,4.77-30.16,1.87-37.74L7.17,135.65c-4.07,2.48-3.62,9.26-3.62,9.26Z" transform="translate(-0.14)"/><path class="cls-10" d="M93.5,168.22l-6.25-25.41s-.45-6-5.11-8.27l-10.27-4.21c-2.91,7.58.67,30.66,1.9,37.89Z" transform="translate(-0.14)"/><path class="cls-11" d="M.14,168.22H17.48c1.23-7.21,4.77-30.16,1.87-37.74L7.17,135.65c-4.07,2.48-3.62,9.26-3.62,9.26Z" transform="translate(-0.14)"/><path class="cls-11" d="M93.86,168.22l-1.72-22.91s-.57-6.58-5.24-8.84l-15-6.14c-2.91,7.58.67,30.66,1.9,37.89Z" transform="translate(-0.14)"/><polygon class="cls-12" points="50.08 168.22 48.33 134.54 42.96 134.54 41.23 168.22 50.08 168.22"/><polygon class="cls-12" points="39.8 125.97 51.54 125.97 48.38 134.54 42.96 134.54 39.8 125.97"/><path class="cls-11" d="M76.3,168.22l0-26.57a10.35,10.35,0,0,0-4.07-11.21L57.11,124l-5,44.25Z" transform="translate(-0.14)"/><polygon class="cls-13" points="60.07 168.22 67.92 145.2 62.27 140 67.92 128.64 56.97 123.97 52 168.22 60.07 168.22"/><polygon class="cls-14" points="45.68 125.51 52.57 120.24 56.97 123.97 55.6 136.16 45.68 125.51"/><path class="cls-11" d="M15.34,168.22l0-26.57a10.34,10.34,0,0,1,4.06-11.21L34.53,124l5,44.25Z" transform="translate(-0.14)"/><polygon class="cls-13" points="31.3 168.22 23.45 145.2 29.09 140 23.45 128.64 34.39 123.97 39.37 168.22 31.3 168.22"/><polygon class="cls-14" points="45.68 125.51 38.8 120.24 34.39 123.97 35.76 136.16 45.68 125.51"/></g><g class="cls-15"><rect class="cls-16" x="19.91" y="275.41" width="53.93" height="69.7"/><rect class="cls-17" x="24.89" y="275.41" width="43.96" height="69.7"/><path class="cls-16" d="M19.89,281S24,300.43,41.6,305.13H51.67s16.48-4.08,20.81-23.75Z" transform="translate(-0.14)"/><path class="cls-4" d="M65.83,332.22c.32,2.42.66,4.84,1,7.26L68,346.72l1.14,6.65H81.46l-3.09-23A6.34,6.34,0,0,0,65.8,332Z" transform="translate(-0.14)"/><path class="cls-4" d="M24.51,353.37l3.84-20.94a6.34,6.34,0,0,0-12.46-2.32l0,.22q-.69,3.66-1.28,7.34L13.35,345l-1.22,8.34Z" transform="translate(-0.14)"/><polygon class="cls-4" points="54.02 318.46 38.8 318.46 41.2 302.07 51.81 302.07 54.02 318.46"/><path class="cls-5" d="M44.34,308.56c2.84-.4,6.72-.84,8.15-3.23L52,302.07H41.34l-1.19,8.09A10.52,10.52,0,0,1,44.34,308.56Z" transform="translate(-0.14)"/><path class="cls-4" d="M21.62,353.37H71.71l2.8-11.76c4.23-12.22-1.39-16.91-1.39-16.91l-19.39-8.09H39.6L20.21,324.7s-5.62,4.69-1.38,16.91Z" transform="translate(-0.14)"/><path class="cls-18" d="M71.69,353.37l2.76-11.57c-5.21-3.91-5.69-12.39-1.45-17.15L55.69,317.3l-9.09,1-9.24-.82-16.88,7.08c4.37,4.8,3.84,13.51-1.59,17.36l2.72,11.43Z" transform="translate(-0.14)"/><path class="cls-4" d="M68.48,277.71c-.49,3.66,1,6.87,3.28,7.18s4.56-2.41,5-6.07-1-6.86-3.28-7.17S69,274.06,68.48,277.71Z" transform="translate(-0.14)"/><g class="cls-6"><path class="cls-7" d="M71.3,276.63a5.32,5.32,0,0,1,.09-.54,5.65,5.65,0,0,1,.46-1.32c.25-.49.68-1.06,1.26-1.1a1.12,1.12,0,0,1,.44,0l.23.08s.1.06.16.11a1.87,1.87,0,0,1,.6.79,4,4,0,0,1,.34,1,4.27,4.27,0,0,1,.08,1.05c0,.37,0,.74-.1,1.06s-.11.63-.16.91-.13.56-.18.79-.12.44-.16.61c-.09.33-.14.53-.14.53l.28-.48c.07-.16.19-.34.29-.56l.33-.77c.1-.28.19-.61.29-1s.14-.69.21-1.06a4,4,0,0,0,0-1.25,5.1,5.1,0,0,0-.37-1.23,2.81,2.81,0,0,0-.87-1.05,1.69,1.69,0,0,0-.33-.19,2.07,2.07,0,0,0-.32-.09,2,2,0,0,0-.69,0,1.65,1.65,0,0,0-1.07.66,2.76,2.76,0,0,0-.48.93,4.38,4.38,0,0,0-.21,1.46A2.55,2.55,0,0,0,71.3,276.63Z" transform="translate(-0.14)"/></g><path class="cls-5" d="M71.3,276.63s-.23-.39,1.26-.51c0,0,1.69.22.82,2.05A4.83,4.83,0,0,0,73,279.4c-.11.61.21,1.43-.16,2a1.16,1.16,0,0,1-2-.46c-.1-.61.61-1.67.94-2.11A1.44,1.44,0,0,0,71.3,276.63Z" transform="translate(-0.14)"/><g class="cls-6"><path class="cls-7" d="M70.85,280.84a.51.51,0,0,0-.11.1,1,1,0,0,0-.2.34,1.07,1.07,0,0,0-.06.27,1,1,0,0,0,0,.3c0,.1,0,.21.06.32s.1.2.14.3a1.31,1.31,0,0,0,.19.27,2.19,2.19,0,0,0,.23.21,1,1,0,0,0,.48.25,1.82,1.82,0,0,0,.52.1,2.51,2.51,0,0,0-.27-.44,1,1,0,0,0-.13-.17l-.12-.2a1.15,1.15,0,0,0-.14-.19,1.28,1.28,0,0,1-.11-.2,2.93,2.93,0,0,1-.21-.39,2092181385262.09,2092181385262.09,0,0,0-.14-.4A4.19,4.19,0,0,1,70.85,280.84Z" transform="translate(-0.14)"/></g><path class="cls-4" d="M25.29,277.71c.49,3.66-1,6.87-3.28,7.18s-4.55-2.41-5-6.07,1-6.86,3.29-7.17S24.81,274.06,25.29,277.71Z" transform="translate(-0.14)"/><g class="cls-6"><path class="cls-7" d="M22.47,276.63a5.32,5.32,0,0,0-.09-.54,5.22,5.22,0,0,0-.46-1.32c-.25-.49-.68-1.06-1.25-1.1a1.12,1.12,0,0,0-.44,0l-.23.08c-.05,0-.11.06-.17.11a2,2,0,0,0-.6.79,3.93,3.93,0,0,0-.33,1,3.84,3.84,0,0,0-.08,1.05c0,.37,0,.74.1,1.06s.11.63.16.91.12.56.17.79.12.44.16.61c.1.33.15.53.15.53s-.11-.17-.28-.48-.2-.34-.29-.56-.22-.48-.33-.77-.19-.61-.29-1a7.36,7.36,0,0,1-.21-1.06,4,4,0,0,1,0-1.25,5.13,5.13,0,0,1,.38-1.23,2.69,2.69,0,0,1,.86-1.05,1.79,1.79,0,0,1,.34-.19,1.93,1.93,0,0,1,.31-.09,2,2,0,0,1,.69,0,1.7,1.7,0,0,1,1.08.66,3,3,0,0,1,.48.93,4.66,4.66,0,0,1,.21,1.46A2.88,2.88,0,0,1,22.47,276.63Z" transform="translate(-0.14)"/></g><path class="cls-5" d="M22.47,276.63s.24-.39-1.25-.51c0,0-1.69.22-.83,2.05a5.28,5.28,0,0,1,.43,1.23c.11.61-.21,1.43.15,2a1.15,1.15,0,0,0,2-.46c.1-.61-.6-1.67-.93-2.11A1.42,1.42,0,0,1,22.47,276.63Z" transform="translate(-0.14)"/><g class="cls-6"><path class="cls-7" d="M22.93,280.84l.1.1a1,1,0,0,1,.2.34,1.07,1.07,0,0,1,.06.27.6.6,0,0,1,0,.3c0,.1,0,.21-.06.32a2,2,0,0,1-.14.3,1.31,1.31,0,0,1-.19.27,2.19,2.19,0,0,1-.23.21,1,1,0,0,1-.47.25,1.87,1.87,0,0,1-.52.1,2.12,2.12,0,0,1,.26-.44l.13-.17a1.13,1.13,0,0,1,.13-.2,1.07,1.07,0,0,1,.13-.19.78.78,0,0,0,.11-.2,2.1,2.1,0,0,0,.21-.39l.08-.2c0-.07.05-.13.06-.2C22.88,281.06,22.93,280.84,22.93,280.84Z" transform="translate(-0.14)"/></g><path class="cls-4" d="M59.24,239.78a33.65,33.65,0,0,0-25.21,0s-20.41,9.8-7.82,50.56c1.8,5.83,7.29,10.3,12.45,13.56,5.32,3.37,10.67,3.36,16,0,5.15-3.26,10.63-7.73,12.44-13.56C79.67,249.58,59.24,239.78,59.24,239.78Z" transform="translate(-0.14)"/><circle class="cls-19" cx="71.28" cy="283.96" r="1.49"/><path class="cls-19" d="M23.85,284a1.5,1.5,0,1,1-1.5-1.49A1.5,1.5,0,0,1,23.85,284Z" transform="translate(-0.14)"/><path class="cls-16" d="M23.12,277.92s0-6.65-3.69-6.15C16.11,244.18,28.78,241,28.78,241c-.66-4.92,6.07-9.19,6.07-9.19,21.33-5.75,31.57,5.82,31.57,5.82,15.26,13.38,6.67,34.14,6.67,34.14-3.69-.5-3.69,6.15-3.69,6.15-.5-22.17-7.39-26.6-7.39-26.6-16.18-9-31.5,0-31.5,0A15.73,15.73,0,0,0,27.1,262.9S23.49,264.87,23.12,277.92Z" transform="translate(-0.14)"/><polygon class="cls-4" points="32.49 251.44 30.75 244.67 34.27 250.72 32.49 251.44"/><path class="cls-20" d="M36.92,353.37V317.3l-16.44,6.89c4.37,4.81,3.84,13.52-1.59,17.37l2.81,11.81Z" transform="translate(-0.14)"/><path class="cls-20" d="M71.6,353.37l2.85-12c-5.21-3.9-5.69-12.39-1.45-17.15l-16-6.8v35.91Z" transform="translate(-0.14)"/><polygon class="cls-19" points="46.42 318.21 39.49 312.91 31.32 318.59 39.44 328.93 46.42 318.21"/><polygon class="cls-19" points="46.4 318.21 53.32 312.91 61.5 318.59 53.38 328.93 46.4 318.21"/><path class="cls-20" d="M24.51,353.37l3.84-20.94c.65-3.44-1.47-7.53-4.91-8.18s-7.38,2.67-8,6.12l-3.94,23Z" transform="translate(-0.14)"/><path class="cls-20" d="M68.87,353.37H82.54L79,330c-.65-3.44-5.71-6.65-9.15-6s-5.56,4.73-4.92,8.18Z" transform="translate(-0.14)"/></g><g class="cls-21"><rect class="cls-4" x="38.85" y="491.17" width="13.88" height="13.6"/><path class="cls-5" d="M40.2,501c3.81-3.32,9.48-2.43,12.66-6.71v-3.12H39V502.5A6.57,6.57,0,0,1,40.2,501Z" transform="translate(-0.14)"/><path class="cls-4" d="M66.42,463.91c-.49,3.69,1,6.93,3.31,7.23s4.6-2.43,5.08-6.12-1-6.92-3.31-7.23S66.91,460.22,66.42,463.91Z" transform="translate(-0.14)"/><g class="cls-6"><path class="cls-7" d="M69.27,462.81s0-.2.08-.54a6,6,0,0,1,.47-1.34c.26-.49.69-1.07,1.27-1.11a1.68,1.68,0,0,1,.44,0s.18.06.23.09a1.36,1.36,0,0,1,.17.12,1.94,1.94,0,0,1,.61.78,4.51,4.51,0,0,1,.33,1,3.86,3.86,0,0,1,.09,1.05c0,.37,0,.75-.11,1.07s-.11.64-.16.93-.13.55-.17.79-.12.44-.17.61l-.14.54s.11-.17.28-.48c.07-.16.2-.34.29-.57l.34-.77c.1-.29.19-.62.29-1a9,9,0,0,0,.21-1.08,4.1,4.1,0,0,0,0-1.26,5.31,5.31,0,0,0-.37-1.24,2.83,2.83,0,0,0-.87-1.06,1.56,1.56,0,0,0-.34-.18c-.13,0-.17,0-.33-.1a2,2,0,0,0-.69,0,1.65,1.65,0,0,0-1.08.67,2.76,2.76,0,0,0-.48.93,4.31,4.31,0,0,0-.22,1.48A2.73,2.73,0,0,0,69.27,462.81Z" transform="translate(-0.14)"/></g><path class="cls-5" d="M69.27,462.81s-.24-.39,1.26-.51c0,0,1.71.22.83,2.07a5.5,5.5,0,0,0-.42,1.24c-.11.62.21,1.44-.16,2a1.17,1.17,0,0,1-2-.47c-.09-.61.62-1.68.94-2.13A1.44,1.44,0,0,0,69.27,462.81Z" transform="translate(-0.14)"/><g class="cls-6"><path class="cls-7" d="M68.81,467.06a.92.92,0,0,0-.11.11,1,1,0,0,0-.2.34,1,1,0,0,0-.06.26,1.08,1.08,0,0,0,0,.31c0,.1,0,.21.06.32a2.92,2.92,0,0,0,.14.31,1.31,1.31,0,0,0,.19.27,2.41,2.41,0,0,0,.24.21,1.09,1.09,0,0,0,.48.26,1.59,1.59,0,0,0,.52.09,2.85,2.85,0,0,0-.26-.44l-.14-.17a2.12,2.12,0,0,0-.12-.2,2.31,2.31,0,0,0-.14-.19,2,2,0,0,1-.11-.2,2.56,2.56,0,0,1-.21-.4,1,1,0,0,1-.08-.2c0-.07-.06-.14-.07-.2A4.05,4.05,0,0,1,68.81,467.06Z" transform="translate(-0.14)"/></g><path class="cls-4" d="M25.42,463.91c.49,3.69-1,6.93-3.32,7.23S17.51,468.71,17,465s1-6.92,3.32-7.23S24.93,460.22,25.42,463.91Z" transform="translate(-0.14)"/><g class="cls-6"><path class="cls-7" d="M22.57,462.81s0-.2-.09-.54a5.15,5.15,0,0,0-.47-1.34c-.25-.49-.68-1.07-1.26-1.11a1.68,1.68,0,0,0-.44,0s-.19.06-.23.09a.88.88,0,0,0-.17.12,1.94,1.94,0,0,0-.61.78,3.71,3.71,0,0,0-.33,1,3.48,3.48,0,0,0-.08,1.05c0,.37,0,.75.1,1.07s.1.64.15.93.13.55.18.79.12.44.16.61c.1.34.15.54.15.54s-.11-.17-.28-.48a5.94,5.94,0,0,1-.29-.57c-.1-.23-.22-.49-.33-.77a9.91,9.91,0,0,1-.3-1,7.37,7.37,0,0,1-.21-1.08,4.1,4.1,0,0,1,0-1.26,5.35,5.35,0,0,1,.38-1.24,2.74,2.74,0,0,1,.87-1.06,1.56,1.56,0,0,1,.34-.18l.32-.1a2.05,2.05,0,0,1,.7,0,1.65,1.65,0,0,1,1.08.67,3.22,3.22,0,0,1,.49.93,4.81,4.81,0,0,1,.21,1.48A2.73,2.73,0,0,1,22.57,462.81Z" transform="translate(-0.14)"/></g><path class="cls-5" d="M22.57,462.81s.24-.39-1.26-.51c0,0-1.71.22-.84,2.07a5.07,5.07,0,0,1,.43,1.24c.11.62-.21,1.44.15,2a1.17,1.17,0,0,0,2-.47c.1-.61-.61-1.68-.94-2.13A1.44,1.44,0,0,1,22.57,462.81Z" transform="translate(-0.14)"/><g class="cls-6"><path class="cls-7" d="M23,467.06a.66.66,0,0,1,.12.11,1.12,1.12,0,0,1,.2.34,1,1,0,0,1,.06.26,1.08,1.08,0,0,1,0,.31c0,.1,0,.21-.06.32a1.77,1.77,0,0,1-.15.31A1.27,1.27,0,0,1,23,469l-.24.21a1.14,1.14,0,0,1-.48.26,1.62,1.62,0,0,1-.52.09,2.85,2.85,0,0,1,.26-.44,2.09,2.09,0,0,1,.14-.17,2.12,2.12,0,0,1,.12-.2,2.31,2.31,0,0,1,.14-.19c.06-.06.07-.14.11-.2a2.56,2.56,0,0,0,.21-.4c0-.07,0-.14.08-.2a1.18,1.18,0,0,1,.07-.2C23,467.29,23,467.06,23,467.06Z" transform="translate(-0.14)"/></g><path class="cls-4" d="M46,422.16h-.16c-5.55.31-29.75,3.78-24,41.07l1.42,15.61a16.68,16.68,0,0,0,5.58,6.81s7.48,6.29,13.76,9.08c0,0,1.37.39,3.22,1.07v.06l.08,0,.08,0v-.06c1.84-.68,3.21-1.07,3.21-1.07C55.5,491.94,63,485.64,63,485.64c4.34-3.31,4.55-6.81,4.55-6.81L70,463.22C75.74,425.93,51.54,422.47,46,422.16Z" transform="translate(-0.14)"/><g class="cls-6"><path class="cls-22" d="M45.86,495.85v-.05c-1.51-.68-2.64-1.07-2.64-1.07C38.08,491.94,32,485.65,32,485.65a16.66,16.66,0,0,1-4.58-6.81L26.2,463.23c-4.75-37.29,15.1-40.76,19.64-41.07h0c-5.55.31-29.75,3.78-24,41.07l1.42,15.61a16.68,16.68,0,0,0,5.58,6.81s7.48,6.29,13.76,9.08c0,0,1.37.39,3.22,1.07v.06Z" transform="translate(-0.14)"/><path class="cls-22" d="M46,422.16h0c4.55.31,24.39,3.77,19.66,41.06l-2,15.61a10.91,10.91,0,0,1-3.73,6.81s-6.14,6.3-11.28,9.09c0,0-1.12.39-2.63,1.07v.05h0v-.06c1.84-.68,3.21-1.07,3.21-1.07C55.5,491.94,63,485.64,63,485.64c4.34-3.31,4.55-6.81,4.55-6.81L70,463.22C75.74,425.93,51.54,422.47,46,422.16Z" transform="translate(-0.14)"/></g><path class="cls-23" d="M67.92,426.61c7.66,10.69,4.2,31.31,4.2,31.31l-1.72,4.86-.63,4.36h-1.2s2.35-14.35-2.24-18.56c0,0-.36-12.18-5.75-13.05,0,0-9.63-1.51-14.78-.91a43.3,43.3,0,0,0-14.29,1.61c-5.07,1.44-6,12.35-6,12.35-4.6,4.21-2.24,18.56-2.24,18.56h-1.2l-.63-4.36-1.73-4.41s-2.36-21.07,4.56-31.24c0,0,5.36-14.1,29.91-11.53,0,0-3.5,1.17-4,3.74,0,0,5.38-7,18.24-.7,0,0-5.85-.23-7,2.11,0,0,8.19-2.58,12.63,2.57C74.11,423.32,66.65,422.88,67.92,426.61Z" transform="translate(-0.14)"/><path class="cls-23" d="M45.8,434.62Z" transform="translate(-0.14)"/><path class="cls-23" d="M68.66,467c-.11.15-.41,2-.51,2.15L67,474.31s-.21,3.5-4.44,6.81c0,0-7.28,6.29-13.39,9.08,0,0-1.33.4-3.13,1.08v.06l-.08,0-.08,0v-.06c-1.8-.68-3.13-1.07-3.13-1.07-6.12-2.79-13.4-9.08-13.4-9.08a16.65,16.65,0,0,1-5.44-6.81L23.16,467H22.09l1.2,11.89a16.68,16.68,0,0,0,5.58,6.81s7.48,6.29,13.76,9.08c0,0,1.37.39,3.22,1.07v.06l.08,0,.08,0v-.06c1.84-.68,3.21-1.07,3.21-1.07C55.5,491.94,63,485.64,63,485.64c4.34-3.31,4.55-6.81,4.55-6.81L69.8,467Z" transform="translate(-0.14)"/><path class="cls-23" d="M45.58,477.69s-7-4.33-12.16,1.29l-2.81,3.86,3.63,3.39s3.51-9.24,10.4-6.43l.88.17Z" transform="translate(-0.14)"/><path class="cls-23" d="M45.46,477.69s6.79-4.44,12.16,1.29l2.81,3.86-3.62,3.39S53.3,477,46.4,479.8l-.88.17Z" transform="translate(-0.14)"/><path class="cls-4" d="M19,549.21H72.57l3.77-26.57a10.35,10.35,0,0,0-4.07-11.21l-20.15-8H39.49l-20.16,8a10.34,10.34,0,0,0-4.06,11.21Z" transform="translate(-0.14)"/><path class="cls-9" d="M16.38,549.21H75.15l1.19-26.57a10.35,10.35,0,0,0-4.07-11.21l-19.58-7.79-7,2.86-6.77-2.88-19.61,7.81a10.34,10.34,0,0,0-4.06,11.21Z" transform="translate(-0.14)"/><path class="cls-10" d="M.14,549.21H17.48c1.23-7.21,4.77-30.16,1.87-37.74L7.17,516.64c-4.07,2.48-3.62,9.26-3.62,9.26Z" transform="translate(-0.14)"/><path class="cls-10" d="M93.5,549.21,87.25,523.8s-.45-6-5.11-8.28l-10.27-4.2c-2.91,7.58.67,30.66,1.9,37.89Z" transform="translate(-0.14)"/><path class="cls-24" d="M.14,549.21H17.48c1.23-7.21,4.77-30.16,1.87-37.74L7.17,516.64c-4.07,2.48-3.62,9.26-3.62,9.26Z" transform="translate(-0.14)"/><path class="cls-24" d="M93.86,549.21,92.14,526.3s-.57-6.58-5.24-8.84l-15-6.14c-2.91,7.58.67,30.66,1.9,37.89Z" transform="translate(-0.14)"/><polygon class="cls-25" points="50.08 549.21 48.33 515.53 42.96 515.53 41.23 549.21 50.08 549.21"/><polygon class="cls-25" points="39.8 506.95 51.54 506.95 48.38 515.53 42.96 515.53 39.8 506.95"/><path class="cls-24" d="M76.3,549.21l0-26.57a10.35,10.35,0,0,0-4.07-11.21L57.11,505l-5,44.25Z" transform="translate(-0.14)"/><polygon class="cls-26" points="60.07 549.21 67.92 526.18 62.27 520.99 67.92 509.63 56.97 504.96 52 549.21 60.07 549.21"/><polygon class="cls-14" points="45.68 506.5 52.57 501.23 56.97 504.96 55.6 517.14 45.68 506.5"/><path class="cls-24" d="M15.34,549.21l0-26.57a10.34,10.34,0,0,1,4.06-11.21L34.53,505l5,44.25Z" transform="translate(-0.14)"/><polygon class="cls-26" points="31.3 549.21 23.45 526.18 29.09 520.99 23.45 509.63 34.39 504.96 39.37 549.21 31.3 549.21"/><polygon class="cls-14" points="45.68 506.5 38.8 501.23 34.39 504.96 35.76 517.14 45.68 506.5"/></g><path class="cls-27" d="M47.14,30.5V8.5a8,8,0,0,1,8-8h264a8,8,0,0,1,8,8v154a8,8,0,0,1-8,8h-264a8,8,0,0,1-8-8v-22" transform="translate(-0.14)"/><path class="cls-28" d="M125.75,45.23h-2.08v3.48h-2.42v-.82h-3.6v.62c0,1.18-.28,1.66-1.06,2a10.53,10.53,0,0,1-3.54.34,7.33,7.33,0,0,0-.78-1.88c1,0,2.14,0,2.46,0s.5-.14.5-.5v-.62h-6.08V46.17h6.08v-.94h-7.92V43.41h7.92v-.86h-5.92V41h5.92v-.88h-5.42v-4h5.42v-.82h-7.46V33.4h7.46V32.1h2.42v1.3h7.64v1.88h-7.64v.82h5.68v4h-5.68V41h6v2.46h2.08Zm-10.52-6.66v-1h-3.14v1Zm2.42-1v1h3.24v-1Zm0,5.81h3.6v-.86h-3.6Zm3.6,1.82h-3.6v.94h3.6Z" transform="translate(-0.14)"/><path class="cls-28" d="M139.63,46.23A17.87,17.87,0,0,0,146,48.41a11.19,11.19,0,0,0-1.6,2.16,17.07,17.07,0,0,1-6.72-3.38v3.6h-2.34V47.31a19,19,0,0,1-6.7,3.24,11.09,11.09,0,0,0-1.52-2,21,21,0,0,0,6.32-2.34h-5.74v-2h7.64v-.88h-5.76V41.67h5.76v-.9h-6.76V38.91h3.8a9.08,9.08,0,0,0-.68-1.57l.24,0h-4.18V35.36h2.68a17.93,17.93,0,0,0-1.24-2.48l2-.7A15.13,15.13,0,0,1,132.73,35l-1,.36h1.82V32.1h2.22v3.26h1.48V32.1h2.24v3.26h1.78l-.72-.22a16.11,16.11,0,0,0,1.26-2.9l2.5.6c-.56.92-1.1,1.82-1.56,2.52h2.6V37.3h-3.76c-.32.58-.64,1.13-.94,1.61h3.92v1.86h-6.94v.9h6v1.72h-6v.88h7.78v2Zm-5.44-8.93a9.93,9.93,0,0,1,.68,1.55l-.34.06h3.74c.24-.48.48-1.07.7-1.61Z" transform="translate(-0.14)"/><path class="cls-28" d="M153.29,37.88c-.72,5.11-2.4,9.23-4.64,11.39a8.76,8.76,0,0,0-1.72-1.82c1.8-1.62,3.1-4.48,3.76-7.86h-3.08V37.44h3.8l.4-.1Zm4.32,7.27h3.58v2h-3.58v1.1c0,1.26-.26,1.84-1.1,2.2a10.37,10.37,0,0,1-3.74.4,9.07,9.07,0,0,0-.86-2.24c1.18.06,2.46.06,2.82.06s.5-.12.5-.46V47.11h-3.46v-2h3.46V43.87h-2.46V42h2.46V40.71h-2V38.85h2V36.58h1.24a16.52,16.52,0,0,0,2-1.28h-8.14V33.14h10.56l.5-.1L163,34.2a18.94,18.94,0,0,1-5.34,4v.66h2.12v1.86h-2.12V42h2.6v1.88h-2.6Zm8.2-6.38c-.92,1.1-2,2.36-2.92,3.3a11,11,0,0,0,3.18,5.22,8.63,8.63,0,0,0-1.76,2c-2.72-2.54-4-6.94-4.66-12l2.1-.34c.14.94.3,1.87.48,2.77a18.06,18.06,0,0,0,1.7-2.43Z" transform="translate(-0.14)"/><path class="cls-28" d="M169.69,44.11a17.51,17.51,0,0,1-1.2,5.14,10.62,10.62,0,0,0-1.66-.8,14.58,14.58,0,0,0,1-4.64Zm16.18,5.78h-9v.84h-2.22v-7.8l-1.5.66a11.16,11.16,0,0,0-.26-1.14l-1,.08v8.26h-2v-8.1l-2.64.2L167,40.83l1.58-.08c.26-.36.54-.76.8-1.16a17,17,0,0,0-2.32-2.91l1.14-1.54c.16.14.32.3.48.46a24.74,24.74,0,0,0,1.44-3.48l2,.7c-.72,1.38-1.54,3-2.24,4.08a10.3,10.3,0,0,1,.64.82c.66-1.12,1.26-2.28,1.72-3.26l1.88.86c-.74,1.22-1.6,2.56-2.48,3.83l1.56-.64a20.82,20.82,0,0,1,1.44,3.64V32.86h2.22V44.43a12.8,12.8,0,0,0,2.8-4h-2.4V38.31h3V32.5h2.06v5.81h3.14v2.12h-3.14v.3c.86.74,2.92,2.82,3.4,3.34l-1.4,1.84a31.31,31.31,0,0,0-2-2.76v4.3h-2.06v-4.2a12.64,12.64,0,0,1-2.44,3.46,11.64,11.64,0,0,0-.94-2.12v3.14h9Zm-13.6-9.36a12.46,12.46,0,0,0-.6-1.38c-.36.52-.7,1-1.06,1.48Zm1.28,3.2a14.28,14.28,0,0,1,1,3.6l-1.66.54a14.78,14.78,0,0,0-.92-3.68Zm4.78-5.66a17.61,17.61,0,0,0-1.14-3.87l1.68-.58a15.94,15.94,0,0,1,1.26,3.8Zm7.26-4c-.56,1.4-1.18,3-1.68,4l-1.58-.56a25.52,25.52,0,0,0,1.22-4.1Z" transform="translate(-0.14)"/><path class="cls-28" d="M196.59,46.17c0-.58.06-1.5.08-2.36-1.46.8-2.26,1.58-2.26,2.56s.94,1.4,2.88,1.4a30.29,30.29,0,0,0,5.62-.58l-.08,2.58a54.8,54.8,0,0,1-5.6.32c-3.1,0-5.44-.74-5.44-3.3s2.4-4.12,4.66-5.28a1.55,1.55,0,0,0-1.38-.68,4.9,4.9,0,0,0-3.1,1.36,25.37,25.37,0,0,0-1.84,2.18L188,42.79a19.25,19.25,0,0,0,4.36-5.45h-.24c-.8,0-2.26,0-3.34-.14V34.88a25.41,25.41,0,0,0,3.48.22h1a11,11,0,0,0,.4-2.26l2.6.22c-.1.48-.24,1.16-.48,2a45.74,45.74,0,0,0,5.6-.58l0,2.32a64.52,64.52,0,0,1-6.46.52,12.2,12.2,0,0,1-1.14,2,6.2,6.2,0,0,1,2.24-.4,2.7,2.7,0,0,1,2.64,1.54c1-.48,1.86-.82,2.68-1.18s1.46-.68,2.18-1l1,2.3a21,21,0,0,0-2.36.84c-.88.34-2,.78-3.22,1.34,0,1.1.06,2.56.08,3.46Z" transform="translate(-0.14)"/><path class="cls-28" d="M111.83,76.25c.78,1.34,2.18,1.9,4.22,2,2.4.1,7.12,0,9.88-.18a10.84,10.84,0,0,0-.74,2.32c-2.48.12-6.72.16-9.16.06s-4-.68-5.18-2.22c-.8.78-1.62,1.54-2.64,2.4l-1.12-2.36a24,24,0,0,0,2.48-1.84V72.05h-2.24V69.87h4.5Zm-1.42-9a15.58,15.58,0,0,0-3-3.32l1.82-1.36a17.38,17.38,0,0,1,3.14,3.18Zm3.52,1.81c-.36.38-.72.72-1.08,1a17.85,17.85,0,0,0-1.74-1.89,14.5,14.5,0,0,0,4.42-6.08l2.36.68a22.86,22.86,0,0,1-1,2.12h2.28a24.8,24.8,0,0,0,.84-2.64l2.62.5c-.36.72-.72,1.46-1.08,2.14h3.54v2h-4v1.27h3.42v1.92h-3.42v1.32h3.34v1.92h-3.34v1.36h4.3v2H113.93Zm4.9-2.13h-2.6v1.27h2.6Zm0,3.19h-2.6v1.32h2.6Zm0,3.24h-2.6v1.36h2.6Z" transform="translate(-0.14)"/><path class="cls-28" d="M139.81,66.18a6.54,6.54,0,0,1,5.2,6.69c0,4.2-3,6.6-7.14,7.22l-1.52-2.28c4.36-.38,6.06-2.6,6.06-5.08a4.24,4.24,0,0,0-3.2-4.36,24.11,24.11,0,0,1-2.68,6.3c.36.42.72.82,1.08,1.18l-2,1.58c-.24-.26-.48-.52-.68-.78-1.34,1.44-2.44,2.12-3.9,2.12-1.64,0-3.16-1.4-3.16-4a8.69,8.69,0,0,1,2.92-6.26c-.18-.53-.36-1.07-.52-1.61a14.57,14.57,0,0,0-.8-2.06l2.6-.8c.12.64.28,1.3.44,1.88.1.38.22.8.36,1.22A10.33,10.33,0,0,1,137.37,66c.08-.34.14-.66.2-1a10.69,10.69,0,0,0,.14-1.88l2.74.26c-.16.54-.34,1.5-.46,2Zm-6.3,8.51a21.8,21.8,0,0,1-1.84-3.8,6,6,0,0,0-1.44,3.72c0,1,.4,1.58,1.12,1.58A3.24,3.24,0,0,0,133.51,74.69Zm.1-5.34a19.84,19.84,0,0,0,1.4,3.14,23.4,23.4,0,0,0,1.76-4.25A7.88,7.88,0,0,0,133.61,69.35Z" transform="translate(-0.14)"/><path class="cls-28" d="M158.73,67.6a38.41,38.41,0,0,1-3.84.64c-.18.87-.38,1.75-.6,2.55A63.88,63.88,0,0,1,151.15,80L148.37,79a43.67,43.67,0,0,0,3.42-8.92c.14-.52.28-1.08.42-1.64-.46,0-.9,0-1.3,0-1,0-1.7,0-2.4-.08l-.06-2.49a19.5,19.5,0,0,0,2.5.16c.58,0,1.16,0,1.76-.06q.12-.66.18-1.14a10.28,10.28,0,0,0,.08-2l3,.24c-.14.54-.32,1.42-.42,1.86l-.16.76c1.12-.18,2.24-.4,3.32-.66Zm-.4,6.51a6.85,6.85,0,0,0-.28,1.66c0,.86.5,1.5,2.62,1.5a23,23,0,0,0,4.12-.4l-.1,2.54a31.69,31.69,0,0,1-4,.28c-3.34,0-5-1.16-5-3.16a13.59,13.59,0,0,1,.34-2.64Zm-1.16-5c1.1-.1,2.52-.2,3.8-.2a34.39,34.39,0,0,1,3.48.18l-.06,2.38a28.61,28.61,0,0,0-3.4-.24,29.1,29.1,0,0,0-3.82.22Z" transform="translate(-0.14)"/><path class="cls-28" d="M171.51,67.2c0,1.29,0,2.79.12,4.21.28,2.86.88,4.8,2.12,4.8.94,0,1.72-2.32,2.1-3.88l2,2.4c-1.32,3.44-2.56,4.66-4.16,4.66-2.16,0-4.06-2-4.62-7.28-.18-1.82-.22-4.13-.22-5.35a11.48,11.48,0,0,0-.14-2l3,0A15.69,15.69,0,0,0,171.51,67.2Zm13.76,8.15-2.62,1c-.3-3.18-1.36-7.84-3.52-10.29l2.52-.84C183.53,67.52,185.05,72.31,185.27,75.35Z" transform="translate(-0.14)"/><path class="cls-28" d="M202.35,70.27A7.37,7.37,0,0,1,204.27,75c0,3-2.68,5.14-7,5.14-3.12,0-5.32-1.36-5.32-4.66,0-.48.06-1.18.14-2a22.21,22.21,0,0,1-3.8-.66l.14-2.4a16.86,16.86,0,0,0,3.9.78c.12-.88.22-1.8.34-2.7a24.73,24.73,0,0,1-3.94-.71l.14-2.3a18.36,18.36,0,0,0,4.06.74c.08-.6.12-1.14.16-1.58a12.47,12.47,0,0,0,0-1.76l2.78.16c-.16.72-.26,1.24-.34,1.76-.06.34-.12.86-.22,1.5A29.07,29.07,0,0,0,199,66.1l-.08,2.37a35.49,35.49,0,0,1-3.86.18c-.12.88-.24,1.82-.34,2.7h.14a39.29,39.29,0,0,0,4-.24l-.06,2.36c-1.12.1-2.28.18-3.5.18h-.8c0,.58-.08,1.08-.08,1.44,0,1.62,1,2.52,3,2.52,2.76,0,4.28-1.26,4.28-2.9a5.5,5.5,0,0,0-2-3.84Z" transform="translate(-0.14)"/><path class="cls-28" d="M215.93,77.53c.76-.1,1.32-.2,1.84-.32a5.36,5.36,0,0,0,4.5-5.3c0-2.74-1.48-4.79-4.14-5.25A42.79,42.79,0,0,1,217,72.05c-1.18,4-2.9,6.44-5.06,6.44s-4-2.42-4-5.76c0-4.56,4-8.49,9.12-8.49,4.9,0,8,3.42,8,7.75,0,4.16-2.56,7.12-7.56,7.88Zm-1.54-6a31.65,31.65,0,0,0,1.06-4.81,6.22,6.22,0,0,0-5,5.75c0,2,.8,3,1.54,3S213.59,74.21,214.39,71.53Z" transform="translate(-0.14)"/><path class="cls-28" d="M235.93,77.53c.76-.1,1.32-.2,1.84-.32a5.36,5.36,0,0,0,4.5-5.3c0-2.74-1.48-4.79-4.14-5.25A42.79,42.79,0,0,1,237,72.05c-1.18,4-2.9,6.44-5.06,6.44s-4-2.42-4-5.76c0-4.56,4-8.49,9.12-8.49,4.9,0,8,3.42,8,7.75,0,4.16-2.56,7.12-7.56,7.88Zm-1.54-6a31.65,31.65,0,0,0,1.06-4.81,6.22,6.22,0,0,0-5,5.75c0,2,.8,3,1.54,3S233.59,74.21,234.39,71.53Z" transform="translate(-0.14)"/><path class="cls-28" d="M251.61,80.43a37.54,37.54,0,0,0-4.3-4.42l2.08-1.8a37.49,37.49,0,0,1,4.36,4.38Z" transform="translate(-0.14)"/><path class="cls-28" d="M113.73,92.8a32.67,32.67,0,0,1-1.64,3.66v14.27h-2.38V100.27a20.74,20.74,0,0,1-1.4,1.68A15.42,15.42,0,0,0,107,99.47a20.71,20.71,0,0,0,4.46-7.39Zm12.14,3.3h-1.2V108c0,1.38-.3,2-1.16,2.4a11.6,11.6,0,0,1-4.06.44,8.94,8.94,0,0,0-.8-2.44c1.3.06,2.7.06,3.1.06s.52-.12.52-.5V96.1h-8.72V93.82h12.32ZM116,105.51v1.3h-2.22V98.27h6.66v7.24Zm0-5.18v3.12h2.22v-3.12Z" transform="translate(-0.14)"/><path class="cls-28" d="M135.75,93.3c-.12.52-.26,1.14-.36,1.64s-.26,1.32-.4,2c.66,0,1.26-.08,1.66-.08,2.1,0,3.58.95,3.58,3.79,0,2.34-.28,5.5-1.12,7.22a3.18,3.18,0,0,1-3.26,1.82,11.06,11.06,0,0,1-2.36-.28l-.44-2.62a11.4,11.4,0,0,0,2.42.42,1.44,1.44,0,0,0,1.48-.86,14.65,14.65,0,0,0,.82-5.42c0-1.58-.68-1.8-1.94-1.8-.32,0-.8,0-1.36.08-.76,3-2.2,7.66-4,10.58l-2.6-1a29.44,29.44,0,0,0,4-9.26c-.7.08-1.32.16-1.7.22-.56.06-1.58.2-2.2.3l-.22-2.69a18.39,18.39,0,0,0,2.1,0c.62,0,1.56-.08,2.56-.16a21.93,21.93,0,0,0,.42-4.2Zm6.84,1.86a35.77,35.77,0,0,1,3.46,7.37l-2.5,1.18a23,23,0,0,0-3.36-7.55Z" transform="translate(-0.14)"/><path class="cls-28" d="M152.61,101.61a9.71,9.71,0,0,1,5.82-1.88c3.48,0,5.5,2.14,5.5,4.54,0,3.62-2.86,6.4-11.1,5.68l-.76-2.6c5.94.84,9.08-.62,9.08-3.14,0-1.28-1.22-2.22-3-2.22a6.94,6.94,0,0,0-5.46,2.32,4.29,4.29,0,0,0-.74,1.16l-2.3-.58a72,72,0,0,0,1-8.27l2.68.36C153.09,98.09,152.75,100.47,152.61,101.61Zm.62-8.61a62.7,62.7,0,0,0,7.92,1.54l-.6,2.44c-2-.26-6.42-1.18-8-1.58Z" transform="translate(-0.14)"/><path class="cls-28" d="M185.67,104.67h-7.9v3.26c0,1.42-.36,2-1.3,2.42a13.6,13.6,0,0,1-4.44.4,9.23,9.23,0,0,0-1-2.36c1.48.06,3.16.06,3.6.06s.64-.16.64-.56v-3.22h-7.9v-2.32h7.9V100h-6.54V97.72h6.54V95.38c-2.08.18-4.18.3-6.14.38a8,8,0,0,0-.6-2.1,74.27,74.27,0,0,0,13.58-1.6l1.72,2a47.12,47.12,0,0,1-6.08,1.06v2.62h6.72V100h-6.72v2.34h7.9Z" transform="translate(-0.14)"/><path class="cls-28" d="M196.59,106.17c0-.58.06-1.5.08-2.36-1.46.8-2.26,1.58-2.26,2.56s.94,1.4,2.88,1.4a30.29,30.29,0,0,0,5.62-.58l-.08,2.58a54.8,54.8,0,0,1-5.6.32c-3.1,0-5.44-.74-5.44-3.3s2.4-4.12,4.66-5.28a1.55,1.55,0,0,0-1.38-.68,4.9,4.9,0,0,0-3.1,1.36,25.37,25.37,0,0,0-1.84,2.18L188,102.79a19.36,19.36,0,0,0,4.36-5.44h-.24c-.8,0-2.26,0-3.34-.15V94.88a25.41,25.41,0,0,0,3.48.22h1a11,11,0,0,0,.4-2.26l2.6.22c-.1.48-.24,1.16-.48,2a45.74,45.74,0,0,0,5.6-.58l0,2.32a61.69,61.69,0,0,1-6.46.52,11.8,11.8,0,0,1-1.14,2,6.2,6.2,0,0,1,2.24-.4,2.7,2.7,0,0,1,2.64,1.54c1-.48,1.86-.82,2.68-1.18s1.46-.68,2.18-1l1,2.3a21,21,0,0,0-2.36.84c-.88.34-2,.78-3.22,1.34,0,1.1.06,2.56.08,3.46Z" transform="translate(-0.14)"/><path class="cls-28" d="M210.11,97.48c1.54-.46,5.56-1.88,8.46-1.88,3.58,0,6.4,2.07,6.4,5.73,0,4.48-4.28,7.36-11.26,7.72l-1.14-2.64c5.36-.12,9.56-1.68,9.56-5.12,0-1.86-1.28-3.29-3.66-3.29-2.92,0-7.6,2-9.66,2.89l-1.12-2.8A21.43,21.43,0,0,0,210.11,97.48Z" transform="translate(-0.14)"/><path class="cls-28" d="M232.17,93.54a15.31,15.31,0,0,0-.46,1.6c-.48,2.21-1.18,6.35-.66,8.81.26-.6.6-1.56.92-2.28l1.26.78a49.7,49.7,0,0,0-1.34,4.84,4.63,4.63,0,0,0-.14,1c0,.2,0,.54.06.82l-2.22.22a22.08,22.08,0,0,1-1.14-6.42,52,52,0,0,1,.66-7.91,10.38,10.38,0,0,0,.12-1.72Zm12.7,5.77c-.8.1-1.82.18-2.94.24v.82c0,4.68-.36,7.54-4.3,10.06l-2.3-1.8a7.7,7.7,0,0,0,2.32-1.58c1.52-1.58,1.84-3.34,1.84-6.68v-.72c-.74,0-1.5,0-2.22,0s-2.08-.06-3.06-.1V97.06a20.8,20.8,0,0,0,3,.2c.72,0,1.48,0,2.24,0,0-1.1-.06-2.12-.1-2.66a8.79,8.79,0,0,0-.22-1.36H242a10.07,10.07,0,0,0-.1,1.34c0,.44,0,1.46,0,2.54a25.91,25.91,0,0,0,3-.36Z" transform="translate(-0.14)"/><path class="cls-28" d="M250,95.22c1.64-.16,4.92-.44,8.54-.76,2-.16,4.22-.28,5.6-.34l0,2.56a20.45,20.45,0,0,0-3.82.26,6.06,6.06,0,0,0-4.18,5.55c0,3.26,3.06,4.42,6.4,4.6l-.92,2.74c-4.16-.28-8.08-2.52-8.08-6.8a8,8,0,0,1,2.92-6.11c-1.7.18-5.88.63-8.18,1.13L248,95.32C248.81,95.3,249.57,95.26,250,95.22Z" transform="translate(-0.14)"/><path class="cls-28" d="M125,133.79a37.16,37.16,0,0,1-4.48,2.9,13.16,13.16,0,0,0,5.36,2,9.07,9.07,0,0,0-1.5,2.16c-5-1-7.74-3.54-9.42-7.76h-2.54v4.58c1.48-.2,3.06-.44,4.58-.7l.14,2.22c-3,.54-6.3,1-8.7,1.42l-.58-2.32c.64-.08,1.34-.16,2.12-.28V124h5.18V122h2.46V124h5.84v8.63ZM112.41,126v1.48H121V126Zm0,5H121v-1.58h-8.58Zm5,2.08a8.79,8.79,0,0,0,1.52,2.26,30.12,30.12,0,0,0,3.3-2.26Z" transform="translate(-0.14)"/><path class="cls-28" d="M131.51,127.2c0,1.29,0,2.79.12,4.21.28,2.86.88,4.8,2.12,4.8.94,0,1.72-2.32,2.1-3.88l2,2.4c-1.32,3.44-2.56,4.66-4.16,4.66-2.16,0-4.06-2-4.62-7.28-.18-1.82-.22-4.12-.22-5.35a11.48,11.48,0,0,0-.14-2l3,0A15.69,15.69,0,0,0,131.51,127.2Zm13.76,8.15-2.62,1c-.3-3.18-1.36-7.84-3.52-10.29l2.52-.84C143.53,127.52,145.05,132.31,145.27,135.35Z" transform="translate(-0.14)"/><path class="cls-28" d="M155.75,123.3c-.12.52-.26,1.14-.36,1.64s-.26,1.32-.4,2c.66,0,1.26-.08,1.66-.08,2.1,0,3.58.95,3.58,3.79,0,2.34-.28,5.5-1.12,7.22a3.18,3.18,0,0,1-3.26,1.82,11.06,11.06,0,0,1-2.36-.28l-.44-2.62a11.4,11.4,0,0,0,2.42.42,1.44,1.44,0,0,0,1.48-.86,14.65,14.65,0,0,0,.82-5.42c0-1.58-.68-1.8-1.94-1.8-.32,0-.8,0-1.36.08-.76,3-2.2,7.66-4,10.58l-2.6-1a29.44,29.44,0,0,0,4-9.26c-.7.08-1.32.16-1.7.22-.56.06-1.58.2-2.2.3l-.22-2.69a18.39,18.39,0,0,0,2.1,0c.62,0,1.56-.08,2.56-.16a21.93,21.93,0,0,0,.42-4.2Zm6.84,1.86a35.77,35.77,0,0,1,3.46,7.37l-2.5,1.18a23,23,0,0,0-3.36-7.55Z" transform="translate(-0.14)"/><path class="cls-28" d="M175.11,126.74c-.26.34-.68,1-1,1.51,0,.2,0,.38,0,.58a9.68,9.68,0,0,1,5.82-2.07,5.24,5.24,0,0,1,5.46,5.35c0,4-2.5,6.4-7.42,7.38l-1.18-2.4c3.48-.54,6-1.94,6-5a3,3,0,0,0-3.22-2.94,8.29,8.29,0,0,0-5.62,2.54c0,.56,0,1.12,0,1.64,0,1.62,0,3.28.12,5.14,0,.36.1,1.08.14,1.52h-2.72c0-.42.06-1.14.06-1.46,0-1.54,0-2.68.08-4.36-.84,1.26-1.82,2.7-2.5,3.66l-1.56-2.2c1.12-1.36,3.12-4,4.24-5.66l.08-1.38-3.6.46-.24-2.55a16.84,16.84,0,0,0,1.72,0c.58,0,1.44-.14,2.28-.26,0-.74.08-1.3.08-1.52a10.56,10.56,0,0,0-.08-1.76l2.9.08c-.12.56-.28,1.58-.44,2.82Z" transform="translate(-0.14)"/><path class="cls-28" d="M195.75,123.3c-.12.52-.26,1.14-.36,1.64s-.26,1.32-.4,2c.66,0,1.26-.08,1.66-.08,2.1,0,3.58.95,3.58,3.79,0,2.34-.28,5.5-1.12,7.22a3.18,3.18,0,0,1-3.26,1.82,11.06,11.06,0,0,1-2.36-.28l-.44-2.62a11.4,11.4,0,0,0,2.42.42,1.44,1.44,0,0,0,1.48-.86,14.65,14.65,0,0,0,.82-5.42c0-1.58-.68-1.8-1.94-1.8-.32,0-.8,0-1.36.08-.76,3-2.2,7.66-4,10.58l-2.6-1a29.44,29.44,0,0,0,4-9.26c-.7.08-1.32.16-1.7.22-.56.06-1.58.2-2.2.3l-.22-2.69a18.39,18.39,0,0,0,2.1,0c.62,0,1.56-.08,2.56-.16a21.93,21.93,0,0,0,.42-4.2Zm6.84,1.86a35.77,35.77,0,0,1,3.46,7.37l-2.5,1.18a23,23,0,0,0-3.36-7.55Z" transform="translate(-0.14)"/><path class="cls-28" d="M212.61,131.61a9.71,9.71,0,0,1,5.82-1.88c3.48,0,5.5,2.14,5.5,4.54,0,3.62-2.86,6.4-11.1,5.68l-.76-2.6c5.94.84,9.08-.62,9.08-3.14,0-1.28-1.22-2.22-3-2.22a6.94,6.94,0,0,0-5.46,2.32,4.29,4.29,0,0,0-.74,1.16l-2.3-.58a72,72,0,0,0,1-8.27l2.68.36C213.09,128.09,212.75,130.47,212.61,131.61Zm.62-8.61a62.7,62.7,0,0,0,7.92,1.54l-.6,2.44c-2-.26-6.42-1.18-8-1.58Z" transform="translate(-0.14)"/><path class="cls-28" d="M238,127.38a27,27,0,0,1-3.44.69,36.56,36.56,0,0,1-4.24,8.48l-2.42-1.22a30.22,30.22,0,0,0,4-7c-.34,0-.68,0-1,0-.82,0-1.62,0-2.48-.06l-.18-2.33a25.18,25.18,0,0,0,2.64.14c.58,0,1.18,0,1.78-.06a16.86,16.86,0,0,0,.54-3.32L236,123c-.16.64-.4,1.64-.68,2.7a20.92,20.92,0,0,0,2.66-.62Zm2.6,1.79c-.06.84,0,1.66,0,2.54,0,.56.06,1.52.12,2.5a13.19,13.19,0,0,1,4.1,2.54l-1.32,2.12a17.63,17.63,0,0,0-2.68-2.1V137c0,1.84-1,3.28-3.82,3.28-2.46,0-4.4-1.1-4.4-3.28,0-1.94,1.62-3.44,4.38-3.44.46,0,.92,0,1.34.08-.06-1.48-.16-3.22-.22-4.42Zm-2.18,6.56a7,7,0,0,0-1.6-.2c-1.14,0-1.88.48-1.88,1.18s.62,1.24,1.7,1.24c1.34,0,1.78-.78,1.78-1.84Zm5.58-5.5a26.45,26.45,0,0,0-4.76-2.83l1.28-2a34.6,34.6,0,0,1,4.88,2.69Z" transform="translate(-0.14)"/><path class="cls-28" d="M251.51,127.2c0,1.29,0,2.79.12,4.21.28,2.86.88,4.8,2.12,4.8.94,0,1.72-2.32,2.1-3.88l2,2.4c-1.32,3.44-2.56,4.66-4.16,4.66-2.16,0-4.06-2-4.62-7.28-.18-1.82-.22-4.12-.22-5.35a11.48,11.48,0,0,0-.14-2l3,0A15.69,15.69,0,0,0,251.51,127.2Zm13.76,8.15-2.62,1c-.3-3.18-1.36-7.84-3.52-10.29l2.52-.84C263.53,127.52,265.05,132.31,265.27,135.35Z" transform="translate(-0.14)"/><path class="cls-28" d="M268.45,137.41a1.83,1.83,0,1,1,1.84,1.92A1.84,1.84,0,0,1,268.45,137.41Zm7.58,0a1.83,1.83,0,1,1,1.82,1.92A1.84,1.84,0,0,1,276,137.41Zm7.58,0a1.83,1.83,0,1,1,1.82,1.92A1.84,1.84,0,0,1,283.61,137.41Z" transform="translate(-0.14)"/><path class="cls-28" d="M296.31,137.33a3.23,3.23,0,1,1-3.24-3.24A3.24,3.24,0,0,1,296.31,137.33Zm-1.44,0a1.79,1.79,0,1,0-1.8,1.78A1.79,1.79,0,0,0,294.87,137.33Z" transform="translate(-0.14)"/><path class="cls-27" d="M47.14,220.5v-22a8,8,0,0,1,8-8h264a8,8,0,0,1,8,8v154a8,8,0,0,1-8,8h-264a8,8,0,0,1-8-8v-22" transform="translate(-0.14)"/><path class="cls-28" d="M124,237h-2.08v3.48h-2.42v-.82h-3.6v.62c0,1.18-.28,1.66-1.06,2a10.53,10.53,0,0,1-3.54.34,7.33,7.33,0,0,0-.78-1.88c1,0,2.14,0,2.46,0s.5-.14.5-.5v-.62h-6.08V238h6.08V237h-7.92V235.2h7.92v-.86h-5.92v-1.6h5.92v-.88H108v-4h5.42v-.82H106V225.2h7.46v-1.3h2.42v1.3h7.64v1.88h-7.64v.82h5.68v4h-5.68v.88h6v2.46H124Zm-10.52-6.66v-1H110.3v1Zm2.42-1v1h3.24v-1Zm0,5.8h3.6v-.86h-3.6Zm3.6,1.82h-3.6V238h3.6Z" transform="translate(-0.14)"/><path class="cls-28" d="M137.84,238a17.87,17.87,0,0,0,6.34,2.18,11.19,11.19,0,0,0-1.6,2.16,17.07,17.07,0,0,1-6.72-3.38v3.6h-2.34V239.1a19,19,0,0,1-6.7,3.24,11.09,11.09,0,0,0-1.52-2,21,21,0,0,0,6.32-2.34h-5.74v-2h7.64v-.88h-5.76v-1.72h5.76v-.9h-6.76V230.7h3.8a9,9,0,0,0-.68-1.56l.24,0h-4.18v-1.94h2.68a17.93,17.93,0,0,0-1.24-2.48l2-.7a15.13,15.13,0,0,1,1.52,2.82l-1,.36h1.82V223.9H134v3.26h1.48V223.9h2.24v3.26h1.78l-.72-.22A16.11,16.11,0,0,0,140,224l2.5.6c-.56.92-1.1,1.82-1.56,2.52h2.6v1.94h-3.76c-.32.58-.64,1.12-.94,1.6h3.92v1.86h-6.94v.9h6v1.72h-6v.88h7.78v2Zm-5.44-8.92a9.85,9.85,0,0,1,.68,1.54l-.34.06h3.74c.24-.48.48-1.06.7-1.6Z" transform="translate(-0.14)"/><path class="cls-28" d="M151.5,229.68c-.72,5.1-2.4,9.22-4.64,11.38a8.76,8.76,0,0,0-1.72-1.82c1.8-1.62,3.1-4.48,3.76-7.86h-3.08v-2.14h3.8l.4-.1Zm4.32,7.26h3.58v2h-3.58V240c0,1.26-.26,1.84-1.1,2.2a10.37,10.37,0,0,1-3.74.4,9.07,9.07,0,0,0-.86-2.24c1.18.06,2.46.06,2.82.06s.5-.12.5-.46V238.9H150v-2h3.46v-1.28H151v-1.88h2.46V232.5h-2v-1.86h2v-2.26h1.24a16.52,16.52,0,0,0,2-1.28H148.5v-2.16h10.56l.5-.1,1.6,1.16a18.73,18.73,0,0,1-5.34,4v.66h2.12v1.86h-2.12v1.28h2.6v1.88h-2.6Zm8.2-6.38c-.92,1.1-2,2.36-2.92,3.3a11,11,0,0,0,3.18,5.22,8.63,8.63,0,0,0-1.76,2c-2.72-2.54-4-6.94-4.66-12l2.1-.34q.21,1.41.48,2.76a18,18,0,0,0,1.7-2.42Z" transform="translate(-0.14)"/><path class="cls-28" d="M167.9,235.9a17.51,17.51,0,0,1-1.2,5.14,10.62,10.62,0,0,0-1.66-.8,14.58,14.58,0,0,0,1-4.64Zm16.18,5.78h-9v.84h-2.22v-7.8l-1.5.66a11.16,11.16,0,0,0-.26-1.14l-1,.08v8.26h-2v-8.1l-2.64.2-.24-2.06,1.58-.08c.26-.36.54-.76.8-1.16a17,17,0,0,0-2.32-2.9l1.14-1.54c.16.14.32.3.48.46a24.74,24.74,0,0,0,1.44-3.48l2,.7c-.72,1.38-1.54,3-2.24,4.08a10.3,10.3,0,0,1,.64.82c.66-1.12,1.26-2.28,1.72-3.26l1.88.86c-.74,1.22-1.6,2.56-2.48,3.82l1.56-.64a20.82,20.82,0,0,1,1.44,3.64v-9.28h2.22v11.56a12.8,12.8,0,0,0,2.8-4h-2.4V230.1h3v-5.8h2.06v5.8h3.14v2.12h-3.14v.3c.86.74,2.92,2.82,3.4,3.34l-1.4,1.84a31.31,31.31,0,0,0-2-2.76v4.3h-2.06V235A12.64,12.64,0,0,1,176,238.5a11.64,11.64,0,0,0-.94-2.12v3.14h9Zm-13.6-9.36a12.46,12.46,0,0,0-.6-1.38c-.36.52-.7,1-1.06,1.48Zm1.28,3.2a14.28,14.28,0,0,1,1,3.6l-1.66.54a14.78,14.78,0,0,0-.92-3.68Zm4.78-5.66A17.69,17.69,0,0,0,175.4,226l1.68-.58a15.94,15.94,0,0,1,1.26,3.8Zm7.26-4c-.56,1.4-1.18,3-1.68,4l-1.58-.56a25.52,25.52,0,0,0,1.22-4.1Z" transform="translate(-0.14)"/><path class="cls-28" d="M194.14,239.32c.76-.1,1.32-.2,1.84-.32a5.36,5.36,0,0,0,4.5-5.3c0-2.74-1.48-4.78-4.14-5.24a43,43,0,0,1-1.18,5.38c-1.18,4-2.9,6.44-5.06,6.44s-4-2.42-4-5.76c0-4.56,4-8.48,9.12-8.48,4.9,0,8,3.42,8,7.74,0,4.16-2.56,7.12-7.56,7.88Zm-1.54-6a31.79,31.79,0,0,0,1.06-4.8,6.21,6.21,0,0,0-5,5.74c0,2,.8,3,1.54,3S191.8,236,192.6,233.32Z" transform="translate(-0.14)"/><path class="cls-28" d="M212.3,238.58c-2.2.78-4.6,1.54-6.52,2.16l-.54-2.42c.7-.18,1.52-.4,2.44-.66V233h-2v-2.18h2v-3.52h-2.2V225h6.6v2.22h-2.14v3.52h1.8V233h-1.8v4c.66-.2,1.32-.4,2-.62Zm11.88,1.22V242H211.32V239.8h5.52v-1.9H212.7v-2.14h4.14V234h-4v-9.3h10.44V234h-4v1.72h4.24v2.14h-4.24v1.9ZM215,228.42H217v-1.66H215Zm0,3.6H217V230.3H215Zm6-5.26h-2v1.66h2Zm0,3.54h-2V232h2Z" transform="translate(-0.14)"/><path class="cls-28" d="M234.54,229.9a13.6,13.6,0,0,1-1.68,1.2,11.2,11.2,0,0,0-1.14-1.94l.14-.08h-6.48V227.2h7.08v1.5a15.23,15.23,0,0,0,4.36-4.78H239a15.35,15.35,0,0,0,5.38,5,12,12,0,0,0-1.26,2.08,13,13,0,0,1-1.58-1.14v1.34h-7Zm-2.7,11.6h-3.7v.8H226.2v-6.82h5.64Zm0-9.7h-5.54V230h5.54Zm-5.54.92h5.54v1.78h-5.54Zm5.5-6.4h-5.38v-1.8h5.38Zm-3.62,11v2.3h1.76v-2.3Zm15,3.16c0,.84-.12,1.34-.62,1.66a3.52,3.52,0,0,1-1.9.34,6.83,6.83,0,0,0-.56-1.82c.36,0,.7,0,.84,0s.2-.06.2-.22v-2.16h-1.06v4h-1.56v-4h-1v4H236v-4h-1v4.14h-2V232.38h10.16Zm-7.22-4v-2.2h-1v2.2Zm4.84-7.22A19.44,19.44,0,0,1,238,226a15.8,15.8,0,0,1-2.68,3.2Zm-2.28,7.22v-2.2h-1v2.2Zm2.62,0v-2.2h-1.06v2.2Z" transform="translate(-0.14)"/><path class="cls-28" d="M250.44,225.46a16.65,16.65,0,0,0-.48,1.76,52.38,52.38,0,0,0-.94,7.66,9.17,9.17,0,0,0,.08,1.28c.26-.7.58-1.36.88-2l1.22,1a47.25,47.25,0,0,0-1.42,4.72,3.91,3.91,0,0,0-.1.92c0,.2,0,.54,0,.82l-2.24.16a23.89,23.89,0,0,1-.78-6.32,58.7,58.7,0,0,1,.82-8.26,14.86,14.86,0,0,0,.18-1.94ZM262.6,240.4a20.2,20.2,0,0,0-2.4-2c-.12,1.88-1.2,3.24-3.88,3.24s-4.44-1.16-4.44-3.24,1.7-3.4,4.4-3.4a8.9,8.9,0,0,1,1.3.08c-.06-1.22-.12-2.66-.14-4.06-.48,0-1,0-1.42,0-1.16,0-2.28,0-3.46-.12v-2.36a32.84,32.84,0,0,0,3.46.18c.46,0,.94,0,1.4,0,0-1,0-1.78,0-2.2a11.21,11.21,0,0,0-.12-1.3h2.84a12.65,12.65,0,0,0-.12,1.28c0,.44-.06,1.18-.06,2.06,1.08-.12,2.12-.26,3.06-.46v2.46c-1,.14-2,.26-3.08.34,0,1.92.14,3.5.22,4.84a12.57,12.57,0,0,1,3.82,2.56Zm-4.92-3.22a6.17,6.17,0,0,0-1.6-.22c-1.12,0-1.88.46-1.88,1.2s.8,1.16,1.84,1.16c1.22,0,1.64-.64,1.64-1.8Z" transform="translate(-0.14)"/><path class="cls-28" d="M118.46,254.12a23,23,0,0,0,5.94,7.12,11.39,11.39,0,0,0-2,2.14c-.42-.38-.84-.82-1.28-1.28v.14c-.22,6-.46,8.4-1.16,9.24a2.41,2.41,0,0,1-1.82.94,20,20,0,0,1-3,.06,5.75,5.75,0,0,0-.78-2.4c1.1.08,2.14.1,2.64.1a.93.93,0,0,0,.8-.28c.4-.42.62-2.2.8-6.38h-3.94c-.5,3.84-1.8,7.26-7,9.2a8,8,0,0,0-1.58-2.2c4.52-1.46,5.56-4.08,6-7h-3.38v-1.4a15.07,15.07,0,0,1-1.6,1.44,14.3,14.3,0,0,0-2-1.92,16.58,16.58,0,0,0,5.9-7.48l2.56.74a24,24,0,0,1-4,6.3h10.8a34,34,0,0,1-4.18-6.14Z" transform="translate(-0.14)"/><path class="cls-28" d="M134,255.1c-.12.52-.26,1.14-.36,1.64s-.26,1.32-.4,2c.66,0,1.26-.08,1.66-.08,2.1,0,3.58.94,3.58,3.78,0,2.34-.28,5.5-1.12,7.22a3.18,3.18,0,0,1-3.26,1.82,11.06,11.06,0,0,1-2.36-.28l-.44-2.62a11.4,11.4,0,0,0,2.42.42,1.44,1.44,0,0,0,1.48-.86,14.65,14.65,0,0,0,.82-5.42c0-1.58-.68-1.8-1.94-1.8-.32,0-.8,0-1.36.08-.76,3-2.2,7.66-4,10.58l-2.6-1a29.44,29.44,0,0,0,4-9.26c-.7.08-1.32.16-1.7.22-.56.06-1.58.2-2.2.3l-.22-2.68a18.39,18.39,0,0,0,2.1,0c.62,0,1.56-.08,2.56-.16a21.93,21.93,0,0,0,.42-4.2ZM140.8,257a35.7,35.7,0,0,1,3.46,7.36l-2.5,1.18A22.87,22.87,0,0,0,138.4,258Z" transform="translate(-0.14)"/><path class="cls-28" d="M149.76,261.82c1.34-.4,4.7-1.54,7.1-1.54,3.12,0,5.22,1.86,5.22,4.86,0,3.58-3.14,6-9.44,6.42l-1-2.46c4.5-.12,7.86-1.3,7.86-4a2.55,2.55,0,0,0-2.84-2.52c-2.3,0-6.24,1.64-7.94,2.36l-1-2.6A16.92,16.92,0,0,0,149.76,261.82Z" transform="translate(-0.14)"/><path class="cls-28" d="M168.18,257c1.64-.16,4.92-.44,8.54-.76,2-.16,4.22-.28,5.6-.34l0,2.56a20.45,20.45,0,0,0-3.82.26,6,6,0,0,0-4.18,5.54c0,3.26,3.06,4.42,6.4,4.6l-.92,2.74c-4.16-.28-8.08-2.52-8.08-6.8a7.92,7.92,0,0,1,2.92-6.1c-1.7.18-5.88.62-8.18,1.12l-.24-2.72C167,257.1,167.78,257.06,168.18,257Z" transform="translate(-0.14)"/><path class="cls-28" d="M189.72,259c0,1.28,0,2.78.12,4.2.28,2.86.88,4.8,2.12,4.8.94,0,1.72-2.32,2.1-3.88l2,2.4c-1.32,3.44-2.56,4.66-4.16,4.66-2.16,0-4.06-2-4.62-7.28-.18-1.82-.22-4.12-.22-5.34a11.48,11.48,0,0,0-.14-2l3,0A15.69,15.69,0,0,0,189.72,259Zm13.76,8.14-2.62,1c-.3-3.18-1.36-7.84-3.52-10.28l2.52-.84C201.74,259.32,203.26,264.1,203.48,267.14Z" transform="translate(-0.14)"/><path class="cls-28" d="M220.18,257.12q-.72.45-1.38.9c-1.06.74-3.14,2.5-4.38,3.5a6.66,6.66,0,0,1,1.86-.22c3.36,0,5.92,2.1,5.92,5,0,3.12-2.38,5.6-7.16,5.6-2.76,0-4.84-1.26-4.84-3.24a3.33,3.33,0,0,1,3.56-3.08,4,4,0,0,1,4.22,3.38,2.89,2.89,0,0,0,1.62-2.7c0-1.78-1.8-3-4.1-3-3,0-5,1.62-7.14,4l-1.8-1.86c1.4-1.14,3.78-3.16,5-4.12s3.16-2.58,4.14-3.44c-1,0-3.74.14-4.78.22a13.07,13.07,0,0,0-1.62.16l-.08-2.58c.56.06,1.24.1,1.8.1,1,0,5.28-.1,6.4-.2a9.55,9.55,0,0,0,1.52-.2Zm-4.48,12.46c-.12-1.28-.86-2.12-1.94-2.12-.74,0-1.22.44-1.22.94,0,.74.84,1.24,2,1.24A10.44,10.44,0,0,0,215.7,269.58Z" transform="translate(-0.14)"/><path class="cls-28" d="M233.82,255.24c-.12.52-.24,1.14-.34,1.64s-.28,1.32-.42,2c.66,0,1.26-.08,1.66-.08,2.1,0,3.58.94,3.58,3.78,0,2.34-.28,5.5-1.12,7.22a3.16,3.16,0,0,1-3.26,1.82,11.21,11.21,0,0,1-2.36-.28l-.44-2.62a11.56,11.56,0,0,0,2.44.42,1.46,1.46,0,0,0,1.48-.86,15.12,15.12,0,0,0,.8-5.42c0-1.58-.68-1.8-1.92-1.8-.32,0-.8,0-1.36.08-.78,3-2.22,7.66-4,10.58l-2.58-1a29.38,29.38,0,0,0,4-9.26c-.7.08-1.32.16-1.7.22-.56.06-1.58.2-2.2.3l-.22-2.68a18.39,18.39,0,0,0,2.1,0c.62,0,1.56-.08,2.56-.16a21.93,21.93,0,0,0,.42-4.2Zm7.1,2.36a39.35,39.35,0,0,1,3.22,6.9l-2.52,1.18a22.43,22.43,0,0,0-3.34-7.46l1.84-.78a22.11,22.11,0,0,0-1.36-2.36l1.58-.66c.5.74,1.2,2,1.6,2.74Zm1.82-.66a20,20,0,0,0-1.62-2.76l1.58-.66a23.67,23.67,0,0,1,1.62,2.72Z" transform="translate(-0.14)"/><path class="cls-28" d="M249.82,272.22a37.54,37.54,0,0,0-4.3-4.42l2.08-1.8a37.49,37.49,0,0,1,4.36,4.38Z" transform="translate(-0.14)"/><path class="cls-28" d="M117,297.68c1.42,1.6,3.66,2.52,6.82,2.86a9.25,9.25,0,0,0-1.4,2.08c-3.8-.6-6.18-2-7.76-4.5-1.18,1.78-3.4,3.36-7.48,4.46a9.71,9.71,0,0,0-1.48-1.92c3.36-.76,5.28-1.8,6.38-3h-6v-2.06h7.18a9.17,9.17,0,0,0,.2-1.26h-5.12v-1.92h5.14v-1.2H108v-1.32h-1.78v-4.26h7.3v-1.74h2.44v1.74h7.32v4.26h-1.6v1.32H115.8v1.2h5.44v1.92h-5.46a6.79,6.79,0,0,1-.16,1.26h7.9v2.06Zm-3.54-8.36v-1.14h2.38v1.14h5v-1.58H108.54v1.58Z" transform="translate(-0.14)"/><path class="cls-28" d="M142.6,287.88a9.82,9.82,0,0,1-2,2.92,15.56,15.56,0,0,0,3.68,1.18,9.13,9.13,0,0,0-1.5,2,14.41,14.41,0,0,1-4.08-1.72,16,16,0,0,1-4.08,1.68,7.57,7.57,0,0,0-.56-.84,23.35,23.35,0,0,1-1,3.34l-1.6-.74a26.07,26.07,0,0,0,.64-2.76h-1.06v7c0,1.08-.16,1.72-.86,2.08a5.9,5.9,0,0,1-2.82.42,7.92,7.92,0,0,0-.68-2.26c.74,0,1.54,0,1.8,0s.32-.06.32-.3v-4.28a12.12,12.12,0,0,1-2.5,3.7,13.33,13.33,0,0,0-1.08-2.3,12.57,12.57,0,0,0,2.84-4.12h-2.5v-2.08h4.58a29,29,0,0,0-3.86-1.94l1.5-1.52c.48.18,1,.4,1.58.64a12.49,12.49,0,0,0,1.26-1.26h-4.8v-2h6.46l.36-.08,1.52,1a14.93,14.93,0,0,1-2.92,3.3,11.19,11.19,0,0,1,1.46.88l-1,1h1l.32-.1,1.44.48-.08.46a12.12,12.12,0,0,0,2.44-.92,11.31,11.31,0,0,1-1.42-1.66,11.91,11.91,0,0,1-.9.86,17.46,17.46,0,0,0-1.94-1.34,11.92,11.92,0,0,0,3.82-4.76l2.22.6a13.41,13.41,0,0,1-.74,1.4h5.9v2Zm.94,7.16s0,.62-.08.9c-.32,3.46-.68,5-1.26,5.64a2.2,2.2,0,0,1-1.46.7,15.28,15.28,0,0,1-2.24,0,5.16,5.16,0,0,0-.64-2.2,16.94,16.94,0,0,0,1.72.1.81.81,0,0,0,.64-.22c.28-.26.54-1.12.76-3h-2.32a8,8,0,0,1-5.26,5.56,6.73,6.73,0,0,0-1.38-1.84A6.41,6.41,0,0,0,136.2,297h-2.42v-2h2.92a16.7,16.7,0,0,0,.2-1.78h2.38c-.06.6-.12,1.2-.2,1.78ZM137,287.88a7.84,7.84,0,0,0,1.66,1.7,6.08,6.08,0,0,0,1.32-1.7Z" transform="translate(-0.14)"/><path class="cls-28" d="M153.82,285.24c-.12.52-.24,1.14-.34,1.64s-.28,1.32-.42,2c.66,0,1.26-.08,1.66-.08,2.1,0,3.58.94,3.58,3.78,0,2.34-.28,5.5-1.12,7.22a3.16,3.16,0,0,1-3.26,1.82,11.21,11.21,0,0,1-2.36-.28l-.44-2.62a11.56,11.56,0,0,0,2.44.42,1.46,1.46,0,0,0,1.48-.86,15.12,15.12,0,0,0,.8-5.42c0-1.58-.68-1.8-1.92-1.8-.32,0-.8,0-1.36.08-.78,3-2.22,7.66-4,10.58l-2.58-1a29.38,29.38,0,0,0,4-9.26c-.7.08-1.32.16-1.7.22-.56.06-1.58.2-2.2.3l-.22-2.68a18.39,18.39,0,0,0,2.1,0c.62,0,1.56-.08,2.56-.16a21.93,21.93,0,0,0,.42-4.2Zm7.1,2.36a39.35,39.35,0,0,1,3.22,6.9l-2.52,1.18a22.43,22.43,0,0,0-3.34-7.46l1.84-.78a22.11,22.11,0,0,0-1.36-2.36l1.58-.66c.5.74,1.2,2,1.6,2.74Zm1.82-.66a20,20,0,0,0-1.62-2.76l1.58-.66a23.67,23.67,0,0,1,1.62,2.72Z" transform="translate(-0.14)"/><path class="cls-28" d="M181.16,288.88a11.85,11.85,0,0,0,2.2-.14v2.66c-.44,0-1.14-.06-2.2-.06h-1.48V292c0,5-1.2,8-6,10.1l-2.14-2c3.86-1.34,5.56-3.08,5.56-8v-.76h-4.74v2.72c0,.88.06,1.7.08,2.1h-2.8a16.17,16.17,0,0,0,.12-2.1v-2.72H168c-1,0-1.72,0-2.16.08V288.7a13.22,13.22,0,0,0,2.16.18h1.7v-2a16.25,16.25,0,0,0-.12-1.8h2.84a12.32,12.32,0,0,0-.12,1.82v2h4.74v-2.1a13.2,13.2,0,0,0-.12-1.86h2.84a17.2,17.2,0,0,0-.12,1.86v2.1Z" transform="translate(-0.14)"/><path class="cls-28" d="M192,294.56l-2.44.92a40.4,40.4,0,0,0-1.82-4.62l2.4-.86C190.68,291,191.64,293.44,192,294.56Zm10.16-4.16c-.24.64-.36,1.06-.48,1.46a16.13,16.13,0,0,1-2.72,5.86,15.62,15.62,0,0,1-6.7,5l-2.1-2.14a11.8,11.8,0,0,0,9.18-11Zm-5.74,2.92-2.4.84a33.31,33.31,0,0,0-1.62-4.44l2.38-.78C195.2,289.8,196.18,292.4,196.46,293.32Z" transform="translate(-0.14)"/><path class="cls-28" d="M210.46,287l2.92.6c-.18.58-.4,1.56-.48,2a50,50,0,0,1-1.7,6,27.5,27.5,0,0,1-3,5.72l-2.8-1.18a24.1,24.1,0,0,0,3.12-5.56A28.82,28.82,0,0,0,210.46,287Zm5.08.6,2.66-.86c.82,1.56,2.2,4.62,2.94,6.56s1.78,5,2.34,7l-3,1a61.8,61.8,0,0,0-2.08-7.06A56,56,0,0,0,215.54,287.62Zm6.36-3.56a2.39,2.39,0,1,1-2.4,2.4A2.41,2.41,0,0,1,221.9,284.06Zm0,3.54a1.15,1.15,0,1,0-1.16-1.14A1.16,1.16,0,0,0,221.9,287.6Z" transform="translate(-0.14)"/><path class="cls-28" d="M231.56,285.5c0,.44-.06.88-.06,1.52v6.76c0,.5,0,1.28.06,1.74h-3c0-.38.1-1.16.1-1.76V287a13.6,13.6,0,0,0-.08-1.52Zm9.22-.18c0,.56-.08,1.2-.08,2v4c0,4.3-.84,6.14-2.32,7.78a11.62,11.62,0,0,1-4.86,2.9l-2.1-2.2a9.36,9.36,0,0,0,4.9-2.52c1.36-1.5,1.62-3,1.62-6.12v-3.8a14.11,14.11,0,0,0-.12-2Z" transform="translate(-0.14)"/><path class="cls-28" d="M113.32,318.54c-.26.34-.68,1-1,1.5,0,.2,0,.38,0,.58a9.66,9.66,0,0,1,5.82-2.06,5.23,5.23,0,0,1,5.46,5.34c0,4-2.5,6.4-7.42,7.38l-1.18-2.4c3.48-.54,6-1.94,6-5a3,3,0,0,0-3.22-2.94,8.29,8.29,0,0,0-5.62,2.54c0,.56,0,1.12,0,1.64,0,1.62,0,3.28.12,5.14,0,.36.1,1.08.14,1.52h-2.72c0-.42.06-1.14.06-1.46,0-1.54,0-2.68.08-4.36-.84,1.26-1.82,2.7-2.5,3.66l-1.56-2.2c1.12-1.36,3.12-4,4.24-5.66l.08-1.38-3.6.46-.24-2.54a16.84,16.84,0,0,0,1.72,0c.58,0,1.44-.14,2.28-.26,0-.74.08-1.3.08-1.52a10.56,10.56,0,0,0-.08-1.76l2.9.08c-.12.56-.28,1.58-.44,2.82Z" transform="translate(-0.14)"/><path class="cls-28" d="M134,315.1c-.12.52-.26,1.14-.36,1.64s-.26,1.32-.4,2c.66,0,1.26-.08,1.66-.08,2.1,0,3.58.94,3.58,3.78,0,2.34-.28,5.5-1.12,7.22a3.18,3.18,0,0,1-3.26,1.82,11.06,11.06,0,0,1-2.36-.28l-.44-2.62a11.4,11.4,0,0,0,2.42.42,1.44,1.44,0,0,0,1.48-.86,14.65,14.65,0,0,0,.82-5.42c0-1.58-.68-1.8-1.94-1.8-.32,0-.8,0-1.36.08-.76,3-2.2,7.66-4,10.58l-2.6-1a29.44,29.44,0,0,0,4-9.26c-.7.08-1.32.16-1.7.22-.56.06-1.58.2-2.2.3l-.22-2.68a18.39,18.39,0,0,0,2.1,0c.62,0,1.56-.08,2.56-.16a21.93,21.93,0,0,0,.42-4.2ZM140.8,317a35.7,35.7,0,0,1,3.46,7.36l-2.5,1.18A22.87,22.87,0,0,0,138.4,318Z" transform="translate(-0.14)"/><path class="cls-28" d="M150.82,323.4a9.71,9.71,0,0,1,5.82-1.88c3.48,0,5.5,2.14,5.5,4.54,0,3.62-2.86,6.4-11.1,5.68l-.76-2.6c5.94.84,9.08-.62,9.08-3.14,0-1.28-1.22-2.22-3-2.22a6.94,6.94,0,0,0-5.46,2.32,4.29,4.29,0,0,0-.74,1.16l-2.3-.58a72.12,72.12,0,0,0,1-8.26l2.68.36C151.3,319.88,151,322.26,150.82,323.4Zm.62-8.6a62.7,62.7,0,0,0,7.92,1.54l-.6,2.44c-2-.26-6.42-1.18-8-1.58Z" transform="translate(-0.14)"/><path class="cls-28" d="M176.2,319.18a29,29,0,0,1-3.44.68,36.56,36.56,0,0,1-4.24,8.48l-2.42-1.22a30.22,30.22,0,0,0,4-7c-.34,0-.68,0-1,0-.82,0-1.62,0-2.48-.06l-.18-2.32a25.18,25.18,0,0,0,2.64.14c.58,0,1.18,0,1.78-.06a16.86,16.86,0,0,0,.54-3.32l2.74.28c-.16.64-.4,1.64-.68,2.7a20.92,20.92,0,0,0,2.66-.62Zm2.6,1.78c-.06.84,0,1.66,0,2.54,0,.56.06,1.52.12,2.5a13.19,13.19,0,0,1,4.1,2.54l-1.32,2.12a17.63,17.63,0,0,0-2.68-2.1v.18c0,1.84-1,3.28-3.82,3.28-2.46,0-4.4-1.1-4.4-3.28,0-1.94,1.62-3.44,4.38-3.44.46,0,.92,0,1.34.08-.06-1.48-.16-3.22-.22-4.42Zm-2.18,6.56a7,7,0,0,0-1.6-.2c-1.14,0-1.88.48-1.88,1.18s.62,1.24,1.7,1.24c1.34,0,1.78-.78,1.78-1.84Zm5.58-5.5a26.41,26.41,0,0,0-4.76-2.82l1.28-2a35.64,35.64,0,0,1,4.88,2.68Z" transform="translate(-0.14)"/><path class="cls-28" d="M189.72,319c0,1.28,0,2.78.12,4.2.28,2.86.88,4.8,2.12,4.8.94,0,1.72-2.32,2.1-3.88l2,2.4c-1.32,3.44-2.56,4.66-4.16,4.66-2.16,0-4.06-2-4.62-7.28-.18-1.82-.22-4.12-.22-5.34a11.48,11.48,0,0,0-.14-2l3,0A15.69,15.69,0,0,0,189.72,319Zm13.76,8.14-2.62,1c-.3-3.18-1.36-7.84-3.52-10.28l2.52-.84C201.74,319.32,203.26,324.1,203.48,327.14Z" transform="translate(-0.14)"/><path class="cls-28" d="M206.66,329.2a1.83,1.83,0,1,1,1.84,1.92A1.84,1.84,0,0,1,206.66,329.2Zm7.58,0a1.83,1.83,0,1,1,1.82,1.92A1.84,1.84,0,0,1,214.24,329.2Zm7.58,0a1.83,1.83,0,1,1,1.82,1.92A1.84,1.84,0,0,1,221.82,329.2Z" transform="translate(-0.14)"/><path class="cls-28" d="M234.52,329.12a3.23,3.23,0,1,1-3.24-3.24A3.24,3.24,0,0,1,234.52,329.12Zm-1.44,0a1.79,1.79,0,1,0-1.8,1.78A1.79,1.79,0,0,0,233.08,329.12Z" transform="translate(-0.14)"/><path class="cls-27" d="M47.14,410.5v-22a8,8,0,0,1,8-8h264a8,8,0,0,1,8,8v154a8,8,0,0,1-8,8h-264a8,8,0,0,1-8-8v-22" transform="translate(-0.14)"/><path class="cls-28" d="M124,443.22h-2.08v3.48h-2.42v-.82h-3.6v.62c0,1.18-.28,1.66-1.06,2a10.53,10.53,0,0,1-3.54.34,7.33,7.33,0,0,0-.78-1.88c1,0,2.14,0,2.46,0s.5-.14.5-.5v-.62h-6.08v-1.72h6.08v-.94h-7.92V441.4h7.92v-.86h-5.92v-1.6h5.92v-.88H108v-4h5.42v-.82H106v-1.88h7.46v-1.3h2.42v1.3h7.64v1.88h-7.64v.82h5.68v4h-5.68v.88h6v2.46H124Zm-10.52-6.67v-1H110.3v1Zm2.42-1v1h3.24v-1Zm0,5.81h3.6v-.86h-3.6Zm3.6,1.82h-3.6v.94h3.6Z" transform="translate(-0.14)"/><path class="cls-28" d="M137.84,444.22a17.87,17.87,0,0,0,6.34,2.18,11.19,11.19,0,0,0-1.6,2.16,17.07,17.07,0,0,1-6.72-3.38v3.6h-2.34V445.3a19,19,0,0,1-6.7,3.24,11.09,11.09,0,0,0-1.52-2,21,21,0,0,0,6.32-2.34h-5.74v-2h7.64v-.88h-5.76v-1.72h5.76v-.9h-6.76v-1.87h3.8a9,9,0,0,0-.68-1.56l.24,0h-4.18v-1.94h2.68a17.93,17.93,0,0,0-1.24-2.48l2-.7a15.13,15.13,0,0,1,1.52,2.82l-1,.36h1.82v-3.26H134v3.26h1.48v-3.26h2.24v3.26h1.78l-.72-.22a16.11,16.11,0,0,0,1.26-2.9l2.5.6c-.56.92-1.1,1.82-1.56,2.52h2.6v1.94h-3.76c-.32.58-.64,1.12-.94,1.6h3.92v1.87h-6.94v.9h6v1.72h-6v.88h7.78v2Zm-5.44-8.93a9.53,9.53,0,0,1,.68,1.55l-.34.05h3.74c.24-.48.48-1.06.7-1.6Z" transform="translate(-0.14)"/><path class="cls-28" d="M151.5,435.87c-.72,5.11-2.4,9.23-4.64,11.39a8.76,8.76,0,0,0-1.72-1.82c1.8-1.62,3.1-4.48,3.76-7.86h-3.08v-2.15h3.8l.4-.1Zm4.32,7.27h3.58v2h-3.58v1.1c0,1.26-.26,1.84-1.1,2.2a10.37,10.37,0,0,1-3.74.4,9.07,9.07,0,0,0-.86-2.24c1.18.06,2.46.06,2.82.06s.5-.12.5-.46V445.1H150v-2h3.46v-1.28H151V440h2.46V438.7h-2v-1.86h2v-2.27h1.24a16.52,16.52,0,0,0,2-1.28H148.5v-2.16h10.56l.5-.1,1.6,1.16a18.73,18.73,0,0,1-5.34,4v.67h2.12v1.86h-2.12V440h2.6v1.88h-2.6Zm8.2-6.39c-.92,1.11-2,2.37-2.92,3.31a11,11,0,0,0,3.18,5.22,8.63,8.63,0,0,0-1.76,2c-2.72-2.54-4-6.94-4.66-12.05l2.1-.34c.14.94.3,1.87.48,2.77a18.71,18.71,0,0,0,1.7-2.43Z" transform="translate(-0.14)"/><path class="cls-28" d="M167.9,442.1a17.51,17.51,0,0,1-1.2,5.14,10.62,10.62,0,0,0-1.66-.8,14.58,14.58,0,0,0,1-4.64Zm16.18,5.78h-9v.84h-2.22v-7.8l-1.5.66a11.16,11.16,0,0,0-.26-1.14l-1,.08v8.26h-2v-8.1l-2.64.2-.24-2.06,1.58-.08c.26-.36.54-.76.8-1.16a16.64,16.64,0,0,0-2.32-2.91l1.14-1.54c.16.14.32.3.48.46a24.74,24.74,0,0,0,1.44-3.48l2,.7c-.72,1.38-1.54,3-2.24,4.08a10.3,10.3,0,0,1,.64.82c.66-1.12,1.26-2.28,1.72-3.26l1.88.86c-.74,1.22-1.6,2.56-2.48,3.83l1.56-.65a21.23,21.23,0,0,1,1.44,3.65v-9.29h2.22v11.57a12.8,12.8,0,0,0,2.8-4h-2.4v-2.13h3v-5.8h2.06v5.8h3.14v2.13h-3.14v.3c.86.74,2.92,2.82,3.4,3.34l-1.4,1.84a31.31,31.31,0,0,0-2-2.76v4.3h-2.06v-4.2A12.64,12.64,0,0,1,176,444.7a11.64,11.64,0,0,0-.94-2.12v3.14h9Zm-13.6-9.36a12.46,12.46,0,0,0-.6-1.38c-.36.52-.7,1-1.06,1.48Zm1.28,3.2a14.28,14.28,0,0,1,1,3.6l-1.66.54a14.78,14.78,0,0,0-.92-3.68Zm4.78-5.67a17.69,17.69,0,0,0-1.14-3.86l1.68-.58a15.94,15.94,0,0,1,1.26,3.8Zm7.26-4c-.56,1.4-1.18,3-1.68,4l-1.58-.56a25.52,25.52,0,0,0,1.22-4.1Z" transform="translate(-0.14)"/><path class="cls-28" d="M188.12,433.25l8.56-.76c2-.16,4.2-.28,5.6-.34l0,2.56a20.45,20.45,0,0,0-3.82.26,6,6,0,0,0-4.18,5.55c0,3.26,3,4.44,6.4,4.6l-.92,2.74c-4.16-.26-8.08-2.5-8.08-6.8a7.88,7.88,0,0,1,2.92-6.11c-1.72.18-5.88.62-8.18,1.12l-.26-2.72C187,433.33,187.74,433.29,188.12,433.25Zm13,6.11-1.52.68a15.43,15.43,0,0,0-1.56-2.78l1.48-.63A27.45,27.45,0,0,1,201.12,439.36Zm2.32-1-1.5.72a18.21,18.21,0,0,0-1.64-2.71l1.46-.68A30.09,30.09,0,0,1,203.44,438.38Z" transform="translate(-0.14)"/><path class="cls-28" d="M218.34,439.1v2.26h4.26v2.18h-4.26v2.16c0,.72.08.84.64.84h1.54c.52,0,.62-.4.7-2.28a5.92,5.92,0,0,0,2.14.94c-.24,2.64-.86,3.44-2.62,3.44h-2.18c-2.16,0-2.7-.7-2.7-2.92v-2.18h-2.64c-.44,2.1-1.76,4.08-5.46,5.32a9.07,9.07,0,0,0-1.52-1.9c2.76-.84,4-2.08,4.46-3.42h-4v-2.18H211V439.1h-1.68v-.66a16.35,16.35,0,0,1-2.66,1.58,10.34,10.34,0,0,0-1.44-1.8,12.17,12.17,0,0,0,3.32-2.07,21.35,21.35,0,0,0-2-1.7l1.5-1.24c.6.42,1.36,1,1.92,1.48a11.19,11.19,0,0,0,1.26-1.8h-4.08v-2h5.22l.42-.08,1.6.74a13.82,13.82,0,0,1-3.26,5.33h7.24a18.44,18.44,0,0,1-3.64-6.13l2.14-.6a13.89,13.89,0,0,0,1,2.14,18.89,18.89,0,0,0,1.78-1.86l1.8,1.28c-.82.74-1.74,1.52-2.56,2.12.28.36.58.7.9,1a19.37,19.37,0,0,0,2.24-2.16l1.74,1.24a32.83,32.83,0,0,1-2.64,2.16,12,12,0,0,0,3.1,1.83,9.07,9.07,0,0,0-1.64,2.06,13.94,13.94,0,0,1-2.46-1.5v.64Zm-2.48,0H213.4v2.26h2.46Z" transform="translate(-0.14)"/><path class="cls-28" d="M243.76,445.88v2.34h-18v-2.34h7.72v-4h-5.42v-2.3h5.42V436h-4.14a16.22,16.22,0,0,1-1.86,2.91,18.91,18.91,0,0,0-2.14-1.42,17.31,17.31,0,0,0,3.54-7.17l2.46.54c-.28,1-.6,1.9-.94,2.82h3.08v-3.6H236v3.6h6.74V436H236v3.53h6v2.3h-6v4Z" transform="translate(-0.14)"/><path class="cls-28" d="M263.32,435.61c-1.2-.06-3.06-.1-5.74-.1,0,1,0,2.09,0,2.95a4.88,4.88,0,0,1,.74,2.74c0,2.58-1.52,5.86-6.36,7.22l-2.1-2.12a9.05,9.05,0,0,0,4.84-2.26,4.28,4.28,0,0,1-.9.1,3.49,3.49,0,0,1-3.42-3.64,3.73,3.73,0,0,1,4-3.7,4.75,4.75,0,0,1,.78.06l0-1.33c-3,0-6.06.16-8.5.3l-.06-2.4c2.26,0,5.86-.1,8.52-.14a5.08,5.08,0,0,0,0-.6,13.4,13.4,0,0,0-.18-1.72h2.88c-.06.32-.12,1.38-.14,1.7,0,.16,0,.36,0,.6,2,0,4.7,0,5.74,0Zm-9,6.33c.82,0,1.56-.62,1.3-2.34a1.41,1.41,0,0,0-1.3-.7,1.52,1.52,0,1,0,0,3Z" transform="translate(-0.14)"/><path class="cls-28" d="M280.18,433.31q-.72.45-1.38.9c-1.06.74-3.14,2.51-4.38,3.51a6.66,6.66,0,0,1,1.86-.22c3.36,0,5.92,2.1,5.92,5,0,3.12-2.38,5.6-7.16,5.6-2.76,0-4.84-1.26-4.84-3.24a3.33,3.33,0,0,1,3.56-3.08,4,4,0,0,1,4.22,3.38,2.89,2.89,0,0,0,1.62-2.7c0-1.78-1.8-3-4.1-3-3,0-5,1.62-7.14,4l-1.8-1.86c1.4-1.14,3.78-3.16,5-4.12s3.16-2.59,4.14-3.45c-1,0-3.74.14-4.78.22a13.07,13.07,0,0,0-1.62.16l-.08-2.58c.56.06,1.24.1,1.8.1,1,0,5.28-.1,6.4-.2a9.55,9.55,0,0,0,1.52-.2Zm-4.48,12.47c-.12-1.28-.86-2.12-1.94-2.12-.74,0-1.22.44-1.22.94,0,.74.84,1.24,2,1.24A10.44,10.44,0,0,0,275.7,445.78Z" transform="translate(-0.14)"/><path class="cls-28" d="M117.28,474.76c1.42,1.2,3.72,1.76,6.92,1.9a8.16,8.16,0,0,0-1.36,2.12c-4-.4-6.48-1.46-8.08-3.8-1.08,2-3.32,3.18-8.34,3.82a6.76,6.76,0,0,0-1.08-2.1c3.72-.36,5.68-.94,6.7-1.94h-6.22v-2.08h7.32a8.1,8.1,0,0,0,.18-1.08H107.9v-6.87h13.74v6.87h-6c0,.38-.08.72-.14,1.08h8.14v2.08Zm-7.36-11.51h-4v-2.1h4v-1h2.32v1h5v-1h2.32v1h4v2.1h-4v1.18h-2.32v-1.18h-5v1.18h-2.32Zm.22,4.13h9.14v-1h-9.14Zm0,2.56h9.14v-1h-9.14Z" transform="translate(-0.14)"/><path class="cls-28" d="M136.56,467.92c1.32,3.9,3.74,7,7.48,8.56a9.57,9.57,0,0,0-1.76,2.24c-3.62-1.7-5.94-4.62-7.5-8.48a13.77,13.77,0,0,1-7.48,8.5,7,7,0,0,0-1.78-2,12,12,0,0,0,7.26-8.8H125.9v-2.47h7.28c.2-1.88.18-3.7.2-5.34H136c0,1.64,0,3.48-.24,5.34h7.86v2.47Z" transform="translate(-0.14)"/><path class="cls-28" d="M156.2,465.37a29,29,0,0,1-3.44.68,36.44,36.44,0,0,1-4.24,8.49l-2.42-1.22a30.07,30.07,0,0,0,4-7c-.34,0-.68,0-1,0-.82,0-1.62,0-2.48-.06l-.18-2.32a25.18,25.18,0,0,0,2.64.14c.58,0,1.18,0,1.78-.06a16.86,16.86,0,0,0,.54-3.32l2.74.28c-.16.64-.4,1.64-.68,2.7a20.92,20.92,0,0,0,2.66-.62Zm2.6,1.79c-.06.84,0,1.66,0,2.54,0,.56.06,1.52.12,2.5a13.19,13.19,0,0,1,4.1,2.54l-1.32,2.12a17.63,17.63,0,0,0-2.68-2.1v.18c0,1.84-1,3.28-3.82,3.28-2.46,0-4.4-1.1-4.4-3.28,0-1.94,1.62-3.44,4.38-3.44.46,0,.92,0,1.34.08-.06-1.48-.16-3.22-.22-4.42Zm-2.18,6.56a7,7,0,0,0-1.6-.2c-1.14,0-1.88.48-1.88,1.18s.62,1.24,1.7,1.24c1.34,0,1.78-.78,1.78-1.84Zm5.58-5.5a26.45,26.45,0,0,0-4.76-2.83l1.28-2a35.64,35.64,0,0,1,4.88,2.68Z" transform="translate(-0.14)"/><path class="cls-28" d="M172,473a17.53,17.53,0,0,0-1.2-2v7.8h-2.3v-7.18a17.77,17.77,0,0,1-2.18,4,11.81,11.81,0,0,0-1.1-2.26,19.54,19.54,0,0,0,3-5.36H165.6v-2.23h2.86v-2.32c-.84.16-1.66.3-2.44.4a8.24,8.24,0,0,0-.66-1.82,28.59,28.59,0,0,0,6.2-1.66l1.58,1.82a20.85,20.85,0,0,1-2.38.76v2.82h2.14v2.23h-2.14v.58c.54.44,2.18,2.18,2.56,2.62Zm9.9,3.4c.3,0,.38-.3.42-2.38a6.17,6.17,0,0,0,2,.9c-.2,2.86-.74,3.62-2.18,3.62H180.8c-1.78,0-2.16-.7-2.16-2.78v-4.8h-1.1c-.28,3.44-1.12,6.24-4.72,7.86a6.9,6.9,0,0,0-1.38-1.88c3-1.22,3.54-3.36,3.76-6h-1.6v-6.87h1.54a18,18,0,0,0-1.56-3.1l2-.86a15.36,15.36,0,0,1,1.82,3.4l-1.28.56h4.7l-1.56-.56a21.49,21.49,0,0,0,1.64-3.42l2.44.78c-.66,1.16-1.38,2.36-2,3.2h1.84v6.87h-2.26v4.78c0,.6,0,.66.3.66Zm-1.06-10.25h-4.94v2.73h4.94Z" transform="translate(-0.14)"/><path class="cls-28" d="M200.92,473c-.76,1.1-1.54,2.32-2.24,3.16h4.52v2H186.28v-2h3.9a13.74,13.74,0,0,0-1.66-3.22l1.82-.78h-3.06v-2h6.08v-2h-3.68v-1a25.56,25.56,0,0,1-3,1.86,9.32,9.32,0,0,0-1.48-1.92A21.43,21.43,0,0,0,193.3,460h2.46a20.54,20.54,0,0,0,8.54,6.83,11.17,11.17,0,0,0-1.58,2.14,25.28,25.28,0,0,1-3-1.9v1h-3.82v2H202v2h-6.16v4H198l-1.3-.54a20.77,20.77,0,0,0,1.9-3.46Zm-10.46-.84a13.49,13.49,0,0,1,1.84,3.3l-1.64.7h2.7v-4Zm7.86-6.11a21.34,21.34,0,0,1-3.68-3.7,20.86,20.86,0,0,1-3.54,3.7Z" transform="translate(-0.14)"/><path class="cls-28" d="M214.8,474.16c0-.58.06-1.5.08-2.36-1.46.8-2.26,1.58-2.26,2.56s.94,1.4,2.88,1.4a30.29,30.29,0,0,0,5.62-.58l-.08,2.58a54.8,54.8,0,0,1-5.6.32c-3.1,0-5.44-.74-5.44-3.3s2.4-4.12,4.66-5.28a1.55,1.55,0,0,0-1.38-.68,4.9,4.9,0,0,0-3.1,1.36,25.37,25.37,0,0,0-1.84,2.18l-2.12-1.58a19.25,19.25,0,0,0,4.36-5.45h-.24c-.8,0-2.26,0-3.34-.14v-2.32a25.41,25.41,0,0,0,3.48.22h1a11,11,0,0,0,.4-2.26l2.6.22c-.1.48-.24,1.16-.48,2a45.74,45.74,0,0,0,5.6-.58l0,2.32a64.52,64.52,0,0,1-6.46.52,12.2,12.2,0,0,1-1.14,2,6.2,6.2,0,0,1,2.24-.41,2.71,2.71,0,0,1,2.64,1.55c1-.48,1.86-.82,2.68-1.18l2.18-1,1,2.31a21,21,0,0,0-2.36.84c-.88.34-2,.78-3.22,1.34,0,1.1.06,2.56.08,3.46Z" transform="translate(-0.14)"/><path class="cls-28" d="M123.58,491.49a12.81,12.81,0,0,1-3,5.49,12,12,0,0,0,3.76,1.56,8.23,8.23,0,0,0-1.42,1.92,11.76,11.76,0,0,1-4-2,14.84,14.84,0,0,1-4.22,2.08,10.35,10.35,0,0,0-.86-1.42v3.24h-3v1.2h3.3v2.08h-3.3v3.14H108.7v-3.14h-3.32v-2.08h3.32v-1.2h-2.88v-7.23h2.88V494h-3.08V492h3.08v-1.88h2.12V492H114V494h-3.14v1.1h3v3.41a12,12,0,0,0,3.46-1.62,13.28,13.28,0,0,1-2.06-3.47l1.58-.42h-2.32v-2h7.18l.4-.08ZM107.52,498h1.42v-1.2h-1.42Zm0,2.74h1.42V499.5h-1.42Zm4.52-3.94h-1.48V498H112Zm0,2.72h-1.48v1.22H112Zm8.06,6.74h4v2.1H113.66v-2.1h4.08v-2.5h-3v-2h3v-2.22h2.36v2.22h3.08v2H120.1ZM117.22,493a9.66,9.66,0,0,0,1.66,2.52,9.6,9.6,0,0,0,1.74-2.52Z" transform="translate(-0.14)"/><path class="cls-28" d="M128.54,499.32a13.09,13.09,0,0,0-3.2-2l1.3-1.77a12.57,12.57,0,0,1,3.3,1.83Zm1.42,2.46c-.68,2.2-1.54,4.58-2.36,6.58l-2.16-1.18a57.81,57.81,0,0,0,2.6-6.64ZM129.5,494a12.75,12.75,0,0,0-3.24-2.08l1.34-1.76a14.5,14.5,0,0,1,3.32,1.92Zm14.22,2.77a24.61,24.61,0,0,1-2.6,6.86c.32,1.4.66,2.24,1,2.26s.48-1,.58-2.84a6.36,6.36,0,0,0,1.68,1.22c-.5,3.64-1.48,4.42-2.3,4.42-1.1,0-1.94-1-2.56-2.78a14.92,14.92,0,0,1-2.92,2.7,12.53,12.53,0,0,0-1.56-1.52,12.35,12.35,0,0,0,3.82-3.66,59.72,59.72,0,0,1-.88-8.35h-5.26v3.49c0,3-.28,7.36-2,10.16a7.73,7.73,0,0,0-1.78-1.2c1.52-2.58,1.66-6.26,1.66-9V493h7.24c0-.88-.06-1.78-.08-2.7H140q0,1.38.06,2.7h2.26a12.92,12.92,0,0,0-2.22-1.68l1.28-1.2a10.56,10.56,0,0,1,2.56,1.92l-1,1h.82v2.1h-3.62c.1,1.87.24,3.59.42,5.09a22.61,22.61,0,0,0,1.1-3.78Zm-8.86,7.9v1.08H133.3V499.1h4.52v5.6Zm2.8-6.72H133.4v-1.74h4.26Zm-2.8,2.84V503h1.38v-2.14Z" transform="translate(-0.14)"/><path class="cls-28" d="M152.18,491.23a20.33,20.33,0,0,0-.26,2.64c-.1,2.12-.24,6.57-.24,9,0,2,1.2,2.64,2.72,2.64,3.28,0,5.36-1.88,6.78-4l1.8,2.22a10.31,10.31,0,0,1-8.6,4.52c-3.24,0-5.34-1.42-5.34-4.8,0-2.66.2-7.87.2-9.57a12.44,12.44,0,0,0-.26-2.68Z" transform="translate(-0.14)"/><path class="cls-28" d="M176.94,495.59c-1.18.26-2.52.48-3.84.65-.18.86-.38,1.74-.6,2.54a63.88,63.88,0,0,1-3.14,9.16l-2.78-.92A43.67,43.67,0,0,0,170,498.1c.14-.52.28-1.08.42-1.64-.46,0-.9,0-1.3,0-1,0-1.7,0-2.4-.08l-.06-2.49a19.5,19.5,0,0,0,2.5.16c.58,0,1.16,0,1.76-.06q.12-.66.18-1.14a10.28,10.28,0,0,0,.08-2l3,.24c-.14.54-.32,1.42-.42,1.86l-.16.76c1.12-.18,2.24-.4,3.32-.66Zm-.4,6.51a6.85,6.85,0,0,0-.28,1.66c0,.86.5,1.5,2.62,1.5a23,23,0,0,0,4.12-.4l-.1,2.54a31.69,31.69,0,0,1-4,.28c-3.34,0-5-1.16-5-3.16a13.59,13.59,0,0,1,.34-2.64Zm-1.16-5c1.1-.1,2.52-.2,3.8-.2a34.39,34.39,0,0,1,3.48.18l-.06,2.38a28.61,28.61,0,0,0-3.4-.24,29.1,29.1,0,0,0-3.82.22Z" transform="translate(-0.14)"/><path class="cls-28" d="M189.72,495.19c0,1.29,0,2.79.12,4.21.28,2.86.88,4.8,2.12,4.8.94,0,1.72-2.32,2.1-3.88l2,2.4c-1.32,3.44-2.56,4.66-4.16,4.66-2.16,0-4.06-2-4.62-7.28-.18-1.82-.22-4.12-.22-5.35a11.48,11.48,0,0,0-.14-2l3,0A15.69,15.69,0,0,0,189.72,495.19Zm13.76,8.15-2.62,1c-.3-3.18-1.36-7.84-3.52-10.29l2.52-.84C201.74,495.51,203.26,500.3,203.48,503.34Z" transform="translate(-0.14)"/><path class="cls-28" d="M206.66,505.4a1.83,1.83,0,1,1,1.84,1.92A1.84,1.84,0,0,1,206.66,505.4Zm7.58,0a1.83,1.83,0,1,1,1.82,1.92A1.84,1.84,0,0,1,214.24,505.4Zm7.58,0a1.83,1.83,0,1,1,1.82,1.92A1.84,1.84,0,0,1,221.82,505.4Z" transform="translate(-0.14)"/><path class="cls-28" d="M234.52,505.32a3.23,3.23,0,1,1-3.24-3.24A3.24,3.24,0,0,1,234.52,505.32Zm-1.44,0a1.79,1.79,0,1,0-1.8,1.78A1.79,1.79,0,0,0,233.08,505.32Z" transform="translate(-0.14)"/><polygon class="cls-29" points="164.5 614.55 204.5 582.55 124.5 582.55 164.5 614.55"/></g></g></g></svg>