<svg xmlns="http://www.w3.org/2000/svg" viewBox="0 0 1025 397.75"><defs><style>.cls-1{isolation:isolate;}.cls-2{fill:#f8c589;}.cls-3,.cls-5{fill:#c4c4c3;}.cls-3,.cls-4{mix-blend-mode:multiply;}.cls-6{fill:#7b7b7b;}.cls-7{fill:#e8f3fa;}.cls-8{fill:#acdcf6;}.cls-9{fill:#37454e;}.cls-10{fill:#bc706d;}.cls-11{fill:#404d56;}.cls-12{fill:#d4ebfa;}.cls-13{fill:#eaeaea;}.cls-14{fill:#393938;}.cls-15{fill:#173d6e;}.cls-16{fill:#00a8d0;}.cls-17{fill:#2d4d77;}.cls-18{fill:#3c3c3b;}.cls-19{fill:#2f2f2e;}.cls-20{fill:#e7e7e8;}.cls-21{fill:#fff;}.cls-22{fill:#6b6b6a;}.cls-23{fill:none;stroke:#389e40;stroke-miterlimit:10;}.cls-24{fill:#2e2e2e;}.cls-25{fill:#389e40;}</style></defs><g class="cls-1"><g id="レイヤー_2" data-name="レイヤー 2"><g id="text"><rect class="cls-2" x="150.47" y="97.19" width="17.25" height="16.9"/><path class="cls-3" d="M152,109.4c4.73-4.13,11.78-3,15.73-8.34V97.19H150.47v14.08A7.89,7.89,0,0,1,152,109.4Z"/><path class="cls-2" d="M184.58,63.29c-.61,4.59,1.23,8.62,4.12,9s5.71-3,6.32-7.6-1.23-8.61-4.12-9S185.19,58.71,184.58,63.29Z"/><g class="cls-4"><path class="cls-5" d="M188.11,61.93s0-.26.12-.68a6.86,6.86,0,0,1,.59-1.66c.3-.61.84-1.33,1.57-1.38a2.13,2.13,0,0,1,.55,0s.22.08.28.12a1.2,1.2,0,0,1,.21.13,2.53,2.53,0,0,1,.76,1,5.73,5.73,0,0,1,.42,1.29,6,6,0,0,1,.1,1.31c-.06.46-.06.93-.13,1.33s-.14.79-.2,1.15-.16.69-.22,1-.15.55-.2.75c-.13.42-.18.68-.18.68l.35-.6c.09-.2.24-.43.36-.71s.27-.61.41-1,.25-.76.37-1.19a11.34,11.34,0,0,0,.26-1.34,4.8,4.8,0,0,0,0-1.56,6.66,6.66,0,0,0-.47-1.54A3.52,3.52,0,0,0,192,57.76a1.92,1.92,0,0,0-.43-.22,1.64,1.64,0,0,0-.39-.12,2.49,2.49,0,0,0-.86,0,2.1,2.1,0,0,0-1.35.83,3.39,3.39,0,0,0-.6,1.16,5.63,5.63,0,0,0-.27,1.84A4.46,4.46,0,0,0,188.11,61.93Z"/></g><path class="cls-3" d="M188.11,61.93s-.29-.48,1.59-.64c0,0,2.11.28,1,2.57a6.18,6.18,0,0,0-.53,1.55c-.14.76.26,1.79-.2,2.48a1.45,1.45,0,0,1-2.44-.58c-.13-.76.76-2.09,1.17-2.65A1.79,1.79,0,0,0,188.11,61.93Z"/><g class="cls-4"><path class="cls-5" d="M187.55,67.21s-.06,0-.13.13a1.22,1.22,0,0,0-.25.43,1.07,1.07,0,0,0-.08.33,1.14,1.14,0,0,0,0,.37c0,.13,0,.27.07.41a3.26,3.26,0,0,0,.18.38,2.08,2.08,0,0,0,.24.34,2.35,2.35,0,0,0,.29.26,1.31,1.31,0,0,0,.6.32,2.39,2.39,0,0,0,.65.12,4.2,4.2,0,0,0-.33-.55,1.2,1.2,0,0,0-.17-.21c-.06-.08-.09-.18-.15-.25a2.07,2.07,0,0,0-.17-.24.79.79,0,0,1-.14-.25,2.65,2.65,0,0,1-.26-.5,1.09,1.09,0,0,1-.1-.25c0-.08-.07-.16-.09-.25C187.61,67.49,187.55,67.21,187.55,67.21Z"/></g><path class="cls-2" d="M133.6,63.29c.62,4.59-1.22,8.62-4.11,9s-5.71-3-6.32-7.6,1.24-8.61,4.12-9S133,58.71,133.6,63.29Z"/><g class="cls-4"><path class="cls-5" d="M130.07,61.93a5.69,5.69,0,0,0-.11-.68,7.21,7.21,0,0,0-.58-1.66c-.31-.61-.85-1.33-1.58-1.38a2.05,2.05,0,0,0-.54,0,3,3,0,0,0-.29.12c-.06,0-.13.06-.21.13a2.53,2.53,0,0,0-.76,1,5.24,5.24,0,0,0-.41,1.29,5.48,5.48,0,0,0-.11,1.31c.06.46.06.93.13,1.33s.14.79.2,1.15.16.69.22,1a7.44,7.44,0,0,0,.21.75c.12.42.17.68.17.68l-.34-.6c-.1-.2-.25-.43-.37-.71l-.41-1c-.13-.36-.25-.76-.38-1.19s-.17-.87-.25-1.34a5.1,5.1,0,0,1,0-1.56,6.21,6.21,0,0,1,.47-1.54,3.45,3.45,0,0,1,1.09-1.33,1.65,1.65,0,0,1,.42-.22,1.8,1.8,0,0,1,.39-.12,2.54,2.54,0,0,1,.87,0,2.1,2.1,0,0,1,1.34.83,3.62,3.62,0,0,1,.61,1.16,5.85,5.85,0,0,1,.26,1.84A3.66,3.66,0,0,1,130.07,61.93Z"/></g><path class="cls-3" d="M130.07,61.93s.3-.48-1.57-.64c0,0-2.12.28-1,2.57a5.8,5.8,0,0,1,.53,1.55c.14.76-.26,1.79.2,2.48a1.45,1.45,0,0,0,2.44-.58c.13-.76-.76-2.09-1.16-2.65A1.78,1.78,0,0,1,130.07,61.93Z"/><g class="cls-4"><path class="cls-5" d="M130.64,67.21s.06,0,.13.13a1.39,1.39,0,0,1,.26.43,2.28,2.28,0,0,1,.08.33,1.15,1.15,0,0,1,0,.37c0,.13,0,.27-.07.41a3.26,3.26,0,0,1-.18.38,1.61,1.61,0,0,1-.24.34,2.35,2.35,0,0,1-.29.26,1.33,1.33,0,0,1-.59.32,2.45,2.45,0,0,1-.65.12,3.19,3.19,0,0,1,.33-.55,1.16,1.16,0,0,1,.16-.21,2.13,2.13,0,0,1,.16-.25,1.31,1.31,0,0,1,.17-.24,1,1,0,0,0,.13-.25,2.65,2.65,0,0,0,.26-.5,1.09,1.09,0,0,0,.1-.25,1.84,1.84,0,0,0,.09-.25C130.58,67.49,130.64,67.21,130.64,67.21Z"/></g><path class="cls-2" d="M159.18,11.4v0H159v0c-6.9.38-37,4.69-29.79,51.05L131,81.86s1.54,4.35,6.94,8.46c0,0,9.3,7.82,17.11,11.28,0,0,1.7.5,4,1.34V103l.1,0,.1,0v-.07c2.3-.84,4-1.34,4-1.34C171,98.13,180.3,90.31,180.3,90.31c5.4-4.11,5.66-8.47,5.66-8.47l3-19.4C196.17,16.08,166.08,11.78,159.18,11.4Z"/><path class="cls-6" d="M132.25,17.58c-8.61,12.64-5.68,38.83-5.68,38.83l2.16,5.48.77,5.42H131s-2.93-17.83,2.78-23.07c0,0,1.1-13.56,7.41-15.36,7.22-2.24,13.46-2.05,17.76-2,6.41-.75,18.37,1.12,18.37,1.12,6.7,1.09,7.15,16.23,7.15,16.23,5.71,5.24,2.78,23.07,2.78,23.07h1.5l.78-5.42,2.15-6s4.29-25.63-5.23-38.93c5.29-8.38-5-15.6-5-15.6s-13.24,9.74-34.94,7.8C146.51,9.12,135.27,10.28,132.25,17.58Z"/><path class="cls-6" d="M159,26.89Z"/><path class="cls-2" d="M125.55,167.41h66.91l4.71-33.22a12.92,12.92,0,0,0-5.08-14l-25.19-10H151.11l-25.19,10a12.92,12.92,0,0,0-5.08,14Z"/><path class="cls-7" d="M122.23,167.41h73.46l1.48-33.22a12.92,12.92,0,0,0-5.08-14l-24.47-9.74L158.89,114l-8.47-3.6-24.5,9.77a12.92,12.92,0,0,0-5.08,14Z"/><path class="cls-8" d="M101.92,167.41H123.6c1.53-9,6-37.71,2.34-47.18l-15.23,6.46c-5.08,3.11-4.52,11.57-4.52,11.57Z"/><path class="cls-8" d="M218.62,167.41l-7.81-31.76s-.56-7.53-6.39-10.35L191.59,120c-3.64,9.48.84,38.33,2.37,47.37Z"/><path class="cls-9" d="M101.92,167.41H123.6c1.53-9,6-37.71,2.34-47.18l-15.23,6.46c-5.08,3.11-4.52,11.57-4.52,11.57Z"/><path class="cls-9" d="M219.08,167.41l-2.16-28.64s-.71-8.23-6.54-11.05L191.59,120c-3.64,9.48.84,38.33,2.37,47.37Z"/><polygon class="cls-10" points="164.51 167.41 162.32 125.31 155.62 125.31 153.46 167.41 164.51 167.41"/><polygon class="cls-10" points="151.67 114.58 166.34 114.58 162.4 125.31 155.62 125.31 151.67 114.58"/><path class="cls-9" d="M197.13,167.41l0-33.22a12.92,12.92,0,0,0-5.08-14l-19-8.09-6.22,55.32Z"/><polygon class="cls-11" points="177.01 167.41 186.82 138.62 179.76 132.13 186.82 117.93 173.14 112.09 166.92 167.41 177.01 167.41"/><polygon class="cls-12" points="159.02 114.01 167.63 107.42 173.14 112.09 171.42 127.32 159.02 114.01"/><path class="cls-9" d="M120.92,167.41l0-33.22a12.92,12.92,0,0,1,5.07-14l19-8.09,6.22,55.32Z"/><polygon class="cls-11" points="141.04 167.41 131.23 138.62 138.28 132.13 131.23 117.93 144.91 112.09 151.13 167.41 141.04 167.41"/><polygon class="cls-12" points="159.02 114.01 150.42 107.42 144.91 112.09 146.62 127.32 159.02 114.01"/><rect class="cls-2" x="854.48" y="94.86" width="17.35" height="17"/><path class="cls-3" d="M856,107.14c4.76-4.15,11.85-3,15.82-8.38v-3.9H854.48V109A7.94,7.94,0,0,1,856,107.14Z"/><path class="cls-2" d="M888.77,60.78c-.61,4.61,1.25,8.66,4.14,9s5.75-3,6.36-7.65-1.24-8.65-4.14-9S889.39,56.17,888.77,60.78Z"/><g class="cls-4"><path class="cls-5" d="M892.33,59.4s0-.25.11-.68a7.15,7.15,0,0,1,.59-1.66c.32-.62.85-1.34,1.58-1.39a2.05,2.05,0,0,1,.55,0l.29.11a1.91,1.91,0,0,1,.21.14,2.39,2.39,0,0,1,.76,1,5.27,5.27,0,0,1,.42,1.29,5.08,5.08,0,0,1,.11,1.32c-.06.46-.06.94-.14,1.34s-.13.8-.19,1.15-.16.7-.22,1-.16.55-.21.76c-.12.42-.17.67-.17.67l.34-.6c.1-.2.25-.43.37-.72s.27-.6.41-1,.25-.78.37-1.21a9.35,9.35,0,0,0,.26-1.34,4.92,4.92,0,0,0,0-1.58,5.57,5.57,0,0,0-.47-1.54,3.44,3.44,0,0,0-1.08-1.33,2.5,2.5,0,0,0-.43-.23,2.09,2.09,0,0,0-.4-.12,2.54,2.54,0,0,0-.87,0,2.2,2.2,0,0,0-1.36.84,3.9,3.9,0,0,0-.6,1.16,5.74,5.74,0,0,0-.27,1.86A3.47,3.47,0,0,0,892.33,59.4Z"/></g><path class="cls-3" d="M892.33,59.4s-.3-.48,1.58-.63c0,0,2.14.28,1,2.58a7.1,7.1,0,0,0-.53,1.55c-.14.77.27,1.81-.19,2.5a1.46,1.46,0,0,1-2.46-.58c-.12-.77.77-2.11,1.17-2.66A1.81,1.81,0,0,0,892.33,59.4Z"/><g class="cls-4"><path class="cls-5" d="M891.76,64.72a.73.73,0,0,0-.14.13,1.47,1.47,0,0,0-.25.43,1.6,1.6,0,0,0-.07.33,1,1,0,0,0,0,.38c0,.13,0,.27.07.41a2.53,2.53,0,0,0,.18.37,1.45,1.45,0,0,0,.24.35,2.43,2.43,0,0,0,.3.26,1.23,1.23,0,0,0,.59.32,2.06,2.06,0,0,0,.66.12,4.2,4.2,0,0,0-.33-.55,1.81,1.81,0,0,0-.18-.21,2.2,2.2,0,0,0-.15-.26,1.77,1.77,0,0,0-.17-.24,1,1,0,0,1-.14-.25,2.38,2.38,0,0,1-.26-.5,1.22,1.22,0,0,1-.1-.24c0-.09-.07-.17-.09-.26C891.82,65,891.76,64.72,891.76,64.72Z"/></g><path class="cls-2" d="M837.52,60.78c.61,4.61-1.24,8.66-4.14,9s-5.74-3-6.35-7.65,1.24-8.65,4.14-9S836.91,56.17,837.52,60.78Z"/><g class="cls-4"><path class="cls-5" d="M834,59.4a6.05,6.05,0,0,0-.11-.68,7.05,7.05,0,0,0-.58-1.66c-.32-.62-.85-1.34-1.58-1.39a2.16,2.16,0,0,0-.56,0l-.28.11a2,2,0,0,0-.22.14,2.46,2.46,0,0,0-.75,1,4.87,4.87,0,0,0-.42,1.29,4.32,4.32,0,0,0-.1,1.32c0,.46,0,.94.12,1.34l.2,1.15c.09.36.16.7.22,1s.15.55.2.76l.19.67s-.14-.22-.35-.6c-.1-.2-.25-.43-.37-.72s-.27-.6-.41-1-.26-.78-.38-1.21a13.25,13.25,0,0,1-.26-1.34,4.92,4.92,0,0,1,0-1.58,5.93,5.93,0,0,1,.47-1.54,3.36,3.36,0,0,1,1.08-1.33,2.18,2.18,0,0,1,.43-.23,1.9,1.9,0,0,1,.4-.12,2.54,2.54,0,0,1,.87,0,2.15,2.15,0,0,1,1.35.84,3.94,3.94,0,0,1,.61,1.16,6,6,0,0,1,.27,1.86A3.86,3.86,0,0,1,834,59.4Z"/></g><path class="cls-3" d="M834,59.4s.3-.48-1.58-.63c0,0-2.13.28-1,2.58a6.6,6.6,0,0,1,.53,1.55c.14.77-.26,1.81.2,2.5a1.46,1.46,0,0,0,2.46-.58c.12-.77-.76-2.11-1.18-2.66A1.81,1.81,0,0,1,834,59.4Z"/><g class="cls-4"><path class="cls-5" d="M834.53,64.72a.38.38,0,0,1,.14.13,1.28,1.28,0,0,1,.25.43,1.14,1.14,0,0,1,.08.33,1.2,1.2,0,0,1,0,.38c0,.13,0,.27-.07.41a1.85,1.85,0,0,1-.19.37,1.41,1.41,0,0,1-.23.35c-.09.1-.21.18-.29.26a1.36,1.36,0,0,1-.6.32,2.06,2.06,0,0,1-.66.12,3.72,3.72,0,0,1,.34-.55.83.83,0,0,1,.17-.21,2.2,2.2,0,0,1,.15-.26,1.18,1.18,0,0,1,.17-.24c.07-.07.08-.16.14-.25a2.34,2.34,0,0,0,.25-.5,1.28,1.28,0,0,0,.11-.24c0-.09.07-.17.08-.26A5.06,5.06,0,0,0,834.53,64.72Z"/></g><path class="cls-2" d="M863.24,8.59H863c-6.94.39-37.19,4.73-29.95,51.34l1.77,19.51s1.55,4.38,7,8.51c0,0,9.35,7.86,17.2,11.35,0,0,1.71.5,4,1.34v.07l.1,0,.1,0v-.07c2.31-.84,4-1.34,4-1.34,7.85-3.49,17.2-11.36,17.2-11.36,5.42-4.13,5.69-8.51,5.69-8.51l3-19.51C900.43,13.3,870.17,9,863.24,8.59Z"/><g class="cls-4"><path class="cls-13" d="M863.08,100.71v-.07c-1.9-.84-3.3-1.34-3.3-1.34C853.35,95.81,845.68,88,845.68,88A20.89,20.89,0,0,1,840,79.44L838.5,59.93C832.57,13.32,857.37,9,863.05,8.59h0c-6.94.39-37.19,4.73-29.95,51.34l1.77,19.51s1.55,4.38,7,8.51c0,0,9.35,7.86,17.2,11.35,0,0,1.71.5,4,1.34v.07Z"/><path class="cls-13" d="M863.24,8.59h0c5.69.39,30.49,4.71,24.58,51.33l-2.5,19.51s-.22,4.38-4.67,8.51c0,0-7.66,7.87-14.09,11.36,0,0-1.41.5-3.3,1.34v.07h0v-.07c2.31-.84,4-1.34,4-1.34,7.85-3.49,17.2-11.36,17.2-11.36,5.42-4.13,5.69-8.51,5.69-8.51l3-19.51C900.43,13.3,870.17,9,863.24,8.59Z"/></g><path class="cls-14" d="M890.66,14.15c9.57,13.37,5.24,39.14,5.24,39.14l-2.15,6.08L893,64.82h-1.51s2.94-17.94-2.79-23.2c0,0-.46-15.23-7.2-16.32,0,0-12-1.88-18.47-1.13-4.32-.06-10.6-.25-17.86,2-6.34,1.8-7.45,15.44-7.45,15.44-5.74,5.26-2.79,23.2-2.79,23.2h-1.5l-.79-5.45-2.17-5.51s-2.94-26.34,5.71-39c0,0,6.7-17.63,37.39-14.42,0,0-4.38,1.46-5,4.68,0,0,6.73-8.77,22.8-.88,0,0-7.31-.29-8.77,2.63,0,0,10.24-3.21,15.79,3.22C898.39,10,889.06,9.49,890.66,14.15Z"/><path class="cls-14" d="M863,24.17Z"/><path class="cls-14" d="M891.57,64.61c-.13.18-.51,2.49-.64,2.68l-1.47,6.49s-.26,4.38-5.54,8.51c0,0-9.11,7.87-16.74,11.36,0,0-1.67.49-3.92,1.34v.07l-.1,0-.09,0V95c-2.26-.85-3.92-1.34-3.92-1.34C851.5,90.16,842.4,82.3,842.4,82.3c-5.29-4.13-6.8-8.51-6.8-8.51l-.9-9.21h-1.34l1.5,14.86s1.55,4.38,7,8.51c0,0,9.35,7.86,17.2,11.35,0,0,1.71.5,4,1.34v.07l.1,0,.1,0v-.07c2.31-.84,4-1.34,4-1.34,7.85-3.49,17.2-11.36,17.2-11.36,5.42-4.13,5.69-8.51,5.69-8.51L893,64.58Z"/><path class="cls-14" d="M862.73,78s-8.77-5.41-15.2,1.6L844,84.44l4.54,4.23s4.39-11.54,13-8l1.1.22Z"/><path class="cls-14" d="M862.58,78s8.48-5.56,15.2,1.6l3.51,4.83-4.53,4.23s-4.39-11.54-13-8l-1.1.22Z"/><path class="cls-2" d="M829.55,167.41h66.91l4.71-33.22a12.92,12.92,0,0,0-5.08-14l-25.19-10H855.11l-25.19,10a12.92,12.92,0,0,0-5.08,14Z"/><path class="cls-7" d="M826.23,167.41h73.46l1.48-33.22a12.92,12.92,0,0,0-5.08-14l-24.47-9.74L862.89,114l-8.47-3.6-24.5,9.77a12.92,12.92,0,0,0-5.08,14Z"/><path class="cls-8" d="M805.92,167.41H827.6c1.53-9,6-37.71,2.34-47.18l-15.23,6.46c-5.08,3.11-4.52,11.57-4.52,11.57Z"/><path class="cls-8" d="M922.62,167.41l-7.81-31.76s-.56-7.53-6.39-10.35L895.59,120c-3.64,9.48.84,38.33,2.37,47.37Z"/><path class="cls-15" d="M805.92,167.41H827.6c1.53-9,6-37.71,2.34-47.18l-15.23,6.46c-5.08,3.11-4.52,11.57-4.52,11.57Z"/><path class="cls-15" d="M923.08,167.41l-2.16-28.64s-.71-8.23-6.54-11.05L895.59,120c-3.64,9.48.84,38.33,2.37,47.37Z"/><polygon class="cls-16" points="868.51 167.41 866.33 125.31 859.62 125.31 857.46 167.41 868.51 167.41"/><polygon class="cls-16" points="855.67 114.58 870.34 114.58 866.39 125.31 859.62 125.31 855.67 114.58"/><path class="cls-15" d="M901.13,167.41l0-33.22a12.92,12.92,0,0,0-5.08-14l-19-8.09-6.22,55.32Z"/><polygon class="cls-17" points="881.01 167.41 890.82 138.62 883.76 132.13 890.82 117.93 877.14 112.09 870.92 167.41 881.01 167.41"/><polygon class="cls-12" points="863.02 114.01 871.63 107.42 877.14 112.09 875.42 127.32 863.02 114.01"/><path class="cls-15" d="M824.92,167.41l0-33.22a12.92,12.92,0,0,1,5.07-14l19-8.09,6.22,55.32Z"/><polygon class="cls-17" points="845.04 167.41 835.23 138.62 842.28 132.13 835.23 117.93 848.91 112.09 855.13 167.41 845.04 167.41"/><polygon class="cls-12" points="863.02 114.01 854.42 107.42 848.91 112.09 850.62 127.32 863.02 114.01"/><rect class="cls-18" x="478.8" y="69.96" width="67.41" height="87.13"/><rect class="cls-19" x="485.03" y="69.96" width="54.96" height="87.13"/><path class="cls-18" d="M478.61,76.89s5.15,24.35,27.14,30.21h12.59s20.59-5.1,26-29.68Z"/><path class="cls-2" d="M536,141c.4,3,.83,6.05,1.31,9.07l1.39,9.06,1.42,8.31h15.42l-3.86-28.8A7.92,7.92,0,0,0,536,140.69Z"/><path class="cls-2" d="M484.39,167.41l4.8-26.18a7.92,7.92,0,0,0-15.58-2.89l-.05.27q-.87,4.57-1.6,9.18L470.44,157l-1.52,10.43Z"/><polygon class="cls-2" points="521.45 123.77 502.41 123.77 505.42 103.28 518.68 103.28 521.45 123.77"/><path class="cls-3" d="M509.18,111.39c3.55-.5,8.39-1,10.18-4l-.68-4.08H505.42l-1.49,10.12A13.1,13.1,0,0,1,509.18,111.39Z"/><path class="cls-2" d="M480.78,167.41h62.61l3.49-14.71c5.3-15.27-1.73-21.13-1.73-21.13l-24.23-10.11H503.25L479,131.57s-7,5.86-1.74,21.13Z"/><path class="cls-20" d="M543.37,167.41l3.44-14.47c-6.51-4.88-7.11-15.49-1.81-21.43l-21.63-9.2L512,123.6l-11.55-1-21.1,8.85c5.46,6,4.79,16.89-2,21.71l3.4,14.28Z"/><path class="cls-2" d="M539.35,72.84c-.61,4.57,1.23,8.58,4.1,9s5.69-3,6.3-7.58-1.23-8.58-4.1-9S540,68.27,539.35,72.84Z"/><g class="cls-4"><path class="cls-5" d="M542.88,71.48a5.69,5.69,0,0,1,.11-.68,6.57,6.57,0,0,1,.58-1.65c.31-.61.84-1.32,1.56-1.37a1.74,1.74,0,0,1,.55,0,1.83,1.83,0,0,1,.29.11c.06,0,.13.07.21.14a2.39,2.39,0,0,1,.75,1,5.57,5.57,0,0,1,.42,1.29,5.33,5.33,0,0,1,.1,1.3c-.06.46-.05.93-.13,1.33s-.14.79-.2,1.14-.16.69-.22,1-.15.54-.2.75c-.12.42-.18.67-.18.67l.35-.6c.09-.2.24-.42.36-.71s.27-.59.42-.95.24-.76.36-1.19a10.8,10.8,0,0,0,.26-1.33,4.8,4.8,0,0,0,0-1.56,6.14,6.14,0,0,0-.47-1.53,3.33,3.33,0,0,0-1.08-1.32,2.73,2.73,0,0,0-.42-.23,3,3,0,0,0-.39-.12,2.82,2.82,0,0,0-.87,0,2.22,2.22,0,0,0-1.34.83,3.9,3.9,0,0,0-.6,1.16,5.85,5.85,0,0,0-.26,1.84A3.62,3.62,0,0,0,542.88,71.48Z"/></g><path class="cls-3" d="M542.88,71.48s-.3-.48,1.56-.63c0,0,2.12.27,1,2.56A6,6,0,0,0,545,75c-.14.76.26,1.78-.2,2.47a1.44,1.44,0,0,1-2.43-.58c-.13-.76.76-2.09,1.16-2.63A1.79,1.79,0,0,0,542.88,71.48Z"/><g class="cls-4"><path class="cls-5" d="M542.32,76.74a.92.92,0,0,0-.14.13,1.22,1.22,0,0,0-.25.43,1.07,1.07,0,0,0-.08.33,1.14,1.14,0,0,0,0,.37c0,.13,0,.27.07.41s.12.25.18.37a1.72,1.72,0,0,0,.24.34,2.35,2.35,0,0,0,.29.26,1.33,1.33,0,0,0,.59.32,2,2,0,0,0,.65.12,3.57,3.57,0,0,0-.33-.55,1.57,1.57,0,0,0-.17-.21c-.05-.08-.09-.17-.15-.25a1.31,1.31,0,0,0-.17-.24,1,1,0,0,1-.14-.25,2.87,2.87,0,0,1-.26-.49,2.5,2.5,0,0,1-.09-.25,2.34,2.34,0,0,1-.09-.24C542.37,77,542.32,76.74,542.32,76.74Z"/></g><path class="cls-2" d="M485.36,72.84c.62,4.57-1.22,8.58-4.09,9s-5.7-3-6.31-7.58,1.23-8.58,4.11-9S484.76,68.27,485.36,72.84Z"/><g class="cls-4"><path class="cls-5" d="M481.84,71.48a5.69,5.69,0,0,0-.11-.68,6.57,6.57,0,0,0-.58-1.65c-.32-.61-.85-1.32-1.56-1.37a1.8,1.8,0,0,0-.56,0,1.77,1.77,0,0,0-.28.11c-.06,0-.13.07-.21.14a2.39,2.39,0,0,0-.75,1,5.13,5.13,0,0,0-.42,1.29,4.88,4.88,0,0,0-.1,1.3c.06.46.05.93.13,1.33s.13.79.19,1.14.16.69.22,1,.16.54.21.75c.12.42.18.67.18.67s-.14-.22-.35-.6c-.1-.2-.24-.42-.37-.71s-.26-.59-.4-.95-.25-.76-.37-1.19a9.21,9.21,0,0,1-.26-1.33,4.8,4.8,0,0,1,0-1.56,5.75,5.75,0,0,1,.47-1.53A3.3,3.3,0,0,1,478,67.33a2.44,2.44,0,0,1,.43-.23,2.28,2.28,0,0,1,.39-.12,2.76,2.76,0,0,1,.86,0,2.24,2.24,0,0,1,1.35.83,3.9,3.9,0,0,1,.6,1.16,5.85,5.85,0,0,1,.26,1.84A3.62,3.62,0,0,1,481.84,71.48Z"/></g><path class="cls-3" d="M481.84,71.48s.3-.48-1.57-.63c0,0-2.11.27-1,2.56a6.38,6.38,0,0,1,.53,1.54c.14.76-.26,1.78.19,2.47a1.45,1.45,0,0,0,2.44-.58c.13-.76-.75-2.09-1.17-2.63A1.79,1.79,0,0,1,481.84,71.48Z"/><g class="cls-4"><path class="cls-5" d="M482.41,76.74s.06,0,.13.13a1.22,1.22,0,0,1,.25.43,1.47,1.47,0,0,1,.07.33.77.77,0,0,1,0,.37,3.2,3.2,0,0,1-.07.41,2.48,2.48,0,0,1-.17.37,1.72,1.72,0,0,1-.24.34,3.4,3.4,0,0,1-.29.26,1.33,1.33,0,0,1-.59.32,2,2,0,0,1-.65.12,3.08,3.08,0,0,1,.32-.55l.17-.21c.06-.08.09-.17.16-.25a1.25,1.25,0,0,1,.16-.24c.08-.07.09-.16.14-.25a2.3,2.3,0,0,0,.26-.49,1.3,1.3,0,0,0,.1-.25,2.25,2.25,0,0,0,.08-.24C482.35,77,482.41,76.74,482.41,76.74Z"/></g><path class="cls-2" d="M527.8,25.42a42.09,42.09,0,0,0-31.51,0s-25.52,12.25-9.78,63.19c2.26,7.29,9.11,12.89,15.56,17,6.65,4.21,13.34,4.2,20,0,6.45-4.07,13.3-9.67,15.55-17C553.33,37.67,527.8,25.42,527.8,25.42Z"/><circle class="cls-21" cx="543.02" cy="80.65" r="1.87"/><path class="cls-21" d="M483.56,80.65a1.87,1.87,0,1,1-1.87-1.87A1.87,1.87,0,0,1,483.56,80.65Z"/><path class="cls-18" d="M482.65,73.1s0-8.32-4.61-7.7C473.88,30.92,489.72,27,489.72,27c-.82-6.16,7.6-11.49,7.6-11.49,26.65-7.19,39.46,7.27,39.46,7.27,19.07,16.72,8.34,42.67,8.34,42.67-4.63-.62-4.63,7.7-4.63,7.7-.61-27.71-9.23-33.26-9.23-33.26-20.22-11.19-39.37,0-39.37,0a19.63,19.63,0,0,0-4.26,14.48S483.12,56.79,482.65,73.1Z"/><polygon class="cls-2" points="494.53 40 492.36 31.54 496.75 39.09 494.53 40"/><path class="cls-22" d="M499.9,167.41v-45.1l-20.55,8.62c5.46,6,4.79,16.9-2,21.71l3.51,14.77Z"/><path class="cls-22" d="M543.25,167.41l3.56-14.95C540.3,147.58,539.7,137,545,131l-20-8.5v44.89Z"/><polygon class="cls-21" points="511.95 123.46 503.29 116.84 493.06 123.93 503.22 136.85 511.95 123.46"/><polygon class="cls-21" points="511.91 123.46 520.57 116.84 530.8 123.93 520.64 136.85 511.91 123.46"/><path class="cls-22" d="M484.39,167.41l4.8-26.18c.81-4.3-1.84-9.41-6.15-10.22s-9.22,3.34-10,7.64l-4.94,28.76Z"/><path class="cls-22" d="M539.84,167.41h17.09l-4.38-29.24c-.81-4.3-7.14-8.31-11.44-7.5s-7,5.92-6.14,10.22Z"/><path class="cls-23" d="M230.5,145.75h82a8,8,0,0,1,8,8v164a8,8,0,0,1-8,8H8.5a8,8,0,0,1-8-8v-164a8,8,0,0,1,8-8h82"/><path class="cls-24" d="M129.67,201.34h-2.29v3.83h-2.66v-.9h-4V205c0,1.3-.31,1.83-1.17,2.2a11.6,11.6,0,0,1-3.89.37,8.41,8.41,0,0,0-.86-2.06c1,0,2.35,0,2.7,0s.55-.15.55-.55v-.68H111.4v-1.89h6.69v-1h-8.71v-2h8.71v-1h-6.51v-1.76h6.51v-1h-6v-4.35h6v-.9h-8.2v-2.07h8.2v-1.43h2.67v1.43h8.4v2.07h-8.4v.9H127v4.35h-6.24v1h6.62v2.71h2.29ZM118.09,194v-1h-3.45v1Zm2.67-1v1h3.56v-1Zm0,6.38h4v-1h-4Zm4,2h-4v1h4Z"/><path class="cls-24" d="M144.93,202.44a19.66,19.66,0,0,0,7,2.4,11.63,11.63,0,0,0-1.76,2.38,18.91,18.91,0,0,1-7.39-3.72v4h-2.58v-3.83a20.69,20.69,0,0,1-7.37,3.56,12,12,0,0,0-1.67-2.17,23.07,23.07,0,0,0,7-2.58h-6.31v-2.15h8.4v-1h-6.34v-1.9h6.34v-1h-7.44v-2h4.19a10.92,10.92,0,0,0-.75-1.72l.26,0h-4.6v-2.14h2.95a20.3,20.3,0,0,0-1.36-2.72l2.24-.77a16.37,16.37,0,0,1,1.67,3.1l-1.08.39h2v-3.58h2.44v3.58h1.63v-3.58h2.46v3.58h2l-.79-.24a16.9,16.9,0,0,0,1.38-3.19l2.75.66c-.61,1-1.21,2-1.71,2.77h2.86v2.14h-4.14c-.35.64-.7,1.23-1,1.76h4.31v2h-7.63v1h6.6v1.9h-6.6v1h8.55v2.15Zm-6-9.81a11.31,11.31,0,0,1,.75,1.69l-.38.07h4.12c.26-.53.53-1.17.77-1.76Z"/><path class="cls-24" d="M160,193.27c-.79,5.61-2.64,10.14-5.11,12.52a9.51,9.51,0,0,0-1.89-2c2-1.78,3.41-4.93,4.14-8.64h-3.39v-2.36h4.18l.44-.11Zm4.75,8h3.94v2.16h-3.94v1.21c0,1.39-.28,2-1.21,2.42a11.27,11.27,0,0,1-4.11.44,10.49,10.49,0,0,0-.95-2.46c1.3.06,2.71.06,3.1.06s.55-.13.55-.5v-1.17h-3.8v-2.16h3.8v-1.4h-2.7v-2.07h2.7v-1.41h-2.17v-2.05h2.17v-2.48h1.37a19,19,0,0,0,2.15-1.41h-9v-2.38h11.62l.55-.11,1.76,1.28a20.72,20.72,0,0,1-5.88,4.38v.72H167v2.05h-2.33v1.41h2.86v2.07h-2.86Zm9-7c-1,1.21-2.18,2.6-3.21,3.63a12.08,12.08,0,0,0,3.5,5.75,9.49,9.49,0,0,0-1.94,2.24c-3-2.79-4.35-7.63-5.12-13.24l2.31-.38c.15,1,.33,2.05.52,3a19.5,19.5,0,0,0,1.87-2.66Z"/><path class="cls-24" d="M178,200.11a19.17,19.17,0,0,1-1.32,5.65,12.39,12.39,0,0,0-1.83-.88,15.74,15.74,0,0,0,1.12-5.1Zm17.8,6.36h-9.88v.92h-2.44v-8.58l-1.65.73c-.07-.38-.16-.8-.29-1.26l-1.12.09v9.09h-2.2v-8.91l-2.91.22-.26-2.27c.53,0,1.1-.07,1.74-.09.28-.39.59-.83.88-1.27a18.11,18.11,0,0,0-2.55-3.19l1.25-1.7c.18.16.35.33.53.51a27.78,27.78,0,0,0,1.58-3.83l2.22.77c-.79,1.52-1.69,3.26-2.46,4.49a10.08,10.08,0,0,1,.7.9c.73-1.23,1.39-2.51,1.9-3.59l2.07.95c-.82,1.34-1.76,2.82-2.73,4.2l1.71-.7a22.63,22.63,0,0,1,1.59,4V187.74h2.44v12.72a14,14,0,0,0,3.08-4.4h-2.64v-2.33h3.28v-6.38h2.26v6.38h3.46v2.33H191.9v.33c.95.81,3.22,3.1,3.75,3.68l-1.55,2a33.8,33.8,0,0,0-2.2-3v4.73h-2.26v-4.62A13.84,13.84,0,0,1,187,203a12.55,12.55,0,0,0-1-2.33v3.45h9.88Zm-15-10.3a14.18,14.18,0,0,0-.66-1.52c-.4.57-.77,1.12-1.17,1.63Zm1.41,3.52a15.69,15.69,0,0,1,1.12,4l-1.83.6a16.64,16.64,0,0,0-1-4.05Zm5.25-6.23a19.27,19.27,0,0,0-1.25-4.24l1.85-.64a17,17,0,0,1,1.38,4.18Zm8-4.37c-.61,1.54-1.3,3.3-1.85,4.42l-1.74-.62a28.3,28.3,0,0,0,1.35-4.51Z"/><path class="cls-24" d="M207.59,202.38c0-.64.07-1.65.09-2.6-1.61.88-2.49,1.74-2.49,2.82s1,1.54,3.17,1.54a33.77,33.77,0,0,0,6.18-.64l-.09,2.84c-1.45.17-4.11.35-6.16.35-3.41,0-6-.82-6-3.63s2.64-4.54,5.13-5.81a1.72,1.72,0,0,0-1.52-.75,5.35,5.35,0,0,0-3.41,1.5,27.68,27.68,0,0,0-2,2.4l-2.33-1.74a21.39,21.39,0,0,0,4.8-6h-.27c-.88,0-2.48,0-3.67-.15V190a29,29,0,0,0,3.83.24h1a11.59,11.59,0,0,0,.44-2.49l2.86.24c-.11.53-.26,1.28-.52,2.16a51,51,0,0,0,6.16-.64l0,2.55a70.84,70.84,0,0,1-7.1.58,12.73,12.73,0,0,1-1.26,2.2,6.78,6.78,0,0,1,2.47-.44,3,3,0,0,1,2.9,1.69c1.12-.53,2.05-.9,2.95-1.3s1.61-.75,2.4-1.12l1.1,2.53a25.42,25.42,0,0,0-2.6.92c-1,.38-2.2.86-3.54,1.48,0,1.21.07,2.82.09,3.81Z"/><path class="cls-24" d="M81.35,234.46c.86,1.48,2.4,2.09,4.65,2.18,2.64.11,7.83.05,10.86-.2a12.34,12.34,0,0,0-.81,2.56c-2.73.13-7.39.17-10.08.06s-4.38-.75-5.7-2.44c-.88.86-1.78,1.69-2.9,2.64l-1.23-2.6a25.83,25.83,0,0,0,2.73-2v-4.8H76.4v-2.4h4.95Zm-1.56-9.85a17.38,17.38,0,0,0-3.3-3.66l2-1.49A19.3,19.3,0,0,1,82,223Zm3.87,2c-.39.41-.79.79-1.18,1.14a19.39,19.39,0,0,0-1.92-2.07A16,16,0,0,0,85.42,219l2.6.75a24.83,24.83,0,0,1-1.12,2.33h2.51a27.36,27.36,0,0,0,.92-2.9l2.88.55c-.39.79-.79,1.61-1.19,2.35h3.9v2.2H91.56v1.39h3.76v2.11H91.56v1.45h3.68v2.12H91.56v1.49h4.73V235H83.66Zm5.39-2.34H86.19v1.39h2.86Zm0,3.5H86.19v1.45h2.86Zm0,3.57H86.19v1.49h2.86Z"/><path class="cls-24" d="M112.13,223.4a7.18,7.18,0,0,1,5.72,7.34c0,4.63-3.3,7.27-7.85,7.95l-1.67-2.51c4.79-.42,6.66-2.86,6.66-5.59a4.68,4.68,0,0,0-3.52-4.8,26.58,26.58,0,0,1-3,6.94c.4.46.8.9,1.19,1.29l-2.18,1.74c-.26-.28-.52-.57-.74-.86-1.48,1.59-2.69,2.34-4.3,2.34-1.8,0-3.47-1.54-3.47-4.36a9.56,9.56,0,0,1,3.21-6.89c-.2-.57-.4-1.16-.57-1.76a16.2,16.2,0,0,0-.88-2.26l2.86-.88c.13.7.31,1.43.48,2.06.11.42.24.88.4,1.35a11.27,11.27,0,0,1,4.93-1.3c.09-.38.15-.73.22-1.06a11.93,11.93,0,0,0,.15-2.07l3,.29c-.18.59-.38,1.65-.51,2.2Zm-6.93,9.35a23.71,23.71,0,0,1-2-4.18,6.61,6.61,0,0,0-1.59,4.09c0,1.06.44,1.74,1.23,1.74A3.56,3.56,0,0,0,105.2,232.75Zm.11-5.88a23.27,23.27,0,0,0,1.54,3.46,26.32,26.32,0,0,0,1.94-4.67A8.68,8.68,0,0,0,105.31,226.87Z"/><path class="cls-24" d="M132.94,225c-1.29.28-2.77.53-4.22.7-.2,1-.42,1.92-.66,2.8a70,70,0,0,1-3.46,10.07l-3-1a48.84,48.84,0,0,0,3.76-9.81c.15-.57.31-1.19.46-1.81-.51,0-1,0-1.43,0-1.06,0-1.87,0-2.64-.09l-.07-2.73a22,22,0,0,0,2.75.18c.64,0,1.28,0,1.94-.07.09-.48.16-.9.2-1.25a11.69,11.69,0,0,0,.09-2.2l3.32.26c-.15.6-.35,1.56-.46,2l-.18.83c1.23-.19,2.47-.44,3.65-.72Zm-.44,7.15a7.81,7.81,0,0,0-.3,1.83c0,.94.55,1.65,2.88,1.65a25.8,25.8,0,0,0,4.53-.44l-.11,2.79a35.59,35.59,0,0,1-4.44.31c-3.68,0-5.55-1.28-5.55-3.48a14.62,14.62,0,0,1,.38-2.9Zm-1.27-5.48c1.21-.11,2.77-.22,4.18-.22,1.23,0,2.55.07,3.83.2l-.07,2.62a29.83,29.83,0,0,0-3.74-.27,33,33,0,0,0-4.2.24Z"/><path class="cls-24" d="M147,224.52c0,1.41,0,3.06.13,4.62.31,3.15,1,5.28,2.34,5.28,1,0,1.89-2.55,2.31-4.27l2.2,2.64c-1.46,3.79-2.82,5.13-4.58,5.13-2.38,0-4.47-2.16-5.08-8-.2-2-.25-4.53-.25-5.88a12.85,12.85,0,0,0-.15-2.2l3.34,0A17.67,17.67,0,0,0,147,224.52Zm15.14,8.95-2.88,1.1c-.33-3.49-1.5-8.62-3.88-11.31l2.78-.92C160.22,224.87,161.9,230.13,162.14,233.47Z"/><path class="cls-24" d="M180.93,227.88a8.12,8.12,0,0,1,2.11,5.24c0,3.28-2.95,5.66-7.72,5.66-3.44,0-5.86-1.5-5.86-5.13,0-.53.07-1.3.16-2.2a23.82,23.82,0,0,1-4.18-.73l.15-2.64a18.14,18.14,0,0,0,4.29.86c.13-1,.24-2,.37-3a27.2,27.2,0,0,1-4.33-.77l.15-2.53a20.12,20.12,0,0,0,4.47.81c.09-.66.13-1.25.18-1.73a15.16,15.16,0,0,0,0-1.94l3.06.18c-.18.79-.29,1.36-.37,1.93-.07.38-.14,1-.25,1.65a32.54,32.54,0,0,0,4-.26l-.09,2.59a37.16,37.16,0,0,1-4.25.2c-.13,1-.26,2-.37,3h.15c1.35,0,2.95-.11,4.38-.26L177,231.4c-1.24.11-2.51.2-3.85.2h-.88c-.05.64-.09,1.19-.09,1.59,0,1.78,1.1,2.77,3.25,2.77,3,0,4.71-1.39,4.71-3.19a6.07,6.07,0,0,0-2.24-4.23Z"/><path class="cls-24" d="M195.86,235.87c.84-.11,1.46-.22,2-.35,2.79-.66,5-2.66,5-5.83,0-3-1.63-5.26-4.56-5.77a46.63,46.63,0,0,1-1.29,5.92c-1.3,4.4-3.19,7.09-5.57,7.09s-4.45-2.66-4.45-6.34c0-5,4.38-9.33,10-9.33,5.39,0,8.8,3.76,8.8,8.52,0,4.57-2.82,7.83-8.32,8.67Zm-1.69-6.6a35.44,35.44,0,0,0,1.17-5.28,6.84,6.84,0,0,0-5.53,6.31c0,2.21.88,3.28,1.7,3.28S193.29,232.22,194.17,229.27Z"/><path class="cls-24" d="M217.86,235.87c.84-.11,1.46-.22,2-.35,2.79-.66,5-2.66,5-5.83,0-3-1.63-5.26-4.56-5.77a46.63,46.63,0,0,1-1.29,5.92c-1.3,4.4-3.19,7.09-5.57,7.09s-4.45-2.66-4.45-6.34c0-5,4.38-9.33,10-9.33,5.39,0,8.8,3.76,8.8,8.52,0,4.57-2.82,7.83-8.32,8.67Zm-1.69-6.6a35.44,35.44,0,0,0,1.17-5.28,6.84,6.84,0,0,0-5.53,6.31c0,2.21.88,3.28,1.7,3.28S215.29,232.22,216.17,229.27Z"/><path class="cls-24" d="M235.11,239.06a41.11,41.11,0,0,0-4.73-4.86l2.29-2a41.93,41.93,0,0,1,4.8,4.82Z"/><path class="cls-24" d="M50.44,251.68a35.45,35.45,0,0,1-1.8,4v15.69H46V259.88a21.56,21.56,0,0,1-1.54,1.85A16.91,16.91,0,0,0,43.07,259,22.54,22.54,0,0,0,48,250.89Zm13.36,3.63H62.48v13.05c0,1.51-.33,2.22-1.28,2.64a12.89,12.89,0,0,1-4.46.48,10,10,0,0,0-.88-2.68c1.43.06,3,.06,3.41.06s.57-.13.57-.55v-13H50.25V252.8H63.8ZM53,265.65v1.43H50.51v-9.4h7.33v8Zm0-5.7v3.43h2.44V260Z"/><path class="cls-24" d="M74.67,252.23c-.14.57-.29,1.25-.4,1.8s-.29,1.45-.44,2.25c.73,0,1.39-.09,1.83-.09,2.31,0,3.93,1,3.93,4.16,0,2.57-.3,6-1.23,7.94a3.48,3.48,0,0,1-3.58,2,12,12,0,0,1-2.6-.31l-.48-2.88a12.59,12.59,0,0,0,2.66.46,1.6,1.6,0,0,0,1.63-.94,16.28,16.28,0,0,0,.9-6c0-1.73-.75-2-2.14-2-.35,0-.88.05-1.49.09-.84,3.3-2.42,8.43-4.43,11.64L66,269.26c2.14-2.86,3.61-7.22,4.4-10.19l-1.87.24c-.61.07-1.73.22-2.42.33l-.24-2.95a17.81,17.81,0,0,0,2.31,0c.68,0,1.72-.08,2.82-.17a24.12,24.12,0,0,0,.46-4.62Zm7.52,2a39.27,39.27,0,0,1,3.81,8.1l-2.75,1.3a25.45,25.45,0,0,0-3.7-8.3Z"/><path class="cls-24" d="M93.21,261.36a10.69,10.69,0,0,1,6.4-2.07c3.83,0,6,2.35,6,5,0,4-3.14,7-12.21,6.24l-.83-2.86c6.53.93,10-.68,10-3.45,0-1.41-1.35-2.44-3.26-2.44a7.66,7.66,0,0,0-6,2.55,4.65,4.65,0,0,0-.81,1.28L90,265a80.8,80.8,0,0,0,1.08-9.09l3,.4C93.74,257.49,93.36,260.1,93.21,261.36Zm.68-9.46a68.57,68.57,0,0,0,8.72,1.69l-.66,2.69c-2.2-.29-7.07-1.3-8.76-1.74Z"/><path class="cls-24" d="M129.58,264.73h-8.69v3.58c0,1.56-.4,2.25-1.43,2.66a14.67,14.67,0,0,1-4.89.44,10,10,0,0,0-1.08-2.59c1.63.06,3.48.06,4,.06s.7-.17.7-.61v-3.54h-8.69v-2.56h8.69V259.6H111v-2.51h7.2v-2.57c-2.29.19-4.6.33-6.76.41a8.43,8.43,0,0,0-.66-2.31,81.19,81.19,0,0,0,14.94-1.76l1.9,2.18a51.9,51.9,0,0,1-6.69,1.17v2.88h7.39v2.51h-7.39v2.57h8.69Z"/><path class="cls-24" d="M141.59,266.38c0-.64.07-1.65.09-2.6-1.61.88-2.49,1.74-2.49,2.82s1,1.54,3.17,1.54a33.77,33.77,0,0,0,6.18-.64l-.09,2.84c-1.45.17-4.11.35-6.16.35-3.41,0-6-.82-6-3.63s2.64-4.54,5.13-5.81a1.72,1.72,0,0,0-1.52-.75,5.35,5.35,0,0,0-3.41,1.5,27.68,27.68,0,0,0-2,2.4l-2.33-1.74a21.39,21.39,0,0,0,4.8-6h-.27c-.88,0-2.48,0-3.67-.15V254a29,29,0,0,0,3.83.24h1a11.59,11.59,0,0,0,.44-2.49l2.86.24c-.11.53-.26,1.28-.52,2.16a51,51,0,0,0,6.16-.64l0,2.55a70.84,70.84,0,0,1-7.1.58,12.73,12.73,0,0,1-1.26,2.2,6.78,6.78,0,0,1,2.47-.44,3,3,0,0,1,2.9,1.69c1.12-.53,2.05-.9,2.95-1.3s1.61-.75,2.4-1.12l1.1,2.53a25.42,25.42,0,0,0-2.6.92c-1,.38-2.2.86-3.54,1.48,0,1.21.07,2.82.09,3.81Z"/><path class="cls-24" d="M156.46,256.83c1.69-.51,6.12-2.07,9.31-2.07,3.94,0,7,2.26,7,6.29,0,4.93-4.71,8.1-12.39,8.49l-1.25-2.9c5.89-.13,10.51-1.85,10.51-5.63,0-2.05-1.4-3.61-4-3.61-3.21,0-8.36,2.15-10.63,3.17l-1.23-3.08A25.81,25.81,0,0,0,156.46,256.83Z"/><path class="cls-24" d="M180.73,252.49a16.7,16.7,0,0,0-.51,1.76c-.53,2.42-1.3,7-.73,9.68.29-.66.66-1.71,1-2.51l1.38.86a53.63,53.63,0,0,0-1.47,5.33,5,5,0,0,0-.16,1.05c0,.22.05.6.07.91l-2.44.24a24.36,24.36,0,0,1-1.26-7.07,56.41,56.41,0,0,1,.73-8.69,11.34,11.34,0,0,0,.13-1.89Zm14,6.34c-.88.11-2,.2-3.24.26v.9c0,5.15-.39,8.3-4.73,11.07l-2.53-2a8.3,8.3,0,0,0,2.56-1.74c1.67-1.73,2-3.67,2-7.35v-.79c-.81,0-1.65.05-2.44.05-1,0-2.29-.07-3.37-.11v-2.78a22.13,22.13,0,0,0,3.3.22c.79,0,1.63,0,2.47,0,0-1.21-.07-2.33-.11-2.93a10.27,10.27,0,0,0-.25-1.49h3.19a14.54,14.54,0,0,0-.11,1.47c0,.49,0,1.61,0,2.8a28,28,0,0,0,3.28-.4Z"/><path class="cls-24" d="M200.31,254.34c1.8-.18,5.41-.48,9.39-.84,2.25-.17,4.64-.3,6.16-.37l0,2.82a22.87,22.87,0,0,0-4.2.28,6.65,6.65,0,0,0-4.6,6.1c0,3.58,3.37,4.86,7,5.06l-1,3c-4.57-.31-8.89-2.77-8.89-7.48a8.68,8.68,0,0,1,3.22-6.71c-1.87.2-6.47.68-9,1.23l-.27-3C199,254.43,199.87,254.38,200.31,254.34Z"/><path class="cls-24" d="M238.83,263.76A41.39,41.39,0,0,1,233.9,267a14.63,14.63,0,0,0,5.9,2.18,10.06,10.06,0,0,0-1.65,2.37c-5.48-1.14-8.52-3.89-10.36-8.53H225v5c1.63-.22,3.37-.48,5-.77l.15,2.45c-3.34.59-6.93,1.12-9.57,1.56l-.64-2.55c.71-.09,1.48-.18,2.34-.31V253H228v-2.11h2.7V253h6.43v9.49ZM225,255.22v1.63h9.44v-1.63Zm0,5.46h9.44v-1.74H225Zm5.5,2.29a9.65,9.65,0,0,0,1.67,2.48,32.35,32.35,0,0,0,3.63-2.48Z"/><path class="cls-24" d="M246,256.52c0,1.41,0,3.06.13,4.62.31,3.15,1,5.28,2.34,5.28,1,0,1.89-2.55,2.31-4.27l2.2,2.64c-1.46,3.79-2.82,5.13-4.58,5.13-2.38,0-4.47-2.16-5.08-8-.2-2-.25-4.53-.25-5.88a12.85,12.85,0,0,0-.15-2.2l3.34,0A17.67,17.67,0,0,0,246,256.52Zm15.14,9-2.88,1.1c-.33-3.49-1.5-8.62-3.88-11.31l2.78-.92C259.22,256.87,260.9,262.13,261.14,265.47Z"/><path class="cls-24" d="M272.67,252.23c-.14.57-.29,1.25-.4,1.8s-.29,1.45-.44,2.25c.73,0,1.39-.09,1.83-.09,2.31,0,3.93,1,3.93,4.16,0,2.57-.3,6-1.23,7.94a3.48,3.48,0,0,1-3.58,2,12,12,0,0,1-2.6-.31l-.48-2.88a12.59,12.59,0,0,0,2.66.46,1.6,1.6,0,0,0,1.63-.94,16.28,16.28,0,0,0,.9-6c0-1.73-.75-2-2.14-2-.35,0-.88.05-1.49.09-.84,3.3-2.42,8.43-4.43,11.64L264,269.26c2.14-2.86,3.61-7.22,4.4-10.19l-1.87.24c-.61.07-1.73.22-2.42.33l-.24-2.95a17.81,17.81,0,0,0,2.31,0c.68,0,1.72-.08,2.82-.17a24.12,24.12,0,0,0,.46-4.62Zm7.52,2a39.27,39.27,0,0,1,3.81,8.1l-2.75,1.3a25.45,25.45,0,0,0-3.7-8.3Z"/><path class="cls-24" d="M94.48,288c-.29.38-.75,1.08-1.13,1.65,0,.22,0,.42,0,.64a10.63,10.63,0,0,1,6.4-2.27,5.76,5.76,0,0,1,6,5.88c0,4.4-2.75,7-8.16,8.12l-1.3-2.64c3.83-.6,6.56-2.14,6.56-5.55a3.32,3.32,0,0,0-3.55-3.23,9.14,9.14,0,0,0-6.18,2.79c0,.62,0,1.24,0,1.81,0,1.78,0,3.61.13,5.65,0,.4.11,1.19.15,1.67h-3c0-.46.07-1.25.07-1.6,0-1.7,0-2.95.08-4.8-.92,1.39-2,3-2.75,4L86,297.74c1.23-1.5,3.43-4.4,4.66-6.23l.09-1.52-4,.51-.26-2.8a15.16,15.16,0,0,0,1.89,0c.64,0,1.58-.15,2.51-.28,0-.82.08-1.43.08-1.68a11.55,11.55,0,0,0-.08-1.93l3.19.09c-.14.61-.31,1.73-.49,3.1Z"/><path class="cls-24" d="M117.18,284.23c-.13.57-.29,1.25-.4,1.8s-.28,1.45-.44,2.25c.73,0,1.39-.09,1.83-.09,2.31,0,3.94,1,3.94,4.16,0,2.57-.31,6-1.23,7.94a3.5,3.5,0,0,1-3.59,2,12,12,0,0,1-2.6-.31l-.48-2.88a12.7,12.7,0,0,0,2.66.46,1.59,1.59,0,0,0,1.63-.94,16.07,16.07,0,0,0,.9-6c0-1.73-.75-2-2.13-2-.35,0-.88.05-1.5.09-.83,3.3-2.42,8.43-4.42,11.64l-2.86-1.14c2.13-2.86,3.61-7.22,4.4-10.19l-1.87.24c-.62.07-1.74.22-2.42.33l-.24-2.95a17.81,17.81,0,0,0,2.31,0c.68,0,1.71-.08,2.81-.17a24.19,24.19,0,0,0,.47-4.62Zm7.53,2a39.22,39.22,0,0,1,3.8,8.1l-2.75,1.3a25.22,25.22,0,0,0-3.69-8.3Z"/><path class="cls-24" d="M135.73,293.36a10.67,10.67,0,0,1,6.4-2.07c3.83,0,6.05,2.35,6.05,5,0,4-3.15,7-12.21,6.24l-.84-2.86c6.54.93,10-.68,10-3.45,0-1.41-1.34-2.44-3.26-2.44a7.62,7.62,0,0,0-6,2.55,4.71,4.71,0,0,0-.82,1.28l-2.53-.64a78.55,78.55,0,0,0,1.08-9.09l2.95.4C136.25,289.49,135.88,292.1,135.73,293.36Zm.68-9.46a68.77,68.77,0,0,0,8.71,1.69l-.66,2.69c-2.2-.29-7.06-1.3-8.76-1.74Z"/><path class="cls-24" d="M163.65,288.72a31.89,31.89,0,0,1-3.79.74,39.91,39.91,0,0,1-4.66,9.33l-2.67-1.34a33.34,33.34,0,0,0,4.45-7.7c-.38,0-.75,0-1.12,0-.91,0-1.79,0-2.73-.06l-.2-2.56a27.8,27.8,0,0,0,2.9.16c.64,0,1.3,0,2-.07a18.88,18.88,0,0,0,.6-3.65l3,.31c-.18.7-.44,1.8-.75,3a24.47,24.47,0,0,0,2.93-.68Zm2.86,1.95a26.15,26.15,0,0,0,0,2.8c0,.62.06,1.67.13,2.75a14.44,14.44,0,0,1,4.51,2.79l-1.45,2.34a18.6,18.6,0,0,0-2.95-2.31v.19c0,2-1.1,3.61-4.21,3.61-2.7,0-4.84-1.21-4.84-3.61,0-2.13,1.79-3.78,4.82-3.78a14,14,0,0,1,1.48.09c-.07-1.63-.18-3.55-.25-4.87Zm-2.4,7.22a7.93,7.93,0,0,0-1.76-.22c-1.26,0-2.07.53-2.07,1.3s.68,1.36,1.87,1.36a1.76,1.76,0,0,0,2-2Zm6.14-6.05a29.26,29.26,0,0,0-5.24-3.1l1.41-2.16a39.35,39.35,0,0,1,5.37,2.95Z"/><path class="cls-24" d="M178.52,288.52a45.73,45.73,0,0,0,.13,4.62c.31,3.15,1,5.28,2.33,5.28,1,0,1.89-2.55,2.31-4.27l2.2,2.64c-1.45,3.79-2.82,5.13-4.58,5.13-2.37,0-4.46-2.16-5.08-8-.2-2-.24-4.53-.24-5.88a12.85,12.85,0,0,0-.15-2.2l3.34.05A17.67,17.67,0,0,0,178.52,288.52Zm15.13,9-2.88,1.1c-.33-3.49-1.49-8.62-3.87-11.31l2.77-.92C191.74,288.87,193.41,294.13,193.65,297.47Z"/><path class="cls-24" d="M197.15,299.74a2,2,0,1,1,2,2.11A2,2,0,0,1,197.15,299.74Zm8.34,0a2,2,0,1,1,2,2.11A2,2,0,0,1,205.49,299.74Zm8.34,0a2,2,0,1,1,2,2.11A2,2,0,0,1,213.83,299.74Z"/><path class="cls-24" d="M227.8,299.65a3.56,3.56,0,1,1-3.57-3.56A3.57,3.57,0,0,1,227.8,299.65Zm-1.59,0a2,2,0,1,0-2,2A2,2,0,0,0,226.21,299.65Z"/><path class="cls-23" d="M582.5,145.75h82a8,8,0,0,1,8,8v164a8,8,0,0,1-8,8h-304a8,8,0,0,1-8-8v-164a8,8,0,0,1,8-8h82"/><path class="cls-24" d="M448.67,201.34h-2.29v3.83h-2.66v-.9h-4V205c0,1.3-.31,1.83-1.17,2.2a11.6,11.6,0,0,1-3.89.37,8.41,8.41,0,0,0-.86-2.06c1.05,0,2.35,0,2.7,0s.55-.15.55-.55v-.68H430.4v-1.89h6.69v-1h-8.71v-2h8.71v-1h-6.51v-1.76h6.51v-1h-6v-4.35h6v-.9h-8.2v-2.07h8.2v-1.43h2.67v1.43h8.4v2.07h-8.4v.9H446v4.35h-6.24v1h6.62v2.71h2.29ZM437.09,194v-1h-3.45v1Zm2.67-1v1h3.56v-1Zm0,6.38h4v-1h-4Zm4,2h-4v1h4Z"/><path class="cls-24" d="M463.93,202.44a19.66,19.66,0,0,0,7,2.4,11.63,11.63,0,0,0-1.76,2.38,18.91,18.91,0,0,1-7.39-3.72v4h-2.58v-3.83a20.69,20.69,0,0,1-7.37,3.56,12,12,0,0,0-1.67-2.17,23.07,23.07,0,0,0,6.95-2.58h-6.31v-2.15h8.4v-1h-6.34v-1.9h6.34v-1h-7.44v-2h4.19a10.92,10.92,0,0,0-.75-1.72l.26,0h-4.6v-2.14h3a20.3,20.3,0,0,0-1.36-2.72l2.24-.77a16.37,16.37,0,0,1,1.67,3.1l-1.08.39h2v-3.58h2.44v3.58h1.63v-3.58h2.46v3.58h2l-.79-.24a16.9,16.9,0,0,0,1.38-3.19l2.75.66c-.61,1-1.21,2-1.71,2.77h2.86v2.14h-4.14c-.35.64-.7,1.23-1,1.76h4.31v2h-7.63v1h6.6v1.9h-6.6v1h8.55v2.15Zm-6-9.81a11.31,11.31,0,0,1,.75,1.69l-.38.07h4.12c.26-.53.53-1.17.77-1.76Z"/><path class="cls-24" d="M479,193.27c-.79,5.61-2.64,10.14-5.11,12.52a9.51,9.51,0,0,0-1.89-2c2-1.78,3.41-4.93,4.14-8.64h-3.39v-2.36h4.18l.44-.11Zm4.75,8h3.94v2.16h-3.94v1.21c0,1.39-.28,2-1.21,2.42a11.27,11.27,0,0,1-4.11.44,10.49,10.49,0,0,0-.95-2.46c1.3.06,2.71.06,3.1.06s.55-.13.55-.5v-1.17h-3.8v-2.16h3.8v-1.4h-2.7v-2.07h2.7v-1.41h-2.17v-2.05h2.17v-2.48h1.37a19,19,0,0,0,2.15-1.41h-8.95v-2.38h11.62l.55-.11,1.76,1.28a20.72,20.72,0,0,1-5.88,4.38v.72H486v2.05h-2.33v1.41h2.86v2.07h-2.86Zm9-7c-1,1.21-2.18,2.6-3.21,3.63a12.08,12.08,0,0,0,3.5,5.75,9.49,9.49,0,0,0-1.94,2.24c-3-2.79-4.35-7.63-5.12-13.24l2.31-.38c.15,1,.33,2.05.52,3a19.5,19.5,0,0,0,1.87-2.66Z"/><path class="cls-24" d="M497,200.11a19.17,19.17,0,0,1-1.32,5.65,12.39,12.39,0,0,0-1.83-.88,15.74,15.74,0,0,0,1.12-5.1Zm17.8,6.36h-9.88v.92h-2.44v-8.58l-1.65.73c-.07-.38-.16-.8-.29-1.26l-1.12.09v9.09h-2.2v-8.91l-2.91.22-.26-2.27c.53,0,1.1-.07,1.74-.09.28-.39.59-.83.88-1.27a18.11,18.11,0,0,0-2.55-3.19l1.25-1.7c.18.16.35.33.53.51a27.78,27.78,0,0,0,1.58-3.83l2.22.77c-.79,1.52-1.69,3.26-2.46,4.49a10.08,10.08,0,0,1,.7.9c.73-1.23,1.39-2.51,1.9-3.59l2.07.95c-.82,1.34-1.76,2.82-2.73,4.2l1.71-.7a22.63,22.63,0,0,1,1.59,4V187.74h2.44v12.72a14,14,0,0,0,3.08-4.4h-2.64v-2.33h3.28v-6.38h2.26v6.38h3.46v2.33H510.9v.33c1,.81,3.22,3.1,3.75,3.68l-1.55,2a33.8,33.8,0,0,0-2.2-3v4.73h-2.26v-4.62A13.84,13.84,0,0,1,506,203a12.55,12.55,0,0,0-1-2.33v3.45h9.88Zm-15-10.3a14.18,14.18,0,0,0-.66-1.52c-.4.57-.77,1.12-1.17,1.63Zm1.41,3.52a15.69,15.69,0,0,1,1.12,4l-1.83.6a16.64,16.64,0,0,0-1-4.05Zm5.25-6.23a19.27,19.27,0,0,0-1.25-4.24l1.85-.64a17,17,0,0,1,1.38,4.18Zm8-4.37c-.61,1.54-1.3,3.3-1.85,4.42l-1.74-.62a28.3,28.3,0,0,0,1.35-4.51Z"/><path class="cls-24" d="M525.86,203.87c.84-.11,1.46-.22,2-.35,2.79-.66,5-2.66,5-5.83,0-3-1.63-5.26-4.56-5.77a46.63,46.63,0,0,1-1.29,5.92c-1.3,4.4-3.19,7.09-5.57,7.09s-4.45-2.66-4.45-6.34c0-5,4.38-9.33,10-9.33,5.39,0,8.8,3.76,8.8,8.52,0,4.57-2.82,7.83-8.32,8.67Zm-1.69-6.6a35.44,35.44,0,0,0,1.17-5.28,6.84,6.84,0,0,0-5.53,6.31c0,2.21.88,3.28,1.7,3.28S523.29,200.22,524.17,197.27Z"/><path class="cls-24" d="M545.84,203.06c-2.42.86-5.06,1.69-7.17,2.37l-.6-2.66,2.69-.72v-5.18h-2.23v-2.39h2.23V190.6h-2.42v-2.44h7.26v2.44h-2.36v3.88h2v2.39h-2v4.41c.73-.22,1.46-.44,2.16-.69Zm13.07,1.34v2.38H544.76V204.4h6.07v-2.09h-4.55V200h4.55v-1.9h-4.4V187.83h11.49v10.23H553.5V200h4.66v2.35H553.5v2.09Zm-10.12-12.52h2.26v-1.83h-2.26Zm0,4h2.26V194h-2.26Zm6.64-5.79h-2.18v1.83h2.18Zm0,3.9h-2.18v1.89h2.18Z"/><path class="cls-24" d="M570.3,193.51a16.36,16.36,0,0,1-1.84,1.32,12.9,12.9,0,0,0-1.26-2.14l.16-.08h-7.13v-2.07H568v1.65a16.7,16.7,0,0,0,4.79-5.26h2.36a16.78,16.78,0,0,0,5.92,5.48,12.47,12.47,0,0,0-1.39,2.29,14.62,14.62,0,0,1-1.74-1.26v1.48H570.3Zm-3,12.76h-4.07v.88h-2.13v-7.5h6.2Zm0-10.67h-6.1v-2h6.1Zm-6.1,1h6.1v2h-6.1Zm6.06-7h-5.92v-2h5.92Zm-4,12.12v2.53h1.94v-2.53Zm16.55,3.48c0,.92-.13,1.47-.68,1.83a3.89,3.89,0,0,1-2.09.37,7.83,7.83,0,0,0-.62-2c.4,0,.77,0,.92,0s.22-.07.22-.24v-2.38H576.4v4.4h-1.72v-4.4h-1.1v4.4h-1.71v-4.4h-1.06v4.56h-2.18V196.24h11.18Zm-7.94-4.44V198.3h-1.06v2.43Zm5.32-7.95a21.44,21.44,0,0,1-3.12-3.52,17.66,17.66,0,0,1-3,3.52Zm-2.51,7.95V198.3h-1.1v2.43Zm2.88,0V198.3H576.4v2.43Z"/><path class="cls-24" d="M587.79,188.62c-.17.44-.44,1.54-.53,1.94a57.65,57.65,0,0,0-1,8.43,9.54,9.54,0,0,0,.09,1.41c.28-.77.64-1.5,1-2.23l1.34,1.08a50.78,50.78,0,0,0-1.56,5.19,3.78,3.78,0,0,0-.11,1c0,.22,0,.59,0,.9l-2.47.17a26.26,26.26,0,0,1-.85-6.95,63.92,63.92,0,0,1,.9-9.09,15.88,15.88,0,0,0,.2-2.13Zm13.38,16.44a22.32,22.32,0,0,0-2.64-2.18c-.13,2.07-1.32,3.57-4.27,3.57s-4.88-1.28-4.88-3.57,1.87-3.74,4.84-3.74a9.3,9.3,0,0,1,1.43.09c-.07-1.34-.13-2.93-.16-4.47-.52,0-1,0-1.56,0-1.27,0-2.51,0-3.8-.13v-2.59a36.49,36.49,0,0,0,3.8.19c.51,0,1,0,1.54,0,0-1.08,0-2,0-2.42a13.76,13.76,0,0,0-.13-1.43h3.12a12.51,12.51,0,0,0-.13,1.41c0,.48-.07,1.3-.07,2.27,1.19-.14,2.33-.29,3.37-.51v2.71c-1.06.15-2.2.28-3.39.37,0,2.11.15,3.85.24,5.33a13.88,13.88,0,0,1,4.21,2.81Zm-5.41-3.54a6.55,6.55,0,0,0-1.76-.24c-1.23,0-2.07.5-2.07,1.32s.88,1.27,2,1.27c1.35,0,1.81-.7,1.81-2Z"/><path class="cls-24" d="M442.62,219.15a25.27,25.27,0,0,0,6.53,7.83,12.43,12.43,0,0,0-2.22,2.36c-.46-.42-.93-.91-1.41-1.41v.15c-.24,6.65-.51,9.24-1.28,10.17a2.66,2.66,0,0,1-2,1,22.44,22.44,0,0,1-3.32.07,6.31,6.31,0,0,0-.86-2.64c1.21.09,2.36.11,2.91.11a1,1,0,0,0,.88-.31c.44-.46.68-2.42.88-7h-4.34c-.55,4.23-2,8-7.68,10.12a8.79,8.79,0,0,0-1.74-2.42c5-1.6,6.12-4.49,6.56-7.7h-3.72V228a16,16,0,0,1-1.76,1.58,15.49,15.49,0,0,0-2.24-2.11,18.22,18.22,0,0,0,6.49-8.23l2.82.82a26.4,26.4,0,0,1-4.36,6.93h11.88a37.52,37.52,0,0,1-4.6-6.76Z"/><path class="cls-24" d="M459.67,220.23c-.14.57-.29,1.25-.4,1.8s-.29,1.45-.44,2.25c.73-.05,1.39-.09,1.83-.09,2.31,0,3.93,1,3.93,4.16,0,2.57-.3,6.05-1.23,7.94a3.48,3.48,0,0,1-3.58,2,12,12,0,0,1-2.6-.31l-.48-2.88a12.59,12.59,0,0,0,2.66.46,1.6,1.6,0,0,0,1.63-.94,16.28,16.28,0,0,0,.9-6c0-1.73-.75-2-2.14-2-.35,0-.88.05-1.49.09-.84,3.3-2.42,8.43-4.43,11.64L451,237.26c2.14-2.86,3.61-7.22,4.4-10.19l-1.87.24c-.61.07-1.73.22-2.42.33l-.24-2.95a17.81,17.81,0,0,0,2.31,0c.68,0,1.72-.08,2.82-.17a24.12,24.12,0,0,0,.46-4.62Zm7.52,2a39.27,39.27,0,0,1,3.81,8.1l-2.75,1.3a25.45,25.45,0,0,0-3.7-8.3Z"/><path class="cls-24" d="M477,227.62c1.48-.44,5.18-1.69,7.82-1.69,3.43,0,5.74,2,5.74,5.34,0,3.94-3.46,6.65-10.39,7.07l-1.14-2.71c4.95-.13,8.65-1.43,8.65-4.4,0-1.63-1.24-2.77-3.13-2.77-2.53,0-6.86,1.8-8.73,2.59l-1.13-2.86A18.51,18.51,0,0,0,477,227.62Z"/><path class="cls-24" d="M497.31,222.34c1.8-.18,5.41-.48,9.39-.84,2.25-.17,4.64-.3,6.16-.37l0,2.82a22.87,22.87,0,0,0-4.2.28,6.65,6.65,0,0,0-4.6,6.1c0,3.58,3.37,4.86,7,5.06l-1,3c-4.57-.31-8.89-2.77-8.89-7.48a8.68,8.68,0,0,1,3.22-6.71c-1.87.2-6.47.68-9,1.23l-.27-3C496,222.43,496.87,222.38,497.31,222.34Z"/><path class="cls-24" d="M521,224.52c0,1.41,0,3.06.13,4.62.31,3.15,1,5.28,2.34,5.28,1,0,1.89-2.55,2.31-4.27l2.2,2.64c-1.46,3.79-2.82,5.13-4.58,5.13-2.38,0-4.47-2.16-5.08-8-.2-2-.25-4.53-.25-5.88a12.85,12.85,0,0,0-.15-2.2l3.34,0A17.67,17.67,0,0,0,521,224.52Zm15.14,8.95-2.88,1.1c-.33-3.49-1.5-8.62-3.88-11.31l2.78-.92C534.22,224.87,535.9,230.13,536.14,233.47Z"/><path class="cls-24" d="M554.51,222.45c-.53.33-1,.66-1.52,1-1.17.81-3.45,2.75-4.82,3.85a7.27,7.27,0,0,1,2.05-.24c3.69,0,6.51,2.31,6.51,5.48,0,3.43-2.62,6.16-7.88,6.16-3,0-5.32-1.39-5.32-3.57a3.66,3.66,0,0,1,3.92-3.38,4.39,4.39,0,0,1,4.64,3.71,3.16,3.16,0,0,0,1.78-3c0-2-2-3.28-4.51-3.28-3.34,0-5.52,1.79-7.86,4.43l-2-2c1.54-1.25,4.16-3.48,5.46-4.53s3.48-2.84,4.56-3.79c-1.13,0-4.12.16-5.26.25a13.78,13.78,0,0,0-1.79.17l-.08-2.84a18.62,18.62,0,0,0,2,.11c1.14,0,5.81-.11,7-.22a9.33,9.33,0,0,0,1.67-.22Zm-4.93,13.71c-.13-1.41-1-2.33-2.13-2.33-.82,0-1.35.48-1.35,1,0,.81.93,1.36,2.2,1.36A12.65,12.65,0,0,0,549.58,236.16Z"/><path class="cls-24" d="M569.51,220.38c-.13.57-.26,1.26-.37,1.81s-.31,1.45-.46,2.24c.72,0,1.38-.09,1.82-.09,2.31,0,3.94,1,3.94,4.16,0,2.58-.31,6.05-1.23,7.94a3.49,3.49,0,0,1-3.59,2,12.66,12.66,0,0,1-2.59-.31l-.49-2.88a12.83,12.83,0,0,0,2.69.46,1.59,1.59,0,0,0,1.62-.95,16.51,16.51,0,0,0,.88-6c0-1.74-.74-2-2.11-2-.35,0-.88,0-1.49.09-.86,3.3-2.45,8.42-4.45,11.64l-2.84-1.15c2.11-2.86,3.61-7.22,4.38-10.19-.77.09-1.45.18-1.87.25-.62.06-1.74.22-2.42.33l-.24-3a22.25,22.25,0,0,0,2.31,0c.68,0,1.71-.09,2.81-.18a24.11,24.11,0,0,0,.47-4.62Zm7.81,2.6a42.17,42.17,0,0,1,3.54,7.59l-2.77,1.3a24.72,24.72,0,0,0-3.67-8.21l2-.86a25.48,25.48,0,0,0-1.49-2.59l1.73-.73c.55.81,1.32,2.2,1.76,3Zm2-.73a21.29,21.29,0,0,0-1.78-3l1.74-.73a24.94,24.94,0,0,1,1.78,3Z"/><path class="cls-24" d="M587.11,239.06a41.11,41.11,0,0,0-4.73-4.86l2.29-2a41.93,41.93,0,0,1,4.8,4.82Z"/><path class="cls-24" d="M452,266.07c1.56,1.76,4,2.77,7.5,3.14a10.21,10.21,0,0,0-1.54,2.29c-4.18-.66-6.8-2.22-8.54-4.95-1.3,2-3.74,3.7-8.23,4.91a10.51,10.51,0,0,0-1.63-2.11c3.7-.84,5.81-2,7-3.28h-6.62V263.8h7.9a9.43,9.43,0,0,0,.22-1.38h-5.63V260.3h5.65V259h-6v-1.45h-1.95v-4.69h8v-1.91h2.68v1.91h8.06v4.69h-1.77V259h-6.42v1.32h6v2.12h-6a7.25,7.25,0,0,1-.18,1.38h8.69v2.27Zm-3.9-9.2v-1.25h2.62v1.25h5.48v-1.74H442.7v1.74Z"/><path class="cls-24" d="M480.17,255.29a10.82,10.82,0,0,1-2.2,3.21,17.32,17.32,0,0,0,4,1.3,9.85,9.85,0,0,0-1.65,2.22,16.06,16.06,0,0,1-4.49-1.89,17.68,17.68,0,0,1-4.49,1.84,8.44,8.44,0,0,0-.61-.92,26.59,26.59,0,0,1-1.08,3.68l-1.76-.82a29.15,29.15,0,0,0,.7-3h-1.16v7.75c0,1.19-.18,1.89-1,2.29a6.47,6.47,0,0,1-3.1.46,8.9,8.9,0,0,0-.75-2.49c.81,0,1.69,0,2,0s.35-.07.35-.33v-4.71a13.26,13.26,0,0,1-2.75,4.07,14.18,14.18,0,0,0-1.19-2.53,13.87,13.87,0,0,0,3.13-4.54h-2.75v-2.28h5a31.75,31.75,0,0,0-4.24-2.14l1.65-1.67c.53.2,1.14.44,1.74.7A13.83,13.83,0,0,0,467,254.1h-5.28v-2.2h7.11l.4-.09,1.67,1.06a16.65,16.65,0,0,1-3.21,3.63,14,14,0,0,1,1.6,1l-1.08,1.13h1.06l.35-.11,1.59.52-.09.51a12.85,12.85,0,0,0,2.68-1,12.46,12.46,0,0,1-1.56-1.83c-.33.35-.66.66-1,.95a21.1,21.1,0,0,0-2.13-1.48,13.17,13.17,0,0,0,4.2-5.23l2.44.66a16.18,16.18,0,0,1-.81,1.54h6.49v2.18Zm1,7.87s0,.69-.09,1c-.36,3.81-.75,5.5-1.39,6.21a2.46,2.46,0,0,1-1.61.77,16.87,16.87,0,0,1-2.46,0,5.75,5.75,0,0,0-.7-2.42,18,18,0,0,0,1.89.11.88.88,0,0,0,.7-.24c.31-.29.6-1.23.84-3.28h-2.55a8.8,8.8,0,0,1-5.79,6.12,7.55,7.55,0,0,0-1.52-2,7,7,0,0,0,4.6-4.09h-2.66v-2.18h3.21a17.27,17.27,0,0,0,.22-2h2.62c-.07.66-.13,1.32-.22,2ZM474,255.29a8.69,8.69,0,0,0,1.82,1.87,6.8,6.8,0,0,0,1.46-1.87Z"/><path class="cls-24" d="M492.51,252.38c-.13.57-.26,1.26-.37,1.81s-.31,1.45-.46,2.24c.72,0,1.38-.09,1.82-.09,2.31,0,3.94,1,3.94,4.16,0,2.58-.31,6.05-1.23,7.94a3.49,3.49,0,0,1-3.59,2,12.66,12.66,0,0,1-2.59-.31l-.49-2.88a12.83,12.83,0,0,0,2.69.46,1.59,1.59,0,0,0,1.62-1,16.48,16.48,0,0,0,.88-6c0-1.74-.74-2-2.11-2-.35,0-.88,0-1.49.09-.86,3.3-2.45,8.42-4.45,11.64l-2.84-1.15c2.11-2.86,3.61-7.22,4.38-10.19-.77.09-1.45.18-1.87.25-.62.06-1.74.22-2.42.33l-.24-2.95a22.25,22.25,0,0,0,2.31,0c.68,0,1.71-.09,2.81-.18a24.11,24.11,0,0,0,.47-4.62Zm7.81,2.6a42.17,42.17,0,0,1,3.54,7.59l-2.77,1.3a24.72,24.72,0,0,0-3.67-8.21l2-.86a25.48,25.48,0,0,0-1.49-2.59l1.73-.73c.55.81,1.32,2.2,1.76,3Zm2-.73a21.29,21.29,0,0,0-1.78-3l1.74-.73a24.94,24.94,0,0,1,1.78,3Z"/><path class="cls-24" d="M522.59,256.39a13,13,0,0,0,2.42-.16v2.93c-.49-.05-1.26-.07-2.42-.07H521v.73c0,5.46-1.32,8.78-6.62,11.11L512,268.71c4.25-1.48,6.12-3.39,6.12-8.78v-.84h-5.22v3c0,1,.07,1.87.09,2.31h-3.08a17.17,17.17,0,0,0,.13-2.31v-3h-1.87c-1.1,0-1.89.05-2.37.09v-3a15,15,0,0,0,2.37.2H510v-2.18a19,19,0,0,0-.13-2H513a12.78,12.78,0,0,0-.14,2v2.16h5.22v-2.31A15.64,15.64,0,0,0,518,252h3.12a20.24,20.24,0,0,0-.13,2.05v2.31Z"/><path class="cls-24" d="M534.55,262.64l-2.68,1a47.32,47.32,0,0,0-2-5.09l2.64-.94C533.06,258.74,534.11,261.4,534.55,262.64Zm11.18-4.58c-.26.7-.4,1.16-.53,1.6a17.55,17.55,0,0,1-3,6.45,17.25,17.25,0,0,1-7.37,5.46l-2.31-2.36a13,13,0,0,0,10.1-12.14Zm-6.31,3.21-2.64.92a37.74,37.74,0,0,0-1.79-4.88l2.62-.86C538,257.4,539.11,260.26,539.42,261.27Z"/><path class="cls-24" d="M554.81,254.34,558,255c-.2.64-.44,1.72-.53,2.2a54.68,54.68,0,0,1-1.87,6.62,29.89,29.89,0,0,1-3.26,6.3l-3.08-1.3a26.12,26.12,0,0,0,3.43-6.12A31.55,31.55,0,0,0,554.81,254.34Zm5.59.66,2.93-.95c.9,1.72,2.42,5.09,3.23,7.22s2,5.5,2.58,7.68L565.88,270a67,67,0,0,0-2.29-7.77A59.59,59.59,0,0,0,560.4,255Zm7-3.92a2.63,2.63,0,1,1-2.64,2.64A2.65,2.65,0,0,1,567.4,251.08Zm0,3.9a1.27,1.27,0,1,0-1.28-1.26A1.28,1.28,0,0,0,567.4,255Z"/><path class="cls-24" d="M578,252.67a15.6,15.6,0,0,0-.07,1.67v7.44c0,.55,0,1.41.07,1.91h-3.26c0-.42.11-1.27.11-1.94v-7.41a14,14,0,0,0-.09-1.67Zm10.14-.2c0,.62-.09,1.32-.09,2.2V259c0,4.73-.92,6.75-2.55,8.56a12.86,12.86,0,0,1-5.35,3.19l-2.31-2.42a10.33,10.33,0,0,0,5.39-2.78c1.5-1.65,1.78-3.3,1.78-6.73v-4.18a15.3,15.3,0,0,0-.13-2.2Z"/><path class="cls-24" d="M446.48,288c-.29.38-.75,1.08-1.13,1.65,0,.22,0,.42,0,.64a10.63,10.63,0,0,1,6.4-2.27,5.76,5.76,0,0,1,6,5.88c0,4.4-2.75,7-8.16,8.12l-1.3-2.64c3.83-.6,6.56-2.14,6.56-5.55a3.32,3.32,0,0,0-3.55-3.23,9.14,9.14,0,0,0-6.18,2.79c0,.62,0,1.24,0,1.81,0,1.78,0,3.61.13,5.65,0,.4.11,1.19.15,1.67h-3c0-.46.07-1.25.07-1.6,0-1.7,0-2.95.08-4.8-.92,1.39-2,3-2.75,4L438,297.74c1.23-1.5,3.43-4.4,4.66-6.23l.09-1.52-4,.51-.26-2.8a15.16,15.16,0,0,0,1.89,0c.64,0,1.58-.15,2.51-.28,0-.82.08-1.43.08-1.68a11.55,11.55,0,0,0-.08-1.93l3.19.09c-.14.61-.31,1.73-.49,3.1Z"/><path class="cls-24" d="M469.18,284.23c-.13.57-.29,1.25-.4,1.8s-.28,1.45-.44,2.25c.73,0,1.39-.09,1.83-.09,2.31,0,3.94,1,3.94,4.16,0,2.57-.31,6-1.23,7.94a3.5,3.5,0,0,1-3.59,2,12,12,0,0,1-2.6-.31l-.48-2.88a12.7,12.7,0,0,0,2.66.46,1.59,1.59,0,0,0,1.63-.94,16.07,16.07,0,0,0,.9-6c0-1.73-.75-2-2.13-2-.35,0-.88.05-1.5.09-.83,3.3-2.42,8.43-4.42,11.64l-2.86-1.14c2.13-2.86,3.61-7.22,4.4-10.19l-1.87.24c-.62.07-1.74.22-2.42.33l-.24-2.95a17.81,17.81,0,0,0,2.31,0c.68,0,1.71-.08,2.81-.17a24.19,24.19,0,0,0,.47-4.62Zm7.53,2a39.22,39.22,0,0,1,3.8,8.1l-2.75,1.3a25.22,25.22,0,0,0-3.69-8.3Z"/><path class="cls-24" d="M487.73,293.36a10.67,10.67,0,0,1,6.4-2.07c3.83,0,6.05,2.35,6.05,5,0,4-3.15,7-12.21,6.24l-.84-2.86c6.54.93,10-.68,10-3.45,0-1.41-1.34-2.44-3.26-2.44a7.62,7.62,0,0,0-6,2.55,4.71,4.71,0,0,0-.82,1.28l-2.53-.64a78.55,78.55,0,0,0,1.08-9.09l3,.4C488.25,289.49,487.88,292.1,487.73,293.36Zm.68-9.46a68.77,68.77,0,0,0,8.71,1.69l-.66,2.69c-2.2-.29-7.06-1.3-8.76-1.74Z"/><path class="cls-24" d="M515.65,288.72a31.89,31.89,0,0,1-3.79.74,39.91,39.91,0,0,1-4.66,9.33l-2.67-1.34a33.34,33.34,0,0,0,4.45-7.7c-.38,0-.75,0-1.12,0-.91,0-1.79,0-2.73-.06l-.2-2.56a27.8,27.8,0,0,0,2.9.16c.64,0,1.3,0,2-.07a18.88,18.88,0,0,0,.6-3.65l3,.31c-.18.7-.44,1.8-.75,3a24.47,24.47,0,0,0,2.93-.68Zm2.86,1.95a26.15,26.15,0,0,0,0,2.8c0,.62.06,1.67.13,2.75a14.44,14.44,0,0,1,4.51,2.79l-1.45,2.34a18.6,18.6,0,0,0-3-2.31v.19c0,2-1.1,3.61-4.21,3.61-2.7,0-4.84-1.21-4.84-3.61,0-2.13,1.79-3.78,4.82-3.78a14,14,0,0,1,1.48.09c-.07-1.63-.18-3.55-.25-4.87Zm-2.4,7.22a7.93,7.93,0,0,0-1.76-.22c-1.26,0-2.07.53-2.07,1.3s.68,1.36,1.87,1.36a1.76,1.76,0,0,0,2-2Zm6.14-6.05a29.26,29.26,0,0,0-5.24-3.1l1.41-2.16a39.35,39.35,0,0,1,5.37,2.95Z"/><path class="cls-24" d="M530.52,288.52a45.73,45.73,0,0,0,.13,4.62c.31,3.15,1,5.28,2.33,5.28,1,0,1.89-2.55,2.31-4.27l2.2,2.64c-1.45,3.79-2.82,5.13-4.58,5.13-2.37,0-4.46-2.16-5.08-8-.2-2-.24-4.53-.24-5.88a12.85,12.85,0,0,0-.15-2.2l3.34.05A17.67,17.67,0,0,0,530.52,288.52Zm15.13,9-2.88,1.1c-.33-3.49-1.49-8.62-3.87-11.31l2.77-.92C543.74,288.87,545.41,294.13,545.65,297.47Z"/><path class="cls-24" d="M549.15,299.74a2,2,0,1,1,2,2.11A2,2,0,0,1,549.15,299.74Zm8.34,0a2,2,0,1,1,2,2.11A2,2,0,0,1,557.49,299.74Zm8.34,0a2,2,0,1,1,2,2.11A2,2,0,0,1,565.83,299.74Z"/><path class="cls-24" d="M579.8,299.65a3.56,3.56,0,1,1-3.57-3.56A3.57,3.57,0,0,1,579.8,299.65Zm-1.59,0a2,2,0,1,0-2,2A2,2,0,0,0,578.21,299.65Z"/><path class="cls-23" d="M934.5,145.75h82a8,8,0,0,1,8,8v164a8,8,0,0,1-8,8h-304a8,8,0,0,1-8-8v-164a8,8,0,0,1,8-8h82"/><path class="cls-24" d="M789.67,217.34h-2.29v3.83h-2.66v-.9h-4V221c0,1.3-.31,1.83-1.17,2.2a11.6,11.6,0,0,1-3.89.37,8.41,8.41,0,0,0-.86-2.06c1,0,2.35,0,2.7,0s.55-.15.55-.55v-.68H771.4v-1.89h6.69v-1h-8.71v-2h8.71v-1h-6.51v-1.76h6.51v-1h-6v-4.35h6v-.9h-8.2v-2.07h8.2v-1.43h2.67v1.43h8.4v2.07h-8.4v.9H787v4.35h-6.24v1h6.62v2.71h2.29ZM778.09,210v-1h-3.45v1Zm2.67-1v1h3.56v-1Zm0,6.38h4v-1h-4Zm4,2h-4v1h4Z"/><path class="cls-24" d="M804.93,218.44a19.66,19.66,0,0,0,7,2.4,11.63,11.63,0,0,0-1.76,2.38,18.91,18.91,0,0,1-7.39-3.72v4h-2.58v-3.83a20.69,20.69,0,0,1-7.37,3.56,12,12,0,0,0-1.67-2.17,23.07,23.07,0,0,0,7-2.58h-6.31v-2.15h8.4v-1h-6.34v-1.9h6.34v-1h-7.44v-2h4.19a10.92,10.92,0,0,0-.75-1.72l.26,0h-4.6v-2.14h2.95a20.3,20.3,0,0,0-1.36-2.72l2.24-.77a16.37,16.37,0,0,1,1.67,3.1l-1.08.39h2v-3.58h2.44v3.58h1.63v-3.58h2.46v3.58h2l-.79-.24a16.9,16.9,0,0,0,1.38-3.19l2.75.66c-.61,1-1.21,2-1.71,2.77h2.86v2.14h-4.14c-.35.64-.7,1.23-1,1.76h4.31v2h-7.63v1h6.6v1.9h-6.6v1h8.55v2.15Zm-6-9.81a11.31,11.31,0,0,1,.75,1.69l-.38.07h4.12c.26-.53.53-1.17.77-1.76Z"/><path class="cls-24" d="M820,209.27c-.79,5.61-2.64,10.14-5.11,12.52a9.51,9.51,0,0,0-1.89-2c2-1.78,3.41-4.93,4.14-8.64h-3.39v-2.36h4.18l.44-.11Zm4.75,8h3.94v2.16h-3.94v1.21c0,1.39-.28,2-1.21,2.42a11.27,11.27,0,0,1-4.11.44,10.49,10.49,0,0,0-.95-2.46c1.3.06,2.71.06,3.1.06s.55-.13.55-.5v-1.17h-3.8v-2.16h3.8v-1.4h-2.7v-2.07h2.7v-1.41h-2.17v-2.05h2.17v-2.48h1.37a19,19,0,0,0,2.15-1.41h-9v-2.38h11.62l.55-.11,1.76,1.28a20.72,20.72,0,0,1-5.88,4.38v.72H827v2.05h-2.33v1.41h2.86v2.07h-2.86Zm9-7c-1,1.21-2.18,2.6-3.21,3.63a12.08,12.08,0,0,0,3.5,5.75,9.49,9.49,0,0,0-1.94,2.24c-3-2.79-4.35-7.63-5.12-13.24l2.31-.38c.15,1,.33,2.05.52,3a19.5,19.5,0,0,0,1.87-2.66Z"/><path class="cls-24" d="M838,216.11a19.17,19.17,0,0,1-1.32,5.65,12.39,12.39,0,0,0-1.83-.88,15.74,15.74,0,0,0,1.12-5.1Zm17.8,6.36h-9.88v.92h-2.44v-8.58l-1.65.73c-.07-.38-.16-.8-.29-1.26l-1.12.09v9.09h-2.2v-8.91l-2.91.22-.26-2.27c.53,0,1.1-.07,1.74-.09.28-.39.59-.83.88-1.27a18.11,18.11,0,0,0-2.55-3.19l1.25-1.7c.18.16.35.33.53.51a27.78,27.78,0,0,0,1.58-3.83l2.22.77c-.79,1.52-1.69,3.26-2.46,4.49a10.08,10.08,0,0,1,.7.9c.73-1.23,1.39-2.51,1.9-3.59l2.07.95c-.82,1.34-1.76,2.82-2.73,4.2l1.71-.7a22.63,22.63,0,0,1,1.59,4V203.74h2.44v12.72a14,14,0,0,0,3.08-4.4h-2.64v-2.33h3.28v-6.38h2.26v6.38h3.46v2.33H851.9v.33c1,.81,3.22,3.1,3.75,3.68l-1.55,2a33.8,33.8,0,0,0-2.2-3v4.73h-2.26v-4.62A13.84,13.84,0,0,1,847,219a12.55,12.55,0,0,0-1-2.33v3.45h9.88Zm-15-10.3a14.18,14.18,0,0,0-.66-1.52c-.4.57-.77,1.12-1.17,1.63Zm1.41,3.52a15.69,15.69,0,0,1,1.12,4l-1.83.6a16.64,16.64,0,0,0-1-4.05Zm5.25-6.23a19.27,19.27,0,0,0-1.25-4.24l1.85-.64a17,17,0,0,1,1.38,4.18Zm8-4.37c-.61,1.54-1.3,3.3-1.85,4.42l-1.74-.62a28.3,28.3,0,0,0,1.35-4.51Z"/><path class="cls-24" d="M860.24,206.38c1.83-.15,5.44-.48,9.42-.83,2.24-.18,4.62-.31,6.16-.38l0,2.82a21.93,21.93,0,0,0-4.2.29,6.61,6.61,0,0,0-4.6,6.09c0,3.59,3.34,4.89,7,5.06l-1,3c-4.58-.29-8.89-2.75-8.89-7.49a8.66,8.66,0,0,1,3.21-6.71c-1.89.2-6.47.69-9,1.24l-.28-3C859,206.47,859.82,206.43,860.24,206.38Zm14.3,6.71-1.67.75a16.65,16.65,0,0,0-1.72-3.06l1.63-.68A28.59,28.59,0,0,1,874.54,213.09Zm2.55-1.07-1.65.79a19.34,19.34,0,0,0-1.8-3l1.61-.75A32.18,32.18,0,0,1,877.09,212Z"/><path class="cls-24" d="M893.48,212.81v2.49h4.69v2.39h-4.69v2.38c0,.79.09.92.71.92h1.69c.57,0,.68-.44.77-2.5a6.45,6.45,0,0,0,2.36,1c-.27,2.9-1,3.78-2.89,3.78h-2.39c-2.38,0-3-.77-3-3.21v-2.4h-2.91c-.48,2.31-1.93,4.49-6,5.86a9.71,9.71,0,0,0-1.67-2.09c3-.93,4.36-2.29,4.91-3.77h-4.36V215.3h4.71v-2.49h-1.85v-.73a17.72,17.72,0,0,1-2.92,1.74,11.6,11.6,0,0,0-1.59-2,13.52,13.52,0,0,0,3.65-2.27,24.2,24.2,0,0,0-2.17-1.87l1.65-1.36c.66.46,1.49,1.1,2.11,1.63a12.83,12.83,0,0,0,1.39-2h-4.49v-2.25H887l.46-.08,1.76.81a15,15,0,0,1-3.59,5.85h8a19.89,19.89,0,0,1-4-6.73l2.35-.66a15.25,15.25,0,0,0,1.1,2.35,21.48,21.48,0,0,0,2-2l2,1.41c-.9.81-1.92,1.67-2.82,2.33q.46.59,1,1.14a22.6,22.6,0,0,0,2.47-2.37l1.91,1.36c-.9.81-2,1.69-2.9,2.38a13.59,13.59,0,0,0,3.41,2,10.1,10.1,0,0,0-1.81,2.26,14.77,14.77,0,0,1-2.7-1.65v.71Zm-2.72,0h-2.71v2.49h2.71Z"/><path class="cls-24" d="M921.45,220.27v2.57H901.67v-2.57h8.49v-4.42h-6v-2.54h6v-3.87H905.6a18.08,18.08,0,0,1-2,3.19,20.53,20.53,0,0,0-2.36-1.56,18.89,18.89,0,0,0,3.9-7.88l2.7.6c-.3,1.05-.65,2.09-1,3.1h3.39v-4h2.75v4h7.41v2.55h-7.41v3.87h6.58v2.54h-6.58v4.42Z"/><path class="cls-24" d="M943,209c-1.32-.07-3.36-.11-6.31-.11,0,1.1,0,2.29,0,3.23a5.39,5.39,0,0,1,.81,3c0,2.84-1.67,6.45-7,7.94l-2.31-2.33a9.92,9.92,0,0,0,5.32-2.49,4.48,4.48,0,0,1-1,.11,3.84,3.84,0,0,1-3.76-4,4.1,4.1,0,0,1,4.36-4.07,5.67,5.67,0,0,1,.85.06l0-1.45c-3.3.05-6.67.18-9.35.33l-.07-2.64c2.49,0,6.45-.11,9.38-.15a6,6,0,0,0,0-.66,15.22,15.22,0,0,0-.2-1.89h3.17c-.07.35-.14,1.51-.16,1.87,0,.17,0,.39,0,.66,2.2,0,5.17,0,6.31,0Zm-9.92,7c.9,0,1.72-.68,1.43-2.57a1.55,1.55,0,0,0-1.43-.77,1.67,1.67,0,1,0,0,3.34Z"/><path class="cls-24" d="M961.51,206.45c-.53.33-1,.66-1.52,1-1.17.81-3.45,2.75-4.82,3.85a7.27,7.27,0,0,1,2.05-.24c3.69,0,6.51,2.31,6.51,5.48,0,3.43-2.62,6.16-7.88,6.16-3,0-5.32-1.39-5.32-3.57a3.65,3.65,0,0,1,3.92-3.38,4.39,4.39,0,0,1,4.64,3.71,3.16,3.16,0,0,0,1.78-3c0-2-2-3.28-4.51-3.28-3.34,0-5.52,1.79-7.86,4.43l-2-2c1.54-1.25,4.16-3.48,5.46-4.53s3.48-2.84,4.56-3.79c-1.13,0-4.12.16-5.26.25a13.78,13.78,0,0,0-1.79.17l-.08-2.84a18.62,18.62,0,0,0,2,.11c1.14,0,5.81-.11,7-.22a9.33,9.33,0,0,0,1.67-.22Zm-4.93,13.71c-.13-1.41-1-2.33-2.13-2.33-.82,0-1.35.48-1.35,1,0,.81.93,1.36,2.2,1.36A12.65,12.65,0,0,0,956.58,220.16Z"/><path class="cls-24" d="M815.32,251c1.56,1.32,4.09,1.93,7.61,2.09a8.93,8.93,0,0,0-1.5,2.33c-4.42-.44-7.12-1.61-8.88-4.18-1.19,2.18-3.66,3.5-9.18,4.2a7.36,7.36,0,0,0-1.19-2.31c4.09-.4,6.25-1,7.37-2.13h-6.84v-2.29h8a8.19,8.19,0,0,0,.2-1.19h-6V240h15.11v7.55h-6.57c0,.42-.09.79-.16,1.19h9V251Zm-8.1-12.66h-4.36v-2.31h4.36v-1.14h2.55v1.14h5.5v-1.14h2.56v1.14h4.38v2.31h-4.38v1.3h-2.56v-1.3h-5.5v1.3h-2.55Zm.24,4.54h10.06v-1.06H807.46Zm0,2.81h10.06v-1.1H807.46Z"/><path class="cls-24" d="M836.53,243.51c1.45,4.29,4.11,7.75,8.23,9.42a10.28,10.28,0,0,0-1.94,2.46c-4-1.87-6.54-5.08-8.25-9.33a15.14,15.14,0,0,1-8.23,9.35,7.86,7.86,0,0,0-2-2.22,13.18,13.18,0,0,0,8-9.68H824.8V240.8h8c.22-2.06.2-4.07.22-5.87h2.86c0,1.8,0,3.83-.27,5.87h8.65v2.71Z"/><path class="cls-24" d="M858.13,240.72a31.29,31.29,0,0,1-3.78.74,40.32,40.32,0,0,1-4.67,9.33L847,249.45a33.29,33.29,0,0,0,4.44-7.7c-.37,0-.75,0-1.12,0-.9,0-1.78,0-2.73-.06l-.2-2.56a28,28,0,0,0,2.91.16c.64,0,1.3,0,2-.07a18.84,18.84,0,0,0,.59-3.65l3,.31c-.18.7-.44,1.8-.75,3a24.28,24.28,0,0,0,2.92-.68Zm2.86,1.95c-.07.93,0,1.83,0,2.8,0,.61.07,1.67.13,2.75a14.44,14.44,0,0,1,4.51,2.79l-1.45,2.34a18.6,18.6,0,0,0-2.95-2.31v.19c0,2-1.1,3.61-4.2,3.61-2.71,0-4.84-1.21-4.84-3.61,0-2.13,1.78-3.78,4.82-3.78a13.82,13.82,0,0,1,1.47.09c-.06-1.63-.17-3.55-.24-4.87Zm-2.4,7.22a7.78,7.78,0,0,0-1.76-.22c-1.25,0-2.07.53-2.07,1.3s.69,1.36,1.87,1.36c1.48,0,2-.85,2-2Zm6.14-6a28.91,28.91,0,0,0-5.24-3.1l1.41-2.16a39.35,39.35,0,0,1,5.37,2.95Z"/><path class="cls-24" d="M875.47,249.08a22.66,22.66,0,0,0-1.32-2.23v8.59h-2.54v-7.9a19.75,19.75,0,0,1-2.39,4.35,14.22,14.22,0,0,0-1.21-2.48,21.52,21.52,0,0,0,3.25-5.9h-2.79v-2.44h3.14v-2.55c-.92.17-1.82.33-2.68.44a8.78,8.78,0,0,0-.73-2,31.2,31.2,0,0,0,6.83-1.82l1.73,2a24.3,24.3,0,0,1-2.61.84v3.1h2.35v2.44h-2.35v.64c.59.48,2.39,2.4,2.81,2.88Zm10.89,3.74c.33,0,.41-.33.46-2.62a6.58,6.58,0,0,0,2.22,1c-.22,3.15-.81,4-2.4,4h-1.45c-2,0-2.38-.77-2.38-3.06v-5.28H881.6c-.3,3.79-1.23,6.87-5.19,8.65a7.52,7.52,0,0,0-1.52-2.07c3.28-1.34,3.9-3.69,4.14-6.58h-1.76v-7.54H879a19.41,19.41,0,0,0-1.71-3.41l2.15-.95a16.62,16.62,0,0,1,2,3.74l-1.41.62h5.17l-1.72-.62a23.65,23.65,0,0,0,1.81-3.76l2.68.86c-.73,1.27-1.52,2.59-2.16,3.52h2v7.54h-2.49v5.26c0,.66,0,.73.33.73Zm-1.17-11.27h-5.43v3h5.43Z"/><path class="cls-24" d="M907.32,249.1c-.83,1.21-1.69,2.55-2.46,3.48h5v2.24H891.22v-2.24h4.29a15.22,15.22,0,0,0-1.83-3.55l2-.85h-3.36v-2.25H899v-2.18h-4v-1.08a28,28,0,0,1-3.28,2.05,10.22,10.22,0,0,0-1.63-2.11,23.53,23.53,0,0,0,8.89-7.77h2.71a22.35,22.35,0,0,0,9.39,7.5,12.41,12.41,0,0,0-1.74,2.36,27.77,27.77,0,0,1-3.34-2.09v1.14h-4.2v2.18h6.77v2.25h-6.77v4.4h2.39l-1.43-.6a22.31,22.31,0,0,0,2.09-3.8Zm-11.51-.92a14.57,14.57,0,0,1,2,3.63l-1.81.77h3v-4.4Zm8.65-6.72a23.49,23.49,0,0,1-4.05-4.07,22.84,22.84,0,0,1-3.89,4.07Z"/><path class="cls-24" d="M922.59,250.38c0-.64.07-1.65.09-2.6-1.61.88-2.49,1.74-2.49,2.82s1,1.54,3.17,1.54a33.77,33.77,0,0,0,6.18-.64l-.09,2.84c-1.45.17-4.11.35-6.16.35-3.41,0-6-.82-6-3.63s2.64-4.54,5.13-5.81a1.72,1.72,0,0,0-1.52-.75,5.35,5.35,0,0,0-3.41,1.5,27.68,27.68,0,0,0-2,2.4l-2.33-1.74a21.39,21.39,0,0,0,4.8-6h-.27c-.88,0-2.48,0-3.67-.15V238a29,29,0,0,0,3.83.24h1a11.59,11.59,0,0,0,.44-2.49l2.86.24c-.11.53-.26,1.28-.52,2.16a51,51,0,0,0,6.16-.64l0,2.55a70.84,70.84,0,0,1-7.1.58,12.73,12.73,0,0,1-1.26,2.2,6.78,6.78,0,0,1,2.47-.44,3,3,0,0,1,2.9,1.69c1.12-.53,2.05-.9,3-1.3s1.61-.75,2.4-1.12l1.1,2.53a25.42,25.42,0,0,0-2.6.92c-1,.38-2.2.86-3.54,1.48,0,1.21.07,2.82.09,3.81Z"/><path class="cls-24" d="M809.76,268.45a14.08,14.08,0,0,1-3.27,6,13,13,0,0,0,4.13,1.71,9.13,9.13,0,0,0-1.56,2.12,12.94,12.94,0,0,1-4.44-2.21,16.4,16.4,0,0,1-4.65,2.29,12,12,0,0,0-.94-1.56v3.57h-3.3v1.32h3.63V284h-3.63v3.46h-2.34V284h-3.65v-2.28h3.65V280.4h-3.16v-7.95h3.16v-1.21H790V269h3.38v-2.07h2.34V269h3.45v2.26h-3.45v1.21H799v3.74a13,13,0,0,0,3.8-1.78,14.55,14.55,0,0,1-2.26-3.81l1.73-.46h-2.55V267.9h7.9l.44-.09Zm-17.66,7.13h1.56v-1.32H792.1Zm0,3h1.56v-1.34H792.1Zm5-4.33h-1.63v1.32h1.63Zm0,3h-1.63v1.34h1.63Zm8.87,7.41h4.37V287H798.85v-2.31h4.49v-2.75H800v-2.2h3.32v-2.44h2.6v2.44h3.38v2.2h-3.38Zm-3.17-14.52a10.71,10.71,0,0,0,1.82,2.77,10.55,10.55,0,0,0,1.92-2.77Z"/><path class="cls-24" d="M815.22,277.05a14.64,14.64,0,0,0-3.52-2.18l1.43-1.93a13.56,13.56,0,0,1,3.63,2Zm1.56,2.71c-.75,2.42-1.69,5-2.6,7.24l-2.37-1.3a65.62,65.62,0,0,0,2.86-7.31Zm-.51-8.52a14.21,14.21,0,0,0-3.56-2.29l1.47-1.93a16.23,16.23,0,0,1,3.66,2.11Zm15.65,3a27.27,27.27,0,0,1-2.86,7.55c.35,1.54.72,2.46,1.12,2.48s.53-1.1.64-3.12a7.18,7.18,0,0,0,1.85,1.34c-.55,4-1.63,4.86-2.53,4.86-1.21,0-2.14-1.1-2.82-3.06a16.1,16.1,0,0,1-3.21,3,14.4,14.4,0,0,0-1.72-1.67,13.54,13.54,0,0,0,4.2-4,65.73,65.73,0,0,1-1-9.18h-5.79v3.83c0,3.3-.31,8.1-2.16,11.18a8.43,8.43,0,0,0-2-1.32c1.68-2.84,1.83-6.89,1.83-9.86v-6.14h8c0-1-.07-2-.09-3h2.4q0,1.52.06,3h2.49a14.6,14.6,0,0,0-2.44-1.85l1.4-1.32a11.66,11.66,0,0,1,2.82,2.11l-1.08,1.06h.9v2.31h-4c.11,2.05.27,3.94.46,5.59a23.81,23.81,0,0,0,1.21-4.16ZM822.17,283v1.19h-1.72v-7.35h5V283Zm3.08-7.39h-4.69v-1.92h4.69Zm-3.08,3.12v2.36h1.52V278.7Z"/><path class="cls-24" d="M841.22,268.16a22.88,22.88,0,0,0-.28,2.91c-.11,2.33-.27,7.21-.27,9.92,0,2.2,1.32,2.9,3,2.9,3.61,0,5.9-2.06,7.46-4.44l2,2.44a11.31,11.31,0,0,1-9.46,5c-3.56,0-5.87-1.56-5.87-5.28,0-2.92.22-8.64.22-10.51a13.54,13.54,0,0,0-.29-2.95Z"/><path class="cls-24" d="M868.46,273c-1.3.28-2.77.53-4.23.7-.19.95-.41,1.92-.66,2.8a69.53,69.53,0,0,1-3.45,10.07l-3.06-1a47.67,47.67,0,0,0,3.76-9.81c.16-.57.31-1.19.47-1.81-.51,0-1,.05-1.43.05-1.06,0-1.87-.05-2.64-.09l-.07-2.73a21.88,21.88,0,0,0,2.75.18c.64,0,1.28,0,1.94-.07.08-.48.15-.9.19-1.25a10.9,10.9,0,0,0,.09-2.2l3.32.26c-.15.6-.35,1.56-.46,2.05l-.17.83c1.23-.19,2.46-.44,3.65-.72Zm-.44,7.15a7.37,7.37,0,0,0-.31,1.83c0,.94.55,1.65,2.88,1.65a25.91,25.91,0,0,0,4.54-.44l-.11,2.79a35.77,35.77,0,0,1-4.45.31c-3.67,0-5.54-1.28-5.54-3.48a14.64,14.64,0,0,1,.37-2.9Zm-1.28-5.48c1.21-.11,2.78-.22,4.18-.22a38.25,38.25,0,0,1,3.83.2l-.06,2.62A29.83,29.83,0,0,0,871,277a33.26,33.26,0,0,0-4.21.24Z"/><path class="cls-24" d="M882.52,272.52a45.73,45.73,0,0,0,.13,4.62c.31,3.15,1,5.28,2.33,5.28,1,0,1.89-2.55,2.31-4.27l2.2,2.64c-1.45,3.79-2.82,5.13-4.58,5.13-2.37,0-4.46-2.16-5.08-8-.2-2-.24-4.53-.24-5.88a12.85,12.85,0,0,0-.15-2.2l3.34.05A17.67,17.67,0,0,0,882.52,272.52Zm15.13,9-2.88,1.1c-.33-3.49-1.49-8.62-3.87-11.31l2.77-.92C895.74,272.87,897.41,278.13,897.65,281.47Z"/><path class="cls-24" d="M901.15,283.74a2,2,0,1,1,2,2.11A2,2,0,0,1,901.15,283.74Zm8.34,0a2,2,0,1,1,2,2.11A2,2,0,0,1,909.49,283.74Zm8.34,0a2,2,0,1,1,2,2.11A2,2,0,0,1,917.83,283.74Z"/><path class="cls-24" d="M931.8,283.65a3.56,3.56,0,1,1-3.57-3.56A3.57,3.57,0,0,1,931.8,283.65Zm-1.59,0a2,2,0,1,0-2,2A2,2,0,0,0,930.21,283.65Z"/><polygon class="cls-25" points="512.5 397.75 552.5 365.75 472.5 365.75 512.5 397.75"/></g></g></g></svg>