<svg xmlns="http://www.w3.org/2000/svg" viewBox="0 0 250 101.18"><defs><style>.cls-1{fill:#ffe238;}.cls-2{fill:#389e40;}</style></defs><g id="レイヤー_2" data-name="レイヤー 2"><g id="text"><rect class="cls-1" y="17.18" width="250" height="12"/><rect class="cls-1" x="35" y="53.18" width="180" height="12"/><rect class="cls-1" y="89.18" width="250" height="12"/><path class="cls-2" d="M20.18.7c0,.42-.05.94-.08,1.48.21,3.59,1.51,14.8,11.21,19.35a10.21,10.21,0,0,0-2.4,2.62c-5.87-2.91-8.78-8.26-10.24-13A22.15,22.15,0,0,1,9.05,24.15a11.07,11.07,0,0,0-2.6-2.47c10.37-5.74,10-17.55,10.19-21Z"/><path class="cls-2" d="M57.85,20.62v3H34.48v-3h10V15.39h-7v-3h7V7.83H39.13a21.31,21.31,0,0,1-2.42,3.77,24,24,0,0,0-2.78-1.85A22.26,22.26,0,0,0,38.53.44l3.2.7c-.36,1.25-.78,2.47-1.22,3.67h4V.13h3.25V4.81h8.77v3H47.76V12.4h7.78v3H47.76v5.23Z"/><path class="cls-2" d="M84.19,13.91A15.47,15.47,0,0,1,80.91,20a14.43,14.43,0,0,0,4.58,1.92,13.1,13.1,0,0,0-1.82,2.42,14.38,14.38,0,0,1-4.84-2.42,16.61,16.61,0,0,1-4.42,2.42A11.25,11.25,0,0,0,73,22.28v2.11h-3V22.28c-3,.29-5.95.55-8.24.76l-.23-2.66c.67-.05,1.45-.07,2.26-.15V12.32h-2V9.88H85v2.44H73v9.52A13.5,13.5,0,0,0,76.73,20a16.05,16.05,0,0,1-2.37-3.85l1.72-.47H73.69V13.29h8.08l.52-.11ZM82,8.92H64.87v-8H82Zm-15.27,3.4v1h3.38v-1Zm0,4.29h3.38V15.52H66.69Zm0,3.41c1.09-.08,2.24-.16,3.38-.26v-1H66.69ZM78.86,2.91h-11V4h11Zm0,2.94h-11V6.94h11ZM77,15.65a9.72,9.72,0,0,0,1.75,2.55,10.82,10.82,0,0,0,1.76-2.55Z"/><path class="cls-2" d="M96.7,6.68a36.35,36.35,0,0,1-2,3.15V24.44H91.83V13.31a24,24,0,0,1-2,1.93,18.52,18.52,0,0,0-1.62-2.89A21.76,21.76,0,0,0,94,5.67ZM96.25,1.2A31.92,31.92,0,0,1,90,7.54a23,23,0,0,0-1.61-2.26A21.78,21.78,0,0,0,93.52.13Zm14.41,13.1a14.32,14.32,0,0,1-4,5.62,23.26,23.26,0,0,0,6.47,1.89,11.54,11.54,0,0,0-1.85,2.66,21.26,21.26,0,0,1-7.17-2.73,25.59,25.59,0,0,1-7.36,2.78,10.47,10.47,0,0,0-1.48-2.63,22.15,22.15,0,0,0,6.39-2,14.24,14.24,0,0,1-2-2.26,23.33,23.33,0,0,1-2.34,1.61,18.24,18.24,0,0,0-2-2.28,16.92,16.92,0,0,0,5.8-4.81l-5.2.15-.26-2.73c1.17,0,2.52,0,4,0,.36-.32.75-.65,1.12-1A29.68,29.68,0,0,0,96.2,4.84l1.85-2c.44.29.93.6,1.43.94A27.56,27.56,0,0,0,102.26,0l2.68,1.38c-1.12,1.35-2.39,2.75-3.49,3.85a18.5,18.5,0,0,1,1.49,1.3,48.31,48.31,0,0,0,4.18-4.61l2.73,1.51a79.78,79.78,0,0,1-6.37,6l4.66-.07c-.42-.6-.86-1.15-1.3-1.67l2.39-1.32a25.7,25.7,0,0,1,4,5.69l-2.6,1.46a13.73,13.73,0,0,0-.86-1.72c-1.71.08-3.48.13-5.17.18-.31.52-.65,1-1,1.54h4.71l.49-.11Zm-9.1,1.59a12.07,12.07,0,0,0,2.57,2.52,11.83,11.83,0,0,0,2.5-2.55h-5Z"/><path class="cls-2" d="M127.25,20.15a23.91,23.91,0,0,0,2.39-.42c3.3-.78,5.85-3.14,5.85-6.89,0-3.56-1.93-6.21-5.38-6.81a56.67,56.67,0,0,1-1.54,7C127,18.23,124.8,21.4,122,21.4s-5.25-3.15-5.25-7.49c0-5.93,5.18-11,11.86-11C135,2.89,139,7.33,139,13c0,5.41-3.33,9.25-9.83,10.24Zm-2-7.8a41,41,0,0,0,1.38-6.24,8.07,8.07,0,0,0-6.52,7.46c0,2.6,1,3.88,2,3.88S124.2,15.83,125.24,12.35Z"/><path class="cls-2" d="M157.69,10.27c1.72,5.07,4.86,9.15,9.73,11.13a12.42,12.42,0,0,0-2.29,2.91c-4.71-2.21-7.72-6-9.75-11a17.93,17.93,0,0,1-9.73,11.05,9.07,9.07,0,0,0-2.31-2.63,15.61,15.61,0,0,0,9.44-11.44h-8.95V7.07h9.47c.26-2.44.23-4.81.26-6.94h3.38c0,2.13-.05,4.52-.31,6.94h10.21v3.2Z"/><path class="cls-2" d="M179.71,1.12A40.68,40.68,0,0,1,177,6.55V24.36H174V11a26.6,26.6,0,0,1-2.08,2.32,18.51,18.51,0,0,0-1.8-3.17,27.4,27.4,0,0,0,6.61-10ZM188.19,11v9.47h6.14v3H178.78v-3H185V11h-6.89V8H185V.62h3.17V8h6.58v3Z"/><path class="cls-2" d="M221.91,17.16h-2.7v4.52h-3.15V20.62h-4.68v.8c0,1.54-.36,2.16-1.38,2.6a13.6,13.6,0,0,1-4.6.45,9.32,9.32,0,0,0-1-2.45c1.25.05,2.78.05,3.2.05s.65-.18.65-.65v-.8h-7.91V18.38h7.91V17.16h-10.3V14.79h10.3V13.68h-7.7V11.6h7.7V10.45h-7.05V5.3h7.05V4.24h-9.7V1.79h9.7V.1h3.14V1.79h9.93V4.24h-9.93V5.3h7.39v5.15h-7.39V11.6h7.83v3.19h2.7ZM208.24,8.5V7.25h-4.09V8.5Zm3.14-1.25V8.5h4.21V7.25Zm0,7.54h4.68V13.68h-4.68Zm4.68,2.37h-4.68v1.22h4.68Z"/><path class="cls-2" d="M231.9,2.29a22.62,22.62,0,0,0-.63,2.29A64,64,0,0,0,230,14a12.21,12.21,0,0,0,.11,1.67c.36-.91.78-1.77,1.14-2.6l1.61,1.25A63.9,63.9,0,0,0,231,20.64a7.51,7.51,0,0,0-.16,1.2c0,.29,0,.7.05,1.07l-3,.2a32.86,32.86,0,0,1-1-8.42A72.37,72.37,0,0,1,228,4.5,18.36,18.36,0,0,0,228.28,2Zm6,12.71a8.39,8.39,0,0,0-.31,2.16c0,1.14,1,1.82,3.58,1.82a29.49,29.49,0,0,0,6.45-.68l.08,3.49a35.92,35.92,0,0,1-6.66.52c-4.44,0-6.55-1.61-6.55-4.24a15.74,15.74,0,0,1,.44-3.35Zm9-11V7.31a72.78,72.78,0,0,1-11,0l0-3.33A52.48,52.48,0,0,0,246.92,4Z"/><path class="cls-2" d="M59.31,36.39h2.83V47.7c0,5.2-.67,9.75-5.8,12.59a11.43,11.43,0,0,0-2.18-2.16A8.67,8.67,0,0,0,59,51.73c-1,.83-2.08,1.66-3,2.39l-1.59-2.6c1.23-.73,3.07-2,4.87-3.14l.05.1V45L57.77,46a27.68,27.68,0,0,0-2.26-4.84v2.76H53.35v3.35l2-.73.57,2.73c-.83.34-1.69.65-2.55,1v6.91c0,1.43-.26,2.21-1,2.71a6.61,6.61,0,0,1-3.58.57,10.59,10.59,0,0,0-.81-2.86,20,20,0,0,0,2.16,0c.31,0,.44-.1.44-.44V51.29l-2.39.88-.76-2.91c.89-.29,2-.62,3.15-1V43.88H47.71V41h2.81V36.13h2.83V41h2.11l-.23-.39,2.28-1.25c.63.94,1.25,2.11,1.8,3.15Zm9.49,21c.52,0,.62-.75.7-3.38a7.64,7.64,0,0,0,2.6,1.22c-.29,3.54-1,4.92-3,4.92H66.8c-2.34,0-3-.91-3-4.16V36.39h2.91V44a33.7,33.7,0,0,0,2.1-4.91l2.76,1.4c-1.07,1.93-2.24,4.11-3.2,5.49L66.72,45v2.91l.75-.72a35.66,35.66,0,0,1,4.66,4.57l-2,2.19a32.59,32.59,0,0,0-3.43-3.88V56c0,1.2.08,1.38.62,1.38Z"/><path class="cls-2" d="M96.15,51.18c0,1.46,0,2,0,3C96,56.51,95.29,58,92.3,58.88a24.57,24.57,0,0,1-5.59.55c-6,0-6.24-1.9-6.24-3.7v-.54a2.82,2.82,0,0,1-.41,0c-1.88,0-3.8-1.32-3.8-4.62,0-3.05,1.95-5.33,4.76-5.33h.1V43.54H80.6c-1.12,0-2.52-.08-4.21-.23l-.18-3.05a30.49,30.49,0,0,0,4.16.37h.75v-.21a13.63,13.63,0,0,0-.26-3.25h3.62a17.72,17.72,0,0,0-.24,3.22,36.33,36.33,0,0,0,4.58-.91V42.6a39.91,39.91,0,0,1-4.58.73v3.33a4.37,4.37,0,0,1,.76,2.6,6.82,6.82,0,0,1-1.38,4.39v1c0,1.09.28,1.66,3.33,1.66a16.27,16.27,0,0,0,4-.47,2.41,2.41,0,0,0,1.87-2.6,24.15,24.15,0,0,0-.18-3.17Zm-15.76.94c1.17,0,1.64-1.25,1.64-2.7,0-1-.49-1.59-1.22-1.59-1,0-1.85,1-1.85,2.52C79,51.47,79.64,52.12,80.39,52.12ZM93.13,39.54a31.31,31.31,0,0,1,5.46,4.91l-2.34,2.39A35.41,35.41,0,0,0,91,41.69Z"/><path class="cls-2" d="M120.77,43.88c-.13.28-.31.83-.47,1.32,3,1,5,3.31,5,6.32,0,3.62-2.16,7.18-8.48,8.11l-1.71-2.7c5-.55,7-3,7-5.56a3.84,3.84,0,0,0-2.65-3.62,20,20,0,0,1-5.43,7.8c.18.68.39,1.3.59,1.93l-3,.88c-.1-.31-.23-.67-.34-1a9.1,9.1,0,0,1-4,1c-1.89,0-3.48-1.14-3.48-3.77,0-3.28,2.73-6.76,6.32-8.45.08-1.09.15-2.18.26-3.22h-.83c-1.36,0-3.36-.11-4.55-.16l-.11-3a42.18,42.18,0,0,0,4.76.34h1l.15-1.38a8.87,8.87,0,0,0,.08-1.53l3.38.07a10.55,10.55,0,0,0-.36,1.38c-.11.42-.18.89-.26,1.38a43,43,0,0,0,8.73-1.09l0,3a75.13,75.13,0,0,1-9.15.94c-.08.75-.16,1.53-.18,2.31a17.62,17.62,0,0,1,3.84-.47h.45c.1-.52.2-1.17.23-1.53Zm-10.14,10.5a36.45,36.45,0,0,1-.54-5.15c-1.93,1.3-3.23,3.28-3.23,4.74,0,.8.37,1.24,1.2,1.24A5.4,5.4,0,0,0,110.63,54.38ZM113,47.93a30.39,30.39,0,0,0,.29,4.27,14.75,14.75,0,0,0,3.25-4.89,12.85,12.85,0,0,0-3.54.57Z"/><path class="cls-2" d="M143.57,43a37.21,37.21,0,0,1-4.47.88,47.41,47.41,0,0,1-5.51,11l-3.15-1.59a39.54,39.54,0,0,0,5.26-9.1c-.45,0-.89,0-1.33,0-1.07,0-2.11,0-3.22-.08l-.24-3a32.77,32.77,0,0,0,3.43.18c.76,0,1.54,0,2.32-.07a22.05,22.05,0,0,0,.7-4.32l3.56.36c-.21.84-.52,2.14-.88,3.51a26.42,26.42,0,0,0,3.46-.8ZM147,45.28c-.07,1.09,0,2.16,0,3.3,0,.73.08,2,.16,3.25a17.31,17.31,0,0,1,5.33,3.31l-1.72,2.75a23.33,23.33,0,0,0-3.48-2.73v.24c0,2.39-1.3,4.26-5,4.26-3.19,0-5.72-1.43-5.72-4.26,0-2.53,2.11-4.48,5.7-4.48.6,0,1.19.06,1.74.11-.08-1.93-.21-4.19-.29-5.75Zm-2.83,8.53a8.91,8.91,0,0,0-2.08-.26c-1.48,0-2.44.62-2.44,1.53s.8,1.62,2.21,1.62c1.74,0,2.31-1,2.31-2.4Zm7.26-7.15A34.69,34.69,0,0,0,145.19,43l1.66-2.54a45,45,0,0,1,6.34,3.48Z"/><path class="cls-2" d="M171.84,43.25c-1.54.34-3.28.63-5,.84-.23,1.11-.49,2.26-.78,3.3A82,82,0,0,1,162,59.3l-3.61-1.2a56.7,56.7,0,0,0,4.44-11.6c.19-.67.37-1.4.55-2.13-.6,0-1.17.05-1.69.05-1.25,0-2.21-.05-3.12-.1l-.08-3.22a26.46,26.46,0,0,0,3.25.2c.76,0,1.51,0,2.29-.07.1-.58.18-1.07.23-1.49a13.59,13.59,0,0,0,.11-2.6l3.92.32c-.18.7-.41,1.84-.54,2.41l-.21,1c1.46-.23,2.91-.52,4.32-.86Zm-.52,8.45a8.89,8.89,0,0,0-.37,2.16c0,1.12.65,2,3.41,2a29.6,29.6,0,0,0,5.35-.52l-.13,3.3a39.49,39.49,0,0,1-5.25.37c-4.34,0-6.55-1.51-6.55-4.11a17.46,17.46,0,0,1,.44-3.43Zm-1.51-6.47c1.43-.13,3.27-.26,4.94-.26,1.46,0,3,.08,4.52.23l-.08,3.1a36.33,36.33,0,0,0-4.42-.31,37.44,37.44,0,0,0-5,.28Z"/><path class="cls-2" d="M196.35,54.38c.06-.75.08-2,.11-3.07-1.9,1-2.94,2.06-2.94,3.33,0,1.43,1.22,1.82,3.74,1.82a39.18,39.18,0,0,0,7.31-.75l-.1,3.35a70.78,70.78,0,0,1-7.28.42c-4,0-7.08-1-7.08-4.29s3.12-5.36,6.06-6.87a2,2,0,0,0-1.79-.88,6.35,6.35,0,0,0-4,1.77A31.88,31.88,0,0,0,188,52l-2.76-2a25.53,25.53,0,0,0,5.67-7.07h-.31c-1,0-2.94-.06-4.35-.19v-3a32.8,32.8,0,0,0,4.53.28H192a14.79,14.79,0,0,0,.52-2.93l3.38.28c-.13.63-.32,1.51-.63,2.55a60.58,60.58,0,0,0,7.28-.75l0,3a84,84,0,0,1-8.4.68,16.74,16.74,0,0,1-1.48,2.6,8,8,0,0,1,2.91-.52,3.5,3.5,0,0,1,3.43,2c1.33-.62,2.42-1.07,3.48-1.53s1.9-.89,2.84-1.33l1.3,3a28.4,28.4,0,0,0-3.07,1.09c-1.14.44-2.6,1-4.19,1.74,0,1.43.08,3.33.11,4.5Z"/><path class="cls-2" d="M16.72,83.47a20.55,20.55,0,0,1,4.94-.68c3.95,0,7.07,2.11,7.07,5.64,0,3-1.58,5.33-5.67,6.35a20.55,20.55,0,0,1-3.38.41l-1.19-3.3a20.39,20.39,0,0,0,3.17-.18c2.08-.37,3.74-1.43,3.74-3.3s-1.56-2.76-3.79-2.76a18.39,18.39,0,0,0-4.84.7c.05,2.06.13,4,.13,4.92,0,3.19-1.17,4-2.83,4C11.55,95.3,8,93.14,8,90.41c0-2.26,2.63-4.58,5.78-6,0-.59,0-1.19,0-1.79V80.5c-.49,0-1,0-1.38,0-1.17,0-2.47,0-3.59-.13l0-3.12a26.87,26.87,0,0,0,3.56.21c.47,0,1,0,1.49-.05,0-.91,0-1.66,0-2.11a20.09,20.09,0,0,0-.18-2.26h3.54c-.06.47-.16,1.59-.21,2.24s-.05,1.19-.08,1.84a34.56,34.56,0,0,0,4.73-1l.08,3.23c-1.46.33-3.22.59-4.91.8,0,.78,0,1.56,0,2.32Zm-2.83,7.22c0-.65,0-1.82-.08-3.17-1.59.81-2.63,1.87-2.63,2.78s1.2,1.51,1.87,1.51C13.52,91.81,13.89,91.58,13.89,90.69Zm10.6-14.82a58,58,0,0,1,6.32,3.62l-1.56,2.65a38.38,38.38,0,0,0-6.19-3.74Z"/><path class="cls-2" d="M55,83v2h3.07v2.81H55v5.3c0,1.56-.29,2.32-1.33,2.79a12,12,0,0,1-4.42.49,12.26,12.26,0,0,0-1-2.91c1.27,0,2.7,0,3.12,0s.52-.08.52-.44V87.81H41.89V85H52V83H41.63V80.5c-.39.55-.78,1.09-1.22,1.67V96.36h-3V85.57a26.39,26.39,0,0,1-2.36,2.13,21.52,21.52,0,0,0-1.43-3.19,23.36,23.36,0,0,0,6.24-6.69L42.59,79c-.23.37-.47.76-.73,1.15h6.55V77.88H43.08V75.07h5.33V72.23h3.07v2.84h5.59v2.81H51.48v2.26h6.84V83Zm-12.85-9.6a27.09,27.09,0,0,1-6.76,6.5,18,18,0,0,0-1.53-2.62,17.92,17.92,0,0,0,5.36-5.07ZM45.87,88a20.14,20.14,0,0,1,3,4.42L46.2,93.84a19.67,19.67,0,0,0-2.86-4.55Z"/><path class="cls-2" d="M81,78.79c-2.68.41-6.76.91-10.22,1.09a41.63,41.63,0,0,1-1.17,4.44A12.56,12.56,0,0,1,76,82.71c4.16,0,6.92,2.24,6.92,5.51,0,5.8-5.57,7.88-13.89,7l-.91-3.33c5.64.91,11.34.23,11.34-3.56,0-1.54-1.35-2.84-3.85-2.84a8.82,8.82,0,0,0-7.12,3.05,6.88,6.88,0,0,0-.73,1.11l-3-1.09a41.31,41.31,0,0,0,2.93-8.63c-1.63,0-3.14-.13-4.44-.26v-3.2a36.92,36.92,0,0,0,5,.5c0-.39.13-.73.16-1a16.49,16.49,0,0,0,.13-2.6l3.64.15a25.24,25.24,0,0,0-.6,2.63l-.16.78a63.15,63.15,0,0,0,9.52-1.22Z"/><path class="cls-2" d="M97.4,73.59A27.46,27.46,0,0,0,97.06,77c-.13,2.75-.31,8.53-.31,11.72,0,2.6,1.56,3.44,3.53,3.44,4.27,0,7-2.45,8.82-5.26l2.34,2.89a13.43,13.43,0,0,1-11.18,5.88c-4.21,0-6.94-1.85-6.94-6.24,0-3.46.26-10.22.26-12.43a16.53,16.53,0,0,0-.34-3.49Z"/><path class="cls-2" d="M119.5,76.16c2.13-.21,6.39-.57,11.1-1,2.65-.21,5.49-.36,7.28-.44l0,3.33a26,26,0,0,0-5,.34,7.85,7.85,0,0,0-5.43,7.2c0,4.24,4,5.74,8.32,6l-1.2,3.56c-5.41-.36-10.5-3.28-10.5-8.84a10.3,10.3,0,0,1,3.79-7.93c-2.21.23-7.64.81-10.63,1.46L117,76.29C118,76.26,119,76.21,119.5,76.16Z"/><path class="cls-2" d="M148.8,78.73a53.78,53.78,0,0,0,.16,5.46c.36,3.72,1.14,6.24,2.75,6.24,1.22,0,2.24-3,2.73-5l2.6,3.12c-1.71,4.47-3.33,6.06-5.41,6.06-2.8,0-5.27-2.55-6-9.47-.24-2.36-.29-5.35-.29-6.94a14.52,14.52,0,0,0-.18-2.6l4,0A20.66,20.66,0,0,0,148.8,78.73Zm17.89,10.59-3.41,1.3c-.39-4.14-1.77-10.2-4.57-13.37L162,76.16C164.43,79.15,166.4,85.36,166.69,89.32Z"/><path class="cls-2" d="M190.45,94.26a19.55,19.55,0,0,0-5.2-3.57c0,.34,0,.65,0,.91,0,2.21-1.67,3.9-5.07,3.9-4.11,0-6.29-1.56-6.29-4.29s2.39-4.42,6.37-4.42c.54,0,1.06,0,1.58.08-.05-.78-.08-1.58-.1-2.34h-1.33c-1.51,0-4.47-.13-6.19-.34l0-3a46.07,46.07,0,0,0,6.21.47h1.23V78.94h-1.23a42,42,0,0,1-5.59-.39l0-2.94a33.18,33.18,0,0,0,5.59.5h1.27V74.94a9.72,9.72,0,0,0-.13-1.77h3.51a17.79,17.79,0,0,0-.18,1.82l0,1a51.7,51.7,0,0,0,6.14-.62l.08,3c-1.69.16-3.77.37-6.24.5l0,2.68c2.6-.11,4.76-.34,6.87-.6v3c-2.32.26-4.32.44-6.82.52.06,1,.11,2,.19,3a19.92,19.92,0,0,1,7.2,3.9ZM182,89.63a13.15,13.15,0,0,0-2.11-.18c-1.82,0-2.81.7-2.81,1.58s.91,1.59,2.68,1.59c1.38,0,2.26-.42,2.26-1.9C182,90.43,182,90.07,182,89.63Z"/><path class="cls-2" d="M221.08,79.28c-1.56-.08-4-.13-7.46-.13,0,1.3,0,2.7,0,3.82a6.35,6.35,0,0,1,1,3.56c0,3.36-2,7.62-8.27,9.39l-2.73-2.75c2.6-.55,4.86-1.41,6.29-2.94a6.07,6.07,0,0,1-1.17.13,4.54,4.54,0,0,1-4.45-4.74,4.85,4.85,0,0,1,5.15-4.81,6.49,6.49,0,0,1,1,.08l0-1.71c-3.9,0-7.88.2-11,.39l-.08-3.12c2.94,0,7.62-.13,11.08-.19a5.8,5.8,0,0,0,0-.78,17.72,17.72,0,0,0-.23-2.23h3.74c-.08.41-.15,1.79-.18,2.21,0,.21,0,.47,0,.78,2.6,0,6.11,0,7.47,0ZM209.35,87.5c1.07,0,2-.81,1.69-3a1.84,1.84,0,0,0-1.69-.91,2,2,0,0,0,0,4Z"/><path class="cls-2" d="M233.43,91.89a4.2,4.2,0,1,1-4.21-4.21A4.2,4.2,0,0,1,233.43,91.89Zm-1.87,0a2.33,2.33,0,1,0-2.34,2.32A2.33,2.33,0,0,0,231.56,91.89Z"/></g></g></svg>