<svg id="コンポーネント_8_1" data-name="コンポーネント 8 – 1" xmlns="http://www.w3.org/2000/svg" width="279.994" height="95.48" viewBox="0 0 279.994 95.48">
  <path id="パス_427" data-name="パス 427" d="M6049.893,1708.428c1.091,0,5.927-.234,7.488-.416a9.959,9.959,0,0,0,1.793-.312l2.029,2.366c-.52.365-1.482.989-2,1.431-1.846,1.456-4.393,3.588-6.136,4.966,3.458-.364,7.7-.624,10.842-.624v3.042a38.807,38.807,0,0,0-6.6.052c-2.366.338-4.343,2-4.343,4.108,0,2.028,1.587,2.808,3.9,3.094a22.434,22.434,0,0,0,3.927.052l-.677,3.38c-6.6.286-10.452-1.69-10.452-5.98a6.021,6.021,0,0,1,1.872-4.056c-2.341.182-5.226.572-7.8,1.014l-.312-3.12c1.378-.13,3.172-.364,4.5-.52a72.955,72.955,0,0,0,7.254-5.85c-1.039.078-4.212.234-5.252.338-.65.052-1.508.156-2.314.233l-.156-3.3C6048.254,1708.4,6049.008,1708.428,6049.893,1708.428Z" transform="translate(-6043.418 -1706.946)" fill="#389e40"/>
  <path id="パス_428" data-name="パス 428" d="M6082.627,1709.807c-1.274,1.846-3.225,5.434-4.5,7.7a5.86,5.86,0,0,1,2.938-.78c1.924,0,3.094,1.248,3.2,3.38.051,1.144-.027,3.224.13,4.29a1.453,1.453,0,0,0,1.637,1.4c2.21,0,3.614-2.886,4.343-6.084l2.781,2.262c-1.326,4.446-3.718,7.358-7.695,7.358-2.809,0-4.16-1.716-4.265-3.588-.1-1.378-.078-3.484-.156-4.524a1.384,1.384,0,0,0-1.508-1.43c-1.768,0-3.2,1.768-4.108,3.874a49.666,49.666,0,0,0-1.949,5.72l-3.641-1.222c1.9-5.148,7.332-15.964,8.684-18.409.338-.7.806-1.534,1.274-2.626l3.667,1.482C6083.2,1708.922,6082.912,1709.391,6082.627,1709.807Z" transform="translate(-6043.418 -1706.946)" fill="#389e40"/>
  <path id="パス_429" data-name="パス 429" d="M6110.524,1713.005a37.707,37.707,0,0,1-4.471.884,47.572,47.572,0,0,1-5.513,11.024l-3.145-1.586a39.279,39.279,0,0,0,5.251-9.1c-.442.026-.884.026-1.326.026-1.066,0-2.106-.026-3.224-.078l-.235-3.016a32.78,32.78,0,0,0,3.433.182c.754,0,1.534-.027,2.314-.078a21.935,21.935,0,0,0,.7-4.317l3.561.365c-.208.832-.519,2.131-.884,3.51a27.141,27.141,0,0,0,3.458-.806Zm3.38,2.314c-.078,1.092-.025,2.158,0,3.3.027.728.078,1.976.157,3.25a17.159,17.159,0,0,1,5.33,3.3l-1.716,2.756a22.86,22.86,0,0,0-3.485-2.73v.234c0,2.392-1.3,4.264-4.965,4.264-3.2,0-5.721-1.43-5.721-4.264,0-2.522,2.106-4.472,5.694-4.472.6,0,1.2.052,1.742.1-.078-1.924-.208-4.186-.286-5.746Zm-2.834,8.528a9.093,9.093,0,0,0-2.08-.26c-1.482,0-2.443.624-2.443,1.534,0,.962.806,1.612,2.209,1.612,1.742,0,2.314-1.014,2.314-2.392Zm7.254-7.15a34.349,34.349,0,0,0-6.187-3.666l1.664-2.549a46.46,46.46,0,0,1,6.344,3.485Z" transform="translate(-6043.418 -1706.946)" fill="#389e40"/>
  <path id="パス_430" data-name="パス 430" d="M6142.322,1713.915c-.13.286-.312.832-.468,1.326,2.991.988,4.966,3.3,4.966,6.318,0,3.614-2.158,7.176-8.476,8.112l-1.716-2.7c4.966-.546,7-3.042,7-5.564a3.829,3.829,0,0,0-2.652-3.614,20.035,20.035,0,0,1-5.435,7.8c.183.676.39,1.3.6,1.924l-2.965.884c-.1-.312-.234-.676-.338-1.04a9.063,9.063,0,0,1-3.978,1.04c-1.9,0-3.485-1.144-3.485-3.77,0-3.276,2.731-6.76,6.319-8.45.078-1.092.156-2.184.26-3.224h-.832c-1.352,0-3.354-.1-4.55-.156l-.1-2.99a42.277,42.277,0,0,0,4.758.338h.988l.156-1.378a10.152,10.152,0,0,0,.077-1.535l3.381.079a10.2,10.2,0,0,0-.364,1.377c-.1.416-.182.885-.26,1.378a43.021,43.021,0,0,0,8.737-1.091l.026,2.963a74.646,74.646,0,0,1-9.152.937c-.079.754-.157,1.534-.183,2.314a17.319,17.319,0,0,1,3.849-.468h.441a14.588,14.588,0,0,0,.234-1.534Zm-10.14,10.5a35.835,35.835,0,0,1-.546-5.148c-1.924,1.3-3.224,3.276-3.224,4.732,0,.806.363,1.248,1.195,1.248A5.472,5.472,0,0,0,6132.182,1724.419Zm2.339-6.448a29.841,29.841,0,0,0,.288,4.264,14.729,14.729,0,0,0,3.25-4.888,12.59,12.59,0,0,0-3.538.572Z" transform="translate(-6043.418 -1706.946)" fill="#389e40"/>
  <path id="パス_431" data-name="パス 431" d="M6165.124,1713.005a37.718,37.718,0,0,1-4.472.884,47.511,47.511,0,0,1-5.512,11.024l-3.146-1.586a39.283,39.283,0,0,0,5.252-9.1c-.442.026-.885.026-1.326.026-1.066,0-2.106-.026-3.225-.078l-.233-3.016a32.767,32.767,0,0,0,3.433.182c.753,0,1.533-.027,2.313-.078a22.04,22.04,0,0,0,.7-4.317l3.563.365c-.209.832-.521,2.131-.885,3.51a27.236,27.236,0,0,0,3.459-.806Zm3.38,2.314c-.078,1.092-.025,2.158,0,3.3.026.728.078,1.976.156,3.25a17.148,17.148,0,0,1,5.33,3.3l-1.716,2.756a22.982,22.982,0,0,0-3.483-2.73v.234c0,2.392-1.3,4.264-4.967,4.264-3.2,0-5.72-1.43-5.72-4.264,0-2.522,2.106-4.472,5.695-4.472.6,0,1.2.052,1.741.1-.077-1.924-.208-4.186-.286-5.746Zm-2.834,8.528a9.111,9.111,0,0,0-2.08-.26c-1.482,0-2.444.624-2.444,1.534,0,.962.806,1.612,2.21,1.612,1.742,0,2.314-1.014,2.314-2.392Zm7.255-7.15a34.366,34.366,0,0,0-6.189-3.666l1.664-2.549a46.43,46.43,0,0,1,6.344,3.485Z" transform="translate(-6043.418 -1706.946)" fill="#389e40"/>
  <path id="パス_432" data-name="パス 432" d="M6193.387,1713.291c-1.534.338-3.277.624-4.992.832-.235,1.118-.5,2.262-.781,3.3a83.011,83.011,0,0,1-4.082,11.908l-3.614-1.2a56.752,56.752,0,0,0,4.446-11.6c.182-.676.365-1.4.546-2.132-.6.026-1.17.052-1.69.052-1.248,0-2.21-.052-3.12-.1l-.079-3.224a25.391,25.391,0,0,0,3.25.208c.754,0,1.509-.027,2.29-.078.1-.573.181-1.066.233-1.482a13.37,13.37,0,0,0,.1-2.6l3.926.312c-.181.7-.416,1.846-.546,2.419l-.208.987c1.456-.233,2.912-.52,4.317-.857Zm-.521,8.45a8.91,8.91,0,0,0-.364,2.158c0,1.118.65,1.95,3.406,1.95a29.862,29.862,0,0,0,5.357-.52l-.13,3.3a41.19,41.19,0,0,1-5.252.364c-4.343,0-6.553-1.508-6.553-4.108a17.673,17.673,0,0,1,.442-3.432Zm-1.508-6.474c1.43-.13,3.277-.26,4.941-.26a44.691,44.691,0,0,1,4.523.234l-.078,3.094a37.163,37.163,0,0,0-4.42-.312,37.841,37.841,0,0,0-4.966.286Z" transform="translate(-6043.418 -1706.946)" fill="#389e40"/>
  <path id="パス_433" data-name="パス 433" d="M6217.047,1726.187c.987-.13,1.715-.26,2.391-.416,3.3-.78,5.851-3.146,5.851-6.89,0-3.562-1.925-6.214-5.383-6.812a55.555,55.555,0,0,1-1.534,6.994c-1.534,5.2-3.77,8.372-6.578,8.372-2.834,0-5.252-3.146-5.252-7.488,0-5.928,5.174-11.025,11.856-11.025,6.371,0,10.4,4.447,10.4,10.063,0,5.408-3.328,9.256-9.828,10.244Zm-2-7.8a41.177,41.177,0,0,0,1.378-6.241,8.075,8.075,0,0,0-6.526,7.463c0,2.6,1.04,3.874,2,3.874C6212.964,1723.483,6214,1721.871,6215.044,1718.387Z" transform="translate(-6043.418 -1706.946)" fill="#389e40"/>
  <path id="パス_434" data-name="パス 434" d="M6247.986,1713.291c-1.534.338-3.275.624-4.992.832-.234,1.118-.494,2.262-.779,3.3a83.131,83.131,0,0,1-4.083,11.908l-3.614-1.2a56.781,56.781,0,0,0,4.446-11.6c.182-.676.364-1.4.546-2.132-.6.026-1.17.052-1.69.052-1.248,0-2.211-.052-3.12-.1l-.078-3.224a25.381,25.381,0,0,0,3.25.208c.754,0,1.508-.027,2.288-.078.1-.573.182-1.066.235-1.482a13.4,13.4,0,0,0,.1-2.6l3.926.312c-.182.7-.416,1.846-.545,2.419l-.209.987c1.457-.233,2.912-.52,4.316-.857Zm-.519,8.45a8.86,8.86,0,0,0-.364,2.158c0,1.118.649,1.95,3.406,1.95a29.853,29.853,0,0,0,5.356-.52l-.131,3.3a41.17,41.17,0,0,1-5.252.364c-4.341,0-6.552-1.508-6.552-4.108a17.673,17.673,0,0,1,.442-3.432Zm-1.508-6.474c1.43-.13,3.275-.26,4.939-.26a44.729,44.729,0,0,1,4.525.234l-.078,3.094a37.232,37.232,0,0,0-4.42-.312,37.813,37.813,0,0,0-4.966.286Z" transform="translate(-6043.418 -1706.946)" fill="#389e40"/>
  <path id="パス_435" data-name="パス 435" d="M6276.69,1711.445a8.484,8.484,0,0,1,6.761,8.684c0,5.46-3.9,8.58-9.283,9.386l-1.976-2.964c5.668-.494,7.878-3.38,7.878-6.6a5.516,5.516,0,0,0-4.16-5.668,31.339,31.339,0,0,1-3.484,8.19c.469.546.936,1.066,1.4,1.534l-2.574,2.054c-.312-.338-.624-.676-.884-1.014-1.742,1.872-3.172,2.756-5.07,2.756-2.132,0-4.109-1.82-4.109-5.148a11.294,11.294,0,0,1,3.8-8.138c-.234-.676-.469-1.378-.676-2.08a18.983,18.983,0,0,0-1.041-2.679l3.381-1.04c.157.832.364,1.691.573,2.445.128.494.285,1.04.466,1.586a13.436,13.436,0,0,1,5.825-1.535c.1-.441.182-.857.26-1.248a13.869,13.869,0,0,0,.182-2.443l3.562.337c-.208.7-.442,1.951-.6,2.6Zm-8.19,11.05a28.249,28.249,0,0,1-2.393-4.94,7.863,7.863,0,0,0-1.871,4.836c0,1.248.52,2.054,1.455,2.054C6266.6,1724.445,6267.564,1723.665,6268.5,1722.495Zm.13-6.942a25.807,25.807,0,0,0,1.82,4.082,30.608,30.608,0,0,0,2.288-5.512A10.041,10.041,0,0,0,6268.63,1715.553Z" transform="translate(-6043.418 -1706.946)" fill="#389e40"/>
  <path id="パス_436" data-name="パス 436" d="M6294.4,1708.324a21.9,21.9,0,0,0-.625,2.289,63.82,63.82,0,0,0-1.248,9.438,12.411,12.411,0,0,0,.1,1.664c.364-.91.78-1.768,1.143-2.6l1.613,1.248a61.991,61.991,0,0,0-1.846,6.318,7.552,7.552,0,0,0-.156,1.2c.026.286.026.7.052,1.066l-2.964.208a32.823,32.823,0,0,1-1.014-8.424,71.541,71.541,0,0,1,1.065-10.192,19.09,19.09,0,0,0,.26-2.523Zm6.032,12.715a8.517,8.517,0,0,0-.312,2.158c0,1.144.988,1.82,3.588,1.82a29.664,29.664,0,0,0,6.448-.676l.078,3.484a35.788,35.788,0,0,1-6.656.52c-4.446,0-6.553-1.612-6.553-4.238a15.886,15.886,0,0,1,.443-3.354Zm9-11.024v3.328a71.269,71.269,0,0,1-11.051,0l-.026-3.328A52.54,52.54,0,0,0,6309.425,1710.015Z" transform="translate(-6043.418 -1706.946)" fill="#389e40"/>
  <path id="パス_437" data-name="パス 437" d="M6320.63,1729.957a48.872,48.872,0,0,0-5.59-5.746l2.7-2.34a48.781,48.781,0,0,1,5.668,5.694Z" transform="translate(-6043.418 -1706.946)" fill="#389e40"/>
  <path id="パス_438" data-name="パス 438" d="M6103.5,1756.233a10.684,10.684,0,0,0-.441,2.6c0,1.638,1.559,2.834,5.277,2.834a36.52,36.52,0,0,0,9.049-1.014l.025,3.614a39.3,39.3,0,0,1-8.943.884c-5.9,0-8.867-1.976-8.867-5.512a16.561,16.561,0,0,1,.52-3.718Zm-2.184-10.92a67.5,67.5,0,0,0,7.02.312c2.549,0,5.486-.156,7.463-.364v3.458c-1.794.13-4.992.312-7.437.312-2.7,0-4.94-.13-7.046-.286Z" transform="translate(-6043.418 -1706.946)" fill="#389e40"/>
  <path id="パス_439" data-name="パス 439" d="M6135.146,1762.187c.989-.13,1.716-.26,2.393-.416,3.3-.78,5.85-3.146,5.85-6.89,0-3.562-1.924-6.214-5.383-6.812a55.891,55.891,0,0,1-1.533,6.994c-1.535,5.2-3.771,8.372-6.578,8.372-2.834,0-5.252-3.146-5.252-7.488,0-5.928,5.173-11.024,11.855-11.024,6.371,0,10.4,4.446,10.4,10.062,0,5.408-3.328,9.256-9.828,10.244Zm-2-7.8a41.309,41.309,0,0,0,1.377-6.24,8.073,8.073,0,0,0-6.526,7.462c0,2.6,1.04,3.874,2,3.874C6131.064,1759.483,6132.1,1757.871,6133.145,1754.387Z" transform="translate(-6043.418 -1706.946)" fill="#389e40"/>
  <path id="パス_440" data-name="パス 440" d="M6164.813,1756.571a22.644,22.644,0,0,0,4.16-5.252c-.807.156-4.317.858-8.008,1.586v6.89c0,1.612.468,2.184,3.3,2.184a44.663,44.663,0,0,0,8.215-.858l-.1,3.51a61.111,61.111,0,0,1-8.061.572c-5.927,0-6.786-1.43-6.786-4.5v-7.1c-2.313.468-4.368.884-5.46,1.144l-.624-3.406c1.222-.156,3.51-.546,6.084-1.014v-3.718a21.841,21.841,0,0,0-.208-2.965h3.874a21.374,21.374,0,0,0-.233,2.965v3.068c3.8-.7,7.435-1.456,8.6-1.716a8.48,8.48,0,0,0,1.847-.624l2.5,1.95c-.234.364-.624.936-.858,1.4a36.592,36.592,0,0,1-5.382,7.566Z" transform="translate(-6043.418 -1706.946)" fill="#389e40"/>
  <path id="パス_441" data-name="パス 441" d="M6198.4,1762.135l-1.429,3.25c-3.51-1.456-11.727-3.25-15.887-3.874l1.3-3.276A104.649,104.649,0,0,1,6198.4,1762.135Zm-1.091-8.164-1.274,3.25a90.4,90.4,0,0,0-13.521-3.276l1.2-3.146A107.242,107.242,0,0,1,6197.313,1753.971Zm1.767-7.1-1.326,3.25a89.181,89.181,0,0,0-14.066-3.25l1.222-3.068A94.906,94.906,0,0,1,6199.08,1746.873Z" transform="translate(-6043.418 -1706.946)" fill="#389e40"/>
  <path id="パス_442" data-name="パス 442" d="M6226.146,1749.5c1.2,0,2.289-.1,2.834-.156v3.536c-.545-.026-1.82-.1-2.859-.1h-5.85c-.157,5.226-1.794,9.49-7.411,12.844l-3.224-2.392c5.1-2.314,6.839-6.058,7.046-10.452h-6.63c-1.144,0-2.184.078-2.989.13v-3.588c.779.078,1.845.182,2.885.182h6.76v-2.86a13,13,0,0,0-.338-3.042h4.134a20.437,20.437,0,0,0-.207,3.068v2.834Z" transform="translate(-6043.418 -1706.946)" fill="#389e40"/>
  <path id="パス_443" data-name="パス 443" d="M6234.492,1752.125c.936.078,2.834.156,4.186.156h13.963c1.2,0,2.366-.1,3.042-.156v4.082c-.624-.026-1.951-.13-3.042-.13h-13.963c-1.482,0-3.224.052-4.186.13Z" transform="translate(-6043.418 -1706.946)" fill="#389e40"/>
  <path id="パス_444" data-name="パス 444" d="M6272.5,1760.419c.053-.754.078-1.95.1-3.068-1.9,1.04-2.938,2.054-2.938,3.328,0,1.43,1.223,1.82,3.744,1.82a39.386,39.386,0,0,0,7.307-.754l-.1,3.354a71.285,71.285,0,0,1-7.281.416c-4.029,0-7.072-.962-7.072-4.29,0-3.276,3.121-5.356,6.058-6.864a2.012,2.012,0,0,0-1.794-.884,6.371,6.371,0,0,0-4.03,1.768,33.436,33.436,0,0,0-2.393,2.834l-2.755-2.054a25.149,25.149,0,0,0,5.668-7.072h-.312c-1.04,0-2.938-.052-4.342-.182v-3.016a33.044,33.044,0,0,0,4.525.286h1.248a14.3,14.3,0,0,0,.519-2.938l3.38.286c-.13.624-.311,1.507-.624,2.548a59.426,59.426,0,0,0,7.28-.754l-.026,3.016a83.887,83.887,0,0,1-8.4.676,15.739,15.739,0,0,1-1.483,2.6,8.06,8.06,0,0,1,2.912-.52,3.508,3.508,0,0,1,3.433,2c1.326-.624,2.418-1.066,3.484-1.534.988-.442,1.9-.884,2.834-1.326l1.3,2.99a27.211,27.211,0,0,0-3.068,1.092c-1.144.442-2.6,1.014-4.187,1.742.027,1.43.078,3.328.1,4.5Z" transform="translate(-6043.418 -1706.946)" fill="#389e40"/>
  <path id="パス_445" data-name="パス 445" d="M6114.372,1788.333v14.093h-3.017v-23.3h10.011v9.2Zm0-6.994v1.326h4.082v-1.326Zm4.082,4.758v-1.43h-4.082v1.43Zm7.618,10.478v5.356h-2.7v-5.356h-2.5a8.47,8.47,0,0,1-3.328,5.824,11.693,11.693,0,0,0-1.976-1.768,6.1,6.1,0,0,0,2.653-4.056h-2.627v-2.522h2.73v-1.95h-2.366v-2.444h12.559v2.444h-2.445v1.95h2.861v2.522Zm-2.7-2.522v-1.95h-2.418v1.95Zm9.906,4.758c0,1.586-.286,2.444-1.221,2.938-.936.52-2.288.6-4.264.6a11,11,0,0,0-.936-3.068c1.169.052,2.444.052,2.834.026.416,0,.545-.156.545-.52v-10.4h-7.15v-9.256h10.192Zm-7.253-17.472v1.326h4.211v-1.326Zm4.211,4.81v-1.482h-4.211v1.482Z" transform="translate(-6043.418 -1706.946)" fill="#389e40"/>
  <path id="パス_446" data-name="パス 446" d="M6161.589,1801.411h-11.8v.936h-2.964V1791.9a19.735,19.735,0,0,1-1.429,1.482,21.178,21.178,0,0,0-2.185-2.08v11.076h-2.938v-13.286a24.1,24.1,0,0,1-1.768,2.08,19.525,19.525,0,0,0-1.639-3.2,27.618,27.618,0,0,0,5.9-9.75l2.938.936a41.548,41.548,0,0,1-2.5,5.356v6.578a16.793,16.793,0,0,0,4.654-6.344h-1.794v-5.694h2.834v3.094h2.938V1778.3h3.068v3.848h3.172v-3.094h2.965v5.694h-6.761l2.964.676-.961,1.872h4.992v2.392H6156v1.56h4.576v2.262H6156v1.612h4.576v2.236H6156v1.664h5.591Zm-10.712-16.042a18.588,18.588,0,0,1-.91,1.924h3.328a19.7,19.7,0,0,0,.754-2.548h-5.278Zm2.184,4.316h-3.277v1.56h3.277Zm0,3.822h-3.277v1.612h3.277Zm-3.277,5.512h3.277v-1.664h-3.277Z" transform="translate(-6043.418 -1706.946)" fill="#389e40"/>
  <path id="パス_447" data-name="パス 447" d="M6173.549,1779.623a26.3,26.3,0,0,0-.339,3.432c-.13,2.756-.312,8.528-.312,11.726,0,2.6,1.56,3.432,3.537,3.432,4.263,0,6.967-2.444,8.813-5.252l2.341,2.886a13.4,13.4,0,0,1-11.181,5.876c-4.212,0-6.942-1.846-6.942-6.24,0-3.458.261-10.218.261-12.428a16.235,16.235,0,0,0-.338-3.484Z" transform="translate(-6043.418 -1706.946)" fill="#389e40"/>
  <path id="パス_448" data-name="パス 448" d="M6212,1800.293a19.5,19.5,0,0,0-5.2-3.562c.025.338.025.65.025.91,0,2.21-1.664,3.9-5.07,3.9-4.108,0-6.292-1.56-6.292-4.29,0-2.6,2.391-4.42,6.37-4.42a15.8,15.8,0,0,1,1.586.078c-.052-.78-.078-1.586-.1-2.34h-1.326c-1.508,0-4.472-.13-6.188-.338l.026-3.042a46.716,46.716,0,0,0,6.214.468h1.222v-2.678h-1.222a42.869,42.869,0,0,1-5.59-.39l-.026-2.938a34.079,34.079,0,0,0,5.59.494h1.274v-1.17a10.3,10.3,0,0,0-.13-1.768h3.51a17.278,17.278,0,0,0-.182,1.82l-.025,1.014a53.982,53.982,0,0,0,6.136-.624l.078,2.964c-1.691.156-3.771.364-6.241.494l-.026,2.678c2.6-.1,4.758-.338,6.864-.6V1790c-2.313.26-4.315.442-6.811.52.051.962.1,2,.181,2.99a19.931,19.931,0,0,1,7.2,3.9Zm-8.476-4.628a13.793,13.793,0,0,0-2.106-.182c-1.82,0-2.809.7-2.809,1.586,0,.962.91,1.586,2.679,1.586,1.378,0,2.263-.416,2.263-1.9C6203.553,1796.471,6203.553,1796.107,6203.526,1795.665Z" transform="translate(-6043.418 -1706.946)" fill="#389e40"/>
  <path id="パス_449" data-name="パス 449" d="M6242.631,1785.317c-1.561-.078-3.979-.13-7.463-.13.026,1.3.026,2.7.026,3.822a6.346,6.346,0,0,1,.962,3.562c0,3.354-1.976,7.618-8.267,9.386l-2.731-2.756c2.6-.546,4.862-1.4,6.292-2.938a5.565,5.565,0,0,1-1.17.13,4.536,4.536,0,0,1-4.446-4.732,4.849,4.849,0,0,1,5.148-4.81,6.177,6.177,0,0,1,1.014.078l-.025-1.716c-3.9.052-7.879.208-11.051.39l-.078-3.12c2.937,0,7.618-.13,11.076-.182a6.89,6.89,0,0,0-.025-.78,17.633,17.633,0,0,0-.235-2.237h3.744c-.078.416-.156,1.795-.181,2.211,0,.208-.027.468-.027.78,2.6,0,6.111-.026,7.462,0Zm-11.727,8.216c1.067,0,2.028-.806,1.69-3.042a1.836,1.836,0,0,0-1.69-.91,1.976,1.976,0,1,0,0,3.952Z" transform="translate(-6043.418 -1706.946)" fill="#389e40"/>
  <path id="パス_450" data-name="パス 450" d="M6254.98,1797.927a4.2,4.2,0,1,1-4.212-4.212A4.212,4.212,0,0,1,6254.98,1797.927Zm-1.873,0a2.326,2.326,0,1,0-2.339,2.314A2.329,2.329,0,0,0,6253.107,1797.927Z" transform="translate(-6043.418 -1706.946)" fill="#389e40"/>
</svg>
