<svg xmlns="http://www.w3.org/2000/svg" viewBox="0 0 861.51 195.86"><defs><style>.cls-1{fill:#ffe238;}.cls-2{fill:#167640;}.cls-3{fill:none;stroke:#fff;stroke-miterlimit:10;}</style></defs><g id="レイヤー_2" data-name="レイヤー 2"><g id="text"><rect class="cls-1" x="153.01" y="4.5" width="704" height="142" rx="10"/><path class="cls-2" d="M187.43,55.19a9.47,9.47,0,0,0,2.18-1.91l1.69,1a11.5,11.5,0,0,1-3.12,2.48c-.25-.27-.64-.64-1-1h-4v.72h-1.49V51.59l0,0a5.92,5.92,0,0,0-.56-.55,16.18,16.18,0,0,1-1.2,5.47,6.79,6.79,0,0,0-1.51-1.1c1-2.18,1-5.26,1-7.47V43.32h7.67v4h-1.82l1.14.31-.54,1.06h1.36V50h-1.62v.7h1.55v1.17h-1.55v.68h1.55v1.17h-1.55v.71h1.86Zm-.38-12.78H179V40.64h8.1ZM181.16,48c0,.52,0,1.12,0,1.73a9.53,9.53,0,0,0,1.09-2.4h-1.06Zm0-3.19v1.06h4V44.78Zm2.6,2.68c-.13.4-.27.81-.44,1.21h1c.17-.45.33-1,.44-1.37h-1.66Zm.46,2.53h-1.08v.7h1.08Zm0,1.87h-1.08v.68h1.08Zm-1.08,2.56h1.08v-.71h-1.08Zm7.08-10.84c.05-.38.09-.76.13-1.14H187.7v-1.8h7.43v1.8h-2.66l-.32,1.14h2.7v9.54h-6.79V43.58ZM193,45.2H189.8v1.09H193Zm0,2.59H189.8v1.12H193Zm0,2.63H189.8v1.1H193Zm.25,2.93a18.6,18.6,0,0,1,2.3,2.33L194,56.76a19.15,19.15,0,0,0-2.21-2.45Z"/><path class="cls-2" d="M199.56,47.3v9.44h-2.13V40.61h6.88V47.3Zm0-5.06v1h2.75v-1Zm2.75,3.44v-1h-2.75v1Zm1.1,8.52v1h-2V48.55h7V54.2Zm0-3.89v2.12h3V50.31Zm9.2,3.87c0,1.19-.25,1.8-1,2.14a8.77,8.77,0,0,1-3.52.42,8.22,8.22,0,0,0-.72-2.2c1,.07,2.26.06,2.61,0s.46-.11.46-.43V47.32h-4.88V40.61h7.06Zm-5-12v1h2.84v-1Zm2.84,3.47v-1h-2.84v1Z"/><path class="cls-2" d="M220.48,51.52a16.7,16.7,0,0,0-1.08-1.82v7h-2.08V50.26a15.93,15.93,0,0,1-2,3.56,10.89,10.89,0,0,0-1-2A17.63,17.63,0,0,0,217,47h-2.29V45h2.57V42.87c-.75.15-1.49.27-2.19.36a7.25,7.25,0,0,0-.6-1.63,26.35,26.35,0,0,0,5.59-1.5l1.42,1.64a18,18,0,0,1-2.14.68V45h1.92v2H219.4v.52c.48.4,2,2,2.3,2.36Zm8.91,3.06c.27,0,.34-.27.38-2.15a5.23,5.23,0,0,0,1.81.81c-.18,2.58-.66,3.26-2,3.26h-1.19c-1.6,0-1.94-.63-1.94-2.5V49.68h-1c-.25,3.1-1,5.62-4.25,7.08a6.34,6.34,0,0,0-1.24-1.7c2.68-1.1,3.18-3,3.38-5.38H222V43.5h1.39a16.62,16.62,0,0,0-1.41-2.79l1.77-.77A13.75,13.75,0,0,1,225.34,43l-1.16.5h4.24L227,43a19.38,19.38,0,0,0,1.48-3.08l2.19.7c-.59,1.05-1.24,2.13-1.76,2.88h1.66v6.18h-2V54c0,.54,0,.6.27.6Zm-1-9.22H224v2.45h4.44Z"/><path class="cls-2" d="M238.78,53.14c-2,.7-4.14,1.38-5.87,1.94l-.48-2.18,2.19-.59V48.08H232.8v-2h1.82V43h-2V41h5.94v2h-1.92v3.16h1.62v2h-1.62v3.6c.59-.18,1.19-.36,1.76-.56Zm10.7,1.09v2H237.9v-2h5V52.52h-3.73V50.6h3.73V49.05h-3.6V40.68h9.4v8.37h-3.62V50.6h3.81v1.92h-3.81v1.71ZM241.19,44h1.86V42.5h-1.86Zm0,3.24h1.86V45.68h-1.86Zm5.44-4.73h-1.78V44h1.78Zm0,3.18h-1.78v1.55h1.78Z"/><path class="cls-2" d="M260.09,47.43v6.35h6.13v2.15H251.83V53.78h6V47.43h-6.93V45.3h6.93V40h2.3V45.3h7.08v2.13Z"/><path class="cls-2" d="M272.57,41.85c.16.32.52,1.06.72,1.38.27.53.56,1.1.83,1.7a16.61,16.61,0,0,1,6.14-1.8c2.77,0,4.42,1.67,4.42,3.74,0,2.5-1.71,4.07-4.44,4.07a8.7,8.7,0,0,1-2.74-.5l.05-2.24a6.52,6.52,0,0,0,2.45.6c1.37,0,2.33-.72,2.33-2,0-.92-.78-1.66-2.13-1.66A14.57,14.57,0,0,0,275,46.76l.51,1.1c.82,2,2.19,5.76,2.8,7.76l-2.46.63a54.11,54.11,0,0,0-2.4-7.4l-.46-1.1c-1.28.63-2.42,1.25-3.17,1.59l-1-2.29a9.83,9.83,0,0,0,1.77-.58c.52-.19,1.06-.43,1.6-.66-.27-.54-.52-1.05-.79-1.51a16.51,16.51,0,0,0-1.05-1.57Zm4.62,1.65a25.66,25.66,0,0,0-2.32-2.12l1.64-1.15a26,26,0,0,1,2.38,2.05Z"/><path class="cls-2" d="M303,42.5a23.93,23.93,0,0,1-2.59,9.43,9.8,9.8,0,0,0,3.26,2.92,7.64,7.64,0,0,0-1.48,1.76,11.32,11.32,0,0,1-3.09-2.75,12.6,12.6,0,0,1-3.21,2.75,8.49,8.49,0,0,0-1.19-1.56v1.69H292.6V53.86c-2.07.36-4.18.68-5.83.93l-.42-2.14,1.66-.18V42.91h-1.22v-2h9v1.28h5.39l.36-.06ZM290,42.91v1.71h2.56V42.91Zm0,5.44h2.56v-1.8H290Zm0,3.87c.83-.11,1.7-.24,2.56-.34V50.26H290Zm4.63,2.54a9.84,9.84,0,0,0,3.12-2.87,25.09,25.09,0,0,1-2.43-7.13l2.05-.41a21.45,21.45,0,0,0,1.66,5.33,20.29,20.29,0,0,0,1.54-5.37H295.3v-1.4h-.63Z"/><path class="cls-2" d="M313.34,48.55s0,.59-.07.88c-.29,4-.62,5.72-1.25,6.43a2.41,2.41,0,0,1-1.78.77,24.68,24.68,0,0,1-2.83,0,5.2,5.2,0,0,0-.79-2.25c1.08.1,2.24.12,2.72.12a1.12,1.12,0,0,0,.81-.22c.38-.3.61-1.44.81-3.79h-3.65c-.06.28-.11.55-.17.81L305,51a54.51,54.51,0,0,0,1.1-6.33h5V42.6h-5.42v-2h7.54v6H308c-.09.63-.2,1.28-.3,1.9Zm6.05-8.36V56.74h-2.14V40.19Z"/><path class="cls-2" d="M336.47,54.45c.54,0,.65-.34.72-2.47a6.1,6.1,0,0,0,1.94.87c-.21,2.84-.79,3.62-2.46,3.62H334.6c-2,0-2.49-.67-2.49-2.7V49.39h-2.63c-.39,3.21-1.31,5.89-5.45,7.46A6.82,6.82,0,0,0,322.7,55c3.58-1.18,4.26-3.19,4.53-5.57H323V47.32h6.9V44.4h-3.1a12.8,12.8,0,0,1-1.38,2.45,14.36,14.36,0,0,0-1.89-.93,15.06,15.06,0,0,0,2.39-5.75l2.2.44q-.24.82-.54,1.74h2.32V39.92h2.18v2.43h5.51v2h-5.51v2.92H339v2.07h-4.7v4.38c0,.59.09.68.65.68Z"/><path class="cls-2" d="M348.44,53.8a16.05,16.05,0,0,0,1.65-.29,4.82,4.82,0,0,0,4.06-4.77A4.41,4.41,0,0,0,350.42,44a39.37,39.37,0,0,1-1.06,4.84c-1.07,3.6-2.61,5.8-4.56,5.8s-3.64-2.18-3.64-5.19a8,8,0,0,1,8.21-7.63,6.81,6.81,0,0,1,7.21,7c0,3.74-2.31,6.41-6.81,7.09Zm-1.39-5.4a28.16,28.16,0,0,0,1-4.32,5.58,5.58,0,0,0-4.52,5.17c0,1.8.72,2.68,1.38,2.68S346.33,50.81,347.05,48.4Z"/><path class="cls-2" d="M375.3,50.63a27.32,27.32,0,0,1-2.47,1.75A6.33,6.33,0,0,0,375.64,55a7.62,7.62,0,0,0-1.37,1.78A7.71,7.71,0,0,1,371,53.33l.24,1.91c-1.88.47-3.88.94-5.46,1.3l-.36-1.3c-2.2.42-4.48.81-6.23,1.1l-.41-1.91c.77-.11,1.72-.23,2.77-.39V49.28H359V47.46h2.52V46.15h-1.73v-.68l-.29.25a6.12,6.12,0,0,0-1.31-1.42,12.08,12.08,0,0,0,3.33-4.36h1.75a19.18,19.18,0,0,1,3.18,3.2l-1.1,1.3v1.71h-2v1.31h2.38v1.82h-2.38v4.47c.83-.14,1.68-.27,2.51-.42l.05,1,.59-.11V40.59h8v8.14h-3.11a13.37,13.37,0,0,0,.59,2,15.21,15.21,0,0,0,1.79-1.58ZM360.6,50a18,18,0,0,1,.69,3.08l-1.48.41a16.1,16.1,0,0,0-.61-3.13Zm4.24-5.6a18.1,18.1,0,0,0-2.11-2.45,17.15,17.15,0,0,1-1.82,2.45Zm-1.25,8.46a20.31,20.31,0,0,0,.67-3l1.62.39c-.36,1.06-.72,2.23-1,3Zm5-10.35v1.24h4V42.48Zm4,4.35V45.52h-4v1.31Zm-4,7,2.43-.54a17.86,17.86,0,0,1-1.42-4.53h-1Z"/><path class="cls-2" d="M383.29,44.6a23.8,23.8,0,0,1-1.93,2.76v9.4h-2.14v-7c-.51.48-1,.93-1.48,1.33a22.71,22.71,0,0,0-1.46-1.86,17.5,17.5,0,0,0,5-5.38Zm-.67-3.83a24.35,24.35,0,0,1-4.95,4.73,11.9,11.9,0,0,0-1.19-1.74,16.32,16.32,0,0,0,4.07-3.84Zm10.59,7.16h-2.47v6.32c0,1.16-.22,1.75-1,2.07a9.78,9.78,0,0,1-3.51.36,8.7,8.7,0,0,0-.65-2.17c1,.05,2.22.05,2.54,0s.45-.07.45-.34V47.93h-5.31v-2h10Zm-.45-5H384V41h8.75Z"/><path class="cls-2" d="M402.15,41.13c-.11.47-.22,1-.31,1.47s-.25,1.19-.37,1.84c.59,0,1.13-.07,1.49-.07,1.89,0,3.22.84,3.22,3.4a17.35,17.35,0,0,1-1,6.5,2.84,2.84,0,0,1-2.93,1.64,10.26,10.26,0,0,1-2.12-.25l-.4-2.36a10.26,10.26,0,0,0,2.2.38,1.31,1.31,0,0,0,1.33-.78A13.73,13.73,0,0,0,404,48c0-1.42-.61-1.62-1.73-1.62-.29,0-.72,0-1.22.07A38.81,38.81,0,0,1,397.38,56l-2.32-.94a26.6,26.6,0,0,0,3.58-8.33l-1.53.19-2,.27-.2-2.41a14.9,14.9,0,0,0,1.89,0c.56,0,1.4-.07,2.31-.14a19.74,19.74,0,0,0,.37-3.78Zm6.39,2.12a35.13,35.13,0,0,1,2.9,6.21l-2.27,1.07a20.37,20.37,0,0,0-3-6.72l1.65-.7A20.49,20.49,0,0,0,406.6,41l1.42-.59c.45.67,1.08,1.8,1.44,2.47Zm1.64-.59a17.64,17.64,0,0,0-1.46-2.49l1.42-.59A19.7,19.7,0,0,1,411.6,42Z"/><path class="cls-2" d="M415,50.76a16.85,16.85,0,0,1-1.08,4.65,9.93,9.93,0,0,0-1.64-.78,13.26,13.26,0,0,0,1-4.18Zm3.19-5a15.46,15.46,0,0,1,1.58,3.81l-1.51.69a9.48,9.48,0,0,0-.23-.92l-.92.07v7.37h-1.86V49.52l-2.61.16-.18-1.85,1.3-.06c.27-.34.56-.74.84-1.15a17,17,0,0,0-2.12-2.45l1-1.46.41.36a22.72,22.72,0,0,0,1.31-3.13l1.86.68c-.65,1.23-1.37,2.61-2,3.62.24.25.43.51.61.72a32.84,32.84,0,0,0,1.61-2.91l1.74.81c-1,1.56-2.23,3.38-3.36,4.84l1.73-.07c-.2-.45-.42-.9-.64-1.3Zm.47,4.57a20.11,20.11,0,0,1,1.11,3.24l-1.58.58a20.5,20.5,0,0,0-1.05-3.35Zm7.81,4.46c.88,0,1-.39,1.17-2.39a7.15,7.15,0,0,0,1.82.76c-.25,2.68-.81,3.49-2.83,3.49h-3.51c-2.27,0-3-.59-3-2.86V47l0,0a11.37,11.37,0,0,0-1.72-1.37,15.56,15.56,0,0,0,3.47-5.8l2.05.52c-.12.36-.27.71-.41,1.07h2.12l.38-.13,1.32.87c-.35.82-.8,1.74-1.26,2.59h2.79v6.73h-2V51h-4.74v2.79c0,.86.18,1,1.19,1Zm-3.84-11.45a15.45,15.45,0,0,1-.86,1.5H424a15,15,0,0,0,.72-1.5Zm-.5,5.8h1.44V46.69h-1.44Zm4.74-2.43h-1.5v2.43h1.5Z"/><path class="cls-2" d="M438,45.3a24.16,24.16,0,0,1-1.47,5.24,18.09,18.09,0,0,1,1.85,2.92l-1.71,1.46a17.11,17.11,0,0,0-1.22-2.22,12.05,12.05,0,0,1-3.69,3.89,9.93,9.93,0,0,0-1.44-1.67,10,10,0,0,0,3.83-4.09c-.95-1.28-2-2.56-3-3.65L432.69,46c.78.83,1.61,1.75,2.38,2.7a20.87,20.87,0,0,0,.87-3.64Zm9.29.67h-1.92v8.1c0,1.21-.22,1.84-.9,2.18a7.17,7.17,0,0,1-3.24.47,8.88,8.88,0,0,0-.69-2.3c1,0,2,0,2.29,0s.43-.09.43-.38V46h-4.52v-1.3h-7.92v-2H434V39.94H436v2.75h3.33v1.23h3.92v-4h2.11v4h1.92Zm-7,1.42a14.15,14.15,0,0,1,2,3.8l-1.85,1a15,15,0,0,0-1.86-3.93Z"/><path class="cls-2" d="M453.29,41.43a13,13,0,0,0-.43,1.59,43,43,0,0,0-.87,6.53,9.36,9.36,0,0,0,.07,1.16c.25-.63.54-1.23.8-1.8l1.11.86a43.4,43.4,0,0,0-1.28,4.38,5.65,5.65,0,0,0-.11.82c0,.2,0,.49,0,.74l-2.05.15a22.9,22.9,0,0,1-.7-5.84A51,51,0,0,1,450.6,43a11.91,11.91,0,0,0,.18-1.74Zm4.17,8.81a6,6,0,0,0-.21,1.49c0,.79.68,1.26,2.48,1.26a20.2,20.2,0,0,0,4.47-.47l.05,2.42a25.29,25.29,0,0,1-4.61.36c-3.08,0-4.53-1.12-4.53-2.94a10.94,10.94,0,0,1,.3-2.32Zm6.23-7.64v2.31a48.84,48.84,0,0,1-7.65,0l0-2.31A35.73,35.73,0,0,0,463.69,42.6Z"/><path class="cls-2" d="M482.31,45.18a20.7,20.7,0,0,1-1.95,6.7,8.28,8.28,0,0,0,3.19,3,8.53,8.53,0,0,0-1.48,1.88,9.57,9.57,0,0,1-3-2.9,11.6,11.6,0,0,1-3.8,3A9.37,9.37,0,0,0,474,54.87a9.24,9.24,0,0,0,3.87-3.08,20.4,20.4,0,0,1-1.23-3.66,12.14,12.14,0,0,1-.83,1.24,11.17,11.17,0,0,0-1.18-1.1,19,19,0,0,1-2.52,2.47v.36c1.08-.07,2.17-.18,3.25-.27v1.84c-1.08.11-2.17.2-3.25.29v1.76c0,.92-.17,1.41-.81,1.71a6.62,6.62,0,0,1-2.6.31,7.22,7.22,0,0,0-.61-1.82c.68,0,1.48,0,1.69,0s.31-.05.31-.25V53.14l-3.39.3-.21-1.91,3.6-.27v-1.4h.7c.31-.27.63-.58.94-.9h-1.28a17.63,17.63,0,0,1-2.79,1.94,13.36,13.36,0,0,0-1.44-1.63,19.44,19.44,0,0,0,1.89-1.1V47.3h1.15c.34-.28.67-.59,1-.9h-3.62V44.57h2.63V43.36h-2v-1.8h2V39.92h2v1.64H473v1.22a16.89,16.89,0,0,0,1.13-2.43l2,.56a21.7,21.7,0,0,1-1.87,3.66h1.13v1.22a21.92,21.92,0,0,0,1.66-5.87l2.18.32c-.18,1-.4,2-.65,3h4.79v2Zm-11-.61h.59c.29-.4.56-.8.81-1.21h-1.4Zm2.32,2.62.63.51a8.65,8.65,0,0,0,.87-1.3h-2.15c-.25.31-.5.62-.77.9h1Zm4.45-2a22.15,22.15,0,0,0,1.1,4.19,19.3,19.3,0,0,0,.95-4.19Z"/><path class="cls-2" d="M496.35,47.19c-.82.71-2.49,2.24-2.9,2.69a1.82,1.82,0,0,1,.66.14,1.73,1.73,0,0,1,1.1,1.21c.16.48.32,1.17.49,1.62a1.13,1.13,0,0,0,1.26.83,18.39,18.39,0,0,0,3.49-.31l-.14,2.34a25.26,25.26,0,0,1-3.5.25c-1.69,0-2.61-.36-3-1.53-.2-.52-.4-1.35-.52-1.8-.22-.63-.6-.86-1-.86a1.87,1.87,0,0,0-1.15.72A45.07,45.07,0,0,0,488,56.13l-2.12-1.48a13.9,13.9,0,0,0,1.24-1.1c.92-.94,4.56-4.55,6.2-6.28-1.26,0-3.39.23-4.41.32a14.83,14.83,0,0,0-1.54.22l-.21-2.47c.41,0,1.06,0,1.71,0,.85,0,4.9-.18,6.37-.37a6.21,6.21,0,0,0,1-.22l1.32,1.49C497.05,46.62,496.67,46.94,496.35,47.19Zm.54-5.7-.29,2.1c-1.88-.16-5.21-.54-7.33-.9l.34-2.07A71.28,71.28,0,0,0,496.89,41.49Z"/><path class="cls-2" d="M505.07,42.73l7.69-.68c1.84-.15,3.8-.26,5-.31l0,2.3a18.16,18.16,0,0,0-3.44.24,5.43,5.43,0,0,0-3.76,5c0,2.93,2.75,4,5.76,4.14l-.83,2.46c-3.74-.25-7.27-2.26-7.27-6.12a7.13,7.13,0,0,1,2.63-5.49c-1.53.16-5.3.56-7.37,1l-.21-2.45C504,42.8,504.71,42.77,505.07,42.73Z"/><path class="cls-2" d="M533.14,42.24c-.56.42-1.15.89-1.57,1.21-1.15.94-3.51,2.75-4.7,3.78-1,.81-.93,1,0,1.84,1.33,1.13,4.77,3.85,6.53,5.56l-2.07,1.91c-.5-.56-1.06-1.12-1.56-1.66-1-1-3.69-3.35-5.33-4.73s-1.62-2.49.16-4c1.39-1.14,3.83-3.12,5-4.31a12.69,12.69,0,0,0,1.37-1.49Z"/><path class="cls-2" d="M555.42,54.15a4.74,4.74,0,0,1-3.35,1.35c-1.33,0-2.23-1-2.23-2.71,0-1.94.63-4.55.63-6.17,0-.88-.45-1.32-1.19-1.32-1.33,0-3.27,1.64-4.71,3.25,0,.5,0,1,0,1.44,0,1.45,0,2.95.11,4.62,0,.33.09,1,.12,1.37h-2.45c0-.38.06-1,.06-1.31,0-1.39,0-2.42.07-3.93-.77,1.14-1.64,2.45-2.25,3.3l-1.4-2c1-1.23,2.8-3.6,3.81-5.1l.08-1.24-3.25.41-.21-2.28c.5,0,.92,0,1.55,0s1.29-.13,2.05-.24c0-.66.07-1.17.07-1.36a9.54,9.54,0,0,0-.07-1.59l2.61.07c-.11.51-.25,1.43-.4,2.54l.67.85c-.23.3-.61.88-.92,1.35,0,.12,0,.25,0,.38,1.4-1.23,3.45-2.65,5.18-2.65a2.5,2.5,0,0,1,2.81,2.63c0,1.85-.59,4.46-.59,6.32,0,.47.23.77.68.77a3.62,3.62,0,0,0,2.29-1.26Z"/><path class="cls-2" d="M566.29,44.67a27,27,0,0,1-3.09.62,33,33,0,0,1-3.82,7.63l-2.18-1.1a27.3,27.3,0,0,0,3.64-6.3c-.31,0-.62,0-.92,0-.74,0-1.46,0-2.23-.06l-.17-2.08a22.69,22.69,0,0,0,2.38.12c.52,0,1.06,0,1.6-.05a14.9,14.9,0,0,0,.49-3l2.47.25c-.15.58-.36,1.48-.62,2.43a17.36,17.36,0,0,0,2.4-.56Zm2.34,1.61c0,.75,0,1.49,0,2.28,0,.51.06,1.37.11,2.25a12,12,0,0,1,3.69,2.29L571.24,55a15.45,15.45,0,0,0-2.41-1.89v.16c0,1.66-.9,2.95-3.44,2.95-2.21,0-4-1-4-2.95,0-1.75,1.46-3.1,3.94-3.1a11.52,11.52,0,0,1,1.21.08c-.05-1.34-.14-2.9-.2-4Zm-2,5.9a6.24,6.24,0,0,0-1.44-.18c-1,0-1.69.43-1.69,1.06s.56,1.12,1.53,1.12c1.2,0,1.6-.7,1.6-1.66Zm5-5a23.56,23.56,0,0,0-4.28-2.54l1.15-1.76A31.93,31.93,0,0,1,573,45.34Z"/><path class="cls-2" d="M578.46,44.51a37.7,37.7,0,0,0,.11,3.78c.25,2.58.79,4.32,1.91,4.32.84,0,1.54-2.08,1.89-3.49l1.8,2.16c-1.19,3.1-2.31,4.2-3.75,4.2-1.94,0-3.65-1.77-4.16-6.56-.16-1.64-.2-3.71-.2-4.8a10.08,10.08,0,0,0-.12-1.8l2.74,0A13.75,13.75,0,0,0,578.46,44.51Zm12.39,7.33-2.36.9c-.27-2.86-1.23-7.06-3.17-9.25l2.27-.76C589.28,44.8,590.65,49.1,590.85,51.84Z"/><path class="cls-2" d="M189.5,67.83h6v2h-3.84v9.56H189.5Z"/><path class="cls-2" d="M200.1,80.74a12,12,0,0,1-2.14,4,11.17,11.17,0,0,0-1.59-1,8.57,8.57,0,0,0,1.86-3.4Zm2.74-.54h-5.48V68.59h5.48ZM201,70.28h-1.78v1.66H201Zm0,3.26h-1.78v1.67H201Zm0,3.26h-1.78v1.69H201Zm1,3.49a16.93,16.93,0,0,1,1.55,2.9l-1.66.81a15.07,15.07,0,0,0-1.48-3Zm10.93-9.56v6.36h-9.29V70.73h1.54a15.66,15.66,0,0,0-1-2.11l1.78-.66a10.59,10.59,0,0,1,1.26,2.45l-.79.32h3.56l-.75-.25a20.15,20.15,0,0,0,1.2-2.58l2.13.62c-.45.81-.94,1.6-1.33,2.21Zm-8.57,7.15h7.92v6.86h-2v-.51h-3.94v.51h-1.94Zm1.11-5.66v1h1.75v-1Zm0,3.37h1.75v-1h-1.75Zm.83,3.87v.85h3.94v-.85Zm3.94,3.23v-.87h-3.94v.87Zm.76-10.47H209v1h1.89Zm0,2.36H209v1h1.89Z"/><path class="cls-2" d="M231.1,80.15h-3.51c-.31,2-.69,3.13-1.19,3.67a2.61,2.61,0,0,1-1.89.86,22,22,0,0,1-3.06,0,4.78,4.78,0,0,0-.76-2.14c1.24.11,2.45.13,3,.13a1.22,1.22,0,0,0,.88-.25,4.2,4.2,0,0,0,.83-2.27H214.88V78.09h10.78c.07-.57.13-1.2.18-1.9h-6.23l-.18.75-2.27-.18c.61-2.29,1.35-6,1.77-8.86l2.23.2c-.11.67-.23,1.37-.36,2.09h8.34v2h-8.72c-.12.67-.25,1.33-.39,2h8.15s0,.65-.07.92q-.13,1.68-.27,3h3.26Z"/><path class="cls-2" d="M238.48,79.52a16.7,16.7,0,0,0-1.08-1.82v7h-2.08V78.26a15.93,15.93,0,0,1-2,3.56,10.89,10.89,0,0,0-1-2A17.63,17.63,0,0,0,235,75h-2.29V73h2.57V70.87c-.75.15-1.49.27-2.19.36a7.25,7.25,0,0,0-.6-1.63,26.35,26.35,0,0,0,5.59-1.5l1.42,1.64a18,18,0,0,1-2.14.68V73h1.92v2H237.4v.52c.48.4,2,2,2.3,2.36Zm8.91,3.06c.27,0,.34-.27.38-2.15a5.23,5.23,0,0,0,1.81.81c-.18,2.58-.66,3.26-2,3.26h-1.19c-1.6,0-1.94-.63-1.94-2.5V77.68h-1c-.25,3.1-1,5.62-4.25,7.08a6.34,6.34,0,0,0-1.24-1.7c2.68-1.1,3.18-3,3.38-5.38H240V71.5h1.39a16.62,16.62,0,0,0-1.41-2.79l1.77-.77A13.75,13.75,0,0,1,243.34,71l-1.16.5h4.24L245,71a19.38,19.38,0,0,0,1.48-3.08l2.19.7c-.59,1-1.24,2.13-1.76,2.88h1.66v6.18h-2V82c0,.54,0,.6.27.6Zm-1-9.22H242v2.45h4.44Z"/><path class="cls-2" d="M259,74a2.31,2.31,0,1,1-2.3,2.31A2.32,2.32,0,0,1,259,74Z"/><path class="cls-2" d="M273.45,74.73c.63.68,2.16,2.54,2.52,3l-1.22,1.74c-.27-.57-.8-1.42-1.3-2.23v7.49H271.4V77.61a15.44,15.44,0,0,1-2,4,10.31,10.31,0,0,0-1-2,17.39,17.39,0,0,0,2.79-6h-2.32v-2h2.58V67.92h2.05v3.69h2.25v2h-2.25Zm11.32-5.84V84.47h-2.16v-.92h-4.23v1h-2.05V68.89Zm-6.39,2v2.23h4.23V70.91Zm0,4.16v2.29h4.23V75.07Zm4.23,6.54V79.3h-4.23v2.31Z"/><path class="cls-2" d="M288.87,78.74a16.36,16.36,0,0,1-1.06,4.65,9,9,0,0,0-1.56-.76,13,13,0,0,0,.91-4.18ZM291,77.28v7.46h-1.83V77.43l-2.51.2-.21-1.86,1.29-.07c.27-.32.54-.68.81-1.06a15.94,15.94,0,0,0-2.05-2.52l1.05-1.44c.12.12.27.25.41.37a22.72,22.72,0,0,0,1.3-3.11l1.85.65c-.63,1.24-1.37,2.66-2,3.67.21.23.41.49.57.7a28.62,28.62,0,0,0,1.62-2.91l1.75.81c-1,1.51-2.22,3.29-3.35,4.73l1.57-.09c-.18-.39-.38-.79-.58-1.15l1.51-.63a18.83,18.83,0,0,1,1.25,2.65v-1.7h9.88v3.57h-1.87V76.33h-6.23v1.91h-1.78V77.7l-1.25.57c-.05-.3-.16-.66-.27-1.06Zm1.66,1.1a13.42,13.42,0,0,1,.92,3.17l-1.59.52a14.67,14.67,0,0,0-.82-3.24Zm2.92-1.15h1.92v1.44a6.27,6.27,0,0,1-3.83,6.09,9.91,9.91,0,0,0-1.46-1.43c2.95-1.4,3.37-3.38,3.37-4.7Zm1.62-6.16h-3.73V69.33h3.73V67.92h2.12v1.41h3.8v1.74h-3.8v1.05h3.28v1.72h-8.48V72.12h3.08Zm4.41,11.69c.25,0,.34-.29.38-2.24a4.74,4.74,0,0,0,1.71.8c-.18,2.57-.67,3.24-1.89,3.24h-1.16c-1.53,0-1.85-.58-1.85-2.36v-5h1.93v5c0,.49,0,.56.27.56Z"/><path class="cls-2" d="M310.48,79.52a16.7,16.7,0,0,0-1.08-1.82v7h-2.08V78.26a15.93,15.93,0,0,1-2,3.56,10.89,10.89,0,0,0-1-2A17.63,17.63,0,0,0,307,75h-2.29V73h2.57V70.87c-.75.15-1.49.27-2.19.36a7.25,7.25,0,0,0-.6-1.63,26.35,26.35,0,0,0,5.59-1.5l1.42,1.64a18,18,0,0,1-2.14.68V73h1.92v2H309.4v.52c.48.4,2,2,2.3,2.36Zm8.91,3.06c.27,0,.34-.27.38-2.15a5.23,5.23,0,0,0,1.81.81c-.18,2.58-.66,3.26-2,3.26h-1.19c-1.6,0-1.94-.63-1.94-2.5V77.68h-1c-.25,3.1-1,5.62-4.25,7.08a6.34,6.34,0,0,0-1.24-1.7c2.68-1.1,3.18-3,3.38-5.38H312V71.5h1.39a16.62,16.62,0,0,0-1.41-2.79l1.77-.77A13.75,13.75,0,0,1,315.34,71l-1.16.5h4.24L317,71a19.38,19.38,0,0,0,1.48-3.08l2.19.7c-.59,1-1.24,2.13-1.76,2.88h1.66v6.18h-2V82c0,.54,0,.6.27.6Zm-1-9.22H314v2.45h4.44Z"/><path class="cls-2" d="M327.25,76.46c0-4.61,1.8-6.86,4.52-6.86s4.5,2.26,4.5,6.86-1.8,7-4.5,7S327.25,81.05,327.25,76.46Zm6.52,0c0-3.73-.87-4.81-2-4.81s-2,1.08-2,4.81.87,4.89,2,4.89S333.77,80.2,333.77,76.46Z"/><path class="cls-2" d="M358.23,82.22c0,1.17-.25,1.76-1,2.1a8.3,8.3,0,0,1-3.4.4,9.16,9.16,0,0,0-.77-2.14c1,.07,2.19,0,2.55,0s.47-.12.47-.43V77.84H345.2v6.88H343V69.06h15.19Zm-13-6.5h4.25V71.18H345.2Zm10.87,0V71.18h-4.5v4.54Z"/><path class="cls-2" d="M368,81.8a16.82,16.82,0,0,0,1.66-.29,4.83,4.83,0,0,0,4.05-4.77A4.41,4.41,0,0,0,370,72,39.37,39.37,0,0,1,369,76.87c-1.06,3.6-2.61,5.8-4.56,5.8s-3.63-2.18-3.63-5.19A8,8,0,0,1,369,69.85a6.8,6.8,0,0,1,7.2,7c0,3.74-2.31,6.41-6.81,7.09Zm-1.39-5.4a28.16,28.16,0,0,0,1-4.32,5.58,5.58,0,0,0-4.52,5.17c0,1.8.72,2.68,1.38,2.68S365.93,78.81,366.65,76.4Z"/><path class="cls-2" d="M394.88,79.73H393v3.14h-2.18v-.74h-3.24v.56c0,1.06-.25,1.49-1,1.8a9.46,9.46,0,0,1-3.18.3,6.74,6.74,0,0,0-.71-1.69c.87,0,1.93,0,2.22,0s.45-.13.45-.45v-.56h-5.47V80.58h5.47v-.85h-7.13V78.09h7.13v-.77h-5.33V75.88h5.33v-.79h-4.88V71.52h4.88v-.74h-6.72V69.09h6.72V67.92h2.18v1.17h6.88v1.69h-6.88v.74h5.11v3.57h-5.11v.79H393v2.21h1.87Zm-9.47-6v-.87h-2.83v.87Zm2.18-.87v.87h2.92v-.87Zm0,5.22h3.24v-.77h-3.24Zm3.24,1.64h-3.24v.85h3.24Z"/><path class="cls-2" d="M407.37,80.63a16.13,16.13,0,0,0,5.71,2,9.39,9.39,0,0,0-1.44,1.94,15.37,15.37,0,0,1-6.05-3v3.24h-2.11V81.61a17.15,17.15,0,0,1-6,2.91,10.17,10.17,0,0,0-1.37-1.78,19,19,0,0,0,5.69-2.11H396.6V78.87h6.88v-.79H398.3V76.53h5.18v-.81H397.4V74h3.42a8,8,0,0,0-.62-1.4l.22,0h-3.76V70.86h2.41A15.6,15.6,0,0,0,398,68.62l1.84-.63a13.91,13.91,0,0,1,1.37,2.54l-.88.33h1.64V67.92h2v2.94h1.34V67.92h2v2.94h1.61l-.65-.2a14.6,14.6,0,0,0,1.13-2.61l2.25.54c-.5.83-1,1.64-1.4,2.27h2.34V72.6h-3.39c-.28.52-.57,1-.84,1.44h3.53v1.68h-6.25v.81H411v1.55h-5.4v.79h7v1.76Zm-4.9-8a8.55,8.55,0,0,1,.62,1.39l-.31.05h3.37c.21-.43.43-1,.63-1.44Z"/><path class="cls-2" d="M419.66,73.12c-.65,4.6-2.16,8.3-4.17,10.25a8.06,8.06,0,0,0-1.55-1.64c1.62-1.46,2.79-4,3.38-7.08h-2.77V72.73H418l.36-.09Zm3.89,6.54h3.23v1.76h-3.23v1c0,1.13-.23,1.65-1,2a9.37,9.37,0,0,1-3.36.36,8.1,8.1,0,0,0-.78-2c1.06.05,2.22.05,2.54.05s.45-.1.45-.41v-1h-3.12V79.66h3.12V78.51H419.2V76.82h2.21V75.66h-1.78V74h1.78V72h1.12a14,14,0,0,0,1.76-1.15H417V68.86h9.51l.45-.09,1.44,1a16.79,16.79,0,0,1-4.81,3.58V74h1.91v1.67h-1.91v1.16h2.34v1.69h-2.34Zm7.38-5.74c-.82,1-1.78,2.12-2.62,3a9.89,9.89,0,0,0,2.86,4.7,8,8,0,0,0-1.59,1.83c-2.44-2.28-3.56-6.24-4.19-10.84l1.89-.3c.13.84.27,1.67.43,2.48a15.62,15.62,0,0,0,1.53-2.18Z"/><path class="cls-2" d="M434.42,78.72a15.78,15.78,0,0,1-1.08,4.63,9.78,9.78,0,0,0-1.49-.72,13.3,13.3,0,0,0,.92-4.18ZM449,83.93H440.9v.75h-2v-7l-1.35.6c-.06-.31-.13-.65-.24-1l-.92.07v7.44h-1.8V77.45l-2.37.18L432,75.77l1.42-.07c.24-.32.49-.68.72-1A15.84,15.84,0,0,0,432.06,72l1-1.38c.14.12.29.27.43.41a21.73,21.73,0,0,0,1.3-3.13l1.82.63c-.65,1.24-1.39,2.66-2,3.67.22.25.41.51.58.74.59-1,1.13-2,1.54-2.93l1.7.77c-.67,1.1-1.44,2.3-2.24,3.44l1.41-.58a19.09,19.09,0,0,1,1.3,3.28V68.61h2V79a11.23,11.23,0,0,0,2.52-3.6h-2.16V73.5H444V68.28h1.85V73.5h2.83v1.91H445.8v.27c.78.67,2.63,2.54,3.06,3l-1.26,1.65a26.84,26.84,0,0,0-1.8-2.48v3.87H444V78a11.29,11.29,0,0,1-2.2,3.11,10.26,10.26,0,0,0-.85-1.9V82H449ZM436.74,75.5a10.77,10.77,0,0,0-.54-1.24c-.32.47-.63.92-.95,1.33Zm1.16,2.88a13,13,0,0,1,.92,3.24l-1.5.49a12.93,12.93,0,0,0-.83-3.31Zm4.3-5.09a16.12,16.12,0,0,0-1-3.48l1.52-.52a14.39,14.39,0,0,1,1.13,3.42Zm6.54-3.59c-.51,1.26-1.07,2.7-1.52,3.62l-1.42-.5a22.77,22.77,0,0,0,1.1-3.69Z"/><path class="cls-2" d="M464.58,71a7.85,7.85,0,0,0-.63,1.12,26.86,26.86,0,0,1-2.83,5,50.36,50.36,0,0,1,5,5.15L464.09,84a41.38,41.38,0,0,0-4.54-5.09,23.81,23.81,0,0,1-6.77,5.06l-1.85-2a20.37,20.37,0,0,0,7.38-5.16A13.91,13.91,0,0,0,461,72.4h-6.1c-.76,0-1.75.11-2.13.13V70a18.32,18.32,0,0,0,2.13.13h6.34a6.74,6.74,0,0,0,1.87-.23Z"/><path class="cls-2" d="M484,77.91c-.47,0-1.2.17-1.89.27-.86.15-2.32.38-3.91.63.29,1.48.54,2.69.65,3.25s.31,1.18.47,1.76l-2.59.47c-.09-.69-.15-1.3-.25-1.82s-.33-1.77-.62-3.28l-4.3.74c-.77.14-1.39.27-1.8.38l-.5-2.41c.48,0,1.29-.13,1.87-.2l4.32-.69-.54-2.88c-1.59.25-3,.49-3.53.58s-1.12.23-1.66.38l-.48-2.49c.57,0,1.11,0,1.67-.12s2-.27,3.57-.53c-.15-.75-.27-1.35-.33-1.63a13.54,13.54,0,0,0-.36-1.37l2.54-.42c.06.36.11,1,.2,1.41,0,.25.14.84.29,1.65,1.53-.25,2.9-.46,3.55-.59s1.26-.25,1.69-.38l.43,2.36c-.4,0-1.12.14-1.66.22l-3.6.57.56,2.87c1.62-.27,3.1-.51,3.91-.67s1.37-.29,1.83-.43Z"/><path class="cls-2" d="M487.22,74.83c.64.06,2,.11,2.89.11h9.67c.83,0,1.64-.07,2.11-.11v2.83c-.43,0-1.35-.09-2.11-.09h-9.67c-1,0-2.23,0-2.89.09Z"/><path class="cls-2" d="M518.29,84c-.24-.61-.52-1.35-.85-2.12-2.93.34-8.39.91-10.66,1.15l-1.69.22-.41-2.63c.61,0,1.38,0,2,0l.48,0c1.05-2.66,2.6-7.6,3.12-9.47a13.45,13.45,0,0,0,.43-2.07l2.86.58a21.07,21.07,0,0,0-.77,2c-.58,1.77-2,6.34-2.94,8.75,2.2-.21,4.76-.5,6.58-.72a22.2,22.2,0,0,0-1.9-3.29l2.26-.92a56.65,56.65,0,0,1,3.94,7.49Z"/><path class="cls-2" d="M528,84.83h-6v-2h3.84V73.32H528Z"/><path class="cls-2" d="M548.63,80.58c0-.52.06-1.35.08-2.13-1.32.72-2,1.43-2,2.31s.85,1.26,2.59,1.26a27.5,27.5,0,0,0,5.06-.52l-.07,2.32c-1.19.14-3.37.29-5,.29-2.79,0-4.9-.67-4.9-3s2.16-3.71,4.2-4.76a1.4,1.4,0,0,0-1.24-.61,4.44,4.44,0,0,0-2.8,1.23,21.58,21.58,0,0,0-1.65,2l-1.91-1.42a17.5,17.5,0,0,0,3.92-4.9h-.21c-.72,0-2,0-3-.13V70.42a21.93,21.93,0,0,0,3.13.2h.87a9.8,9.8,0,0,0,.36-2l2.34.19c-.09.44-.22,1-.43,1.77a40.94,40.94,0,0,0,5-.52l0,2.09a58.24,58.24,0,0,1-5.81.46,10.82,10.82,0,0,1-1,1.8,5.67,5.67,0,0,1,2-.36,2.41,2.41,0,0,1,2.37,1.39c.92-.43,1.68-.74,2.42-1.06l2-.92.9,2.07a21.12,21.12,0,0,0-2.13.76c-.79.3-1.8.7-2.9,1.2,0,1,.06,2.31.08,3.12Z"/><path class="cls-2" d="M562.64,77.86a7,7,0,0,0-.29,1.8c0,1.13,1.06,2,3.64,2a25.34,25.34,0,0,0,6.26-.7l0,2.52a28.39,28.39,0,0,1-6.19.6C562,84,560,82.67,560,80.22a11.57,11.57,0,0,1,.35-2.58Zm9-9.45c.45.66,1.09,1.8,1.44,2.46l-1.46.63c-.15-.28-.33-.63-.51-1v2.15c-1.24.09-3.45.21-5.15.21-1.87,0-3.42-.09-4.86-.2V70.3a47.55,47.55,0,0,0,4.85.21c1.71,0,3.67-.1,5-.23a11.75,11.75,0,0,0-.78-1.3Zm2.12-.81a19.48,19.48,0,0,1,1.46,2.45l-1.42.61a20,20,0,0,0-1.46-2.49Z"/><path class="cls-2" d="M583,72.3a21.24,21.24,0,0,1-2.23,3.81V84.7h-2.16V78.53A15.12,15.12,0,0,1,577,79.8,12.59,12.59,0,0,0,576,77.7a13.73,13.73,0,0,0,4.59-5.4h-4V70.24h4.88a19.36,19.36,0,0,0,.73-2.32l2.29.52c-.18.6-.38,1.21-.61,1.8h8.69V72.3Zm9.8,7.92H588.6v2.23c0,1.08-.2,1.64-1,2a8.91,8.91,0,0,1-3.24.34,8.42,8.42,0,0,0-.59-2.07c.9,0,2,0,2.25,0s.38-.07.38-.3V80.22h-4.56v-2h4.56V76.74h.66a14,14,0,0,0,1.23-1.11h-5.06V73.7h6.84l.45-.13,1.33,1.08a22.9,22.9,0,0,1-3.27,3.08v.49h4.23Z"/><path class="cls-2" d="M599.63,77.05c0,.25-.07.5-.13.74.94.92,2.88,3.17,3.39,3.76l-1.44,1.8c-.6-.93-1.62-2.29-2.51-3.38a9.58,9.58,0,0,1-3.4,4.71A8.37,8.37,0,0,0,594,83.06a8.41,8.41,0,0,0,3.46-6h-3.19V75h3.33V72.17h-.72a12.3,12.3,0,0,1-1.22,2.41,12.63,12.63,0,0,0-1.73-1.24,13.48,13.48,0,0,0,2-5.42l2.06.42c-.13.63-.27,1.24-.45,1.85h4.75v2h-2.54V75h3v2Zm10.44-7.58V84h-2.18v-1h-2.61v1.3h-2.07V69.47ZM607.89,80.9V71.49h-2.61V80.9Z"/><path class="cls-2" d="M614.62,70.77l7.71-.69c1.83-.14,3.78-.25,5-.3l0,2.3a18.89,18.89,0,0,0-3.44.23,5.42,5.42,0,0,0-3.77,5c0,2.94,2.74,4,5.77,4.14l-.83,2.47c-3.75-.23-7.28-2.25-7.28-6.12a7.08,7.08,0,0,1,2.63-5.49c-1.55.16-5.29.55-7.36,1l-.24-2.44C613.59,70.84,614.28,70.8,614.62,70.77Zm11.7,5.49-1.36.61a13.65,13.65,0,0,0-1.41-2.5l1.33-.56A22.15,22.15,0,0,1,626.32,76.26Zm2.09-.88-1.35.64a15.82,15.82,0,0,0-1.47-2.43L626.9,73A26.33,26.33,0,0,1,628.41,75.38Z"/><path class="cls-2" d="M646.3,72.89c-1.08,0-2.75-.09-5.16-.09,0,.9,0,1.87,0,2.65a4.3,4.3,0,0,1,.67,2.46c0,2.33-1.37,5.28-5.72,6.5l-1.9-1.9a8.16,8.16,0,0,0,4.36-2,4.1,4.1,0,0,1-.81.09,3.15,3.15,0,0,1-3.08-3.28A3.36,3.36,0,0,1,638.24,74a3.88,3.88,0,0,1,.7.06l0-1.19c-2.7,0-5.45.14-7.65.27l0-2.16c2,0,5.27-.09,7.67-.13a4.19,4.19,0,0,0,0-.54,13.58,13.58,0,0,0-.16-1.55h2.59c-.06.29-.11,1.25-.13,1.53s0,.33,0,.54c1.81,0,4.24,0,5.17,0Zm-8.12,5.69c.74,0,1.41-.56,1.17-2.11a1.27,1.27,0,0,0-1.17-.63,1.33,1.33,0,0,0-1.36,1.41A1.32,1.32,0,0,0,638.18,78.58Z"/><path class="cls-2" d="M655.88,69c-.11.47-.24,1-.33,1.48s-.23,1.19-.36,1.83c.6,0,1.14-.07,1.5-.07,1.89,0,3.22.85,3.22,3.41a17.38,17.38,0,0,1-1,6.5A2.85,2.85,0,0,1,656,83.78a9.64,9.64,0,0,1-2.13-.25l-.39-2.36a10.1,10.1,0,0,0,2.18.38,1.3,1.3,0,0,0,1.33-.77,13.29,13.29,0,0,0,.74-4.88c0-1.43-.62-1.62-1.75-1.62-.29,0-.72,0-1.22.07a38.43,38.43,0,0,1-3.62,9.52l-2.34-.93a26.71,26.71,0,0,0,3.6-8.34c-.63.07-1.19.14-1.53.2-.51,0-1.43.18-2,.27l-.2-2.41c.65,0,1.24,0,1.89,0s1.4-.08,2.3-.15a19,19,0,0,0,.38-3.78ZM662,70.68a32.13,32.13,0,0,1,3.11,6.62l-2.25,1.06a20.72,20.72,0,0,0-3-6.78Z"/><path class="cls-2" d="M676.63,73.32c0-1.08-.86-1.69-2.27-1.69a3.76,3.76,0,0,0-2.88,1.42L670,71.68a6,6,0,0,1,4.64-2.19c2.61,0,4.52,1.2,4.52,3.6,0,2.64-3.92,3-3.65,5.45h-2.33C672.82,75.72,676.63,75.07,676.63,73.32Zm-2.27,6.47a1.77,1.77,0,1,1-1.87,1.76A1.76,1.76,0,0,1,674.36,79.79Z"/><path class="cls-2" d="M189.26,109.12c1.28,1.08,3.35,1.58,6.23,1.71a7.22,7.22,0,0,0-1.22,1.91c-3.62-.36-5.83-1.32-7.27-3.42-1,1.78-3,2.86-7.51,3.44a6.06,6.06,0,0,0-1-1.89c3.34-.33,5.11-.85,6-1.75H179v-1.87h6.59a8.72,8.72,0,0,0,.16-1h-4.88V100.1h12.37v6.17h-5.38c0,.35-.08.65-.13,1H195v1.87Zm-6.62-10.35h-3.57V96.88h3.57v-.94h2.09v.94h4.5v-.94h2.09v.94h3.58v1.89h-3.58v1.06h-2.09V98.77h-4.5v1.06h-2.09Zm.2,3.71h8.23v-.87h-8.23Zm0,2.3h8.23v-.9h-8.23Z"/><path class="cls-2" d="M206.62,103a12,12,0,0,0,6.73,7.71,8.56,8.56,0,0,0-1.58,2,13.46,13.46,0,0,1-6.76-7.63,12.34,12.34,0,0,1-6.73,7.65,6.36,6.36,0,0,0-1.6-1.82,10.77,10.77,0,0,0,6.53-7.92H197v-2.21h6.55a47.74,47.74,0,0,0,.18-4.81h2.34a47.94,47.94,0,0,1-.21,4.81H213V103Z"/><path class="cls-2" d="M224.29,100.67a27,27,0,0,1-3.09.62,33,33,0,0,1-3.82,7.63l-2.18-1.1a27.3,27.3,0,0,0,3.64-6.3c-.31,0-.62,0-.92,0-.74,0-1.46,0-2.23-.06l-.17-2.08a22.69,22.69,0,0,0,2.38.12c.52,0,1.06,0,1.6,0a14.9,14.9,0,0,0,.49-3l2.47.25c-.15.58-.36,1.48-.62,2.43a17.36,17.36,0,0,0,2.4-.56Zm2.34,1.61c0,.75,0,1.49,0,2.28,0,.51.06,1.37.11,2.25a12,12,0,0,1,3.69,2.29L229.24,111a15.45,15.45,0,0,0-2.41-1.89v.16c0,1.66-.9,3-3.44,3-2.21,0-4-1-4-3,0-1.75,1.46-3.1,3.94-3.1a11.52,11.52,0,0,1,1.21.08c-.05-1.34-.14-2.9-.2-4Zm-2,5.9a6.24,6.24,0,0,0-1.44-.18c-1,0-1.69.43-1.69,1.06s.56,1.12,1.53,1.12c1.2,0,1.6-.7,1.6-1.66Zm5-5a23.56,23.56,0,0,0-4.28-2.54l1.15-1.76a31.93,31.93,0,0,1,4.39,2.41Z"/><path class="cls-2" d="M237.45,102.73c.63.68,2.16,2.54,2.52,3l-1.22,1.74c-.27-.57-.8-1.42-1.3-2.23v7.49h-2v-7.11a15.44,15.44,0,0,1-2,4,10.31,10.31,0,0,0-1-2,17.39,17.39,0,0,0,2.79-6h-2.32v-2h2.58V95.92h2v3.69h2.25v2h-2.25Zm11.32-5.84v15.58h-2.16v-.92h-4.23v1h-2V96.89Zm-6.39,2v2.23h4.23V98.91Zm0,4.16v2.29h4.23v-2.29Zm4.23,6.54V107.3h-4.23v2.31Z"/><path class="cls-2" d="M252.87,106.74a16.36,16.36,0,0,1-1.06,4.65,9,9,0,0,0-1.56-.76,13,13,0,0,0,.91-4.18Zm2.09-1.46v7.46h-1.83v-7.31l-2.51.2-.21-1.86,1.29-.07c.27-.32.54-.68.81-1.06a15.94,15.94,0,0,0-2-2.52l1-1.44c.12.12.27.25.41.37a22.72,22.72,0,0,0,1.3-3.11l1.85.65c-.63,1.24-1.37,2.66-2,3.67.21.23.41.49.57.7a28.62,28.62,0,0,0,1.62-2.91l1.75.81c-1,1.51-2.22,3.29-3.35,4.73l1.57-.09c-.18-.39-.38-.79-.58-1.15l1.51-.63a18.83,18.83,0,0,1,1.25,2.65v-1.7h9.88v3.57h-1.87v-1.91h-6.23v1.91h-1.78v-.54l-1.25.57c-.05-.3-.16-.66-.27-1.06Zm1.66,1.1a13.42,13.42,0,0,1,.92,3.17l-1.59.52a14.67,14.67,0,0,0-.82-3.24Zm2.92-1.15h1.92v1.44a6.27,6.27,0,0,1-3.83,6.09,9.91,9.91,0,0,0-1.46-1.43c2.95-1.4,3.37-3.38,3.37-4.7Zm1.62-6.16h-3.73V97.33h3.73V95.92h2.12v1.41h3.8v1.74h-3.8v1.05h3.28v1.72h-8.48v-1.72h3.08Zm4.41,11.69c.25,0,.34-.29.38-2.24a4.74,4.74,0,0,0,1.71.8c-.18,2.57-.67,3.24-1.89,3.24h-1.16c-1.53,0-1.85-.58-1.85-2.36v-5h1.93v5c0,.49,0,.56.27.56Z"/><path class="cls-2" d="M274.48,107.52a16.7,16.7,0,0,0-1.08-1.82v7h-2.08v-6.46a15.93,15.93,0,0,1-2,3.56,10.89,10.89,0,0,0-1-2A17.63,17.63,0,0,0,271,103h-2.29v-2h2.57V98.87c-.75.15-1.49.27-2.19.36a7.25,7.25,0,0,0-.6-1.63,26.35,26.35,0,0,0,5.59-1.5l1.42,1.64a18,18,0,0,1-2.14.68V101h1.92v2H273.4v.52c.48.4,2,2,2.3,2.36Zm8.91,3.06c.27,0,.34-.27.38-2.15a5.23,5.23,0,0,0,1.81.81c-.18,2.58-.66,3.26-2,3.26h-1.19c-1.6,0-1.94-.63-1.94-2.5v-4.32h-1c-.25,3.1-1,5.62-4.25,7.08a6.34,6.34,0,0,0-1.24-1.7c2.68-1.09,3.18-3,3.38-5.38H276V99.5h1.39a16.62,16.62,0,0,0-1.41-2.79l1.77-.77A13.75,13.75,0,0,1,279.34,99l-1.16.5h4.24L281,99a19.38,19.38,0,0,0,1.48-3.08l2.19.7c-.59,1-1.24,2.13-1.76,2.88h1.66v6.18h-2V110c0,.54,0,.6.27.6Zm-1-9.22H278v2.45h4.44Z"/><path class="cls-2" d="M294.28,97c-.11.47-.24,1-.33,1.48s-.23,1.19-.36,1.83c.6,0,1.14-.07,1.5-.07,1.89,0,3.22.85,3.22,3.41a17.38,17.38,0,0,1-1,6.5,2.85,2.85,0,0,1-2.93,1.63,9.64,9.64,0,0,1-2.13-.25l-.39-2.36a10.13,10.13,0,0,0,2.17.38,1.3,1.3,0,0,0,1.34-.77,13.31,13.31,0,0,0,.73-4.88c0-1.42-.61-1.62-1.74-1.62-.29,0-.72,0-1.23.07a37.65,37.65,0,0,1-3.62,9.52l-2.34-.93a26.25,26.25,0,0,0,3.6-8.34c-.63.07-1.18.14-1.53.2-.5,0-1.42.18-2,.27l-.19-2.41c.64,0,1.24,0,1.89,0s1.4-.08,2.3-.15a19.73,19.73,0,0,0,.38-3.78Zm6.15,1.68a32.17,32.17,0,0,1,3.12,6.62l-2.25,1.06a20.53,20.53,0,0,0-3-6.78Z"/><path class="cls-2" d="M309.45,104.47a8.73,8.73,0,0,1,5.24-1.69c3.13,0,4.95,1.93,4.95,4.09,0,3.26-2.57,5.76-10,5.11l-.69-2.34c5.35.76,8.18-.56,8.18-2.83,0-1.15-1.1-2-2.67-2a6.23,6.23,0,0,0-4.91,2.08,3.73,3.73,0,0,0-.67,1l-2.07-.52a66.17,66.17,0,0,0,.88-7.44l2.42.32C309.88,101.3,309.58,103.45,309.45,104.47Zm.56-7.74a56.64,56.64,0,0,0,7.13,1.39l-.54,2.19c-1.8-.23-5.78-1.06-7.17-1.42Z"/><path class="cls-2" d="M338.63,103.81a35.52,35.52,0,0,1-3.31,2.18,9.23,9.23,0,0,0,4,3.62,8.82,8.82,0,0,0-1.49,1.85c-3.21-1.71-5-5-6-9.22h0a12.08,12.08,0,0,1-1.5,1.05c3.41,2.95,3.26,7.43,1.48,8.73a3,3,0,0,1-2.2.75c-.45,0-1,0-1.53,0a4.33,4.33,0,0,0-.61-2c.69,0,1.26.09,1.73.09a1.3,1.3,0,0,0,1.08-.38,2.35,2.35,0,0,0,.59-2A27.91,27.91,0,0,1,324,112a9.57,9.57,0,0,0-1.12-1.79,20.61,20.61,0,0,0,7.51-3.63c-.11-.22-.22-.44-.34-.63a27.19,27.19,0,0,1-5.46,2.7,7.26,7.26,0,0,0-1.08-1.62,19.8,19.8,0,0,0,5.56-2.34c-.14-.15-.28-.29-.45-.44a25.82,25.82,0,0,1-4.26,1.53,13.31,13.31,0,0,0-1.1-1.67,22,22,0,0,0,5.51-1.82H326.1v-1.8h9.67v1.8h-2a16.12,16.12,0,0,0,.73,2.09,22,22,0,0,0,2.51-2Zm-13.16-2.45h-2.11v-4h6.48v-1.4H332v1.4h6.59v4h-2.2V99.29h-11Z"/><path class="cls-2" d="M347.9,102.74s0,.58,0,.85c-.2,5.53-.39,7.64-.9,8.32a1.65,1.65,0,0,1-1.24.74,8.12,8.12,0,0,1-1.86.07,4.83,4.83,0,0,0-.54-1.94,11,11,0,0,0,1.36.07.61.61,0,0,0,.54-.27c.28-.38.48-1.88.61-5.89h-1.55c-.25,3.17-.87,6-2.38,8.07a5.45,5.45,0,0,0-1.49-1.5c1.82-2.41,2-6.35,2-10.46H340.7v-2h3V95.94h2.07v2.88h2.34v1.1a12.83,12.83,0,0,0,1.89-4l1.94.44a16.19,16.19,0,0,1-.61,1.73h5.82V100h-6.76a13.65,13.65,0,0,1-1.47,2.13,11.29,11.29,0,0,0-1.68-1.16l.15-.14h-2.9l-.06,1.94Zm6.25,4.69a6.9,6.9,0,0,0,3.52,3.65,7.67,7.67,0,0,0-1.35,1.64,7.83,7.83,0,0,1-3.2-3.49,8.43,8.43,0,0,1-3.85,3.49,6.48,6.48,0,0,0-1.37-1.46c2.5-1.06,3.46-2.5,3.82-3.83h-3.23v-1.91h3.44v-1.86h-.85a10.07,10.07,0,0,1-1,1.64,12,12,0,0,0-1.66-1.1,9.72,9.72,0,0,0,2-4.07l1.93.44c-.11.41-.25.82-.4,1.22h5v1.87H354v1.86h3.22v1.91Z"/><path class="cls-2" d="M367,108.58c0-.52.06-1.35.07-2.13-1.31.72-2,1.43-2,2.31s.85,1.26,2.59,1.26a27.59,27.59,0,0,0,5.06-.52l-.07,2.32c-1.19.14-3.37.29-5,.29-2.79,0-4.9-.67-4.9-3s2.16-3.71,4.2-4.76a1.4,1.4,0,0,0-1.25-.61,4.44,4.44,0,0,0-2.79,1.23,21.58,21.58,0,0,0-1.65,2l-1.91-1.42a17.5,17.5,0,0,0,3.92-4.9H363c-.72,0-2,0-3-.13V98.42a21.93,21.93,0,0,0,3.13.2H364a10.52,10.52,0,0,0,.36-2l2.34.2c-.09.43-.22,1-.43,1.76a40.94,40.94,0,0,0,5-.52l0,2.09a58.21,58.21,0,0,1-5.82.46,10.13,10.13,0,0,1-1,1.8,5.66,5.66,0,0,1,2-.36,2.44,2.44,0,0,1,2.38,1.39c.92-.43,1.68-.74,2.41-1.06s1.32-.61,2-.92l.9,2.07a20.28,20.28,0,0,0-2.13.76c-.79.3-1.8.7-2.9,1.2,0,1,.06,2.31.07,3.12Z"/><path class="cls-2" d="M393,104.76h-4.41v5.49c0,1.23-.25,1.8-1.08,2.13a10.77,10.77,0,0,1-3.73.38,8.16,8.16,0,0,0-.75-2.18c1.17,0,2.5,0,2.86,0s.5-.09.5-.39v-5.46H377v-2.09h9.41v-2.21h2.2v2.21H393Zm-13.54-2.84h-2.18V97.69h6.52V95.92H386v1.77h6.55v4.23h-2.28V99.68H379.43Zm1.19,3.27a16.76,16.76,0,0,1,2.85,3.59L381.63,110a15.74,15.74,0,0,0-2.72-3.73Z"/><path class="cls-2" d="M400.49,96.77a29.75,29.75,0,0,0-.72,3.69,5.52,5.52,0,0,1,4.41-2.88c2.49,0,4.42,2.43,4.42,6.35,0,5-3.1,7.46-7.82,8.32l-1.35-2.07c4-.61,6.74-1.91,6.74-6.23,0-2.75-.92-4.28-2.4-4.28-2.11,0-3.94,3.17-4,5.51a10.35,10.35,0,0,0,.09,1.89l-2.22.14a23.15,23.15,0,0,1-.21-3,43.26,43.26,0,0,1,.5-5.71,17,17,0,0,0,.14-1.87Z"/><path class="cls-2" d="M416.55,112.41a34.76,34.76,0,0,0-3.87-4l1.87-1.62a34,34,0,0,1,3.93,4Z"/><path class="cls-2" d="M437.21,107.84c-.37-.5-1-1.22-1.6-1.89v6.79h-2.12v-6.21a14.55,14.55,0,0,1-2.24,1.72,8.73,8.73,0,0,0-1-2,13.54,13.54,0,0,0,5-5h-4.36V99.25h2.56V95.94h2.12v3.31h.81l.38-.09,1.21.78a17.46,17.46,0,0,1-2.13,3.85c.87.7,2.25,1.94,2.63,2.3Zm10.32,2.29v2.09H437.34v-2.09h4.16v-6.59h-3.42v-2.07h3.42V96.08h2.2v5.39h3.4v2.07h-3.4v6.59Z"/><path class="cls-2" d="M464.54,107.25a32.66,32.66,0,0,1-3.31,2,12,12,0,0,0,4.19,1.55,9.56,9.56,0,0,0-1.35,1.93,10.59,10.59,0,0,1-8-6.49H454v3.82l3.89-.57.09,1.89c-2.75.45-5.72.9-7.9,1.22l-.49-2,2.2-.27v-4.13h-3v-1.89h3V96.53h11.36v1.75H454v1h8.66v1.66H454v.9h8.66v1.66H454v.93h11v1.89h-1.93Zm-6.19-1a8.23,8.23,0,0,0,1.42,1.88,24.49,24.49,0,0,0,2.75-1.88Z"/><path class="cls-2" d="M471.85,96.57a35.26,35.26,0,0,1-1.41,3.42v12.77h-2v-9.22c-.4.56-.8,1.08-1.21,1.55a14.16,14.16,0,0,0-1-2.33,19,19,0,0,0,3.67-6.8Zm11,.27v15.72h-2v-.88H474v1H472.1V96.84Zm-2,13V98.69H474v11.13Zm-2.59-7.36V104H480v4.82h-5V104h1.6v-1.55h-2.07v-1.55h2.07V99.07h1.66v1.84h2.18v1.55Zm.13,3h-1.84v1.89h1.84Z"/><path class="cls-2" d="M493.91,96.34c0,.28,0,.64-.05,1,.14,2.49,1,10.25,7.76,13.4a7,7,0,0,0-1.66,1.82,14.32,14.32,0,0,1-7.09-9,15.39,15.39,0,0,1-6.66,9,7.42,7.42,0,0,0-1.8-1.71c7.18-4,6.93-12.16,7.06-14.53Z"/><path class="cls-2" d="M510.44,109.8c.68-.09,1.19-.18,1.65-.28a4.84,4.84,0,0,0,4.06-4.78,4.41,4.41,0,0,0-3.73-4.71,39.37,39.37,0,0,1-1.06,4.84c-1.07,3.6-2.61,5.8-4.56,5.8s-3.64-2.18-3.64-5.19a8,8,0,0,1,8.21-7.63,6.81,6.81,0,0,1,7.21,7c0,3.74-2.31,6.41-6.81,7.09Zm-1.39-5.4a28.16,28.16,0,0,0,1-4.32,5.59,5.59,0,0,0-4.52,5.17c0,1.8.72,2.68,1.38,2.68S508.33,106.81,509.05,104.4Z"/><path class="cls-2" d="M530.71,103.81a37.37,37.37,0,0,1-3.1,2.23v.9a34.82,34.82,0,0,0,5.8-2l1.78,1.56a54.45,54.45,0,0,1-7.58,2.2v1c0,.7.22.81,1.53.81h3.91c1.11,0,1.31-.32,1.44-2.21a6.81,6.81,0,0,0,2,.77c-.3,2.67-1,3.37-3.29,3.37H529c-2.81,0-3.58-.61-3.58-2.72v-2.41c-1.18.63-2.38,1.18-3.59,1.69a12.13,12.13,0,0,0-1.49-1.84,31.12,31.12,0,0,0,6.84-3.38H520.8v-2h5.69V100h-4.07v-2h4.07V95.9h2.24v2.18h3.85v1a24.28,24.28,0,0,0,1.93-2.51l2,1a29.73,29.73,0,0,1-3.54,4.23h4.16v2Zm-2-2h1.09a20.2,20.2,0,0,0,1.91-1.77h-3Z"/><path class="cls-2" d="M544.19,100.48c-.4.72-.87,1.45-1.37,2.17v10.12h-2v-7.7a18.94,18.94,0,0,1-1.4,1.33,13.3,13.3,0,0,0-1.12-2,15,15,0,0,0,4-4.63Zm-.31-3.8a22.11,22.11,0,0,1-4.3,4.39,15.93,15.93,0,0,0-1.12-1.57A15.07,15.07,0,0,0,542,95.94Zm10,9.07a9.91,9.91,0,0,1-2.74,3.89A16.57,16.57,0,0,0,555.6,111a7.94,7.94,0,0,0-1.28,1.83,14.65,14.65,0,0,1-5-1.89,18,18,0,0,1-5.1,1.93,7,7,0,0,0-1-1.82,15.64,15.64,0,0,0,4.43-1.4,10.08,10.08,0,0,1-1.42-1.57,17.32,17.32,0,0,1-1.62,1.11,12.59,12.59,0,0,0-1.39-1.58,11.59,11.59,0,0,0,4-3.33l-3.6.11-.18-1.89c.81,0,1.74,0,2.77,0,.25-.22.52-.45.77-.69a20.23,20.23,0,0,0-3.16-2.55l1.27-1.39,1,.65A18.22,18.22,0,0,0,548,95.85l1.86,1c-.78.94-1.66,1.91-2.42,2.67a12.05,12.05,0,0,1,1,.9,32.63,32.63,0,0,0,2.9-3.19l1.89,1a60.69,60.69,0,0,1-4.41,4.17l3.22-.05a13.49,13.49,0,0,0-.9-1.15l1.66-.92a17.75,17.75,0,0,1,2.73,3.94l-1.8,1a10,10,0,0,0-.59-1.19c-1.19.06-2.41.09-3.58.13-.22.36-.46.72-.71,1.06h3.26l.34-.07Zm-6.31,1.1a8.28,8.28,0,0,0,1.79,1.75,8.28,8.28,0,0,0,1.73-1.77h-3.5Z"/><path class="cls-2" d="M568,109.71c1.84.65,3.91,1.52,5.13,2.11l-2.48,1a35.67,35.67,0,0,0-4.68-2.12l1.62-.94h-5.26l1.64.72a21.82,21.82,0,0,1-5.62,2.36,21.18,21.18,0,0,0-1.58-1.56,21.09,21.09,0,0,0,5-1.52h-2.65V102.4h3.77a5.52,5.52,0,0,0-.85-1.24l0,.07-4.58,1.32-.79-1.88c1.33-.25,3.26-.7,5.17-1.15l.18,1.62c2.86-.47,3.82-1.24,4.21-2.52h-1.29a10.31,10.31,0,0,1-1.44,1.44,5.75,5.75,0,0,0-1.61-1,7.77,7.77,0,0,0,2.65-3.13l1.89.31a8.3,8.3,0,0,1-.47.88h5.31l.33,0,1.42.36a12.85,12.85,0,0,1-1.71,2.71l-1.66-.52a10.31,10.31,0,0,0,.71-1h-2c.39,1.17,1.4,2.14,5,2.58a5.65,5.65,0,0,0-1.06,1.74c-.44-.07-.83-.14-1.19-.23v7Zm-6.8-10.6a23.07,23.07,0,0,0-3.77-1.46l.94-1.46a23.75,23.75,0,0,1,3.8,1.3Zm-.06,5.35h7.8v-.78h-7.8Zm0,2h7.8v-.78h-7.8Zm0,2h7.8v-.79h-7.8Zm9-6a5.37,5.37,0,0,1-2.75-1.94,5.91,5.91,0,0,1-3.28,1.94Z"/><path class="cls-2" d="M588.54,107.53c-.68,1-1.38,2.09-2,2.85h4.06v1.84H575.36v-1.84h3.51a12.31,12.31,0,0,0-1.49-2.9l1.64-.7h-2.76v-1.84h5.48v-1.78h-3.32v-.88a21.8,21.8,0,0,1-2.68,1.67,8.43,8.43,0,0,0-1.33-1.73,19.13,19.13,0,0,0,7.27-6.35h2.22a18.43,18.43,0,0,0,7.68,6.14,10.37,10.37,0,0,0-1.42,1.92,21.5,21.5,0,0,1-2.73-1.71v.94H584v1.78h5.54v1.84H584v3.6h2l-1.17-.49a19.17,19.17,0,0,0,1.71-3.11Zm-9.41-.75a12.24,12.24,0,0,1,1.65,3l-1.47.63h2.43v-3.6Zm7.07-5.49A19.19,19.19,0,0,1,582.89,98a18.88,18.88,0,0,1-3.19,3.33Z"/><path class="cls-2" d="M606.22,103.27a6.61,6.61,0,0,1,1.73,4.28c0,2.68-2.42,4.63-6.32,4.63-2.81,0-4.79-1.22-4.79-4.2,0-.43,0-1.06.12-1.8a19.64,19.64,0,0,1-3.42-.59l.13-2.16a15.07,15.07,0,0,0,3.51.7c.11-.79.2-1.62.31-2.43a22.31,22.31,0,0,1-3.55-.63l.12-2.07a16.81,16.81,0,0,0,3.66.67c.07-.54.11-1,.14-1.43a10.05,10.05,0,0,0,0-1.58l2.5.14c-.14.65-.23,1.12-.3,1.59-.06.3-.11.77-.2,1.35a25.48,25.48,0,0,0,3.27-.22l-.07,2.13a34.06,34.06,0,0,1-3.47.16c-.11.79-.22,1.64-.31,2.43h.13A34.19,34.19,0,0,0,603,104l0,2.13c-1,.09-2.06.16-3.15.16h-.72c0,.52-.08,1-.08,1.3,0,1.45.9,2.27,2.67,2.27,2.48,0,3.85-1.14,3.85-2.62a5,5,0,0,0-1.83-3.45Z"/><path class="cls-2" d="M616.49,105.57l-1.6.47v4.29c0,1.06-.18,1.63-.76,2a5.31,5.31,0,0,1-2.68.43,7.65,7.65,0,0,0-.59-2.09,16.35,16.35,0,0,0,1.67,0c.22,0,.31-.07.31-.34v-3.69l-2,.54-.45-2.07,2.45-.56v-3.24h-2.09v-2h2.09V95.94h2v3.38h1.39V100a13.28,13.28,0,0,0,4.35-4.07h1.93a13.68,13.68,0,0,0,5.06,4.27,11.87,11.87,0,0,0-1.17,1.85,15.21,15.21,0,0,1-2.52-1.84v1.14h-4.7v-1a13.75,13.75,0,0,1-2.21,1.54,7.26,7.26,0,0,0-.74-1.29v.65h-1.39V104l1.37-.36Zm-1,5.91a9.4,9.4,0,0,0,1.37-3.68l1.71.54a9.8,9.8,0,0,1-1.39,4Zm6.84-5.06c.31-.72.61-1.55.88-2.31h-5.63v-1.76H624l.33-.09,1.51.34a42.34,42.34,0,0,1-1.55,4.21Zm3,1.1a11.58,11.58,0,0,1,2.23,4l-1.76.9a9.17,9.17,0,0,0-.94-2.26c-.19,2-.72,2.46-2,2.46h-1.82c-1.78,0-2.18-.54-2.18-2.21v-2.74h2c-.54-.34-1.12-.68-1.64-1l1.28-1.16a13.24,13.24,0,0,1,3.15,1.93l-1.35,1.3a9.55,9.55,0,0,0-1.43-1.1v2.68c0,.49.08.52.53.52h1.29c.4,0,.51-.18.54-1.54a5.82,5.82,0,0,0,1.64.68,12.16,12.16,0,0,0-1.08-1.69Zm-1.94-7.85a14,14,0,0,1-1.66-1.88A13.56,13.56,0,0,1,620,99.67Z"/><path class="cls-2" d="M644.2,105.1v7.62H642v-1H632v1h-2.18V105.1H632v4.49h3.76v-5.44h-5.22V97.61h2.13v4.45h3.09v-6H638v6h3.28V97.61h2.25v6.54H638v5.44h4V105.1Z"/><path class="cls-2" d="M662.7,100.89c-1.08,0-2.75-.09-5.17-.09,0,.9,0,1.87,0,2.65a4.38,4.38,0,0,1,.67,2.46c0,2.33-1.37,5.28-5.73,6.5l-1.89-1.9a8.2,8.2,0,0,0,4.36-2,4.1,4.1,0,0,1-.81.09,3.14,3.14,0,0,1-3.08-3.28,3.36,3.36,0,0,1,3.57-3.33,3.88,3.88,0,0,1,.7.06l0-1.19c-2.7,0-5.46.14-7.65.27l-.06-2.16c2,0,5.28-.09,7.67-.13,0-.21,0-.41,0-.54a11.34,11.34,0,0,0-.17-1.55h2.6c-.06.29-.11,1.25-.13,1.53s0,.33,0,.54c1.8,0,4.23,0,5.17,0Zm-8.12,5.69c.74,0,1.41-.56,1.17-2.11a1.27,1.27,0,0,0-1.17-.63,1.37,1.37,0,1,0,0,2.74Z"/><path class="cls-2" d="M677.88,98.82c-.44.27-.85.54-1.25.81-1,.67-2.82,2.25-3.94,3.15a6.05,6.05,0,0,1,1.67-.2c3,0,5.33,1.89,5.33,4.49,0,2.81-2.14,5-6.44,5-2.49,0-4.36-1.14-4.36-2.92a3,3,0,0,1,3.21-2.77,3.6,3.6,0,0,1,3.8,3,2.59,2.59,0,0,0,1.45-2.43c0-1.6-1.62-2.68-3.69-2.68-2.73,0-4.52,1.46-6.43,3.62l-1.62-1.68c1.26-1,3.41-2.84,4.47-3.71s2.84-2.32,3.73-3.09c-.92,0-3.37.12-4.31.19a12.85,12.85,0,0,0-1.46.15L668,97.51c.51,0,1.12.09,1.62.09.94,0,4.76-.09,5.77-.18a9.91,9.91,0,0,0,1.36-.18Zm-4,11.22c-.11-1.16-.77-1.91-1.74-1.91-.67,0-1.1.39-1.1.84,0,.67.75,1.12,1.8,1.12C673.18,110.09,673.52,110.07,673.84,110Z"/><path class="cls-2" d="M691.86,101.7v10.75h-2V101.7h-2.39V101c-.31.61-.67,1.24-1,1.84v9.94h-2v-7.29c-.38.41-.74.81-1.12,1.15a11.25,11.25,0,0,0-1.15-2,14.62,14.62,0,0,0,3.65-4.92l1.63.56v-.52h2.39V96.19h2v3.55h2.32v2Zm-4.48-5.08a18,18,0,0,1-3.86,4.36,11.53,11.53,0,0,0-1.09-1.6,12.67,12.67,0,0,0,3-3.44Zm2,7.06a22.73,22.73,0,0,1-1.26,6.65,14.54,14.54,0,0,0-1.44-1,18.46,18.46,0,0,0,1-5.91Zm3.79-4.18A15.42,15.42,0,0,0,692,97l1.42-.59a13.26,13.26,0,0,1,1.22,2.45Zm.6,4a42.63,42.63,0,0,1,.81,5.34l-1.66.33a38.88,38.88,0,0,0-.72-5.37Zm5.58.39H698v6.56c0,1-.14,1.58-.77,1.92a5.94,5.94,0,0,1-2.7.38,7.82,7.82,0,0,0-.58-2.09c.74,0,1.5,0,1.71,0s.31-.06.31-.29v-6.52h-1.57V102h5Zm-.27-5.09h-4.27V96.89h4.27Z"/><path class="cls-2" d="M709,108.58c0-.52.06-1.35.07-2.13-1.31.72-2,1.43-2,2.31s.85,1.26,2.59,1.26a27.59,27.59,0,0,0,5.06-.52l-.07,2.32c-1.19.14-3.37.29-5,.29-2.79,0-4.9-.67-4.9-3s2.16-3.71,4.2-4.76a1.4,1.4,0,0,0-1.25-.61,4.44,4.44,0,0,0-2.79,1.23,21.58,21.58,0,0,0-1.65,2l-1.91-1.42a17.5,17.5,0,0,0,3.92-4.9H705c-.72,0-2,0-3-.13V98.42a21.93,21.93,0,0,0,3.13.2H706a10.52,10.52,0,0,0,.36-2l2.34.2c-.09.43-.22,1-.43,1.76a40.94,40.94,0,0,0,5-.52l0,2.09a58.21,58.21,0,0,1-5.82.46,10.13,10.13,0,0,1-1,1.8,5.66,5.66,0,0,1,2-.36,2.44,2.44,0,0,1,2.38,1.39c.92-.43,1.68-.74,2.41-1.06s1.32-.61,2-.92l.9,2.07a20.28,20.28,0,0,0-2.13.76c-.79.3-1.8.7-2.9,1.2,0,1,.06,2.31.07,3.12Z"/><path class="cls-2" d="M725.52,103.79a14.34,14.34,0,0,1,3.42-.47c2.74,0,4.9,1.46,4.9,3.91,0,2.11-1.1,3.69-3.93,4.39a15.06,15.06,0,0,1-2.34.29l-.83-2.29a13.5,13.5,0,0,0,2.2-.12c1.44-.26,2.59-1,2.59-2.29s-1.08-1.91-2.63-1.91a12.44,12.44,0,0,0-3.34.49c0,1.42.09,2.79.09,3.4,0,2.22-.81,2.79-2,2.79-1.74,0-4.21-1.49-4.21-3.38,0-1.57,1.82-3.17,4-4.13,0-.41,0-.82,0-1.24v-1.49l-1,0c-.81,0-1.71,0-2.48-.09l0-2.16a19.07,19.07,0,0,0,2.47.15c.32,0,.67,0,1,0,0-.63,0-1.15,0-1.46a14.9,14.9,0,0,0-.13-1.56h2.45c0,.32-.11,1.09-.15,1.54s0,.83,0,1.28a24.33,24.33,0,0,0,3.28-.66l.05,2.23c-1,.23-2.23.41-3.4.56,0,.54,0,1.08,0,1.6Zm-2,5c0-.45,0-1.26-.06-2.19-1.1.56-1.82,1.29-1.82,1.92s.83,1,1.3,1S723.56,109.41,723.56,108.79Zm7.34-10.26a41.37,41.37,0,0,1,4.38,2.5l-1.08,1.84a27,27,0,0,0-4.29-2.59Z"/><path class="cls-2" d="M742.55,96.61a29,29,0,0,1-1.68,3.47v12.6h-2v-9.5a16.82,16.82,0,0,1-1.5,1.69,13.19,13.19,0,0,0-1.11-2.18A19.31,19.31,0,0,0,740.57,96Zm9,16.13a8.14,8.14,0,0,0-.47-1.46c-3.22.31-6.62.63-9.05.81l-.38-2.14,1.74-.11a37.88,37.88,0,0,0,1.66-5.31h-3.28v-2.07h11.65v2.07h-5.9c-.56,1.73-1.25,3.62-1.89,5.15l4.57-.36a26.36,26.36,0,0,0-1.42-2.51l1.89-.79a21.89,21.89,0,0,1,3,5.8Zm1-13.54h-9.41v-2h9.41Z"/><path class="cls-2" d="M766.35,103.19c-.82.71-2.49,2.24-2.9,2.69a1.82,1.82,0,0,1,.66.14,1.73,1.73,0,0,1,1.1,1.21c.16.48.32,1.17.49,1.62a1.13,1.13,0,0,0,1.26.83,18.39,18.39,0,0,0,3.49-.31l-.14,2.34a25.26,25.26,0,0,1-3.5.25c-1.69,0-2.61-.36-3-1.53-.2-.52-.4-1.35-.52-1.8-.22-.63-.6-.86-1-.86a1.87,1.87,0,0,0-1.15.72,45.07,45.07,0,0,0-3.19,3.64l-2.12-1.48a13.9,13.9,0,0,0,1.24-1.1c.92-.94,4.56-4.55,6.2-6.28-1.26,0-3.39.23-4.41.32a14.83,14.83,0,0,0-1.54.22l-.21-2.47c.41,0,1.06,0,1.71,0,.85,0,4.9-.18,6.37-.37a6.21,6.21,0,0,0,1-.22l1.32,1.49C767.05,102.62,766.67,102.94,766.35,103.19Zm.54-5.7-.29,2.1c-1.88-.16-5.21-.54-7.33-.9l.34-2.07A71.28,71.28,0,0,0,766.89,97.49Z"/><path class="cls-2" d="M778.67,97a19.57,19.57,0,0,0-.23,2.37c-.09,1.91-.22,5.91-.22,8.12a2.15,2.15,0,0,0,2.45,2.38,7.11,7.11,0,0,0,6.11-3.64l1.62,2a9.29,9.29,0,0,1-7.75,4.07c-2.91,0-4.8-1.28-4.8-4.32,0-2.39.18-7.08.18-8.61a10.7,10.7,0,0,0-.24-2.41Z"/><path class="cls-2" d="M804.4,111.26a13.69,13.69,0,0,0-3.6-2.47c0,.24,0,.45,0,.63,0,1.54-1.15,2.71-3.51,2.71-2.84,0-4.35-1.08-4.35-3s1.65-3.06,4.41-3.06a9.87,9.87,0,0,1,1.1.06c0-.54-.06-1.1-.08-1.62h-.91c-1.05,0-3.1-.09-4.29-.24l0-2.1a33.79,33.79,0,0,0,4.3.32h.85v-1.85h-.85a30.14,30.14,0,0,1-3.87-.27l0-2a23.27,23.27,0,0,0,3.87.34h.89v-.81a7.31,7.31,0,0,0-.09-1.22h2.43a10.89,10.89,0,0,0-.13,1.26l0,.7a37.31,37.31,0,0,0,4.25-.43l.06,2c-1.17.11-2.61.25-4.33.34v1.86c1.8-.07,3.29-.24,4.75-.42v2.11c-1.6.18-3,.31-4.72.36,0,.67.07,1.39.13,2.07a13.94,13.94,0,0,1,5,2.7Zm-5.87-3.2a8.71,8.71,0,0,0-1.46-.13c-1.26,0-1.94.49-1.94,1.1s.63,1.1,1.85,1.1c.95,0,1.57-.29,1.57-1.32C798.55,108.61,798.55,108.36,798.53,108.06Z"/><path class="cls-2" d="M824.7,100.89c-1.08,0-2.75-.09-5.16-.09,0,.9,0,1.87,0,2.65a4.38,4.38,0,0,1,.67,2.46c0,2.33-1.37,5.28-5.73,6.5l-1.89-1.9a8.2,8.2,0,0,0,4.36-2,4.1,4.1,0,0,1-.81.09,3.14,3.14,0,0,1-3.08-3.28,3.36,3.36,0,0,1,3.57-3.33,3.88,3.88,0,0,1,.7.06l0-1.19c-2.7,0-5.46.14-7.65.27l-.06-2.16c2,0,5.28-.09,7.67-.13,0-.21,0-.41,0-.54a11.34,11.34,0,0,0-.17-1.55h2.6c-.06.29-.11,1.25-.13,1.53s0,.33,0,.54c1.8,0,4.23,0,5.17,0Zm-8.12,5.69c.74,0,1.41-.56,1.17-2.11a1.27,1.27,0,0,0-1.17-.63,1.37,1.37,0,1,0,0,2.74Z"/><path class="cls-2" d="M832.35,109.62a2.91,2.91,0,1,1-2.92-2.91A2.92,2.92,0,0,1,832.35,109.62Zm-1.3,0a1.61,1.61,0,1,0-1.62,1.61A1.61,1.61,0,0,0,831.05,109.62Z"/><path class="cls-3" d="M804.82,150.5H847a14,14,0,0,0,14-14V14.5a14,14,0,0,0-14-14H163a14,14,0,0,0-14,14V74.05"/><path class="cls-3" d="M.35,195.51,109.77,86.09H149V136.5a14,14,0,0,0,14,14H789.08"/></g></g></svg>