<svg xmlns="http://www.w3.org/2000/svg" viewBox="0 0 280 50"><defs><style>.cls-1{fill:#ffe238;}.cls-2{fill:#167640;}</style></defs><g id="レイヤー_2" data-name="レイヤー 2"><g id="text"><rect class="cls-1" width="280" height="42" rx="4"/><polygon class="cls-1" points="140 50 145 42 135 42 140 50"/><path class="cls-2" d="M93.05,12.37a35.82,35.82,0,0,1-2,4.25V32H88.52V20.4a20.9,20.9,0,0,1-1.83,2.07,16.32,16.32,0,0,0-1.36-2.66,23.48,23.48,0,0,0,5.3-8.23Zm13.27,3.15v2.11H92.24V15.52ZM93.63,25h11.48v7h-2.64v-.82H96.13v.88h-2.5Zm11.17-4.23H94v-2H104.8ZM94,21.83h10.73v2.05H94Zm10.43-7.39H94.33v-2h10.08ZM96.13,27v2.16h6.34V27Z"/><path class="cls-2" d="M115.85,28.43a25.26,25.26,0,0,0-2-2.72v6.35h-2.33V26.43a16.78,16.78,0,0,1-3,4,13.34,13.34,0,0,0-1.1-2.4,17.73,17.73,0,0,0,3.48-4.49h-2.6v-6h3.19V16.11H108V13.8h3.5V11.56h2.33V13.8h3.39v2.31h-3.39v1.41h3.31v6h-2.73c1,.92,2.51,2.44,2.92,2.88Zm-5.57-6.86h1.43V19.48h-1.43Zm4.86-2.09h-1.45v2.09h1.45Zm7,9.64a15.89,15.89,0,0,1-4.82,3,14.72,14.72,0,0,0-1.69-1.65,13.3,13.3,0,0,0,4.42-2.71Zm5.28-1.35h-9.17V16.18h2.81c.09-.51.18-1,.25-1.54h-3.88V12.39h10.68v2.25H124.1c-.16.53-.33,1-.51,1.54h3.87ZM125,18.11h-4.36v1.37H125Zm0,3.17h-4.36v1.37H125Zm0,3.19h-4.36v1.37H125Zm.11,3.48a28.65,28.65,0,0,1,3.56,2.86l-2,1.32a29.3,29.3,0,0,0-3.44-3Z"/><path class="cls-2" d="M139.36,28.5c.84-.11,1.46-.22,2-.35,2.79-.66,5-2.66,5-5.83s-1.63-5.26-4.56-5.77a47,47,0,0,1-1.29,5.92c-1.3,4.4-3.19,7.09-5.57,7.09s-4.45-2.67-4.45-6.34c0-5,4.38-9.33,10-9.33,5.39,0,8.8,3.76,8.8,8.51,0,4.58-2.82,7.84-8.32,8.67Zm-1.69-6.6a35.44,35.44,0,0,0,1.17-5.28,6.83,6.83,0,0,0-5.53,6.31c0,2.2.88,3.28,1.7,3.28S136.79,24.85,137.67,21.9Z"/><path class="cls-2" d="M164.47,26.7c1.56,1.76,4,2.77,7.5,3.14a10.21,10.21,0,0,0-1.54,2.29c-4.18-.66-6.8-2.22-8.54-5-1.3,2-3.74,3.7-8.23,4.91A10.29,10.29,0,0,0,152,30c3.7-.83,5.81-2,7-3.27h-6.62V24.43h7.9a9.56,9.56,0,0,0,.22-1.39h-5.63V20.93h5.65V19.61h-6V18.16h-1.95V13.47h8V11.56h2.68v1.91h8.06v4.69h-1.77v1.45h-6.42v1.32h6V23h-6a7.35,7.35,0,0,1-.18,1.39h8.69V26.7Zm-3.9-9.2V16.24h2.62V17.5h5.48V15.76H155.2V17.5Z"/><path class="cls-2" d="M176.56,24.76a20.19,20.19,0,0,1-1.29,5.68,11,11,0,0,0-1.92-.93,15.86,15.86,0,0,0,1.12-5.1ZM179.12,23v9.09h-2.25V23.17l-3.14.22-.18-2.26,1.58-.09c.33-.4.66-.84,1-1.3a19.74,19.74,0,0,0-2.5-3.08l1.27-1.76c.16.16.33.31.51.46a27.48,27.48,0,0,0,1.58-3.8l2.27.79a47.64,47.64,0,0,1-2.49,4.49,8.7,8.7,0,0,1,.71.86,37,37,0,0,0,2-3.57l2.13,1c-1.21,1.85-2.71,4-4.09,5.79l2-.13c-.22-.51-.46-1-.7-1.46l1.87-.74a18.47,18.47,0,0,1,1.89,4.62l-2,.88c-.07-.36-.18-.75-.31-1.19Zm2.07,1.23a16.68,16.68,0,0,1,1.12,3.87l-1.94.64a15.81,15.81,0,0,0-1-4Zm9.54,4.31c1.35.8,2.86,1.72,3.75,2.34l-2.29,1.23a41.57,41.57,0,0,0-3.63-2.58l1.36-1h-4l1.47,1a19.25,19.25,0,0,1-5.28,2.66c-.4-.46-1.12-1.16-1.61-1.62a17,17,0,0,0,4.34-2h-1.92v-9h10.17v9Zm-4.2-14.41h-4.42V12.55h4.42v-1h2.62v1h4.58v1.58h-4.58v.75h4V16.4h-4v.75h5v1.62H181.56V17.15h5V16.4h-3.89V14.88h3.89Zm-1.27,7.92h5.34v-.92h-5.34Zm0,2.45h5.34v-.95h-5.34Zm0,2.42h5.34V26h-5.34Z"/></g></g></svg>