<svg xmlns="http://www.w3.org/2000/svg" width="281" height="50.5" viewBox="0 0 281 50.5">
  <g id="コンポーネント_3_1" data-name="コンポーネント 3 – 1" transform="translate(0.5 0.5)">
    <g id="グループ_1105" data-name="グループ 1105" transform="translate(-1192 -6344)">
      <rect id="長方形_140" data-name="長方形 140" width="280" height="42" rx="4" transform="translate(1192 6344)" fill="#fff" stroke="#167640" stroke-width="1"/>
      <path id="パス_4305" data-name="パス 4305" d="M1332,6394l5-8h-10Z" fill="#167640"/>
    </g>
    <g id="グループ_1106" data-name="グループ 1106" transform="translate(-1192 -6344)">
      <g id="グループ_795" data-name="グループ 795">
        <path id="パス_5211" data-name="パス 5211" d="M1285.053,6356.371a35.808,35.808,0,0,1-2.046,4.247v15.4h-2.486V6364.4a21.584,21.584,0,0,1-1.827,2.069,16.884,16.884,0,0,0-1.364-2.663,23.4,23.4,0,0,0,5.3-8.229Zm13.268,3.147v2.112h-14.082v-2.112Zm-12.7,9.439h11.486V6376h-2.641v-.814h-6.336v.88h-2.509Zm11.178-4.225h-10.826v-2.024H1296.8Zm-10.826,1.1h10.738v2.046h-10.738Zm10.43-7.394h-10.078v-2.046h10.078Zm-8.273,12.542v2.157h6.336v-2.157Z" fill="#167640"/>
        <path id="パス_5212" data-name="パス 5212" d="M1307.845,6372.434a26.207,26.207,0,0,0-1.98-2.729v6.359h-2.332v-5.633a16.781,16.781,0,0,1-2.971,4,13.832,13.832,0,0,0-1.1-2.4,17.692,17.692,0,0,0,3.476-4.489h-2.6v-6.029h3.191v-1.408h-3.5V6357.8h3.5v-2.244h2.332v2.244h3.388v2.311h-3.388v1.408h3.3v6.029h-2.729c.99.924,2.509,2.442,2.927,2.882Zm-5.566-6.866h1.43v-2.089h-1.43Zm4.862-2.089h-1.452v2.089h1.452Zm7.041,9.637a15.984,15.984,0,0,1-4.818,3.014,15.2,15.2,0,0,0-1.7-1.651,13.449,13.449,0,0,0,4.423-2.706Zm5.281-1.343h-9.175v-11.595h2.816c.088-.506.176-1.034.242-1.54h-3.873v-2.245h10.672v2.245H1316.1c-.154.528-.33,1.055-.506,1.54h3.873Zm-2.464-9.659h-4.357v1.365H1317Zm0,3.168h-4.357v1.364H1317Zm0,3.191h-4.357v1.364H1317Zm.11,3.476a29.4,29.4,0,0,1,3.564,2.861l-2.046,1.32a28.727,28.727,0,0,0-3.433-2.992Z" fill="#167640"/>
        <path id="パス_5213" data-name="パス 5213" d="M1331.364,6372.5c.836-.11,1.452-.221,2.024-.353,2.794-.66,4.951-2.662,4.951-5.831,0-3.014-1.629-5.258-4.555-5.764a47.418,47.418,0,0,1-1.3,5.919c-1.3,4.4-3.191,7.085-5.567,7.085-2.4,0-4.445-2.662-4.445-6.337,0-5.017,4.379-9.329,10.034-9.329,5.39,0,8.8,3.762,8.8,8.515,0,4.576-2.817,7.833-8.317,8.669Zm-1.7-6.6a34.951,34.951,0,0,0,1.166-5.28,6.831,6.831,0,0,0-5.522,6.315c0,2.2.88,3.278,1.694,3.278C1327.909,6370.211,1328.789,6368.847,1329.669,6365.9Z" fill="#167640"/>
        <path id="パス_5214" data-name="パス 5214" d="M1356.466,6370.695c1.562,1.761,4.026,2.773,7.5,3.147a10.188,10.188,0,0,0-1.54,2.288c-4.181-.66-6.8-2.222-8.537-4.951-1.3,1.959-3.741,3.7-8.23,4.907a10.679,10.679,0,0,0-1.628-2.112c3.7-.836,5.809-1.981,7.019-3.279h-6.623v-2.266h7.9a10.092,10.092,0,0,0,.22-1.386h-5.632v-2.112h5.654v-1.321h-6.007v-1.452h-1.958v-4.687h8.031v-1.914h2.685v1.914h8.053v4.687h-1.76v1.452h-6.425v1.321h5.985v2.112h-6.007a7.466,7.466,0,0,1-.176,1.386h8.691v2.266Zm-3.895-9.2v-1.254h2.619v1.254h5.478v-1.738H1347.2v1.738Z" fill="#167640"/>
        <path id="パス_5215" data-name="パス 5215" d="M1368.564,6368.759a20.211,20.211,0,0,1-1.3,5.677,10.963,10.963,0,0,0-1.914-.924,16.053,16.053,0,0,0,1.122-5.1Zm2.553-1.76v9.087h-2.244v-8.911l-3.147.22-.176-2.267,1.584-.087c.33-.4.66-.837.991-1.3a20.293,20.293,0,0,0-2.509-3.08l1.276-1.761c.154.155.33.308.506.463a27.051,27.051,0,0,0,1.585-3.807l2.266.792a49.405,49.405,0,0,1-2.487,4.489,10.946,10.946,0,0,1,.705.858,35.446,35.446,0,0,0,1.98-3.565l2.134.991c-1.21,1.848-2.706,4.026-4.092,5.786l2.046-.132c-.22-.5-.462-.99-.7-1.452l1.87-.748a19.032,19.032,0,0,1,1.893,4.621l-1.959.88a11.986,11.986,0,0,0-.308-1.188Zm2.068,1.232a16.357,16.357,0,0,1,1.122,3.873l-1.936.638a15.441,15.441,0,0,0-1.012-3.961Zm9.55,4.312c1.342.793,2.86,1.717,3.74,2.333l-2.288,1.232a38.1,38.1,0,0,0-3.631-2.574l1.364-.991h-4l1.474.969a19.5,19.5,0,0,1-5.281,2.662c-.4-.462-1.122-1.166-1.606-1.628a17.113,17.113,0,0,0,4.335-2h-1.915v-9.021h10.166v9.021Zm-4.2-14.412h-4.423v-1.584h4.423v-.99h2.618v.99h4.577v1.584h-4.577v.748h4.049v1.518h-4.049v.749h4.995v1.628h-12.586v-1.628h4.973v-.749h-3.9v-1.518h3.9Zm-1.276,7.922h5.347v-.925h-5.347Zm0,2.442h5.347v-.946h-5.347Zm0,2.42h5.347v-.924h-5.347Z" fill="#167640"/>
      </g>
    </g>
    <g id="グループ_1107" data-name="グループ 1107" transform="translate(-1192 -6344)">
      <rect id="長方形_140-2" data-name="長方形 140" width="280" height="42" rx="4" transform="translate(1192 6344)" fill="#fff" stroke="#167640" stroke-width="1"/>
      <path id="パス_4305-2" data-name="パス 4305" d="M1332,6394l5-8h-10Z" fill="#167640"/>
    </g>
    <g id="グループ_1108" data-name="グループ 1108" transform="translate(-1192 -6344)">
      <g id="グループ_795-2" data-name="グループ 795">
        <path id="パス_5211-2" data-name="パス 5211" d="M1285.053,6356.371a35.808,35.808,0,0,1-2.046,4.247v15.4h-2.486V6364.4a21.584,21.584,0,0,1-1.827,2.069,16.884,16.884,0,0,0-1.364-2.663,23.4,23.4,0,0,0,5.3-8.229Zm13.268,3.147v2.112h-14.082v-2.112Zm-12.7,9.439h11.486V6376h-2.641v-.814h-6.336v.88h-2.509Zm11.178-4.225h-10.826v-2.024H1296.8Zm-10.826,1.1h10.738v2.046h-10.738Zm10.43-7.394h-10.078v-2.046h10.078Zm-8.273,12.542v2.157h6.336v-2.157Z" fill="#167640"/>
        <path id="パス_5212-2" data-name="パス 5212" d="M1307.845,6372.434a26.207,26.207,0,0,0-1.98-2.729v6.359h-2.332v-5.633a16.781,16.781,0,0,1-2.971,4,13.832,13.832,0,0,0-1.1-2.4,17.692,17.692,0,0,0,3.476-4.489h-2.6v-6.029h3.191v-1.408h-3.5V6357.8h3.5v-2.244h2.332v2.244h3.388v2.311h-3.388v1.408h3.3v6.029h-2.729c.99.924,2.509,2.442,2.927,2.882Zm-5.566-6.866h1.43v-2.089h-1.43Zm4.862-2.089h-1.452v2.089h1.452Zm7.041,9.637a15.984,15.984,0,0,1-4.818,3.014,15.2,15.2,0,0,0-1.7-1.651,13.449,13.449,0,0,0,4.423-2.706Zm5.281-1.343h-9.175v-11.595h2.816c.088-.506.176-1.034.242-1.54h-3.873v-2.245h10.672v2.245H1316.1c-.154.528-.33,1.055-.506,1.54h3.873Zm-2.464-9.659h-4.357v1.365H1317Zm0,3.168h-4.357v1.364H1317Zm0,3.191h-4.357v1.364H1317Zm.11,3.476a29.4,29.4,0,0,1,3.564,2.861l-2.046,1.32a28.727,28.727,0,0,0-3.433-2.992Z" fill="#167640"/>
        <path id="パス_5213-2" data-name="パス 5213" d="M1331.364,6372.5c.836-.11,1.452-.221,2.024-.353,2.794-.66,4.951-2.662,4.951-5.831,0-3.014-1.629-5.258-4.555-5.764a47.418,47.418,0,0,1-1.3,5.919c-1.3,4.4-3.191,7.085-5.567,7.085-2.4,0-4.445-2.662-4.445-6.337,0-5.017,4.379-9.329,10.034-9.329,5.39,0,8.8,3.762,8.8,8.515,0,4.576-2.817,7.833-8.317,8.669Zm-1.7-6.6a34.951,34.951,0,0,0,1.166-5.28,6.831,6.831,0,0,0-5.522,6.315c0,2.2.88,3.278,1.694,3.278C1327.909,6370.211,1328.789,6368.847,1329.669,6365.9Z" fill="#167640"/>
        <path id="パス_5214-2" data-name="パス 5214" d="M1356.466,6370.695c1.562,1.761,4.026,2.773,7.5,3.147a10.188,10.188,0,0,0-1.54,2.288c-4.181-.66-6.8-2.222-8.537-4.951-1.3,1.959-3.741,3.7-8.23,4.907a10.679,10.679,0,0,0-1.628-2.112c3.7-.836,5.809-1.981,7.019-3.279h-6.623v-2.266h7.9a10.092,10.092,0,0,0,.22-1.386h-5.632v-2.112h5.654v-1.321h-6.007v-1.452h-1.958v-4.687h8.031v-1.914h2.685v1.914h8.053v4.687h-1.76v1.452h-6.425v1.321h5.985v2.112h-6.007a7.466,7.466,0,0,1-.176,1.386h8.691v2.266Zm-3.895-9.2v-1.254h2.619v1.254h5.478v-1.738H1347.2v1.738Z" fill="#167640"/>
        <path id="パス_5215-2" data-name="パス 5215" d="M1368.564,6368.759a20.211,20.211,0,0,1-1.3,5.677,10.963,10.963,0,0,0-1.914-.924,16.053,16.053,0,0,0,1.122-5.1Zm2.553-1.76v9.087h-2.244v-8.911l-3.147.22-.176-2.267,1.584-.087c.33-.4.66-.837.991-1.3a20.293,20.293,0,0,0-2.509-3.08l1.276-1.761c.154.155.33.308.506.463a27.051,27.051,0,0,0,1.585-3.807l2.266.792a49.405,49.405,0,0,1-2.487,4.489,10.946,10.946,0,0,1,.705.858,35.446,35.446,0,0,0,1.98-3.565l2.134.991c-1.21,1.848-2.706,4.026-4.092,5.786l2.046-.132c-.22-.5-.462-.99-.7-1.452l1.87-.748a19.032,19.032,0,0,1,1.893,4.621l-1.959.88a11.986,11.986,0,0,0-.308-1.188Zm2.068,1.232a16.357,16.357,0,0,1,1.122,3.873l-1.936.638a15.441,15.441,0,0,0-1.012-3.961Zm9.55,4.312c1.342.793,2.86,1.717,3.74,2.333l-2.288,1.232a38.1,38.1,0,0,0-3.631-2.574l1.364-.991h-4l1.474.969a19.5,19.5,0,0,1-5.281,2.662c-.4-.462-1.122-1.166-1.606-1.628a17.113,17.113,0,0,0,4.335-2h-1.915v-9.021h10.166v9.021Zm-4.2-14.412h-4.423v-1.584h4.423v-.99h2.618v.99h4.577v1.584h-4.577v.748h4.049v1.518h-4.049v.749h4.995v1.628h-12.586v-1.628h4.973v-.749h-3.9v-1.518h3.9Zm-1.276,7.922h5.347v-.925h-5.347Zm0,2.442h5.347v-.946h-5.347Zm0,2.42h5.347v-.924h-5.347Z" fill="#167640"/>
      </g>
    </g>
  </g>
</svg>
