<svg xmlns="http://www.w3.org/2000/svg" viewBox="0 0 29.45 29.45"><defs><style>.cls-1{fill:#389e40;}.cls-2{fill:none;stroke:#389e40;stroke-miterlimit:10;stroke-width:1.1px;}</style></defs><g id="レイヤー_2" data-name="レイヤー 2"><g id="text"><path class="cls-1" d="M14.35,8.52a6.15,6.15,0,0,1,5.06,10l1.4,1.23-1.3,1.39-1.37-1.32A6.33,6.33,0,0,1,14.35,21,6.27,6.27,0,0,1,8,14.69,6.18,6.18,0,0,1,14.35,8.52Zm0,10.48a4.1,4.1,0,0,0,2.16-.63l-1.38-1.28,1.3-1.38L17.77,17a4.45,4.45,0,0,0,.68-2.34,4.09,4.09,0,1,0-8.17,0A4.13,4.13,0,0,0,14.35,19Z"/><rect class="cls-2" x="0.55" y="0.55" width="28.35" height="28.35" rx="2.83"/></g></g></svg>