<svg xmlns="http://www.w3.org/2000/svg" xmlns:xlink="http://www.w3.org/1999/xlink" viewBox="0 0 848 512.9"><defs><style>.cls-1{fill:#ffe238;}.cls-2{fill:#fff;}.cls-3{fill:url(#名称未設定グラデーション_6);}.cls-4{fill:#167640;}.cls-5{fill:none;stroke:#fff;stroke-miterlimit:10;}</style><linearGradient id="名称未設定グラデーション_6" x1="38.48" y1="351.32" x2="840.69" y2="351.32" gradientUnits="userSpaceOnUse"><stop offset="0" stop-color="#ffe038"/><stop offset="0.89" stop-color="#fff"/></linearGradient></defs><g id="レイヤー_2" data-name="レイヤー 2"><g id="text"><rect class="cls-1" x="370.33" width="161.65" height="62.25" rx="31.12"/><rect class="cls-1" x="540.69" width="255.97" height="62.25" rx="31.12"/><path class="cls-1" d="M7.12,230.89a22.21,22.21,0,0,1,4.29,3.35l-1.89,2.19a17.55,17.55,0,0,0-4.26-3.55Zm4.37,9.27a52.3,52.3,0,0,1-2.3,6.12l-1,2.19-2.52-2.11a2.79,2.79,0,0,0,.52-.72,31.24,31.24,0,0,0,2.94-7.31Zm-3.13-16a24.26,24.26,0,0,1,4.07,3.46l-2,2.13a18.56,18.56,0,0,0-4-3.65ZM26,226.32a25.37,25.37,0,0,0,3.79-.16V229a29.08,29.08,0,0,0-3.49-.12h-10c-.47.81-.69,1.14-1.19,1.89H25.41c1.27,0,2.08,0,2.8-.08a13.1,13.1,0,0,0-.14,1.49c0,.72-.06,1.25-.08,2.8a10.41,10.41,0,0,1-.06,1.11,12.54,12.54,0,0,0,2.35-.14v2.82a15.17,15.17,0,0,0-2.21-.14h-.28c-.05,1.05-.16,2.52-.25,3.3a9,9,0,0,0,2-.14v2.79a14.59,14.59,0,0,0-2-.11h-.31c-.53,3.27-1.16,3.9-4,3.9-.44,0-.74,0-2.38-.13a6.17,6.17,0,0,0-.58-2.72,17.11,17.11,0,0,0,2.71.25c1,0,1.11-.14,1.42-1.3h-9c-.19.86-.25,1.11-.5,2.08l-3-.28a45.28,45.28,0,0,0,1.74-7.64h-.38a12.15,12.15,0,0,0-2.08.14V236a15,15,0,0,0,2.49.14H14a39.53,39.53,0,0,0,.27-4.16,18.55,18.55,0,0,1-1.6,1.75,7.32,7.32,0,0,0-2-2.16,15.17,15.17,0,0,0,3.4-4,12.33,12.33,0,0,0,1.5-3.8l3,.56a4.63,4.63,0,0,1-.28.66c-.25.61-.27.67-.61,1.41ZM19,241.94c.2-1.31.25-1.64.42-3.3h-3c-.2,1.41-.25,1.77-.5,3.3Zm.67-5.84c.05-.95.05-.95.13-2.89H16.89c-.09,1.42-.11,1.83-.23,2.89Zm5.2,5.84c.11-1.06.22-2.05.3-3.3H21.92c-.11,1.11-.25,2.19-.38,3.3Zm.42-5.84c.05-1.83.05-1.83.08-2.89h-3c-.06,1-.11,1.94-.19,2.89Z"/><path class="cls-1" d="M41.35,233.52a20.38,20.38,0,0,1,2.91,2.71A28.09,28.09,0,0,0,46,229.92H42.07A26,26,0,0,1,37,238.11a7.6,7.6,0,0,0-1.77-2.54,21.3,21.3,0,0,0,4.87-8.25,20.36,20.36,0,0,0,.75-3.46l3.07.53a16,16,0,0,0-.5,1.52c-.16.61-.22.86-.41,1.49h3.82c1,0,1.55,0,2.16-.08a14.4,14.4,0,0,0-.25,1.8,12.81,12.81,0,0,0,2.6,3.85V227.1a19.54,19.54,0,0,0-.17-3.07h3.24a19.9,19.9,0,0,0-.16,3.07v8.61a24.8,24.8,0,0,0,2.54,1.63,16.46,16.46,0,0,0,3.57,1.77A14.11,14.11,0,0,0,58.79,242a29,29,0,0,1-4.56-2.83V245a21.81,21.81,0,0,0,.19,3.52H51.13a28,28,0,0,0,.19-3.52v-8.19a19.66,19.66,0,0,1-3.21-3.85,25.31,25.31,0,0,1-3.54,8.86,27,27,0,0,1-6.65,6.64A8.25,8.25,0,0,0,35.79,246,15.7,15.7,0,0,0,39,243.65a18.51,18.51,0,0,0,4-4.84,19.37,19.37,0,0,0-3.24-3.13Z"/><path class="cls-1" d="M67,237.81c0-.89,0-1.36.06-2.93a14.28,14.28,0,0,1-2,2.68,17,17,0,0,0-1.3-3.21,19,19,0,0,0,4.48-7,16.39,16.39,0,0,0,1-3.63l3,1c-.14.39-.14.39-.39,1.19a29.74,29.74,0,0,1-2,5v14.58a27.81,27.81,0,0,0,.14,3.08H66.88a24,24,0,0,0,.16-3.13Zm11.29-4.12H75.48c-1.16,0-2,0-2.68.08a22.87,22.87,0,0,0,.11-2.55v-3.85a21.51,21.51,0,0,0-.11-2.43,19.66,19.66,0,0,0,2.93.14h8.5a20.86,20.86,0,0,0,2.93-.14,23.26,23.26,0,0,0-.11,2.6v3.71a22,22,0,0,0,.11,2.52,5.27,5.27,0,0,0-.77,0c-.11,0-.3,0-.58,0-.47,0-.89,0-1.27,0H81.16v2.21h4.65a22,22,0,0,0,2.88-.17v3a26.15,26.15,0,0,0-2.8-.16H82.32a18.88,18.88,0,0,0,7.09,5.59A15.51,15.51,0,0,0,87.64,247a28.25,28.25,0,0,1-3.38-2.49,15.81,15.81,0,0,1-3.16-3.77c0,.95.06,2,.06,2.83V246a17.55,17.55,0,0,0,.16,2.44H78.2c.08-.86.13-1.58.13-2.47v-2.49c0-.33,0-1.27.06-2.82A14.38,14.38,0,0,1,75,244.81a21.09,21.09,0,0,1-3.16,2.38,9.34,9.34,0,0,0-1.8-2.65,20.64,20.64,0,0,0,4.57-3.19,17.31,17.31,0,0,0,2.55-2.79H73.93a27.71,27.71,0,0,0-2.87.14v-2.94a25.8,25.8,0,0,0,2.87.14h4.4Zm-2.65-2.61H84.2v-3.4H75.68Z"/><path class="cls-1" d="M107.09,232.3a18.14,18.14,0,0,0-2.13.09v-1.28a17.24,17.24,0,0,1-2.46,1.44,5.3,5.3,0,0,0-1-1.63c-.55,1.35-.58,1.44-1,2.43a8.15,8.15,0,0,1,1.44,2.5,10.92,10.92,0,0,1,.52,3.37c0,2-.52,2.94-1.85,3.38a6.88,6.88,0,0,1-2.35.25,6,6,0,0,0-.75-2.77c.66.08.86.11,1.05.11,1,0,1.25-.25,1.25-1.19a10.38,10.38,0,0,0-.28-2.32,5.79,5.79,0,0,0-1.72-3,45,45,0,0,0,2.33-6.34H97.41v18.07a20.48,20.48,0,0,0,.13,3h-3.1a19.93,19.93,0,0,0,.17-3V227.13c0-.83,0-1.61-.11-2.47a18.86,18.86,0,0,0,2,.09h3.65a8.29,8.29,0,0,0,1.8-.12l1.39,1.58c-.14.31-.31.67-.34.78l-.5,1.3c-.33.86-.33.86-.47,1.24a15.69,15.69,0,0,0,3.27-2.16,12.34,12.34,0,0,0,2.88-3.4h2.88c1.66,2.63,4.18,4.46,7.94,5.7a7.89,7.89,0,0,0-1.66,2.72,17.6,17.6,0,0,1-2.43-1.28v1.28a17.64,17.64,0,0,0-2.14-.09h-1.68v1.58h3.51c1.08,0,1.72,0,2.35-.08-.08,1-.08,1.46-.08,2.1v3.38c0,.91,0,.91.08,2.13a21.38,21.38,0,0,0-2.49-.11h-3.18c1.6,2.18,3.82,3.51,7.39,4.45a9.18,9.18,0,0,0-1.63,2.69,15.59,15.59,0,0,1-4.29-2.22,11.49,11.49,0,0,1-3.13-3.26c-1.39,2.68-3.68,4.4-7.53,5.62a8.86,8.86,0,0,0-1.8-2.58c3.65-.69,6.06-2.29,7.2-4.7h-2.27a20.8,20.8,0,0,0-2.41.11c0-.28,0-.28,0-.75,0-.17,0-.72,0-1v-3.9a16.34,16.34,0,0,0-.08-1.89,22.33,22.33,0,0,0,2.27.06h3.38V232.3Zm-1.71,4v2.57h2.85a21.25,21.25,0,0,0,.25-2.57Zm7.78-6.42a17.09,17.09,0,0,1-3.38-3.54,16.78,16.78,0,0,1-3.21,3.54h6.59Zm-2.08,6.42a21.92,21.92,0,0,1-.19,2.57h3.48v-2.57Z"/><path class="cls-1" d="M133.17,241.77c-1.33,2.3-3.16,3.57-5,3.57-2.88,0-4.93-2.82-4.93-6.75a11.19,11.19,0,0,1,6-10.14,13.1,13.1,0,0,1,6.48-1.43c5.78,0,10.07,4.09,10.07,9.57,0,4.85-2.38,8.33-7,10.3a6.62,6.62,0,0,1-2,.61c-.33,0-.47-.11-.83-.64a5.77,5.77,0,0,0-1.74-1.74c5.7-1.47,8.28-4.15,8.28-8.64a6.47,6.47,0,0,0-2.69-5.45,7,7,0,0,0-3.26-1.19C135.77,235.68,134.86,238.86,133.17,241.77Zm-4-9.8a8.62,8.62,0,0,0-2.9,6.56c0,2.13.69,3.38,1.85,3.38,1.38,0,2.8-1.91,3.85-5.21a35.41,35.41,0,0,0,1.41-6.72A7.94,7.94,0,0,0,129.18,232Z"/><path class="cls-1" d="M152.27,230.83a30.87,30.87,0,0,1,4.95,3.11l-1.6,2.43a27.22,27.22,0,0,0-5-3.38Zm5,9a55.5,55.5,0,0,1-3.93,8.22L150.77,246a7.86,7.86,0,0,0,1-1.16,28.87,28.87,0,0,0,3.21-6.67Zm-4-15.72a33.57,33.57,0,0,1,4.7,3.49l-1.74,2.27a27.4,27.4,0,0,0-4.76-3.68Zm11.4,4.32c-2.71.33-3.24.36-5.48.5a7.74,7.74,0,0,0-1.05-2.63c5.87-.14,11.79-1.11,14.31-2.36l2,2.69-1.3.33c-1.28.36-3.74.83-5.57,1.11v3.51h4.62a21,21,0,0,0,3-.16v3a20.25,20.25,0,0,0-2.94-.17H167.6v3.44h4a19.22,19.22,0,0,0,2.13-.09,17.65,17.65,0,0,0-.11,2.38v5.71a25.87,25.87,0,0,0,.13,2.71h-3v-1.3h-8.89v1.3h-2.93c.05-.69.11-1.72.11-2.74v-5.79c0-.85,0-1.63-.08-2.27a19,19,0,0,0,2.07.09h3.68v-3.44H160.6a22.52,22.52,0,0,0-3,.17v-3a21.29,21.29,0,0,0,3,.16h4.12Zm-2.85,16h8.89v-4.1h-8.89Z"/><path class="cls-1" d="M184.54,240.14a17.73,17.73,0,0,1-2.71,8.41,14.48,14.48,0,0,0-2.57-2.1c2.21-3.24,2.71-6.45,2.71-17.83a33.44,33.44,0,0,0-.14-3.74,28.15,28.15,0,0,0,3,.11h14.9a27,27,0,0,0,3.07-.11c-.08.89-.11,1.61-.11,3v17.47c0,2.21-.81,2.79-3.82,2.79-.81,0-2.19,0-3-.11a10.68,10.68,0,0,0-.75-2.79,30.25,30.25,0,0,0,3.32.25c1.11,0,1.33-.11,1.33-.69v-4.65h-6.34v4.37a21.49,21.49,0,0,0,.14,3.15h-3.16a17.55,17.55,0,0,0,.17-3.12v-4.4Zm6.12-6.26h-5.9c0,.72,0,1.3,0,1.66,0,1.22,0,1.49,0,2h5.95Zm0-6.12h-5.81v2.77l0,.75h5.84Zm9.19,3.52v-3.52h-6.34v3.52Zm0,6.23v-3.63h-6.34v3.63Z"/><path class="cls-2" d="M210.54,236.65a9,9,0,0,0-1.31.4,1.26,1.26,0,0,1-.48.13c-.4,0-.77-.75-1.1-2.34a27.86,27.86,0,0,0,3.65-.43c2.21-.33,5-.75,6.49-.94,1.67-.22,3-.44,3.69-.59a1,1,0,0,1,.28,0c.24,0,.33.11.5.57a4.2,4.2,0,0,1,.26,1.2c0,.22-.08.29-.33.29a6.31,6.31,0,0,0-1.09.1,6.62,6.62,0,0,0-5.61,6.12c0,2.16,1.7,3.58,4.57,3.84.26,0,.35.11.35.33a6.11,6.11,0,0,1-.35,1.76.47.47,0,0,1-.48.29,6.21,6.21,0,0,1-1.36-.28c-3.14-.92-4.78-2.91-4.78-5.74a6.64,6.64,0,0,1,1.46-4.17,7.59,7.59,0,0,1,2-1.75C214.49,235.82,211.94,236.3,210.54,236.65Zm9.45.48a6.61,6.61,0,0,1,1.83,2c0,.09-.11.2-.45.5s-.36.29-.51.35l-.13,0c-.08,0-.09,0-.43-.53a8.63,8.63,0,0,0-1.2-1.48.65.65,0,0,1-.09-.15c0-.09.06-.14.08-.14a3.23,3.23,0,0,1,.44-.39,1.61,1.61,0,0,0,.31-.19.08.08,0,0,1,.06,0H220Zm3.16,1.27a1.49,1.49,0,0,1-.54.31c-.07,0-.11,0-.2-.18a9,9,0,0,0-1.42-1.75.37.37,0,0,1-.08-.15c0-.09.11-.2.37-.39a1.53,1.53,0,0,1,.57-.29c.13,0,.35.16.74.55a4.71,4.71,0,0,1,1,1.4C223.63,238,223.5,238.14,223.15,238.4Z"/><path class="cls-2" d="M228.07,237.05l-.75.06-.21,0c-.14,0-.22-.06-.27-.24a9.26,9.26,0,0,1-.24-1.83c.2,0,.73,0,1.4,0,.2,0,1.66-.09,2.31-.15a14.69,14.69,0,0,0,.42-3.27c1.9.26,2.58.48,2.58.83,0,.13,0,.17-.29.59a6.08,6.08,0,0,0-.52,1.57,12.33,12.33,0,0,0,2.07-.5,1.11,1.11,0,0,1,.28,0c.12,0,.16.09.27.63a6.92,6.92,0,0,1,.15,1.05c0,.22-.06.26-.54.37s-1.69.33-2.84.48a33.7,33.7,0,0,1-2,4.91,30.71,30.71,0,0,1-1.51,2.75c-.15.22-.24.29-.37.29a3.8,3.8,0,0,1-1.35-.76c-.29-.2-.37-.29-.37-.42s.08-.24.31-.57a18.35,18.35,0,0,0,1.85-3,20.74,20.74,0,0,0,1.24-2.9C229,237,228.92,237,228.07,237.05Zm6.07,10.63c-2,0-3.37-1.1-3.37-2.75a3.08,3.08,0,0,1,3.32-3,8,8,0,0,1,1.4.13c-.07-.88-.07-1.24-.15-3,0-.35,0-.83-.07-1.42a8.31,8.31,0,0,1,2,.35.29.29,0,0,1,.22.29c0,.1,0,.17,0,.3a4.1,4.1,0,0,0-.12,1.16c0,.68.06,1.85.12,2.75a11,11,0,0,1,2.76,1.61c.41.31.56.48.56.62s-.1.35-.61,1.18c-.22.37-.39.54-.52.54s-.11,0-.63-.48a7.12,7.12,0,0,0-1.51-1.11C237.52,246.65,236.27,247.68,234.14,247.68Zm0-4c-.89,0-1.5.43-1.5,1.07s.56,1,1.39,1a1.32,1.32,0,0,0,1.49-1.48.84.84,0,0,0,0-.29A3.06,3.06,0,0,0,234.11,243.73Zm6.9-5.24c-.22.32-.33.41-.46.41s-.17,0-.3-.17a11.27,11.27,0,0,0-1.79-1.34,7,7,0,0,0-1.25-.65c-.26-.11-.35-.18-.35-.33s.09-.3.37-.72c.44-.65.55-.76.72-.76a9.38,9.38,0,0,1,2.69,1.37c.79.53,1,.75,1,1A4.26,4.26,0,0,1,241,238.49Z"/><path class="cls-2" d="M253.69,238.07a4.19,4.19,0,0,1,4.44,4.28,4.82,4.82,0,0,1-2.41,4.17,7.37,7.37,0,0,1-3.81.94c-2.34,0-3.7-.94-3.7-2.55,0-1.45,1.21-2.49,2.95-2.49a3.63,3.63,0,0,1,3.45,2.42,2.75,2.75,0,0,0,1.33-2.4,2.59,2.59,0,0,0-2.9-2.62,7.83,7.83,0,0,0-5.35,2.51,12.68,12.68,0,0,0-.91,1c-.12.19-.22.26-.33.26a3.88,3.88,0,0,1-1.64-1.62c0-.17.07-.26.48-.56s1-.86,1.81-1.6a54.8,54.8,0,0,0,5-5.48,28.72,28.72,0,0,0-4.43.76l-.21,0c-.14,0-.24-.09-.35-.37a6.2,6.2,0,0,1-.38-2,8.16,8.16,0,0,0,1.25.09c.89,0,2.38-.13,4.32-.35a4.36,4.36,0,0,0,1.42-.33.76.76,0,0,1,.37-.09c.26,0,.52.22,1,1,.35.48.46.72.46.86s-.06.32-.46.57a4.82,4.82,0,0,0-1,.78c-.93.89-.95.89-2.09,2-.81.83-.9.92-1.64,1.66A6.36,6.36,0,0,1,253.69,238.07Zm-1.78,6.38a1.67,1.67,0,0,0-.94-.27c-.57,0-.94.27-.94.72s.57.86,1.46.86a4.14,4.14,0,0,0,1.22-.16A2,2,0,0,0,251.91,244.45Z"/><path class="cls-2" d="M265.85,236.76c.77-.87,1.16-1.09,1.92-1.09s1.18.22,1.93,1a28,28,0,0,0,3.86,3.58,22.65,22.65,0,0,0,3.84,2.42c.42.22.48.28.48.41a5.79,5.79,0,0,1-.89,1.64c-.26.37-.33.44-.48.44a9.67,9.67,0,0,1-2.4-1.49,35.07,35.07,0,0,1-4.76-4.34c-1.2-1.31-1.2-1.31-1.53-1.31s-.39,0-1.22,1c-.59.72-1.12,1.35-2,2.36a7,7,0,0,0-.77,1c-.13.22-.23.3-.36.3s-.53-.24-1-.74a4.32,4.32,0,0,1-.89-1.22A20.8,20.8,0,0,0,265.85,236.76Zm7.75,1a.23.23,0,0,1-.21-.15,8.25,8.25,0,0,0-1.53-1.75c-.09-.09-.11-.13-.11-.18s.22-.34.61-.61c.19-.15.22-.17.33-.17s.56.33,1.13.92.79.87.79,1A2.16,2.16,0,0,1,273.6,237.79Zm2.78-2.29a2,2,0,0,1-1,.87c-.07,0-.14-.06-.22-.18a10.52,10.52,0,0,0-1.53-1.68c-.07-.06-.09-.1-.09-.13s.72-.74.92-.74A5.24,5.24,0,0,1,276.38,235.5Z"/><path class="cls-2" d="M289.91,233.4c0,.17-.07.22-.39.41a1.85,1.85,0,0,0-.46.42c-1.14,1.33-2.79,3.12-4.24,4.59a1.19,1.19,0,0,0-.45.78c0,.2.15.42.5.74,1.09,1,2.86,2.8,4.17,4.3.92,1,1.16,1.36,1.16,1.55s-.31.51-1.07,1.1a1.64,1.64,0,0,1-.68.41c-.16,0-.24-.07-.42-.37a39.08,39.08,0,0,0-4.21-5.09,9.51,9.51,0,0,1-1.26-1.39,2,2,0,0,1-.44-1.23,2.22,2.22,0,0,1,.33-1.13,9.3,9.3,0,0,1,1.33-1.53,32.33,32.33,0,0,0,2.94-3.54,7.32,7.32,0,0,0,1-1.75C289.12,232.46,289.91,233.07,289.91,233.4Z"/><path class="cls-1" d="M299.78,228c-1.08.22-1.44.28-2.77.5a7.18,7.18,0,0,0-1.05-2.46,25.65,25.65,0,0,0,7-1.66,6.71,6.71,0,0,0,1.13-.61l1.64,2.32-.7.28a15.1,15.1,0,0,1-2.46.91v3.57h.83a10.83,10.83,0,0,0,1.83-.11v2.77a11.3,11.3,0,0,0-1.83-.11h-.75a13.25,13.25,0,0,0,3,4.48l-.22.47a13.06,13.06,0,0,0-.94,2.08,15.26,15.26,0,0,1-2.05-3.54c.09.66.17,2.24.17,3.07v5.31a25,25,0,0,0,.14,3.27h-3.07a25.32,25.32,0,0,0,.16-3.27v-4.59c0-.5.11-2.58.17-3.3a17.75,17.75,0,0,1-3.24,6.15,9.74,9.74,0,0,0-1.36-2.8,18.31,18.31,0,0,0,2.52-3.65,21.88,21.88,0,0,0,1.55-3.68h-1.35a10.84,10.84,0,0,0-2.14.14v-2.83a10.84,10.84,0,0,0,2.14.14h1.71Zm13.37,1.27a22.1,22.1,0,0,0,2.16-5.39l2.93.94a34.63,34.63,0,0,1-2.21,4.45h.83a16.56,16.56,0,0,0,2.21-.11,13.09,13.09,0,0,0-.11,1.89v4.87a14.33,14.33,0,0,0,.11,2,19.11,19.11,0,0,0-2.21-.11h-1.19V245c0,.52.11.58,1.13.58s1.14-.11,1.19-3.82a7.61,7.61,0,0,0,2.52,1.19c-.19,2.9-.36,3.73-.83,4.37s-1.33.92-3.82.92c-2.32,0-3-.5-3-2.27v-8.2h-1.66a15.94,15.94,0,0,1-1.24,6,9.47,9.47,0,0,1-4.6,4.87,8.37,8.37,0,0,0-2-2.35c3.43-1.58,5-4.26,5-8.53H308a16.88,16.88,0,0,0-2.1.11c.05-.66.08-1.24.08-2v-4.79c0-.63,0-1.27-.08-1.94a15.6,15.6,0,0,0,2.13.11Zm-4.32-.11a17,17,0,0,0-2.18-4.09l2.6-1.22a23.59,23.59,0,0,1,2.18,4.12Zm-.16,6h7.44v-3.35h-7.44Z"/><path class="cls-1" d="M333.19,233.77a24.59,24.59,0,0,0-2.6.11v-1.27a29,29,0,0,1-4.32,2.21,13.73,13.73,0,0,0-1.55-2.77c5-1.74,8.94-4.59,10.88-7.78h3.27A16.77,16.77,0,0,0,343,228.4a23.27,23.27,0,0,0,7.06,3.54,12.66,12.66,0,0,0-1.44,3,27.52,27.52,0,0,1-4.68-2.38v1.36a22.46,22.46,0,0,0-2.6-.11h-2.68v2.57h6.72a18.75,18.75,0,0,0,2.88-.14v2.94a19.79,19.79,0,0,0-2.91-.17h-6.69v5.95h7.22a24.19,24.19,0,0,0,3.13-.16v3a29.59,29.59,0,0,0-3.21-.16H329a31.31,31.31,0,0,0-3.32.16v-3a27.72,27.72,0,0,0,3.3.16h6.69V239h-6.28a21.66,21.66,0,0,0-2.9.17V236.2a20,20,0,0,0,2.9.14h6.28v-2.57Zm-1.88,5.42a32.48,32.48,0,0,1,2.13,4.43l-2.66,1a18.85,18.85,0,0,0-2.1-4.4Zm1.83-7.91H342a21.23,21.23,0,0,1-4.76-4.46,20.26,20.26,0,0,1-4.68,4.46Zm12.67,9c-.33.61-.33.61-1.3,2.55-.11.19-.19.36-1.11,1.88l-2.49-.94a21.69,21.69,0,0,0,2.11-4.57Z"/><path class="cls-1" d="M364.52,241.77c-1.32,2.3-3.15,3.57-5,3.57-2.88,0-4.93-2.82-4.93-6.75a11.17,11.17,0,0,1,6-10.14A13.06,13.06,0,0,1,367,227c5.79,0,10.08,4.09,10.08,9.57,0,4.85-2.38,8.33-7,10.3a6.5,6.5,0,0,1-2,.61c-.33,0-.47-.11-.83-.64a5.89,5.89,0,0,0-1.74-1.74c5.7-1.47,8.27-4.15,8.27-8.64a6.49,6.49,0,0,0-2.68-5.45,7,7,0,0,0-3.27-1.19C367.13,235.68,366.21,238.86,364.52,241.77Zm-4-9.8a8.59,8.59,0,0,0-2.91,6.56c0,2.13.69,3.38,1.86,3.38,1.38,0,2.79-1.91,3.84-5.21a34.57,34.57,0,0,0,1.42-6.72A7.91,7.91,0,0,0,360.54,232Z"/><path class="cls-1" d="M400.34,229.76c1.58,0,2.08,0,3-.09a24.3,24.3,0,0,0-.11,2.77v8.3a25.74,25.74,0,0,0,.11,3,28.59,28.59,0,0,0-2.87-.11h-1.91a12.87,12.87,0,0,0,1.55.74,23.49,23.49,0,0,0,6.14,1.5,13.78,13.78,0,0,0-1.47,2.68,26,26,0,0,1-5.37-1.52,21.87,21.87,0,0,1-3.71-1.94l1.58-1.46h-6.67l1.5,1.44a20.82,20.82,0,0,1-8.64,3.54,9.67,9.67,0,0,0-1.66-2.63,17.55,17.55,0,0,0,7.36-2.35h-1.35c-1.14,0-1.89,0-2.88.11a27.12,27.12,0,0,0,.11-3v-8.91a20.83,20.83,0,0,1-2,1.33,8.68,8.68,0,0,0-1.41-2.55,18.76,18.76,0,0,0,4.89-3.65,10.7,10.7,0,0,0,2.55-3.49l3.35.59c-.08.11-.39.55-.91,1.32h4.84a17.24,17.24,0,0,0,2.58-.11l1.46,1.33a13.83,13.83,0,0,0-1.44,1.74c-.61.75-.83,1-1.19,1.42Zm-6.06,0a15.5,15.5,0,0,0,1.52-1.94h-6.28c-.67.69-1,1.08-2,1.94Zm-6.48,3.87h12.6v-1.44H387.8Zm0,3.74h12.6v-1.44H387.8Zm0,3.79h12.6v-1.47H387.8Z"/><path class="cls-1" d="M412.66,231.55a14.3,14.3,0,0,0-2.05.14v-2.85a11.8,11.8,0,0,0,2.08.14h1.22v-2.16a18.11,18.11,0,0,0-.14-2.71h3.12a17.81,17.81,0,0,0-.13,2.68V229h1c.61,0,1.05,0,1.61-.08v2.74a14.88,14.88,0,0,0-1.64-.09h-1v4c1.1-.36,1.41-.45,2.57-.89l0,2.6c-1.3.5-1.58.59-2.6,1v7.56c0,1.83-.95,2.52-3.38,2.52-.61,0-1.38,0-2.22-.08a10,10,0,0,0-.6-2.83,24.44,24.44,0,0,0,2.49.17c.72,0,.86-.14.86-.78v-5.59c-1,.34-1,.34-1.86.58a7.14,7.14,0,0,0-1.13.42l-.56-3a18.66,18.66,0,0,0,3.55-.81v-4.9ZM418,244.68c.89.08,1.89.13,3.13.13h10.6a24.29,24.29,0,0,0,3.08-.16v3a25.52,25.52,0,0,0-3.1-.16H421.1a25.08,25.08,0,0,0-3.13.13Zm4.9-2.41c-1,0-1.82,0-2.68.08.05-.58.08-1.36.08-2.49V228c0-1.3,0-2-.08-2.85a20.22,20.22,0,0,0,2.74.11h7.22a21.42,21.42,0,0,0,2.83-.11,30.2,30.2,0,0,0-.11,3.21v10.94a30.1,30.1,0,0,0,.11,3c-.7-.06-1.58-.08-2.69-.08Zm.22-9.77H430v-4.63h-6.9Zm0,7.19H430V235h-6.9Z"/><path class="cls-1" d="M450.33,239.91c-2.74,1.61-3.51,2.41-3.51,3.63a1.14,1.14,0,0,0,.61,1.08,8.6,8.6,0,0,0,3.7.55,42.81,42.81,0,0,0,5-.33,18.77,18.77,0,0,0,2-.44h.14a.47.47,0,0,1,.41.33,8.93,8.93,0,0,1,.28,2.41c0,.41-.14.58-.5.66a50.69,50.69,0,0,1-5.76.31c-3.38,0-5.17-.22-6.5-.78a3.65,3.65,0,0,1-2.41-3.65,5.28,5.28,0,0,1,2.24-4.21,23.45,23.45,0,0,1,4-2.57c-.22-.92-.63-1.3-1.49-1.3a6.68,6.68,0,0,0-3.63,1.3,18.47,18.47,0,0,0-2.32,1.91c-.83.85-.91.91-1.14.91s-.85-.64-1.44-1.61a2.85,2.85,0,0,1-.44-1c0-.25.06-.3.72-.72a17.08,17.08,0,0,0,5.29-5.45c-2,.14-3,.16-4.07.16-.42,0-.5-.08-.64-.55a25.39,25.39,0,0,1-.25-2.57,17.49,17.49,0,0,0,2.83.16c1.08,0,2.27,0,3.51-.08a10.63,10.63,0,0,0,.8-3.88c2.47.42,3.6.83,3.6,1.31a.6.6,0,0,1-.11.33c-.19.36-.41.8-.77,1.66a1,1,0,0,0-.09.19c1.58-.22,3-.5,3.93-.72a4,4,0,0,1,.89-.19.35.35,0,0,1,.39.25,16.64,16.64,0,0,1,.28,2.16c0,.3-.12.44-.48.52a56,56,0,0,1-6.47,1,15.54,15.54,0,0,1-2.27,3.35,7.25,7.25,0,0,1,3.29-.8c1.25,0,2.08.72,2.63,2.27,2.74-1.5,4.21-2.3,4.37-2.41a8.27,8.27,0,0,0,2.41-1.86c1.14,1.17,2.36,2.91,2.36,3.38,0,.17-.12.28-.48.36a57.08,57.08,0,0,0-8.08,3.49c0,.5.09,1.77.09,2.66v1.32c0,.34-.06.5-.2.59a4.23,4.23,0,0,1-1.71.22c-.95,0-1.11-.09-1.11-.53v-.11c.05-.8.08-1.85.08-2.52Z"/><path class="cls-1" d="M467.94,231a20.53,20.53,0,0,1,4.18,3.15l-1.86,2.17A21.27,21.27,0,0,0,466,233Zm3.37,8.78a42.35,42.35,0,0,1-2.57,7.72l-.25.61L466.05,246a5.73,5.73,0,0,0,.64-.92,28,28,0,0,0,1.3-3,26.33,26.33,0,0,0,1.16-4ZM482.44,242c0,.56,0,1,0,1.41a18.41,18.41,0,0,0,1.74-2.43,54.64,54.64,0,0,1-1.41-11.3h-7.36a84.7,84.7,0,0,1-.53,12.41,14.78,14.78,0,0,1-2.16,6.47,10.73,10.73,0,0,0-2.35-1.88,11.71,11.71,0,0,0,1.85-4.82,67.44,67.44,0,0,0,.67-11.32c0-1.11,0-2.07-.08-2.74l-2,2a17.76,17.76,0,0,0-4-3.57l2.05-1.91a20.07,20.07,0,0,1,4,3.46c-.06-.36-.06-.47-.12-.83a22.66,22.66,0,0,0,3,.14h7.06a18.28,18.28,0,0,0-.14-3.1h2.94a14.28,14.28,0,0,0-.2,2.77,1.84,1.84,0,0,0,0,.33h2.88a16.37,16.37,0,0,0-2.46-1.82l1.69-1.56a15.11,15.11,0,0,1,2.76,2L488.83,227a8.71,8.71,0,0,0,1.58-.11v2.82a24.38,24.38,0,0,0-2.82-.11h-2.16a67.12,67.12,0,0,0,.61,7.81,20.47,20.47,0,0,0,1.41-6l2.74,1a13.06,13.06,0,0,0-.47,1.52,29.59,29.59,0,0,1-2.82,7.2,12,12,0,0,0,1.8,3.62s.05.06.05.09a.09.09,0,0,0,.06,0c.22,0,.41-1.75.44-3.66a9.45,9.45,0,0,0,2.16,1.33,14.23,14.23,0,0,1-.58,3.63c-.42,1.19-1.11,1.88-1.94,1.88-1.25,0-2.49-1.44-3.68-4.15a19.15,19.15,0,0,1-4.93,4.73,8.78,8.78,0,0,0-2.07-1.94,19.78,19.78,0,0,0,4-3.07c-.66,0-.88,0-1.36,0h-2.46v1.44h-2.21a14.65,14.65,0,0,0,.11-2.3v-5.31c0-.66,0-1.49-.06-1.83.33,0,.94.06,1.8.06h3c.56,0,1.08,0,1.53-.06a12.89,12.89,0,0,0-.06,1.33Zm-6.53-10.49a8.74,8.74,0,0,0,1.46.09H481a8.72,8.72,0,0,0,1.5-.09V234c-.39,0-.78-.06-1.47-.06h-3.68c-.64,0-1,0-1.44.06Zm2.49,9.75h1.94v-3.33H478.4Z"/><path class="cls-2" d="M504.24,238.47c2.53,0,4.17,1.5,4.17,3.77s-1.38,3.71-4.15,4.59a14.61,14.61,0,0,1-3.38.61c-.38,0-.48-.09-.73-.63a2.61,2.61,0,0,0-1-1.07c4.63-.36,6.92-1.55,6.92-3.56,0-1.12-.8-1.79-2.12-1.79a6.8,6.8,0,0,0-4.84,2.4,4.24,4.24,0,0,0-.66.85c-.17.28-.28.37-.45.37a3.18,3.18,0,0,1-1.36-.61.62.62,0,0,1-.3-.59,3.33,3.33,0,0,1,.06-.59,3.79,3.79,0,0,1,0-.39c.09-1.18.14-1.68.37-3.34l.16-1.07s.06-.4.15-1.09a4.11,4.11,0,0,0,0-.6,7,7,0,0,1,2.06.53c.15.07.22.17.21.28a.55.55,0,0,1-.1.24,3.17,3.17,0,0,0-.42,1.18,23.59,23.59,0,0,0-.46,2.93A7.83,7.83,0,0,1,504.24,238.47Zm-.33-5.25c.72.42.94.62.94.83a3.83,3.83,0,0,1-.61,1.18c-.29.42-.4.51-.55.51s-.15,0-.37-.2a11.86,11.86,0,0,0-3.6-2c-.28-.11-.33-.14-.33-.29a2.21,2.21,0,0,1,.48-1c.29-.44.42-.55.63-.55A12.68,12.68,0,0,1,503.91,233.22Z"/><path class="cls-2" d="M516.48,232.4c.46.13.59.22.59.43a1.17,1.17,0,0,1-.11.44,10.41,10.41,0,0,0-.43,2.77c-.15,3-.22,5.28-.22,7.1a4.75,4.75,0,0,0,.15,1.33c.2.61.85.92,1.88.92a6.75,6.75,0,0,0,4.67-2,10.68,10.68,0,0,0,1.75-2.14,6.21,6.21,0,0,0,.67,1.81,1.22,1.22,0,0,1,.09.43c0,.33-.35.77-1.27,1.6a8.9,8.9,0,0,1-6,2.49,4.23,4.23,0,0,1-3.1-1c-.7-.74-1-1.7-1-3.53,0-1.44,0-2.54.16-6.84,0-.65,0-1,0-1.2a17.7,17.7,0,0,0-.13-2.83A11.46,11.46,0,0,1,516.48,232.4Z"/><path class="cls-2" d="M529.3,243.2c.33-.3.43-.37.56-.37a7.93,7.93,0,0,1,2.15,1.59,8.75,8.75,0,0,1,2,2.34c0,.17,0,.2-.57.68-.7.65-.85.76-1,.76s-.22-.07-.31-.26a11.9,11.9,0,0,0-3.44-3.5c-.14-.12-.22-.19-.22-.3S528.49,244,529.3,243.2Z"/><path class="cls-2" d="M543.71,246.11a9.89,9.89,0,0,0,.11,1.81h-2.14a11.44,11.44,0,0,0,.11-1.84v-4.45a13.61,13.61,0,0,1-2,1.51,7,7,0,0,0-.9-1.84,12.74,12.74,0,0,0,3-2.4,10.48,10.48,0,0,0,1.92-2.73H541a12.21,12.21,0,0,0-1.48.07v-2a11.72,11.72,0,0,0,1.39.07h.9v-1.48a7.06,7.06,0,0,0-.11-1.34h2.12a7.59,7.59,0,0,0-.09,1.36v1.46h.74a7.57,7.57,0,0,0,1-.05l.85.92a7.47,7.47,0,0,0-.38.75,14.15,14.15,0,0,1-1.78,3,10,10,0,0,0,2.81,2.23,8.72,8.72,0,0,0-1,1.76,9.76,9.76,0,0,1-2.31-2Zm7.53-.84h2.12a17.44,17.44,0,0,0,2-.1v2.12a18.28,18.28,0,0,0-2-.11h-6.05a17.16,17.16,0,0,0-2,.11v-2.12a18.1,18.1,0,0,0,2,.1h1.94v-6.92h-1.33a16.47,16.47,0,0,0-1.74.09v-2a12.18,12.18,0,0,0,1.74.09h1.33V233.4a15.72,15.72,0,0,0-.11-1.85h2.19a12.11,12.11,0,0,0-.11,1.85v3.12h1.87a11.57,11.57,0,0,0,1.75-.09v2a16.38,16.38,0,0,0-1.75-.09h-1.87Z"/><path class="cls-2" d="M573.2,242c-.16.12-.26.22-1,.88a12,12,0,0,1-1.68,1.24,15.84,15.84,0,0,0,4.63,1.57,8.48,8.48,0,0,0-.94,2,15.43,15.43,0,0,1-6.37-3.09,9.23,9.23,0,0,1-2.69-3.5h-1.55v4a29.37,29.37,0,0,0,3.54-1l0,1.77a48.2,48.2,0,0,1-6.94,1.7c-.43.09-.48.09-.81.17l-.37-2a14.22,14.22,0,0,0,2.53-.31v-4.41h-1a14.11,14.11,0,0,0-1.81.09v-1.88a13.67,13.67,0,0,0,1.84.09h.93v-5.57a12,12,0,0,0-.08-1.75c.56.05,1,.07,1.94.07h7.92a15,15,0,0,0,2.06-.09V234a20.37,20.37,0,0,0-2-.07h-7.75v.87h7.5a11.26,11.26,0,0,0,1.62-.08v1.59c-.37,0-1.16-.08-1.62-.08h-7.5v.87h7.5a15,15,0,0,0,1.62-.07v1.6a14.6,14.6,0,0,0-1.62-.07h-7.5v.92h9.43a13.55,13.55,0,0,0,1.76-.09v1.88a14.22,14.22,0,0,0-1.61-.09h-1.66Zm-6.07-.87a5.68,5.68,0,0,0,1.85,2,12.58,12.58,0,0,0,2.38-2Z"/><path class="cls-1" d="M584,245.45a27.74,27.74,0,0,0,.14,3.07H581a22,22,0,0,0,.16-3.1v-7.91c0-.95,0-1.17.06-3a14.38,14.38,0,0,1-1.91,2.77,13.49,13.49,0,0,0-1.22-3.16,19.22,19.22,0,0,0,4-6.83,16,16,0,0,0,1-3.71l2.91,1c-.2.52-.25.72-.5,1.43a33.71,33.71,0,0,1-1.56,4ZM586,228c0-1.36,0-2.13-.11-3,1,.08,1.66.11,2.9.11h10.44a29.66,29.66,0,0,0,3.18-.11,31.48,31.48,0,0,0-.11,3.29v16.55a27.05,27.05,0,0,0,.14,3.49h-2.8v-1.17h-11v1.17h-2.79a20.11,20.11,0,0,0,.17-3.27Zm2.62,16.58h11V227.71h-11Zm7.42-9.22a18.94,18.94,0,0,0,2-.08,13.13,13.13,0,0,0-.06,1.83v4.07a8.47,8.47,0,0,0,.09,1.85c-.64-.06-1.39-.08-2-.08h-4a18.26,18.26,0,0,0-1.93.08,15.32,15.32,0,0,0,0-1.8v-4.15a15.23,15.23,0,0,0,0-1.8,16.86,16.86,0,0,0,1.93.08h.67V233h-1.88a10.18,10.18,0,0,0-1.61.11v-2.68a9.31,9.31,0,0,0,1.61.11h1.88V230a10.56,10.56,0,0,0-.11-1.78h2.79a10.25,10.25,0,0,0-.11,1.78v.58h1.94a10.08,10.08,0,0,0,1.72-.11v2.65a15,15,0,0,0-1.67-.08h-2v2.35Zm-3.46,5.27h3v-2.91h-3Z"/><path class="cls-1" d="M622,224.33a21.46,21.46,0,0,0-.17,2.74,19.14,19.14,0,0,0,2.61,10.49,17.87,17.87,0,0,0,4.18,5,18.86,18.86,0,0,0,4.09,2.85,10,10,0,0,0-2.05,3,26.57,26.57,0,0,1-6.75-6.25,20.93,20.93,0,0,1-3.52-7.28,18.9,18.9,0,0,1-2.1,5.37,18.65,18.65,0,0,1-4.07,5.09,23.49,23.49,0,0,1-4.12,3.07,7.81,7.81,0,0,0-2.08-2.74,17.49,17.49,0,0,0,5.81-4.46c3.44-3.93,4.88-8.27,4.88-14.64a13,13,0,0,0-.14-2.24Z"/><path class="cls-1" d="M647.56,241.77c-1.33,2.3-3.16,3.57-5,3.57-2.88,0-4.93-2.82-4.93-6.75a11.19,11.19,0,0,1,6-10.14,13.1,13.1,0,0,1,6.48-1.43c5.78,0,10.07,4.09,10.07,9.57,0,4.85-2.38,8.33-7,10.3a6.62,6.62,0,0,1-2,.61c-.33,0-.47-.11-.83-.64a5.77,5.77,0,0,0-1.74-1.74c5.7-1.47,8.28-4.15,8.28-8.64A6.47,6.47,0,0,0,654.2,231a7,7,0,0,0-3.26-1.19C650.16,235.68,649.25,238.86,647.56,241.77Zm-4-9.8a8.62,8.62,0,0,0-2.9,6.56c0,2.13.69,3.38,1.85,3.38,1.38,0,2.8-1.91,3.85-5.21a35.41,35.41,0,0,0,1.41-6.72A7.94,7.94,0,0,0,643.57,232Z"/><path class="cls-1" d="M668.82,235.1a25.78,25.78,0,0,0-3.21.16v-3a21.15,21.15,0,0,0,3.21.17h6v-2.66h-4a29.71,29.71,0,0,0-3,.11V227a20.64,20.64,0,0,0,3.1.17h4v-.78a11,11,0,0,0-.16-2.35h3.29a11.29,11.29,0,0,0-.16,2.41v.72h2.29A20.84,20.84,0,0,0,683,227V229a17.33,17.33,0,0,0,2.68-3.74L688.5,227c-.28.3-.28.3-1.11,1.27a44.58,44.58,0,0,1-3.93,4.21h2.85a19.93,19.93,0,0,0,3-.17v3a25.72,25.72,0,0,0-3.15-.16h-5.81a54.09,54.09,0,0,1-5.65,3.84v1.2l1.08-.25a36.08,36.08,0,0,0,8.61-3.21l2.24,2.46a2.94,2.94,0,0,0-.53.19l-.88.36c-.83.33-3.38,1.22-4.71,1.61a56.1,56.1,0,0,1-5.81,1.49v1.52c0,.89.5,1,4.9,1,3.15,0,4.23-.14,4.65-.55s.5-1.22.55-3.52a10,10,0,0,0,2.94,1.08c-.28,3.35-.58,4.37-1.55,5s-2.55.72-7.7.72c-5.87,0-6.75-.39-6.75-2.91v-4.59c-1.91,1-2.94,1.41-5,2.27a9.34,9.34,0,0,0-1.75-2.63,45.22,45.22,0,0,0,10.74-5.12Zm10.54-2.66a32.55,32.55,0,0,0,2.88-2.63c-.44,0-1,0-2,0h-2.52v2.66Z"/><path class="cls-1" d="M697.35,240.58V239c0-.05,0-.58,0-1.69a12.83,12.83,0,0,1-2,1.94,10.2,10.2,0,0,0-1.25-2.82,18.7,18.7,0,0,0,6-6.89l2.38,1.55c-.22.3-.45.66-.72,1.08a2.83,2.83,0,0,1-.31.44l-.44.66c-.05.06-.25.33-.61.83-.05.09-.16.22-.3.42v10.77a28,28,0,0,0,.11,3.12h-3.1a19.79,19.79,0,0,0,.16-2.93Zm5-15.28c-.53.69-1.11,1.38-1.66,2.07a22.57,22.57,0,0,1-4.62,3.91,9.71,9.71,0,0,0-1.5-2.47,12.68,12.68,0,0,0,5.43-5.2Zm8.5-.36c-.23.28-.23.28-.7.91a39.57,39.57,0,0,1-2.82,3.38c.8.69,1,.91,1.61,1.47a27.46,27.46,0,0,0,4-5l2.71,1.47a13.42,13.42,0,0,0-1,1.13,68.34,68.34,0,0,1-5.21,5.45c1.88-.08,1.88-.08,5-.33-.47-.66-.66-.91-1.38-1.83l2.18-1.35a47.57,47.57,0,0,1,4.1,5.84L717,237.59c-.58-1.08-.72-1.39-1.13-2.11-3.41.39-4.07.45-6.2.61a13.27,13.27,0,0,1-.81,1.42h4.1a17.79,17.79,0,0,0,2.13-.12l1.66,1.53c-.19.25-.25.3-.44.58a24,24,0,0,1-3.9,4.1,24.12,24.12,0,0,0,7.08,1.91,14,14,0,0,0-1.3,2.87,24.51,24.51,0,0,1-8.28-3,23,23,0,0,1-8.05,3.13,8.8,8.8,0,0,0-1.33-2.57,20.71,20.71,0,0,0,7-2.3,18.12,18.12,0,0,1-2.21-2.24,16.24,16.24,0,0,1-3.13,2.1,9.85,9.85,0,0,0-1.77-2.3,12.86,12.86,0,0,0,6-4.9,43.74,43.74,0,0,0-4.76.37l-.33-2.88a9.56,9.56,0,0,0,1.63.11l2.72-.06c.8-.72,1.21-1.13,1.3-1.19a33.69,33.69,0,0,0-4.9-3.93l1.88-2.08c.72.53.88.67,1.38,1a16.22,16.22,0,0,0,2.8-4Zm-3.44,14.81a10.62,10.62,0,0,0,2.49,2.38,12.75,12.75,0,0,0,2.63-2.38Z"/><path class="cls-1" d="M734.64,228a18.78,18.78,0,0,1-2.52,2.24,6.84,6.84,0,0,0-1.8-1.77,10.88,10.88,0,0,0,4.26-4.76l2.8.5a6.11,6.11,0,0,0-.47.75,7.65,7.65,0,0,1-.58.85h7.8a12.74,12.74,0,0,0,2.22-.11l1.57,1.25a7.85,7.85,0,0,0-.47.66,15.59,15.59,0,0,1-2.46,3,12.18,12.18,0,0,0-2.46-1A7,7,0,0,0,744.3,228h-4.1c.83,2.63,3.6,4.07,8.39,4.32a8.77,8.77,0,0,0-1.08,2.6c-1.11-.19-1.52-.28-2.44-.5,0,.78,0,1.5,0,2.27v4.93a14,14,0,0,0,.11,2.82c-.58,0-1.69-.08-2.83-.08h-1.24a20.14,20.14,0,0,0,7.36,1.77,13.65,13.65,0,0,0-1.66,2.44,20.86,20.86,0,0,1-8.66-3.05l1.55-1.16H732.4l1.63,1.16a20.89,20.89,0,0,1-8.42,3.05,10.55,10.55,0,0,0-1.63-2.36c3.52-.41,5.29-.88,7.09-1.85H730c-1.25,0-2.19,0-2.83.08a26.51,26.51,0,0,0,.12-2.65v-5.26a21.71,21.71,0,0,0-.12-2.71c.53,0,1.53,0,2.72,0h1.38a7.19,7.19,0,0,0-1.11-1.72c-1.41.67-1.8.84-3.84,1.67a10.71,10.71,0,0,0-1.14.52l-1-2.74a26.59,26.59,0,0,0,6.5-2.38l.81,2.33-.94.47a14.53,14.53,0,0,0,4-1,4.29,4.29,0,0,0,2.82-3.05Zm-5.65.86a17.16,17.16,0,0,0-4.21-2.6l1.72-2a24.16,24.16,0,0,1,4.32,2.43Zm1,7.94h12.24v-1H730Zm0,2.77h12.24v-1.05H730Zm0,2.72h12.24v-1H730Zm12.4-8.42h.92a8,8,0,0,1-4.54-3.52,6.16,6.16,0,0,1-2.47,2.41,9.1,9.1,0,0,1-3,1.11Z"/><path class="cls-1" d="M761.38,233.77a24.34,24.34,0,0,0-2.6.11v-1.27a30,30,0,0,1-4.32,2.21,13.73,13.73,0,0,0-1.55-2.77c5-1.74,8.94-4.59,10.87-7.78h3.27a17,17,0,0,0,4.1,4.13,23.15,23.15,0,0,0,7.06,3.54,11.92,11.92,0,0,0-1.44,3,27.52,27.52,0,0,1-4.68-2.38v1.36a22.57,22.57,0,0,0-2.6-.11H766.8v2.57h6.73a18.75,18.75,0,0,0,2.88-.14v2.94a19.79,19.79,0,0,0-2.91-.17h-6.7v5.95H774a24,24,0,0,0,3.12-.16v3a29.34,29.34,0,0,0-3.21-.16H757.17a31.17,31.17,0,0,0-3.32.16v-3a27.65,27.65,0,0,0,3.29.16h6.7V239h-6.28a21.71,21.71,0,0,0-2.91.17V236.2a20.12,20.12,0,0,0,2.91.14h6.28v-2.57Zm-1.89,5.42a31.37,31.37,0,0,1,2.14,4.43l-2.66,1a19.25,19.25,0,0,0-2.1-4.4Zm1.83-7.91h8.89a20.81,20.81,0,0,1-4.76-4.46,20.26,20.26,0,0,1-4.68,4.46Zm12.68,9c-.33.61-.33.61-1.3,2.55-.11.19-.2.36-1.11,1.88l-2.49-.94a21.7,21.7,0,0,0,2.1-4.57Z"/><path class="cls-2" d="M786.19,237.42a7.92,7.92,0,0,1-3-1.12c-.34-.22-.41-.32-.41-.48a5.15,5.15,0,0,1,.67-1.61,9.07,9.07,0,0,0,3.08,1.22,17.91,17.91,0,0,0,.38-3.56,7.5,7.5,0,0,1,2.24.7c.2.11.27.22.26.37a.9.9,0,0,1-.13.33,8.1,8.1,0,0,0-.69,2.44c.19,0,.43,0,.58,0h.12c.45,0,.78,0,1,0h0c.17,0,.22.07.22.31a5.87,5.87,0,0,1-.13,1.61c0,.09-.29.12-1.07.12l-1.14,0c-.39,1.9-.39,1.9-.55,2.89a8.49,8.49,0,0,0,1.07.06l1,0c.18,0,.28,0,.33.13a4.36,4.36,0,0,1,.13,1.37c0,.33,0,.42-.13.48a7.45,7.45,0,0,1-1.2.05c-.33,0-.83,0-1.47-.05,0,.33,0,.55,0,.7,0,1.69.79,2.47,2.53,2.47,1.93,0,3.1-.94,3.1-2.53a3.43,3.43,0,0,0-.43-1.66,5.11,5.11,0,0,0-1.6-1.81h.16a9.85,9.85,0,0,0,1.48-.2,2.36,2.36,0,0,1,.5-.07c.27,0,.46.13.83.59a5.05,5.05,0,0,1,1.27,3.26c0,2.6-2.1,4.32-5.3,4.32-3,0-4.48-1.49-4.48-4.52a5.5,5.5,0,0,1,0-.78c-1.83-.38-2.83-1.29-2.83-2.6a2.23,2.23,0,0,1,.72-1.7.25.25,0,0,1,.21-.09c.11,0,.24.09.66.45s.39.33.39.42,0,.07-.11.24a1,1,0,0,0-.15.44.65.65,0,0,0,.42.58,3.58,3.58,0,0,0,.93.27Z"/><path class="cls-2" d="M813.22,238.31a14.86,14.86,0,0,0,1.94-.11v2a13.56,13.56,0,0,0-1.94-.11h-2v5.75c0,.93-.28,1.5-.87,1.72a6.09,6.09,0,0,1-2,.22c-.43,0-1.07,0-1.76-.05a7.18,7.18,0,0,0-.64-2,15.8,15.8,0,0,0,2.41.2c.7,0,.87-.09.87-.44v-5.44h-8a13.65,13.65,0,0,0-1.94.11v-2a15.31,15.31,0,0,0,1.94.11h8v-.59a16.48,16.48,0,0,0-.09-1.83h2.16a10.9,10.9,0,0,0-.09,1.83v.59ZM806,232.7a5.82,5.82,0,0,0-.09-1.13h2.18a4.93,4.93,0,0,0-.09,1.13v.59h4.89c.85,0,1.38,0,2-.07a9,9,0,0,0-.07,1.3V236a11.38,11.38,0,0,0,.07,1.37h-1.92v-2.25H801.47v2.25h-1.94a10.73,10.73,0,0,0,.07-1.37v-1.44a9.49,9.49,0,0,0-.07-1.3c.57.05,1.11.07,2,.07H806Zm-1.2,12.81a14.58,14.58,0,0,0-3-3.79l1.62-1.14a18,18,0,0,1,3.1,3.58Z"/><path class="cls-2" d="M827.52,238.07a4.2,4.2,0,0,1,4.45,4.28,4.83,4.83,0,0,1-2.42,4.17,7.31,7.31,0,0,1-3.8.94c-2.34,0-3.71-.94-3.71-2.55,0-1.45,1.22-2.49,3-2.49a3.63,3.63,0,0,1,3.45,2.42,2.72,2.72,0,0,0,1.33-2.4,2.58,2.58,0,0,0-2.89-2.62,7.87,7.87,0,0,0-5.36,2.51,12.73,12.73,0,0,0-.9,1c-.13.19-.22.26-.33.26a3.88,3.88,0,0,1-1.64-1.62c0-.17.07-.26.48-.56s1-.86,1.8-1.6a54.8,54.8,0,0,0,5-5.48,28.72,28.72,0,0,0-4.43.76l-.2,0c-.15,0-.24-.09-.35-.37a6.47,6.47,0,0,1-.39-2,8.37,8.37,0,0,0,1.26.09c.88,0,2.38-.13,4.31-.35a4.36,4.36,0,0,0,1.43-.33.7.7,0,0,1,.36-.09c.26,0,.52.22,1,1,.35.48.46.72.46.86s0,.32-.46.57a5.47,5.47,0,0,0-1,.78c-.92.89-.94.89-2.08,2L824.27,239A6.36,6.36,0,0,1,827.52,238.07Zm-1.77,6.38a1.69,1.69,0,0,0-.94-.27c-.57,0-.94.27-.94.72s.57.86,1.46.86a4.12,4.12,0,0,0,1.21-.16A2,2,0,0,0,825.75,244.45Z"/><path class="cls-3" d="M79.82,355.93H55.19a83.26,83.26,0,0,0-9.54.43v-9.11a72.77,72.77,0,0,0,9.76.43H79.82v-4h-22c-3.69,0-6.3.11-8.79.32a69.15,69.15,0,0,0,.32-7.05v-6.83c0-2.93-.1-4.56-.32-7.27,2.93.21,5,.32,8.9.32H79.82v-3.9H51.29a98.34,98.34,0,0,0-12.15.54V309.49a91.51,91.51,0,0,0,12.8.65H79.82a38,38,0,0,0-.65-7.16H91.65a36.12,36.12,0,0,0-.65,7.16h29.29a92.85,92.85,0,0,0,12.81-.65V319.8c-3.48-.33-7.16-.54-12.16-.54H91v3.9h23.65c4,0,6.08-.11,8.68-.32a67.79,67.79,0,0,0-.32,7.27v6.83a62.1,62.1,0,0,0,.32,7.05c-2.39-.21-4.88-.32-8.25-.32H91v4h23.54c6.08,0,7.81-.1,11.07-.32a66.86,66.86,0,0,0-.33,9.44v3.69a55.07,55.07,0,0,0,9-.55v9.88a58.37,58.37,0,0,0-9-.54v6.07a73.22,73.22,0,0,0,.55,11.18H114.22v-4H91v5.86c0,9.33-2.61,11.29-15.19,11.29-2.61,0-6.4-.11-10.09-.33a28.9,28.9,0,0,0-3.15-10.42,111.86,111.86,0,0,0,13,1c3.47,0,4.23-.43,4.23-2.5v-4.88H55.3A89,89,0,0,0,45,383V373.4a74.33,74.33,0,0,0,10,.43H79.82v-4.55H50a72.45,72.45,0,0,0-11.51.54v-9.88a68,68,0,0,0,11.29.55h30ZM60.4,331.3v4.23H79.82V331.3ZM91,335.53h20.94V331.3H91Zm23.22,25v-4.56H91v4.56ZM91,373.83h23.22v-4.55H91Z"/><path class="cls-3" d="M162.24,345.3a99.25,99.25,0,0,0-10.63.43v-9.87a90.54,90.54,0,0,0,10.63.43h12.69a73,73,0,0,0-3.9-7.81H159.85c-5,0-9.11.22-12.37.54V318.61a85,85,0,0,0,11.83.65h3.36c-1.95-3.58-3.25-5.32-7-9.66L166,305.69a75.26,75.26,0,0,1,8,13.57h5.85V312a54.81,54.81,0,0,0-.54-8.14h11.29a68.06,68.06,0,0,0-.33,7.7v7.71H198v-7.71a50.41,50.41,0,0,0-.43-7.7H209a54,54,0,0,0-.54,8.14v7.27H215a54.15,54.15,0,0,0,7.49-13.78l10.63,3.9a104.62,104.62,0,0,1-6.4,9.88h2.93a82.63,82.63,0,0,0,11.82-.65V329c-3.25-.32-7.37-.54-12.36-.54H218.55a75.51,75.51,0,0,1-3.8,7.81H226.8a93.89,93.89,0,0,0,10.74-.43v9.87a99,99,0,0,0-10.74-.43H199.56v5h21.92a92.62,92.62,0,0,0,10.63-.44V359a91.4,91.4,0,0,0-10.63-.44H199.56v5.21h29.19a86.87,86.87,0,0,0,12.48-.65v10.42a104.07,104.07,0,0,0-12.37-.65H207.92c3.47,3,8.24,5.75,14.1,8.35a94.08,94.08,0,0,0,21.7,6,37.87,37.87,0,0,0-6,10.63c-17.47-4.77-29.3-11.07-38.52-20.72.21,3.69.21,5,.21,7.38v5.2a68.78,68.78,0,0,0,.66,10.53H187.85a75,75,0,0,0,.65-10.64v-5c0-2.38,0-3.25.21-7.16a52.39,52.39,0,0,1-15,11.5,98.82,98.82,0,0,1-21.27,8.79,41.9,41.9,0,0,0-6.29-10.09c15.08-3.14,25.61-7.7,34.07-14.75H160.94a107.34,107.34,0,0,0-12.7.65V363.09a93,93,0,0,0,12.59.65h27.56v-5.21H167.77a91.51,91.51,0,0,0-10.63.44v-9.12a91.51,91.51,0,0,0,10.63.44h20.62v-5Zm40.9-9a49.48,49.48,0,0,0,3.48-7.81H182.85a74.67,74.67,0,0,1,3.15,7.81Z"/><path class="cls-3" d="M286.52,335.1c-.55,1.41-.55,1.41-2.18,9.11-3.25,15.3-5.75,23-10.74,32a88.66,88.66,0,0,1-12.26,16.93,44.83,44.83,0,0,0-7.81-9.55,58.48,58.48,0,0,0,12.91-17.47c3.8-7.6,6.19-15.3,7.92-25.5h-9.87a52.2,52.2,0,0,0-8,.44V330.22a58.91,58.91,0,0,0,8.68.43H275a37.49,37.49,0,0,0,6.84-.54Zm35,12.15a34.58,34.58,0,0,0-6.29-.43h-6.51v6h7.81a37.51,37.51,0,0,0,6.84-.43V362a37.35,37.35,0,0,0-6.84-.44h-7.81v6.51h11.82a41,41,0,0,0,7.17-.43v10a59,59,0,0,0-8.47-.43H308.76v10.85c0,7.92-3.26,10.19-14.76,10.19-3,0-4.23,0-10.85-.21-.76-5.54-1.19-7.27-2.82-11a111.59,111.59,0,0,0,13.13,1.08c3.9,0,4.66-.43,4.66-2.82V377.2H287.93a59,59,0,0,0-8.47.43v-10a46.55,46.55,0,0,0,7.27.43h11.39v-6.51h-6.94a42.24,42.24,0,0,0-7.05.44v-9.66a42.37,42.37,0,0,0,7.05.43h6.94v-6H292.7a39.58,39.58,0,0,0-6.51.43v-9.66a39.52,39.52,0,0,0,6.51.44h5.42v-3.91a73.69,73.69,0,0,0-.32-7.48H301a88.83,88.83,0,0,0,14.64-9.44H283a83.8,83.8,0,0,0-13.23.65V306.78a113.94,113.94,0,0,0,13.23.65H319a64.34,64.34,0,0,0,10.63-.54l6.08,7.16c-1.31,1-2.5,1.84-4.45,3.47a174.67,174.67,0,0,1-22.46,15V338h6.51a45.31,45.31,0,0,0,6-.33c-.55-2.6-1.09-5.31-1.63-8.46l10.31-2.93a104.76,104.76,0,0,0,2.49,15.84,66.34,66.34,0,0,0,11.83-13.56l8,8.24a19.48,19.48,0,0,0-1.52,1.52c-4.13,4.67-10.2,10.85-15,15.19,4.89,13.35,9.12,19.86,18.77,28.86a50.84,50.84,0,0,0-8.78,10.31c-8.68-9.87-12.7-16.27-16.82-26.58a117.27,117.27,0,0,1-6-19.64c-.11-.43-.32-1.63-.76-3.47-.11-.76-.32-1.95-.65-3.47Z"/><path class="cls-3" d="M376.9,362.66c-1.09,17.36-1.63,21.15-4.24,31.57l-9-4c2.6-8.9,3.8-16.82,4.23-29ZM364.2,347c1.95.33,2.82.33,7.6.33,1.84-2.39,3-3.91,4.88-6.4-4.56-7.06-5.86-8.68-12.37-15.95l5.32-9c1.51,1.85,2.06,2.39,3.25,3.8,3.69-6.08,6.84-13.13,7.7-17.36l10.09,4.34a22.69,22.69,0,0,0-2.17,3.8A157.7,157.7,0,0,1,379,327.29a59.24,59.24,0,0,1,3.79,5c5.1-7.71,8.79-14.22,9.88-17.36l9.55,4.77c-1.2,1.63-1.2,1.63-6.19,9.12-3.58,5.53-10.09,14.1-13.56,18.22,4.88-.21,5.75-.32,10.74-.76-.87-2.28-1.52-3.69-3.15-7.27l7.49-3.25a94.36,94.36,0,0,1,6.73,17.47V315.57a56.43,56.43,0,0,0-.55-9.12H415.2a51.91,51.91,0,0,0-.55,9v51.32a56.18,56.18,0,0,0,14.87-20.18h-5.43a65.58,65.58,0,0,0-7.16.32V336.51a67.25,67.25,0,0,0,7.16.32h7.71V313a65.71,65.71,0,0,0-.44-8.46h10.85a67.27,67.27,0,0,0-.43,8.57v23.76h8.79a48.36,48.36,0,0,0,8.89-.54V347a65.14,65.14,0,0,0-8.89-.43h-6.3c5.1,8.35,10.09,13.89,17.47,19.2a44.46,44.46,0,0,0-5.21,10.64,79.69,79.69,0,0,1-15.08-19.64c0,1.52,0,1.52.22,4.77.11.76.11,2.71.11,3.91v7.81a48.08,48.08,0,0,0,.43,7.7H431.47a45.44,45.44,0,0,0,.43-7.59v-7.49c0-2.6,0-3.9.33-8.57-3.15,7.7-6,11.83-12.8,19.21a25,25,0,0,0-4.78-7.06v15.08h35.7a78.65,78.65,0,0,0,10-.54v11.29a88.43,88.43,0,0,0-11.61-.66H414.65v4.89H403.59a86.4,86.4,0,0,0,.65-11.5V357.34L397,360.49a43.46,43.46,0,0,0-1.09-5.1c-2.38.32-2.93.43-6.4.76V389a61.13,61.13,0,0,0,.65,11H379.07a64.79,64.79,0,0,0,.65-11V357c-.22,0-3.26.1-9.23.43a32.79,32.79,0,0,0-5.2.54Zm35.15,14.65c1.42,8.14,1.52,9.44,2.83,25L394,388.37a163.72,163.72,0,0,0-2.5-24.74Zm25-51.43a117.48,117.48,0,0,1,6.62,20.07l-8.25,3.91a96.92,96.92,0,0,0-6.4-20.51Zm34.29,4.12a121.49,121.49,0,0,1-8,20.19l-8-4.13a80.33,80.33,0,0,0,6.94-20.07Z"/><path class="cls-3" d="M492,350.67a21.28,21.28,0,0,0-.35-4.79h7a26,26,0,0,0-.28,4.79v2.17H513a50.67,50.67,0,0,0,6.73-.34v6.27a49.16,49.16,0,0,0-6.67-.34H498.33v7h7.36a22.91,22.91,0,0,0,4.73-.29l3.65,3.71a30.92,30.92,0,0,0-2.62,3.54,49.46,49.46,0,0,1-10.27,11.12c5.7,3.19,11.81,5.13,19.74,6.33a25.86,25.86,0,0,0-3,6.33c-9.53-2.11-15.57-4.5-22.07-8.84A60.29,60.29,0,0,1,473.57,396a25.15,25.15,0,0,0-3-5.88,59.77,59.77,0,0,0,20.3-6.44,39.71,39.71,0,0,1-10.44-12.95,36.41,36.41,0,0,0-5.13.34v-6a49.77,49.77,0,0,0,6.62.35h10v-7H478.08a50.06,50.06,0,0,0-6.62.34V352.5a51.6,51.6,0,0,0,6.68.34H492Zm-4.85,20.08a29,29,0,0,0,9,9.58,32.31,32.31,0,0,0,9-9.58Z"/><path class="cls-3" d="M550,366c-1.76,0-3.48.06-4.84.17V361a27.89,27.89,0,0,0,4.16.23h.28a21.13,21.13,0,0,0-2.9-5.77l4.67-1.54a24.85,24.85,0,0,1,2.74,5.88l-3.19,1.43h7.92a25,25,0,0,0-2.73-6.62l4.73-1.48a27.06,27.06,0,0,1,2.8,6.61l-4,1.49h6.27a32.58,32.58,0,0,0,4.22-9.19l5.53,1.43a69.82,69.82,0,0,1-4.33,7.76h1.25a21.28,21.28,0,0,0,4.28-.29v5.25a45.51,45.51,0,0,0-5.25-.23h-14c-.11,1.14-.23,2-.34,2.91h14.15a41.74,41.74,0,0,0,6.21-.29v5.59a47.89,47.89,0,0,0-6.21-.34H556.2c-.28,1.09-.4,1.48-.68,2.4h11.06a29.05,29.05,0,0,0,4.68-.23l2.91,3.54a17.07,17.07,0,0,0-1.88,2.51,36.6,36.6,0,0,1-5.42,5.76,41.54,41.54,0,0,0,11.63,2.85,44.7,44.7,0,0,0-2.45,5.87c-6.62-1.65-9.75-2.85-13.8-5.3a44.24,44.24,0,0,1-13,5.3,19.81,19.81,0,0,0-2.62-4.56,33,33,0,0,1-4.28,4,15.24,15.24,0,0,0-3-4c-.4,3.19-1.94,4.11-7.24,4.11-.63,0-1.43-.06-3.25-.17a19.22,19.22,0,0,0-1.26-5.59,33,33,0,0,0,4.68.4c1.08,0,1.37-.29,1.37-1.49V376.74c-1.43.46-1.71.57-3,1-.57.17-1.48.46-2.62.86l-1.14-6a33.37,33.37,0,0,0,6.79-1.6V361.4h-2.4a28.94,28.94,0,0,0-3.71.22v-5.81a19.83,19.83,0,0,0,3.77.28h2.34v-4.5a36.18,36.18,0,0,0-.29-5.65h6.33a36.44,36.44,0,0,0-.28,5.59v4.56h1.42a24.94,24.94,0,0,0,2.86-.17v5.65a22.86,22.86,0,0,0-2.86-.17h-1.42v7.75c1.25-.45,1.88-.68,3.59-1.42l.12,5.36c-2,.86-2.57,1.08-3.71,1.54v16c5.25-4,8.9-9.58,11-16.83h-.92a43.41,43.41,0,0,0-5.19.23v-5.42a46.19,46.19,0,0,0,5.31.23h1.77c.17-1.31.22-1.83.34-2.91Zm26.3-15.69a9.13,9.13,0,0,0-1.48.29,208.81,208.81,0,0,1-29.89,3.08,14.33,14.33,0,0,0-1.77-4.74h1.77c10.44,0,23.33-1.54,27.43-3.3Zm-28.86,40.84a37.71,37.71,0,0,0,10-3.3,35.19,35.19,0,0,1-4.8-4.57A42.6,42.6,0,0,1,547.42,391.11Zm9.69-10a39.71,39.71,0,0,0,4.74,3.93,22.27,22.27,0,0,0,4-3.93Z"/><path class="cls-3" d="M606.16,356.5c-11.1.07-18.91.44-20.9,1a.23.23,0,0,1-.19.06c-1.17,0-1.54-2.05-1.73-8.43,3,.43,7,.62,16.18.62,8.31,0,18-.19,19.59-.38a7.76,7.76,0,0,0,2.61-.62,1.48,1.48,0,0,1,.68-.12c1.05,0,2.36,1,4.34,3.35,1.18,1.49,1.43,1.86,1.43,2.54a2.2,2.2,0,0,1-.62,1.36c-.62.75-.69.93-2,5.27a57.39,57.39,0,0,1-19.66,27.9c-3.71,2.86-7.25,5-8.18,5-.68,0-.81-.07-2.23-1.49a17.72,17.72,0,0,0-4.65-3.54c9.11-4.58,14.07-8.37,18.85-14.44A41.82,41.82,0,0,0,618,356.44C613.16,356.5,613.16,356.5,606.16,356.5Zm33.35-11.28a6.64,6.64,0,1,1-6.63-6.63A6.56,6.56,0,0,1,639.51,345.22Zm-9.92,0a3.31,3.31,0,0,0,3.29,3.29,3.35,3.35,0,0,0,3.28-3.29,3.29,3.29,0,1,0-6.57,0Z"/><path class="cls-3" d="M651.76,388.87c0,.68-.18,1.11-.56,1.3a24.68,24.68,0,0,1-5.08.37c-2.11,0-2.29-.12-2.29-1.61,0-.31,0-1,.06-2,.18-3.29.49-23.25.49-31.13,0-1.61,0-4.59-.06-6.38,5.4.31,13.89.49,23.13.49,7.56,0,13.51-.06,17.3-.25-.13,2.55-.19,12.28-.19,20.34,0,4.71.12,10.48.37,18v.87c0,.74-.12,1.12-.49,1.24a19.28,19.28,0,0,1-4.9.43c-2.36,0-2.48-.06-2.48-1.36v-3.16h-25.3Zm25.3-31.93h-25.3V379h25.3Z"/><path class="cls-3" d="M710.13,358.86c-4.28,5.7-11.6,12.52-13.39,12.52-.56,0-.81-.12-2-1.17a30.46,30.46,0,0,0-4.59-3.1,45.84,45.84,0,0,0,20.34-23.5,34.67,34.67,0,0,1,6.7,2.85c.86.5,1.17.87,1.17,1.43a1.34,1.34,0,0,1-.74,1.17,18,18,0,0,0-2.85,3.48l9.24.06c3.34,0,4-.06,5.82-.75a2.78,2.78,0,0,1,.69-.12c1,0,2,.93,3.84,3.22,1.18,1.49,1.49,2.11,1.49,2.79s-.19,1-1.06,1.86a15.8,15.8,0,0,0-1.92,2.79c-6.69,12.09-13.14,19.72-23,27-4.28,3.22-9.92,6.51-11.1,6.51a2,2,0,0,1-1.49-.87,20.43,20.43,0,0,0-5.14-3.6c9-4.34,15.37-8.68,21.57-14.94a54.16,54.16,0,0,0,10.23-13.83c.56-1.05.93-1.86,1.92-3.9Zm29.51-6.7c-1.36,1.18-2.17,1.74-2.54,1.74s-.37,0-1.49-1.86a27.42,27.42,0,0,0-3.9-5c-.25-.25-.31-.37-.31-.56,0-.5,2.35-2.23,3-2.23.5,0,1.24.62,3.1,2.73,1.68,1.92,2.86,3.59,2.86,4S740.2,351.67,739.64,352.16Zm2.79-3.16a26.23,26.23,0,0,0-4.59-5.95c-.25-.25-.31-.37-.31-.5,0-.31.31-.62,1.37-1.36a2.47,2.47,0,0,1,1.61-.74c.68.06,2.29,1.61,4.4,4.34a7,7,0,0,1,1.43,2.35c0,.31-.19.62-.93,1.18a6.48,6.48,0,0,1-2.3,1.3C742.86,349.62,742.68,349.5,742.43,349Z"/><path class="cls-3" d="M749.45,367.48c-.12,0-.43.06-.5.06-1.36,0-1.92-2.11-2.35-8.49,3,.49,7.31.68,18.85.68,12.4,0,15.74,0,16.92-.13a8,8,0,0,0,2.36-.49,2.79,2.79,0,0,1,1.18-.25,3.57,3.57,0,0,1,2.66,1.49c1.68,1.92,2.79,3.66,2.79,4.4a2.85,2.85,0,0,1-1.05,2c-.5.44-.81,1-2,3.66-4.15,9.12-8.8,14.7-16.12,19.35-3.34,2.17-8.74,4.65-10,4.65-.87,0-1.36-.38-2.42-1.62a10.94,10.94,0,0,0-4.09-3.47,45.13,45.13,0,0,0,18.11-10,31.69,31.69,0,0,0,7.87-13.08C758.19,366.49,753.85,366.67,749.45,367.48Zm20.27-22a129.59,129.59,0,0,0,13.58-.5h.75c.8,0,1.11.62,1.17,2.48a18.82,18.82,0,0,0,.07,2.05v.25c0,2.23-.25,2.85-1.06,2.85-.25,0-.74-.06-1.3-.06-1.18-.13-5.83-.25-7.75-.25-9.3,0-15.93.12-19.59.43h-.5c-1.61,0-1.86-.93-2.23-7.87C756.89,345.34,760.8,345.47,769.72,345.47Z"/><path class="cls-3" d="M811.12,382.54c7.37-.62,13.51-1.3,17.17-1.92a65.43,65.43,0,0,0-6.88-10.29,1.33,1.33,0,0,1-.37-.87c0-.56.68-1,3.1-2.48a4,4,0,0,1,2.17-.74,1.46,1.46,0,0,1,1.17.49c3.23,3.29,7,8.87,10.11,14.95,1.67,3.34,3.1,6.88,3.1,7.68,0,.56-.62,1.12-2.05,1.86a15.3,15.3,0,0,1-4.27,1.62c-.56,0-.93-.38-1.24-1.24a47.82,47.82,0,0,0-2-5.15c-5.21.93-9,1.55-11.59,1.92-8.62,1.24-10.91,1.55-21.7,2.61a15.15,15.15,0,0,0-4.53,1,2.7,2.7,0,0,1-.68.12,1.27,1.27,0,0,1-1.18-.87,21.16,21.16,0,0,1-2-7.19l1.67.06c1.3,0,1.3,0,5.95-.31l1.3-2.91a190,190,0,0,0,9.8-29.14,30.55,30.55,0,0,0,1.12-6.45,50.61,50.61,0,0,1,7.5,1.8c1.3.43,1.86.81,1.86,1.36,0,.31-.13.5-.81,1.31a15,15,0,0,0-1.36,2.85c-.25.56-.87,2.54-3.29,10.17-1.86,5.58-5.45,14.88-7.93,20.33C807.58,382.85,809.94,382.67,811.12,382.54Z"/><path class="cls-2" d="M58.49,108.8a42.88,42.88,0,0,0,7-.46V112a43.7,43.7,0,0,0-7-.46H10.41a44.31,44.31,0,0,0-7,.46v-3.63a42.88,42.88,0,0,0,7,.46H32.15V99.06H15.31a45.87,45.87,0,0,0-7,.45V95.89a43.23,43.23,0,0,0,7,.45H32.15v-2a37.79,37.79,0,0,0-.46-6.27h4a38.09,38.09,0,0,0-.46,6.34v1.89h18a43.83,43.83,0,0,0,7-.45v3.62a47.17,47.17,0,0,0-7-.45h-18v9.74ZM14.11,139.44a45.77,45.77,0,0,0-7,.46v-3.63a42,42,0,0,0,7,.46h18v-9.89H10.41a46.42,46.42,0,0,0-7,.45v-3.62a43.06,43.06,0,0,0,7,.45h31a55.47,55.47,0,0,0,6.27-11.55l3.24,1.21a87.09,87.09,0,0,1-6.34,10.34H58.49a43.74,43.74,0,0,0,7-.45v3.62a45.78,45.78,0,0,0-7-.45H35.24v9.89H54.42a42,42,0,0,0,7-.46v3.63a45.08,45.08,0,0,0-7-.46H35.24v7.4a44.16,44.16,0,0,0,.53,7.17H31.62a44.16,44.16,0,0,0,.53-7.17v-7.4Zm8.68-16.08a38.86,38.86,0,0,0-5.59-9.66L20,112.49a54.22,54.22,0,0,1,5.67,9.44Z"/><path class="cls-2" d="M99.67,116.87c-9.36,1.59-12,2.19-14.12,3.32a.66.66,0,0,1-.38.08c-.37,0-.9-1.51-1.43-3.93a33.57,33.57,0,0,0,5.06-.6L99.67,114c0-12.83,0-13.73-.53-16.6,3.32.45,4.6.83,4.6,1.58,0,.23,0,.23-.3.91-.3.9-.45,3.7-.6,13.66,10.42-1.43,13.28-1.81,23-2.72.07-2.11.07-3.7.07-7.47,0-7.55,0-7.55-.45-10.42l1.89.3c2.49.31,2.94.53,2.86,1.21,0,.15,0,.15-.3.68-.45.83-.45.83-.83,15.4,4.83-.45,7.7-.6,15.78-1,.53,0,.53.15.53,1.66s0,1.59-.61,1.59c-7.7.15-10.49.3-15.85.68-.38,8.22-.68,11.09-1.36,13.13-1.21,3.25-3.39,4.61-7.32,4.61a12.83,12.83,0,0,1-5.13-1c-.38-.22-.46-.37-.53-.9a14.69,14.69,0,0,0-.91-3.17,13.14,13.14,0,0,0,6.8,1.81c3.85,0,4.68-2.11,5.13-13.29a5.12,5.12,0,0,0,.08-1c-8.84.68-15.25,1.44-22.88,2.64v1.21c-.07,2.12-.07,4.23-.07,6,0,13.06.15,14.72,1.81,16.83a7.77,7.77,0,0,0,4.6,2.79,43.31,43.31,0,0,0,9.29.83,74.79,74.79,0,0,0,14.72-1.43,1.27,1.27,0,0,1,.45-.08c.3,0,.38.15.45.68.08.68.23,1.89.23,2.42,0,.38-.07.53-.45.6a138.75,138.75,0,0,1-14.72.91c-14.65,0-19.4-3.4-19.4-13.89V116.87Z"/><path class="cls-2" d="M166.68,140.52c1-2.41,1-2.41,1.31-3a6.71,6.71,0,0,0,1,1.81.9.9,0,0,1,.18.54c0,.27,0,.45-.64,1.72a50.21,50.21,0,0,0-2.31,7,1.69,1.69,0,0,1-.31.91,6.54,6.54,0,0,1-1.86.18c-.59,0-.82-.14-.95-.63a46.83,46.83,0,0,1-1.45-12.14,76.75,76.75,0,0,1,1.63-15.09,34,34,0,0,0,.68-5.07c2.35.5,3.85,1.13,3.85,1.59a2,2,0,0,1-.32.77,9.77,9.77,0,0,0-1.09,3,63.6,63.6,0,0,0-2,14.9,69.77,69.77,0,0,0,.45,7.61Zm18.34,4.3a32.14,32.14,0,0,0,7.48-.95.52.52,0,0,1,.27-.05c.23,0,.32.09.36.32a21.39,21.39,0,0,1,.32,2.58c0,.32-.09.41-.95.54a39,39,0,0,1-7,.68c-4.76,0-7.43-.68-9.51-2.44-1.09-.91-2.45-2.77-2.45-3.35,0-.32.95-1.09,2.17-1.77C177.28,143.55,179.91,144.82,185,144.82Zm-7.88-24.19a45.09,45.09,0,0,0,5.21.32,47.68,47.68,0,0,0,8.34-.73,1,1,0,0,1,.31,0c.23,0,.32.09.37.32a13.64,13.64,0,0,1,.18,2.22c0,.4-.09.54-.59.63a64.12,64.12,0,0,1-8.43.59,40.27,40.27,0,0,1-6.43-.45c-.22,0-.27-.19-.32-.55v-.72c0-1.18.19-1.68.59-1.68C176.51,120.54,176.78,120.59,177.14,120.63Z"/><path class="cls-2" d="M207.72,124.75c-.23,0-.64,0-1.09.09-.72,0-1.13,0-1.45,0-.63,0-.72,0-.81-.36A13.46,13.46,0,0,1,204,122c.81,0,2.13,0,2.53,0,1.59,0,4.67-.23,7.07-.5a26.19,26.19,0,0,0,1.4-8.06,24,24,0,0,1,3.31.77c.64.23.73.32.73.54a1.56,1.56,0,0,1-.28.68c-.68,1.27-.9,2-1.85,5.57a48.33,48.33,0,0,0,6.16-1.35.63.63,0,0,1,.36-.1c.32,0,.41.28.54,1.41a5.8,5.8,0,0,1,.09.68,1.27,1.27,0,0,1,0,.41c0,.36-.14.45-.95.63-.05,0-.18,0-.41.09-1.59.32-4.89.91-6.75,1.18a92.17,92.17,0,0,1-7.16,15.81c-1.44,2.49-2.21,3.53-2.67,3.53a4.78,4.78,0,0,1-2.4-1.81,1.51,1.51,0,0,1,.41-.82,27.64,27.64,0,0,0,2.49-3.53,61.31,61.31,0,0,0,6-12.73C209.71,124.66,209.35,124.71,207.72,124.75Zm21.51,4.17a1.55,1.55,0,0,1-.13.59,9.53,9.53,0,0,0-.32,2.9c0,2,.14,4.8.41,8a28.29,28.29,0,0,1,6.29,3.4c1.54,1.08,2,1.49,2,1.81,0,.68-1.18,2.49-1.63,2.49-.14,0-.32-.09-.68-.45a23.74,23.74,0,0,0-5.89-4,8.83,8.83,0,0,1-.55,3.58c-.95,2.49-3.35,3.8-6.88,3.8-4.39,0-7.34-2.26-7.34-5.61,0-3.67,3.31-6.25,8-6.25a15.37,15.37,0,0,1,3.76.45c-.22-3.17-.36-5.66-.45-8.7a20.76,20.76,0,0,0-.23-2.89C228.51,128.24,229.23,128.47,229.23,128.92Zm-6.88,12.91c-3.08,0-5.08,1.31-5.08,3.35s1.64,3,4.4,3c3.26,0,4.66-1.54,4.66-5,0-.27,0-.63,0-.63A9.62,9.62,0,0,0,222.35,141.83Zm7.06-18.66c.09-.14.23-.32.37-.5.45-.68.58-.82.9-.82.73,0,4,1.64,6.07,3,1.86,1.27,2.54,1.86,2.54,2.22a4.59,4.59,0,0,1-.91,1.86c-.27.4-.5.58-.72.58s-.18,0-1-.77a23.35,23.35,0,0,0-7.12-4.25c-.31-.14-.45-.28-.45-.5A1.38,1.38,0,0,1,229.41,123.17Z"/><path class="cls-2" d="M256.49,117c1.31,0,6-.45,10.19-1,2.4-.32,2.76-.41,3.76-.9a1.46,1.46,0,0,1,.68-.23c.41,0,.91.5,1.95,2a2.64,2.64,0,0,1,.54,1.23c0,.31-.09.36-.86.9s-.68.45-5.25,5.3c-.77.82-2.81,3-5.71,6-1.54,1.63-1.86,1.9-3.4,3.58a16.26,16.26,0,0,1,5.39-3.22,15.29,15.29,0,0,1,5.57-1c6.39,0,10.56,3.9,10.56,9.74a10.22,10.22,0,0,1-3,7.43c-2.67,2.62-6.75,4.07-11.42,4.07-3.08,0-5.34-.68-6.74-2.08a4.62,4.62,0,0,1-1.36-3.31c0-2.9,2.53-4.93,6.07-4.93,3.71,0,6.34,2.08,8,6.29a8.93,8.93,0,0,0,4.16-3.58,8.14,8.14,0,0,0,1.09-4.07c0-4.35-3-7-8-7-5.39,0-12.14,3.63-16.12,8.7-.37.45-.55.59-.77.59a5.42,5.42,0,0,1-2.45-2.49c0-.19.14-.37.41-.55a22.36,22.36,0,0,0,3.17-2.81,173.69,173.69,0,0,0,15.58-17.21c-9.11,1.23-12.05,1.63-13,2a1.2,1.2,0,0,1-.45.09c-.5,0-1-1.54-1.18-3.62C254.77,116.92,255.86,117,256.49,117Zm6.75,26.09c-1.9,0-3.13.9-3.13,2.31,0,1.76,2,2.94,5,2.94a11.59,11.59,0,0,0,3.49-.45C267.5,144.64,265.73,143.1,263.24,143.1Z"/><path class="cls-2" d="M299.28,95.43a30.45,30.45,0,0,0-6,.38V92.26a25.53,25.53,0,0,0,6,.46H310.6a24.25,24.25,0,0,0,5.74-.46v3.47a41.35,41.35,0,0,0-5.74-.3h-4.15v18.35h3.48a23.66,23.66,0,0,0,4.9-.38v3.32a32.39,32.39,0,0,0-4.9-.3h-3.48V136.8c3.93-1.66,5.21-2.34,9.14-4.3l.37,3c-7.77,3.85-7.77,3.85-18.94,8.15a19.94,19.94,0,0,0-2.87,1.21l-1.21-3.55A57.49,57.49,0,0,0,303.51,138V116.42H299a23.09,23.09,0,0,0-4.83.38v-3.4a22.44,22.44,0,0,0,4.83.38h4.53V95.43Zm53.37,52.32a37.9,37.9,0,0,0,6.65-.38v3.47a39.73,39.73,0,0,0-6.65-.37H319.29a40,40,0,0,0-6.8.37v-3.47a39.21,39.21,0,0,0,6.8.38h15.92V135.52H325a39.41,39.41,0,0,0-6.72.38v-3.4a38.88,38.88,0,0,0,6.72.38h10.19v-9.52h-7.54a85,85,0,0,0-9.14.31,60.5,60.5,0,0,0,.3-8V100.72a66.31,66.31,0,0,0-.37-8.91,64.18,64.18,0,0,0,9.13.38h18.72a64.18,64.18,0,0,0,9.21-.38,79.28,79.28,0,0,0-.3,8.76v14.11a79.1,79.1,0,0,0,.3,9c-2.34-.23-5.13-.31-9.06-.31h-8.38v9.52h11.55a38.73,38.73,0,0,0,6.72-.38v3.4a39.34,39.34,0,0,0-6.72-.38H338.08v12.23ZM321.78,94.83v11.7h13.43V94.83Zm0,14.27v11.62h13.43V109.1Zm16.3-2.57h14.19V94.83H338.08Zm0,14.19h14.19V109.1H338.08Z"/><path class="cls-2" d="M384.27,101.62a30.08,30.08,0,0,0-5.14.31V98.76a29.67,29.67,0,0,0,5.14.3h8.45v-4a25.49,25.49,0,0,0-.45-6.19H396a24.53,24.53,0,0,0-.45,6.19v4h6.64a30.51,30.51,0,0,0,5-.3v3.17a31.61,31.61,0,0,0-5-.31h-6.49a43.17,43.17,0,0,0,12.31,12.76,9,9,0,0,0-1.89,2.49,43.26,43.26,0,0,1-11-12.91c.38,4.91.45,7.18.45,10.5v6.34A44.14,44.14,0,0,0,396,129h-3.77a44.21,44.21,0,0,0,.45-8.15v-6.34c0-3,.08-6,.38-10.42a65,65,0,0,1-14,19.4,9.87,9.87,0,0,0-2.26-2.42,60.18,60.18,0,0,0,15.1-19.4Zm6.19,31.48c-2.64,7.55-4.53,11.17-9.06,16.84l-2.64-1.89c4.75-5.66,6.72-9.29,8.75-16.08Zm9.43,12.23c0,3.1,1,3.4,11,3.4,9,0,11.92-.45,12.9-1.81.83-1.21,1.29-3.7,1.44-8.31a10,10,0,0,0,3,1.44c-.76,6.64-1.44,8.6-3.1,9.74-1.81,1.35-5.36,1.73-14.79,1.73-5.66,0-8.53-.22-10.57-.9-2.27-.76-2.87-2-2.87-5.21v-8a49.13,49.13,0,0,0-.45-6.57h3.85a30.72,30.72,0,0,0-.46,6.57Zm7.18-15.85a74.79,74.79,0,0,1,11.24,10.19L416.2,142A57.43,57.43,0,0,0,405,131.29Zm30.12-8.76a54.06,54.06,0,0,0,.37,7.32c-2.34-.22-4.83-.3-8.07-.3h-11.7q-4.08,0-7.93.23a71.58,71.58,0,0,0,.38-7.25V98.53a59.84,59.84,0,0,0-.31-7.25,73.08,73.08,0,0,0,7.55.3h12.31a76.07,76.07,0,0,0,7.7-.3,55,55,0,0,0-.3,7.25ZM413,94.15v8.53h21.29V94.15Zm0,11v8.68h21.29v-8.68Zm0,11.17v8.84h21.29v-8.84Zm18.12,15.4a98.63,98.63,0,0,1,11.09,15.33l-2.79,2.26a64.6,64.6,0,0,0-10.87-16Z"/><path class="cls-2" d="M475.51,137c-2.62,6-5.61,9-9,9a6.22,6.22,0,0,1-5.12-3.08,14,14,0,0,1-1.81-7.34,17.39,17.39,0,0,1,7.29-14.36,19.67,19.67,0,0,1,11.64-3.49c9.88,0,16.4,6,16.4,15,0,6-2.81,10.83-8.33,14.31-1.95,1.27-4.9,2.59-5.67,2.59-.27,0-.45-.14-.77-.55a6.2,6.2,0,0,0-2-1.72,24.26,24.26,0,0,0,7.11-3,13.86,13.86,0,0,0,6.52-11.78,11.67,11.67,0,0,0-6.93-11,12.51,12.51,0,0,0-5.11-1.17A59.44,59.44,0,0,1,475.51,137Zm-5.07-14.77a14.78,14.78,0,0,0-7.93,13.5c0,4.08,1.68,7,4.08,7,1.9,0,3.94-2.26,5.89-6.61a53.83,53.83,0,0,0,4.12-15.53A16.65,16.65,0,0,0,470.44,122.26Z"/><path class="cls-2" d="M538.12,114.23H523.24a45.51,45.51,0,0,0-5.81.3,34,34,0,0,0,.3-4.83v-2.57a35,35,0,0,0-.3-4.9,43.32,43.32,0,0,0,5.81.3h14.88V97.32H516.75a57.58,57.58,0,0,0-8,.45V94.23a39.46,39.46,0,0,0,8,.45h21.37v-.45a33.82,33.82,0,0,0-.46-6.87h3.93a27.37,27.37,0,0,0-.53,6.87v.45h23a40,40,0,0,0,8-.45v3.54a58.45,58.45,0,0,0-8-.45h-23v5.21h16.83a43.38,43.38,0,0,0,5.82-.3,33.07,33.07,0,0,0-.3,4.9v2.57a32,32,0,0,0,.3,4.83,46.12,46.12,0,0,0-5.89-.3H541.06v5.44h15.55a73,73,0,0,0,8.23-.31,56.27,56.27,0,0,0-.23,6.5v2.49h.53a38,38,0,0,0,7.85-.46v3.48a49.17,49.17,0,0,0-7.85-.38h-.53v5.59a32.12,32.12,0,0,0,.46,7h-3.33v-3.1H541.06v7c0,4.3-1.36,5.21-7.4,5.21-1.28,0-4.9-.15-7-.38a7.1,7.1,0,0,0-.75-3.32,55.53,55.53,0,0,0,8.83.83c2.72,0,3.4-.45,3.4-2.11V140.5H520.6a44.84,44.84,0,0,0-7.09.38v-3.32a44.07,44.07,0,0,0,7,.37h17.59V131h-22a49.25,49.25,0,0,0-7.93.38v-3.48a44.55,44.55,0,0,0,7.93.46h22v-6.12H521.28a43.65,43.65,0,0,0-6.87.38v-3.4a33.81,33.81,0,0,0,7,.46h16.69Zm0-9.21H520.6v6.72h17.52Zm22.42,6.72V105H541.06v6.72Zm1.2,10.49H541.06v6.12h20.68Zm0,15.7V131H541.06v6.94Z"/><path class="cls-2" d="M600.27,103.51a55.37,55.37,0,0,0-7.92.38v-3.47a50.13,50.13,0,0,0,7.92.45h6.19a39,39,0,0,0-6.41-8.15l2.64-1.59a48,48,0,0,1,6.95,9.74h6.94V95.06a35.81,35.81,0,0,0-.45-6.27h3.62a42.77,42.77,0,0,0-.3,6.27v5.81h8.68V95.06a47.08,47.08,0,0,0-.3-6.27h3.62a34,34,0,0,0-.45,6.27v5.81h7.93A35.21,35.21,0,0,0,645,90.68l3.17,1.51a71,71,0,0,1-6,8.68h5.36a51.93,51.93,0,0,0,8-.45v3.47a55.92,55.92,0,0,0-8-.38h-9.14a88.52,88.52,0,0,1-4.53,9.51h11.25a51,51,0,0,0,7.93-.38V116a56,56,0,0,0-7.93-.38H625.26v6h15.1a55.53,55.53,0,0,0,8-.37v3.32a55.92,55.92,0,0,0-8-.38h-15.1v6.64h22.65a41,41,0,0,0,8-.45v3.62a61.64,61.64,0,0,0-8-.45H627.6a44.54,44.54,0,0,0,9.14,6.57c6.11,3.4,11.92,5.43,20.83,7.25a11.18,11.18,0,0,0-2.26,3.17c-8.31-2.27-13.21-4.16-18.8-7.4a44.32,44.32,0,0,1-11.55-9c.23,4,.3,5.06.3,6.65v5.43a55.18,55.18,0,0,0,.45,7.7h-3.85a56.5,56.5,0,0,0,.46-7.7v-5.43c0-1.66.07-3.78.3-6.65-6.64,7.33-15.7,12.61-28.16,16.31a11.14,11.14,0,0,0-2.26-2.94c11.62-2.72,20.3-7.1,27.7-14H600.73a59.58,59.58,0,0,0-7.78.45v-3.62a38.87,38.87,0,0,0,7.78.45h21.59v-6.64H608a54.28,54.28,0,0,0-7.85.38v-3.32a54.55,54.55,0,0,0,7.85.37h14.35v-6H603.07a54.8,54.8,0,0,0-7.85.38v-3.4a49.78,49.78,0,0,0,7.85.38h11.25a39,39,0,0,0-4.31-9.51Zm13,0a66.83,66.83,0,0,1,3.92,9.51h13.67a39.71,39.71,0,0,0,4.38-9.51Z"/><path class="cls-2" d="M676.84,108.42a25.84,25.84,0,0,0,5.58.38h8.46a16.26,16.26,0,0,0,3.92-.31l1.66,1.82c-.45,1.2-.45,1.2-2.19,7.17-3.39,12.3-8.75,21.13-17.43,29.21a6.74,6.74,0,0,0-2.42-2.19,47.28,47.28,0,0,0,11.25-13.13c3.09-5.44,5.13-10.87,7.25-19.93h-10.5a26.45,26.45,0,0,0-5.58.37Zm33.29,39.1c0,3.85-1.21,4.83-5.89,4.83a72.65,72.65,0,0,1-10-.6,13.74,13.74,0,0,0-.68-3.25,57.1,57.1,0,0,0,11.1,1.06c2,0,2.49-.45,2.49-2.19v-10H697.9a33.24,33.24,0,0,0-6,.37v-3.32a32.11,32.11,0,0,0,6,.38h9.28v-8.08H702a33,33,0,0,0-6,.38v-3.25a31.47,31.47,0,0,0,6,.38h5.21V117h-4.6a38,38,0,0,0-5.51.38v-3.25a38,38,0,0,0,5.51.38h4.6v-2.79a57.85,57.85,0,0,0-.37-7.1h2.11a93.77,93.77,0,0,0,16.15-9.89H694.35a52.93,52.93,0,0,0-7.85.46V91.58a51.47,51.47,0,0,0,7.85.46h27.4a39.52,39.52,0,0,0,6.49-.31l1.59,2.5c-.91.75-1.81,1.43-3,2.49-3.47,2.87-9.44,6.56-16.68,10.34v7.47h4.68a29.85,29.85,0,0,0,5.51-.38v3.25a30.75,30.75,0,0,0-5.51-.38h-4.68v7.25h6a29.22,29.22,0,0,0,5.89-.38v3.25a29.22,29.22,0,0,0-5.89-.38h-6v8.08h9.58a30.09,30.09,0,0,0,5.89-.38v3.32a31.25,31.25,0,0,0-5.89-.37h-9.58Zm30.57-39.86a13,13,0,0,0-1.51,1.66A116.62,116.62,0,0,1,727.26,121a56.62,56.62,0,0,0,5,9.82,51.16,51.16,0,0,0,11.17,12.83,11.58,11.58,0,0,0-2.57,2.49,70.81,70.81,0,0,1-19.78-35.85,34.21,34.21,0,0,0-1.2-4.16l3.09-1a70.3,70.3,0,0,0,3.32,13.21,57.43,57.43,0,0,0,11.63-13Z"/><path class="cls-2" d="M767.8,127.59c-1,9.89-1.89,14-4.75,21.14l-2.72-1.36c2.79-6.34,3.77-10.72,4.53-20.38ZM760.48,120c.9.07,1.89.15,2.79.15h2c3.48-4.3,3.48-4.3,5.82-7.55a69.82,69.82,0,0,0-10-11.4l2-2c1.51,1.58,2,2,3.17,3.24,3.93-6,6.57-11.32,7.25-14.72l3.24,1.82A20.92,20.92,0,0,0,775,92.34a105.88,105.88,0,0,1-7.17,11.93c2.12,2.41,3.4,3.85,4.91,5.88,5.13-7.32,7-10.49,7.92-13.28l3,2c-1.51,2.11-1.51,2.11-4.3,6.42A146.86,146.86,0,0,1,768.41,120c5.2-.3,8-.53,13-1.13a54.85,54.85,0,0,0-3.32-6l2-1.28a68.26,68.26,0,0,1,6.49,13.06L784,125.93a41.26,41.26,0,0,0-1.66-4.83c-3.18.53-4.16.68-6.87,1v24.46a49.75,49.75,0,0,0,.45,6.94H772.1a47.42,47.42,0,0,0,.46-6.94V122.38c-2.57.23-3.7.31-4.68.38a52.19,52.19,0,0,0-6.8.6Zm21.21,7.32A112.69,112.69,0,0,1,785,143.6l-2.94.9a73.74,73.74,0,0,0-3-16.23Zm6.19,25.82a55.61,55.61,0,0,0,.45-7.63V96.79a40.93,40.93,0,0,0-.37-6.41h3.62a37.57,37.57,0,0,0-.38,6.34v49.22h27.25a37.38,37.38,0,0,0,7.33-.53v3.7a48.43,48.43,0,0,0-7.25-.46H791.2v4.46ZM800.49,116a36,36,0,0,0-6.34.38v-3.25a51.2,51.2,0,0,0,6.34.38h6.42V95.66a40.73,40.73,0,0,0-.38-6.49h3.55a37.56,37.56,0,0,0-.38,6.41v18h8.38a38,38,0,0,0,6.57-.38v3.25a39.6,39.6,0,0,0-6.57-.38h-7.55a54.48,54.48,0,0,0,15.32,21.44,8.72,8.72,0,0,0-2.34,2.57c-7.09-7.1-11.09-13.21-14.19-21.44.3,4.45.38,7.62.38,11.1v6a45.89,45.89,0,0,0,.45,8h-3.7a46.2,46.2,0,0,0,.46-8v-6c0-3.33.07-6.72.3-11a52.86,52.86,0,0,1-12.31,19.93,7,7,0,0,0-2.56-2A51.92,51.92,0,0,0,806.15,116Zm-3.1-22.19A89.67,89.67,0,0,1,803,108.72l-2.72,1.43a68.07,68.07,0,0,0-5.51-15.09Zm16.16,15a48,48,0,0,0,6-15.55l3,1.36a70.76,70.76,0,0,1-6.8,15.85Z"/><path class="cls-2" d="M812.7,33.28c1.94.33,3,.77,3,1.2a.76.76,0,0,1-.2.47c-.34.44-.61,1.21-1.58,4.57-.1.33-.14.47-.2.7a25.11,25.11,0,0,1,3.42-.37c3,0,4.36,1.78,4.36,5.67a26.28,26.28,0,0,1-2.35,10.81c-1,1.88-2.21,2.68-3.92,2.68a7.89,7.89,0,0,1-3.06-.64c-.2-.13-.26-.23-.26-.6a6.58,6.58,0,0,0-.37-2.05,6.11,6.11,0,0,0,3.32,1.08c1.27,0,2.11-.81,2.82-2.69a25.63,25.63,0,0,0,1.61-8.92c0-2.42-.81-3.49-2.55-3.49a20.9,20.9,0,0,0-3.59.43,90.68,90.68,0,0,1-3.49,9.36,40.89,40.89,0,0,1-3.59,6.82.54.54,0,0,1-.37.16,4.15,4.15,0,0,1-1.58-.87c-.17-.17-.23-.23-.23-.33a.54.54,0,0,1,.13-.34,53.61,53.61,0,0,0,6.85-14.36c-4.3.84-5.17,1-5.91,1.41a.69.69,0,0,1-.3.1c-.37,0-.71-.81-1-2.48,1.44,0,2-.07,6.44-.81l1.35-.2A28.85,28.85,0,0,0,812.7,33.28Zm16,15.2a18.8,18.8,0,0,0-5.1-7.86.33.33,0,0,1-.17-.26,3.23,3.23,0,0,1,1.38-1.31,13.45,13.45,0,0,1,3.08,3.12c1.44,1.81,2.89,4.46,2.89,5.27,0,.16-.1.3-.44.57a3.57,3.57,0,0,1-1.34.77C828.83,48.78,828.73,48.71,828.67,48.48Zm-1.85-10.24A13.89,13.89,0,0,0,824,35.09c-.13-.14-.23-.24-.23-.3s0-.1.53-.54.51-.4.67-.4.71.3,1.55,1.07a9.83,9.83,0,0,1,2,2.35,2.82,2.82,0,0,1-1.35,1.24C827,38.51,826.92,38.44,826.82,38.24Zm.91-6.57c.53,0,3.39,2.85,3.39,3.39,0,.2-.07.26-.67.7-.37.27-.57.4-.68.4a.18.18,0,0,1-.2-.13,12.63,12.63,0,0,0-3-3.22.25.25,0,0,1-.13-.2C826.49,32.37,827.43,31.67,827.73,31.67Z"/><rect class="cls-1" x="2.96" width="358.67" height="62.25" rx="31.12"/><path class="cls-4" d="M47,33a16.62,16.62,0,0,0,2.79-.17c-.07.44-.1.84-.17,1.72a33.2,33.2,0,0,1-1.74,9.32c-.61,1.38-1.75,1.91-4.06,1.91a40.14,40.14,0,0,1-5.37-.4A8.31,8.31,0,0,0,38,43.11a29,29,0,0,0,5.77.7c1.24,0,1.88-.27,2.21-1,.61-1.31,1-3.59,1.48-8H38.62c-.9,0-1.58,0-2.41.1a38.87,38.87,0,0,0,1.54-9,23.24,23.24,0,0,0,2.82.13h6.81V20.93H39.46a22.81,22.81,0,0,0-3.09.2V18.85a20.92,20.92,0,0,0,3.12.2h7.25a27,27,0,0,0,2.82-.13c-.07.77-.1,1.54-.1,2.48v4.33a21.49,21.49,0,0,0,.1,2.38c-1.14-.07-1.88-.1-2.75-.1H39.73c-.34,2-.6,3.42-1,5ZM59.89,18.11a19.61,19.61,0,0,0-.2,3.16V42.64a26.86,26.86,0,0,0,.2,3.72H57.31a26,26,0,0,0,.23-3.76V21.27a18.71,18.71,0,0,0-.23-3.16Z"/><path class="cls-4" d="M93.75,36.13a.48.48,0,0,1,.23.43,4.14,4.14,0,0,1-.57,1.38c-.3.57-.57.84-.84.84a.32.32,0,0,1-.23-.1A16.2,16.2,0,0,0,84,36.6c-4,0-6.17,1.14-6.17,3.19,0,2.44,3.59,4,9.16,4,.83,0,1.57,0,3.12-.14a8.18,8.18,0,0,0-.78,1.88c-.13.51-.26.54-1.47.54-7.89,0-12.25-2.21-12.25-6.17,0-3.26,2.92-5.1,8.12-5.1a19.07,19.07,0,0,1,7.38,1.44,28.91,28.91,0,0,1-4.8-5.94,51.25,51.25,0,0,1-10.5,1.28c-.6,0-.63-.07-.87-2a45.43,45.43,0,0,0,10.37-1.11,36.75,36.75,0,0,1-1.75-3.86,60.78,60.78,0,0,1-8.22.94c-.27,0-.33-.07-.43-.5a11.86,11.86,0,0,1-.17-1.45,50.77,50.77,0,0,0,8.12-.8c-.14-.37-.27-.77-.64-1.91a8.82,8.82,0,0,0-1-2.39,12,12,0,0,1,2.52-.3c.4,0,.54.1.54.4,0,.07,0,.21,0,.31a.9.9,0,0,0,0,.23,14.76,14.76,0,0,0,.77,3.22A29.5,29.5,0,0,0,89,21.23l2.92-1.11a.21.21,0,0,1,.13,0c.11,0,.17.1.37.57a6.44,6.44,0,0,1,.41,1.21c0,.07-.1.17-.27.23a47,47,0,0,1-7,2.09A34.91,34.91,0,0,0,87.27,28a25.36,25.36,0,0,0,6.61-2.69c.17-.1.2-.1.27-.1A5.44,5.44,0,0,1,95,27c0,.07,0,.14-.16.2a31.55,31.55,0,0,1-6.48,2.55A29.91,29.91,0,0,0,93,35.49Z"/><path class="cls-4" d="M110.79,35.19a33.87,33.87,0,0,1-1.85,9.53l-1.71-.81a28.28,28.28,0,0,0,1.78-9Zm-1.28-3.76c1.25-1.58,1.25-1.58,2.25-2.95a33.79,33.79,0,0,0-4.22-5l1.1-1.51c.67.71.74.81,1.28,1.38a21.8,21.8,0,0,0,3-6.18l2,1a7.12,7.12,0,0,0-.74,1.2A45.35,45.35,0,0,1,111,24.62c1,1.14,1.35,1.58,1.88,2.28.41-.6.41-.6,1.35-2.08a14,14,0,0,0,2-3.65l1.84,1.07a31.08,31.08,0,0,0-1.91,2.85c-1.47,2.22-3.22,4.56-4.63,6.27,2.38-.13,2.75-.16,5-.43a22.84,22.84,0,0,0-1.31-2.52l1.37-.74a34,34,0,0,1,2.72,6l-1.61.77c-.27-1-.33-1.27-.57-2-1.44.23-1.51.23-2.75.36V43.51a23.27,23.27,0,0,0,.2,3.19h-2.25a22.45,22.45,0,0,0,.2-3.19V33.08l-3.65.23c-.51,0-.77.07-1.24.13l-.31-2.11a10.29,10.29,0,0,0,1.38.1h.8ZM117.23,35a52.88,52.88,0,0,1,1.28,7.38l-1.71.44a39.39,39.39,0,0,0-1.11-7.35Zm16.17,7.92a20,20,0,0,0,3.19-.2V45a24.7,24.7,0,0,0-3.35-.2H121.63v1.81h-2.12a24.41,24.41,0,0,0,.2-3.42V21.23a18.76,18.76,0,0,0-.16-2.85h2.24a17.28,17.28,0,0,0-.16,2.82V42.94Zm-8.08-12.85a19.11,19.11,0,0,0-2.59.13v-2a18.82,18.82,0,0,0,2.59.14h2.75V20.63a17.52,17.52,0,0,0-.17-2.79h2.15a15.73,15.73,0,0,0-.17,2.79v7.75h3.42a16.13,16.13,0,0,0,2.85-.17v2.05a16.13,16.13,0,0,0-2.85-.17h-3a20.29,20.29,0,0,0,6.48,8.05A6.07,6.07,0,0,0,135.52,40c-2.72-2.49-4-4.4-5.87-8.42a21.64,21.64,0,0,1,.23,4v3.19a19.17,19.17,0,0,0,.17,3.19H127.9a21.23,21.23,0,0,0,.17-3.19V35.56a32.19,32.19,0,0,1,.23-4,21.71,21.71,0,0,1-5.1,8.32,4.31,4.31,0,0,0-1.37-1.45,21,21,0,0,0,5.77-8.35Zm-.88-10.3a35,35,0,0,1,2.32,6.48l-1.61.83a29.83,29.83,0,0,0-2.32-6.57Zm11,.67a31.14,31.14,0,0,1-2.85,6.78l-1.48-.87a23,23,0,0,0,2.52-6.71Z"/><path class="cls-4" d="M162.73,20.12a.62.62,0,0,1-.37.51,6.13,6.13,0,0,0-1.45,1.44,107.28,107.28,0,0,1-7.85,8.59,2,2,0,0,0-.7,1.44,1.74,1.74,0,0,0,.64,1.28c2.55,2.31,5.47,5.26,7.81,7.88a15.93,15.93,0,0,1,2.62,3.29c0,.23-.4.64-1.21,1.24a1.78,1.78,0,0,1-.77.44c-.13,0-.23-.07-.33-.27-1.65-2.72-4.87-6.41-9.67-11A3.86,3.86,0,0,1,150,32.14a3.51,3.51,0,0,1,.57-1.88,20.84,20.84,0,0,1,2.51-2.75,63.1,63.1,0,0,0,5.81-7,12,12,0,0,0,1.21-2.41C161.69,18.92,162.73,19.69,162.73,20.12Zm-1,5.07A1,1,0,0,0,162,25c.44-.34.64-.44.81-.4a6.42,6.42,0,0,1,1.81,1.61,8.7,8.7,0,0,1,1.48,2c0,.17-.14.3-.58.64s-.7.54-.83.54-.17-.07-.31-.27a11.18,11.18,0,0,0-2.68-3.36c-.1-.13-.17-.2-.17-.3S161.62,25.29,161.75,25.19Zm6.88.84c0,.2-.1.27-.74.7-.4.27-.5.34-.63.34s-.17-.07-.27-.23a10.9,10.9,0,0,0-2.69-3.36c-.1-.1-.13-.13-.13-.2a2.47,2.47,0,0,1,1.27-.91C166,22.37,168.63,25.39,168.63,26Z"/><path class="cls-4" d="M188,43.58a19.14,19.14,0,0,0,.2,3.15h-2.38a22.14,22.14,0,0,0,.2-3.19v-10a33.31,33.31,0,0,1-4.43,3.79,6.45,6.45,0,0,0-1.21-1.81,26.59,26.59,0,0,0,5.81-4.8,22.13,22.13,0,0,0,4-6h-6a22.12,22.12,0,0,0-2.59.14V22.74a21.44,21.44,0,0,0,2.55.14H186v-3a14,14,0,0,0-.2-2.45h2.41a13.47,13.47,0,0,0-.2,2.51v3h1.88a11.18,11.18,0,0,0,1.84-.1l1,1.1a13.86,13.86,0,0,0-.77,1.38,27.16,27.16,0,0,1-3.52,5.5,19.52,19.52,0,0,0,5.2,4.4,6.93,6.93,0,0,0-1.14,1.77A21.4,21.4,0,0,1,188,32.84Zm11.2-23.15a18,18,0,0,0-.23-2.92h2.55a16.84,16.84,0,0,0-.24,2.92v7h4.23a18.65,18.65,0,0,0,3.15-.21v2.29a30.87,30.87,0,0,0-3.15-.17h-4.23V43.07h5.1a20.48,20.48,0,0,0,3.49-.2v2.42a21.32,21.32,0,0,0-3.49-.24H194.77a21,21,0,0,0-3.46.24V42.87a20.86,20.86,0,0,0,3.46.2h4.39V29.32H196a31.85,31.85,0,0,0-3.19.17V27.2a18.93,18.93,0,0,0,3.19.21h3.15Z"/><path class="cls-4" d="M234.89,33.78A13.84,13.84,0,0,0,239,38.71a20.48,20.48,0,0,0,5-4.59L246,35.29l-.57.54a2.09,2.09,0,0,0-.37.33,25.39,25.39,0,0,1-4.57,3.59,28.4,28.4,0,0,0,9.83,4.13A7.81,7.81,0,0,0,249.15,46c-5-1.45-8.48-3.22-11.47-5.84a19,19,0,0,1-4.9-6.41h-3.89V42.7a63.27,63.27,0,0,0,7-2.18l.07,1.95A106,106,0,0,1,223.79,46c-.47.13-.81.2-1.38.36l-.67-2.24c1.11-.07,1.11-.07,5.07-.94V33.78h-2.52a22.54,22.54,0,0,0-3.19.2V31.8a19.19,19.19,0,0,0,3.19.2h2.52V22a24.94,24.94,0,0,0-.14-3.19A22.38,22.38,0,0,0,230,19h13.75a20,20,0,0,0,3.42-.2V21a23.17,23.17,0,0,0-3.42-.17H228.89v2.48h13.89a20.48,20.48,0,0,0,3.12-.17v2.09a25.69,25.69,0,0,0-3.12-.17H228.89v2.51h13.89a17.89,17.89,0,0,0,3.12-.16v2.08a19.77,19.77,0,0,0-3.12-.17H228.89V32h17.75a19.39,19.39,0,0,0,3.15-.2V34a20.1,20.1,0,0,0-3-.2Z"/><path class="cls-4" d="M265.46,25.12a28.82,28.82,0,0,0-3.52.21V23a23.36,23.36,0,0,0,3.52.23h9V20.46a17.71,17.71,0,0,0-.23-2.92h2.55a16.13,16.13,0,0,0-.24,2.92v2.75h9.53a20.94,20.94,0,0,0,3.59-.23v2.35a32.06,32.06,0,0,0-3.59-.21h-8.72c3.59,6.48,7.92,11,13.29,14a6.64,6.64,0,0,0-1.48,2.08,36,36,0,0,1-6.71-5.64,30,30,0,0,1-6-9.09c.1,1.81.13,3.12.13,4.2V38h3.53a18.9,18.9,0,0,0,3.12-.16v2.24a17.9,17.9,0,0,0-3.19-.2h-3.46v3.09a22.61,22.61,0,0,0,.24,3.69h-2.55a24.56,24.56,0,0,0,.23-3.72V39.85H271.4a18.21,18.21,0,0,0-3.26.2V37.81a19.13,19.13,0,0,0,3.19.16h3.15V30.66c0-1.24,0-2.42.14-4.16a31,31,0,0,1-6.07,9.29,33.27,33.27,0,0,1-6.14,5.4,6.29,6.29,0,0,0-1.51-1.87,28.86,28.86,0,0,0,7.54-6.55,33.66,33.66,0,0,0,5.24-7.65Z"/><path class="cls-4" d="M317.33,17.88a21.85,21.85,0,0,0-.17,2.82,47.16,47.16,0,0,0,.71,7,28.08,28.08,0,0,0,4.16,9,28.49,28.49,0,0,0,4.76,5.14,31.05,31.05,0,0,0,3.72,2.48,7.77,7.77,0,0,0-1.67,2,29.57,29.57,0,0,1-8.53-8.25,27.39,27.39,0,0,1-4.19-10.23,25.72,25.72,0,0,1-4.43,11,29.12,29.12,0,0,1-4.06,4.43,34.75,34.75,0,0,1-4.29,3.08,6,6,0,0,0-1.71-1.91,22.29,22.29,0,0,0,6.57-4.86c4.5-4.8,6.68-11,6.68-18.92a19.08,19.08,0,0,0-.14-2.82Z"/><path class="cls-4" d="M401.1,35.76c0-1.11,0-1.85,0-2.28,0-.27,0-.27,0-2A18.15,18.15,0,0,1,398,34.62a5.31,5.31,0,0,0-1.21-1.78,23.54,23.54,0,0,0,5.67-5.64,13.42,13.42,0,0,0,1.88-3.28l1.85,1.1a15,15,0,0,0-.94,1.41,22.72,22.72,0,0,1-2.12,3V42.7a37.79,37.79,0,0,0,.14,3.83H400.9a26.53,26.53,0,0,0,.2-3.72Zm4.7-17.38c-.24.3-.24.3-.71,1a25.9,25.9,0,0,1-6.44,6.31,4.92,4.92,0,0,0-1.24-1.58A17.13,17.13,0,0,0,404,17.17Zm10.27-.07a11.93,11.93,0,0,0-.81,1.14,40,40,0,0,1-3.59,4.37c1.38,1.17,1.64,1.41,2.89,2.58,2.85-3,4.49-5.1,5.2-6.54l2,1.2c-.34.37-.5.57-1.28,1.51a68,68,0,0,1-6.91,7.32c4.57-.24,4.57-.24,8.56-.64a32.32,32.32,0,0,0-2.52-2.78l1.55-1a68.31,68.31,0,0,1,5.56,6.68l-1.67,1.17c-.84-1.27-1.08-1.61-1.78-2.58-5.3.57-5.3.57-9.06.84a20.36,20.36,0,0,1-1.54,2.51h6.14a14.92,14.92,0,0,0,2.61-.17l1.31,1.25a7.68,7.68,0,0,0-.7.94,25.66,25.66,0,0,1-4.7,4.83,27.6,27.6,0,0,0,9.5,3.42,8.47,8.47,0,0,0-1.08,2,29.39,29.39,0,0,1-7.25-2.65,22.61,22.61,0,0,1-2.85-1.64,28.07,28.07,0,0,1-10.23,4.4,5.86,5.86,0,0,0-1.21-1.88,26.6,26.6,0,0,0,9.9-3.73,19.88,19.88,0,0,1-3.72-4A22.42,22.42,0,0,1,406,40.42a6.83,6.83,0,0,0-1.45-1.51,17.44,17.44,0,0,0,7.59-7.21c-.2,0-1.88.13-5.07.3a8.59,8.59,0,0,0-1.54.14L405.13,30a19.88,19.88,0,0,0,2.28.1c.6,0,.6,0,3.52-.07,1.71-1.64,1.71-1.64,2.32-2.21a48,48,0,0,0-6.48-5.3L408.18,21c1.11.84,1.38,1.07,2.11,1.65a18.88,18.88,0,0,0,3.83-5.37ZM411.7,35.73a19.44,19.44,0,0,0,4,4.09,16.68,16.68,0,0,0,4.12-4.09Z"/><path class="cls-4" d="M441.13,35.19a33.87,33.87,0,0,1-1.85,9.53l-1.71-.81a28.28,28.28,0,0,0,1.78-9Zm-1.28-3.76c1.24-1.58,1.24-1.58,2.25-2.95a33.3,33.3,0,0,0-4.23-5L439,22c.67.71.74.81,1.28,1.38a21.8,21.8,0,0,0,2.95-6.18l2,1a6.53,6.53,0,0,0-.74,1.2,45.35,45.35,0,0,1-3.12,5.27c1,1.14,1.34,1.58,1.88,2.28.4-.6.4-.6,1.34-2.08a14.22,14.22,0,0,0,2-3.65l1.84,1.07a31.08,31.08,0,0,0-1.91,2.85c-1.48,2.22-3.22,4.56-4.63,6.27,2.38-.13,2.75-.16,5-.43a21.06,21.06,0,0,0-1.3-2.52l1.37-.74a34,34,0,0,1,2.72,6l-1.61.77c-.27-1-.34-1.27-.57-2-1.44.23-1.51.23-2.75.36V43.51a21.78,21.78,0,0,0,.2,3.19h-2.25a22.45,22.45,0,0,0,.2-3.19V33.08l-3.65.23c-.51,0-.78.07-1.25.13l-.3-2.11a10.17,10.17,0,0,0,1.38.1h.8ZM447.57,35a53.06,53.06,0,0,1,1.27,7.38l-1.71.44a38.63,38.63,0,0,0-1.1-7.35Zm16.17,7.92a20,20,0,0,0,3.19-.2V45a24.75,24.75,0,0,0-3.36-.2H452v1.81h-2.11a24.41,24.41,0,0,0,.2-3.42V21.23a17.46,17.46,0,0,0-.17-2.85h2.25A17.14,17.14,0,0,0,452,21.2V42.94Zm-8.08-12.85a19,19,0,0,0-2.59.13v-2a18.82,18.82,0,0,0,2.59.14h2.75V20.63a17.52,17.52,0,0,0-.17-2.79h2.15a15.73,15.73,0,0,0-.17,2.79v7.75h3.42a16.2,16.2,0,0,0,2.85-.17v2.05a16.2,16.2,0,0,0-2.85-.17h-3a20.29,20.29,0,0,0,6.48,8.05A6.3,6.3,0,0,0,465.85,40,22.45,22.45,0,0,1,460,31.57a22.35,22.35,0,0,1,.24,4v3.19a19.17,19.17,0,0,0,.17,3.19h-2.15a21.23,21.23,0,0,0,.17-3.19V35.56a30.37,30.37,0,0,1,.23-4,21.71,21.71,0,0,1-5.1,8.32,4.41,4.41,0,0,0-1.37-1.45,21.15,21.15,0,0,0,5.77-8.35Zm-.88-10.3a35.76,35.76,0,0,1,2.32,6.48l-1.61.83a29.83,29.83,0,0,0-2.32-6.57Zm11,.67a31.14,31.14,0,0,1-2.85,6.78l-1.48-.87A23.24,23.24,0,0,0,464,19.66Z"/><path class="cls-4" d="M482.13,29.25a28.07,28.07,0,0,0-3.59.2V27.2a20.88,20.88,0,0,0,3.62.21h8.12v-4h-5.2a22.92,22.92,0,0,0-3.49.17V21.4a22.12,22.12,0,0,0,3.52.2h5.17V20.49a15.48,15.48,0,0,0-.2-3.08h2.45a16.71,16.71,0,0,0-.2,3.08V21.6h3a22.3,22.3,0,0,0,3.52-.2v2.15a20.56,20.56,0,0,0-3.42-.17h-3.08v4h2.88c3.52-2.62,6.81-6.11,8.12-8.56l1.91,1.27c-.47.51-.53.58-1.34,1.55a46.67,46.67,0,0,1-5.9,5.74h5.26a20.2,20.2,0,0,0,3.43-.21v2.25a27.51,27.51,0,0,0-3.53-.2h-7.58c-1.91,1.34-3.19,2.18-5.2,3.39,1.68-.07,2.38-.07,3.39-.07h5.5c1.54,0,2.35,0,3.49-.13a30,30,0,0,0-.13,3.52v7.25a16.79,16.79,0,0,0,.2,3.32h-2.25V45H487.26v1.51H485a21.74,21.74,0,0,0,.2-3.32V37.74c0-.74,0-1.54.07-2.35a63.29,63.29,0,0,1-6.37,2.89,7.27,7.27,0,0,0-1.25-1.85,61.32,61.32,0,0,0,14.9-7.18Zm5.13,8.49h13.32V34.28H487.26Zm0,5.53h13.32V39.48H487.26Z"/><path class="cls-4" d="M571.87,33.71c0-1.84,0-3,.1-4.76a20.18,20.18,0,0,1-2.24,3.72,7.24,7.24,0,0,0-1.25-1.78,26.39,26.39,0,0,0,4-6.47,29.89,29.89,0,0,0,2.18-7l2.08.6c-.17.44-.23.64-.43,1.25a40.52,40.52,0,0,1-2.55,6.87V42.64c0,1.91,0,2.78.13,4h-2.25a30.51,30.51,0,0,0,.2-4Zm9.43-12.48c-1.68.27-2.18.34-4.16.54a4.14,4.14,0,0,0-.7-1.65,41.44,41.44,0,0,0,7.61-1,10.59,10.59,0,0,0,3.12-1.1l1.11,1.71a35.26,35.26,0,0,1-5.23,1.21v2.41h2.78a14.89,14.89,0,0,0,2.72-.17V25a23.29,23.29,0,0,0-2.72-.13h-2.78v2.05H586a18.47,18.47,0,0,0,2.49-.07,21,21,0,0,0-.1,2.68v3.93c0,1.71,0,1.94.06,2.78-.77,0-1.51-.06-2.51-.06h-2.85v2.18h2.24a16.59,16.59,0,0,0,2.62-.14v1.81a16.3,16.3,0,0,0-2.58-.13h-2.28v2.55c2.11-.27,2.55-.37,4.42-.7v1.64c-4,.67-7.18,1.11-10,1.41-.74.07-1.38.17-1.91.23l-.41-2c.27,0,.61.06.78.06,1,0,3-.16,5.33-.4V39.92h-2.68a17.25,17.25,0,0,0-2.65.13V38.24a16.69,16.69,0,0,0,2.65.14h2.68V36.2h-2.45c-1.11,0-1.91,0-2.75.1a22.09,22.09,0,0,0,.14-2.79V29.62a20.9,20.9,0,0,0-.14-2.78,16.86,16.86,0,0,0,2.68.1h2.52V24.89h-2.85a17.92,17.92,0,0,0-2.65.13V23.18a17.08,17.08,0,0,0,2.65.13h2.85Zm-3.42,7.18v2.38h3.42V28.41Zm0,3.79v2.52h3.42V32.2Zm8.82-1.41V28.41h-3.65v2.38Zm0,3.93V32.2h-3.65v2.52Zm9.33-10a19.2,19.2,0,0,0,2.42-.1,40.89,40.89,0,0,0-.14,4.4c-.13,6.77-.5,11.94-1,14.36s-1.07,2.88-2.95,2.88c-.61,0-1.41-.07-2.69-.2a10.53,10.53,0,0,0-.4-2.08,12.85,12.85,0,0,0,2.79.37c1.1,0,1.34-.47,1.74-3.32.44-3,.61-6.18.71-14.5h-2.72a54.28,54.28,0,0,1-.71,8.09c-.87,5.1-2.55,9.39-4.66,11.88a5.23,5.23,0,0,0-1.68-1.21,17.43,17.43,0,0,0,3.63-7.11,50.62,50.62,0,0,0,1.54-11.65h-.5a14.35,14.35,0,0,0-2.18.14V24.59a13.32,13.32,0,0,0,2.18.13h.57c0-1.11,0-2.08,0-3.19a22,22,0,0,0-.17-3.69h2.25a17.77,17.77,0,0,0-.17,3.06c0,2.11,0,2.11-.06,3.82Z"/><path class="cls-4" d="M625.12,19.92a.63.63,0,0,1-.37.51,6,6,0,0,0-1.44,1.44,111,111,0,0,1-7.85,8.59,2,2,0,0,0-.71,1.44,1.74,1.74,0,0,0,.64,1.28c2.55,2.31,5.47,5.26,7.82,7.88a16.07,16.07,0,0,1,2.61,3.29c0,.23-.4.64-1.2,1.24a1.85,1.85,0,0,1-.78.44c-.13,0-.23-.07-.33-.27-1.65-2.72-4.87-6.41-9.66-11a3.87,3.87,0,0,1-1.48-2.85,3.51,3.51,0,0,1,.57-1.88,20.64,20.64,0,0,1,2.52-2.75,64,64,0,0,0,5.8-7,11.52,11.52,0,0,0,1.21-2.41C624.08,18.72,625.12,19.49,625.12,19.92Z"/><path class="cls-4" d="M643.37,43.41c-1.14.67-1.38.8-1.61.8s-.2,0-.67-.5a6.1,6.1,0,0,0-1.41-1,41.22,41.22,0,0,0,11.24-8.28,44,44,0,0,0,8-10.7c-1.68,0-1.68,0-7.45,0-1.27,0-5.53.1-6.41.13l-.73.07a2.24,2.24,0,0,1-.41,0h-.1c-.33,0-.47-.67-.5-2.68,2.18.23,2.85.27,10.17.27,4.16,0,5.67-.07,6.3-.27a2.2,2.2,0,0,1,.61-.1c.47,0,.77.23,1.37,1a2.49,2.49,0,0,1,.64,1.24c0,.2-.1.34-.34.51a6.43,6.43,0,0,0-1.54,1.94,45,45,0,0,1-5.27,7.42,46.73,46.73,0,0,1,8.19,6.44c1.61,1.51,2.45,2.45,2.45,2.75a4.32,4.32,0,0,1-1.68,1.71c-.2,0-.2,0-2.28-2.35a43.35,43.35,0,0,0-6.31-5.63c-.33-.27-.9-.68-1.84-1.31A48.58,48.58,0,0,1,643.37,43.41Z"/><path class="cls-4" d="M681.18,31.23a5,5,0,0,1-1.74,1.07.47.47,0,0,1-.34-.16,5.54,5.54,0,0,0-1.67-1.08,24.1,24.1,0,0,0,9.49-9.76A13,13,0,0,0,688,18.61c1.55.54,2.62,1.18,2.62,1.58,0,.14-.07.24-.27.41a4.46,4.46,0,0,0-1,1.34,11,11,0,0,1-.7,1.14h5.13c4,0,4.06,0,4.63-.24a.89.89,0,0,1,.37-.1c.27,0,.57.27,1.21,1a2.81,2.81,0,0,1,.64,1.11c0,.17-.07.23-.27.47a4.9,4.9,0,0,0-.91,1.44,43.15,43.15,0,0,1-6.68,10.07,39.45,39.45,0,0,1-9.83,8,5.17,5.17,0,0,1-1.94.94.69.69,0,0,1-.51-.23,6.2,6.2,0,0,0-1.71-1.21,39.11,39.11,0,0,0,11.71-8.49,29.06,29.06,0,0,0-5-4.43c-.17-.13-.27-.23-.27-.33s.14-.34.64-.84.57-.54.77-.54c.57,0,4,2.68,5.47,4.4.6-.71,1.38-1.72,2-2.65a27.22,27.22,0,0,0,3.39-6.41c-4,0-4.06,0-10.16,0A28.58,28.58,0,0,1,681.18,31.23Z"/><path class="cls-4" d="M718.36,33.38c0,.23-.07.33-.51.6a4.12,4.12,0,0,1-1.27.57c-.17,0-.3-.13-.37-.37a21.27,21.27,0,0,0-2.62-4.9c-.13-.16-.16-.23-.16-.3,0-.27,1.2-1.1,1.61-1.1.2,0,.47.3,1.2,1.4a17.52,17.52,0,0,1,1.28,2.19c.27.5.77,1.54.8,1.64A.79.79,0,0,1,718.36,33.38Zm14.86-4.67c0,.14-.07.24-.34.54a5.19,5.19,0,0,0-.77,1.44,33.75,33.75,0,0,1-4.46,7.92,27.29,27.29,0,0,1-6.71,6.21,3.42,3.42,0,0,1-1.07.53c-.17,0-.24,0-.71-.43a6.51,6.51,0,0,0-1.34-.84,24.72,24.72,0,0,0,10.6-10.94,16.07,16.07,0,0,0,2-5.94C732.28,27.81,733.22,28.31,733.22,28.71Zm-11.74-2.28c.27,0,.5.3,1.14,1.38a16.3,16.3,0,0,1,1.84,4.09c0,.27-.2.4-1,.81a3,3,0,0,1-.84.27c-.16,0-.2,0-.47-.88A17.53,17.53,0,0,0,720,27.84a1.45,1.45,0,0,1-.1-.33.49.49,0,0,1,.17-.34A3.46,3.46,0,0,1,721.48,26.43Z"/><path class="cls-4" d="M760.43,24.08c-8.32,0-11.71.07-13.25.27a1,1,0,0,1-.3,0c-.24,0-.37-.1-.44-.37a8.72,8.72,0,0,1-.27-2.39,47.89,47.89,0,0,0,6.51.27c4.56,0,11.94,0,12.48-.06a3.85,3.85,0,0,0,1.41-.27,1.25,1.25,0,0,1,.4-.1c.4,0,.67.16,1.24.8s.88,1,.88,1.28a.59.59,0,0,1-.24.47c-.23.23-.37.53-.67,1.54a31.31,31.31,0,0,1-8.62,14.59c-2,1.88-6,4.57-6.71,4.57a.59.59,0,0,1-.37-.2,7.55,7.55,0,0,0-1.81-1.31A26.36,26.36,0,0,0,757.24,39a25,25,0,0,0,5.87-7.45,29.27,29.27,0,0,0,2.75-7.42Z"/><polyline class="cls-5" points="847.5 512.4 0.5 512.4 0.5 271.93 847.5 271.93 847.5 200.16 0.5 200.16"/><path class="cls-2" d="M354.86,460.64a39,39,0,0,1-8.79,8.4c-2.28,1.6-5.56,3.48-6.12,3.48-.36,0-.44-.08-1.32-1.16a10.28,10.28,0,0,0-2.4-2.36,32.32,32.32,0,0,0,9.16-5.24,36.94,36.94,0,0,0,7.32-7.44,117.94,117.94,0,0,0-11.8.36,2.92,2.92,0,0,1-.72.08c-.56,0-.72-.08-.88-.44a21.19,21.19,0,0,1-.4-4.48c1.84.24,7.88.44,12.92.44h2.68l-.08-1.88a27.11,27.11,0,0,0-.57-5.44,26.58,26.58,0,0,1,5.17.52c.36.08.52.28.52.56s0,.36-.28.76a3.18,3.18,0,0,0-.32,1.76c0,.6,0,1.32,0,2l.08,1.64c7-.12,7.88-.12,8.72-.16a4.62,4.62,0,0,1,.68,0c.92,0,1,.2,1,2.28s0,2.2-.8,2.2h-.24a5.22,5.22,0,0,1-.68,0h-1.48c-2.36,0-5.6-.12-7-.12l.44,9.84c0,.36,0,.56.2,2.64a24.06,24.06,0,0,1,.12,2.44c0,4.4-1.52,5.68-6.8,5.68a9.85,9.85,0,0,1-2.68-.2c-.4-.2-.48-.32-.8-1.56a20.1,20.1,0,0,0-1.4-3.32,24.1,24.1,0,0,0,4.64.52c2,0,2.32-.28,2.32-1.72a.2.2,0,0,0,0-.12Z"/><path class="cls-2" d="M406.19,455.68a2.1,2.1,0,0,1,.28.92c0,.4-.16.68-.68,1.4a41.58,41.58,0,0,1-8.12,8,60.39,60.39,0,0,1-12.2,7.48c-3.08,1.44-3.24,1.52-3.72,2-.32.32-.48.4-.72.4s-.68-.32-1.28-1.2a17.9,17.9,0,0,1-2-4.24,45.89,45.89,0,0,0,13.56-6c6.16-3.88,10-7.72,13-13A21.85,21.85,0,0,0,406.19,455.68ZM379.55,449c.68-.76,1-1,1.32-1,.76,0,3.76,2,6.24,4,1.52,1.24,2,1.76,2,2.16a8,8,0,0,1-1.68,2.44c-.88,1-1.32,1.36-1.64,1.36s-.28,0-1.92-1.56a33.58,33.58,0,0,0-4.16-3.32c-1.4-.92-1.4-.92-1.68-1.08a.48.48,0,0,1-.24-.36A8,8,0,0,1,379.55,449Z"/><path class="cls-2" d="M415.35,460.2l-.32,0c-.88,0-1.24-1.36-1.52-5.48,2,.32,4.72.44,12.16.44,8,0,10.16,0,10.92-.08a5.17,5.17,0,0,0,1.52-.32,1.86,1.86,0,0,1,.76-.16,2.32,2.32,0,0,1,1.72,1,7,7,0,0,1,1.8,2.84c0,.44-.2.76-.68,1.28-.32.28-.52.64-1.28,2.36-2.68,5.88-5.68,9.48-10.4,12.48-2.16,1.4-5.64,3-6.44,3-.56,0-.88-.24-1.56-1a7.07,7.07,0,0,0-2.64-2.24,29.07,29.07,0,0,0,11.68-6.48,20.4,20.4,0,0,0,5.08-8.44C421,459.56,418.19,459.68,415.35,460.2ZM428.43,446a84.26,84.26,0,0,0,8.76-.32h.48c.52,0,.72.4.76,1.6,0,.48,0,.92,0,1.32v.16c0,1.44-.16,1.84-.68,1.84-.16,0-.48,0-.84,0-.76-.08-3.76-.16-5-.16-6,0-10.28.08-12.64.28H419c-1,0-1.2-.6-1.44-5.08A86.48,86.48,0,0,0,428.43,446Z"/><path class="cls-2" d="M469.19,464.72c0,5,.08,8.76.24,11.48v.28c0,.44-.12.6-.52.64a24.4,24.4,0,0,1-3.52.2c-1.24,0-1.36-.08-1.36-.76v-.2c.16-2,.24-6.6.24-11.64v-5.28a65.12,65.12,0,0,1-6.36,3.76c-2.88,1.52-4.28,2.12-4.8,2.12a1,1,0,0,1-.84-.44,15,15,0,0,0-3.36-2.92,55.16,55.16,0,0,0,11.6-5.52,54.47,54.47,0,0,0,11.6-9.68,10.31,10.31,0,0,0,1.32-1.88c2.52,1.68,4.32,3.36,4.32,4.12,0,.24-.16.44-.64.64-.72.32-1,.52-2.88,2.16s-3.48,3-5,4.12Z"/><path class="cls-2" d="M516.19,455.68a2.1,2.1,0,0,1,.28.92c0,.4-.16.68-.68,1.4a41.58,41.58,0,0,1-8.12,8,60.39,60.39,0,0,1-12.2,7.48c-3.08,1.44-3.24,1.52-3.72,2-.32.32-.48.4-.72.4s-.68-.32-1.28-1.2a17.9,17.9,0,0,1-2-4.24,45.89,45.89,0,0,0,13.56-6c6.16-3.88,10-7.72,13-13A21.85,21.85,0,0,0,516.19,455.68ZM489.55,449c.68-.76,1-1,1.32-1,.76,0,3.76,2,6.24,4,1.52,1.24,2,1.76,2,2.16a8,8,0,0,1-1.68,2.44c-.88,1-1.32,1.36-1.64,1.36s-.28,0-1.92-1.56a33.58,33.58,0,0,0-4.16-3.32c-1.4-.92-1.4-.92-1.68-1.08a.48.48,0,0,1-.24-.36A8,8,0,0,1,489.55,449Z"/><path class="cls-2" d="M536.43,455.44c11.2-2.76,12.24-3.08,13.16-3.88a1.51,1.51,0,0,1,1-.4c.6,0,1.56.72,2.56,1.92a6.17,6.17,0,0,1,1.64,2.56c0,.56-.08.68-1,1.36-.44.36-.56.48-2.48,3.2a37.09,37.09,0,0,1-5.4,5.76c-.48.4-.72.52-1,.52s-.4-.08-.68-.36a10,10,0,0,0-3.24-2.24c3.4-2.4,6.24-5.32,7.28-7.48l-1.6.48c-.16,0-3.52,1-10.16,2.8v7.24c0,2.12.48,3.16,1.6,3.64a15.5,15.5,0,0,0,5.24.64,65.19,65.19,0,0,0,7.16-.48c.84-.08,1-.12,1.16-.12.84,0,1,.64,1.16,3.68v.32c0,.48-.16.8-.48.92a44.83,44.83,0,0,1-7.36.32c-5,0-7.6-.32-9.6-1.24-2.36-1.08-3.6-3.32-3.6-6.48V461c-4.72,1.36-5.24,1.56-6.56,2.24a1.72,1.72,0,0,1-.6.2c-.72,0-1.56-1.84-2.4-5a72.37,72.37,0,0,0,9.56-1.8v-3.8a42.59,42.59,0,0,0-.36-6.92,25.06,25.06,0,0,1,5.16.52c.36.12.6.32.6.56s0,.24-.32.92a13,13,0,0,0-.36,4Z"/><path class="cls-2" d="M570.11,467.52a79.43,79.43,0,0,1,13.32,3.76c3.36,1.28,3.92,1.6,3.92,2.16a17.17,17.17,0,0,1-1,3.44c-.28.72-.52,1-.88,1s-.24,0-4.28-1.84a68.55,68.55,0,0,0-15.76-4.4c-1.52-.2-1.64-.24-1.64-.68a16.39,16.39,0,0,1,1-3.28c.2-.56.44-.8.88-.8C565.79,466.84,569,467.32,570.11,467.52Zm13-13.56a62.18,62.18,0,0,0-7.84-2.72,71.81,71.81,0,0,0-8-1.6c-.6-.08-.84-.24-.84-.6a21.79,21.79,0,0,1,.88-3.44.73.73,0,0,1,.76-.56,3,3,0,0,1,.56,0c.08,0,.52.08,1.12.2a78.07,78.07,0,0,1,12.84,3c2.4.84,2.64,1,2.64,1.48a34.82,34.82,0,0,1-.92,3.68c-.16.48-.36.64-.68.64A1.61,1.61,0,0,1,583.11,454ZM580,458.6c2,.76,2.44,1,2.44,1.6a26.16,26.16,0,0,1-.92,3.56c-.16.44-.32.56-.64.56a1.26,1.26,0,0,1-.6-.2,44.76,44.76,0,0,0-5.16-2,58.38,58.38,0,0,0-7.6-1.84c-.68-.12-.8-.2-.8-.64a16.14,16.14,0,0,1,1-3.68.68.68,0,0,1,.64-.36C569.59,455.56,577,457.48,580,458.6Z"/><path class="cls-2" d="M627.59,456.72c0,1.84,0,2.08-.56,2.08h-.2c-1.4-.08-1.84-.08-12.08-.08-.68,6.4-2.12,10.32-5.2,14.36a16.6,16.6,0,0,1-4.56,4.24,1.71,1.71,0,0,1-.84.32,1.18,1.18,0,0,1-.84-.36,10.37,10.37,0,0,0-3.72-2.08c6.8-4.16,9.48-8.52,10.2-16.44-7.44,0-11.52.16-12.6.32a1,1,0,0,1-.32,0,.57.57,0,0,1-.6-.52,16,16,0,0,1-.56-4.44c2,.28,4.36.36,14.32.36v-1.8a31.28,31.28,0,0,0-.52-7.12,37.94,37.94,0,0,1,5.24.4c.6.12.84.32.84.72,0,.24,0,.28-.28,1A13,13,0,0,0,615,451c0,1,0,1,0,3.44,5.48,0,9.8-.24,11.64-.44a1,1,0,0,1,.32,0c.52,0,.64.36.64,1.76v1Z"/><path class="cls-2" d="M650.19,459c7.32,0,11.52-.08,15.56-.36h.52c1.2,0,1.2,0,1.2,3.24,0,1.64-.12,1.92-.8,1.92h-.16c-2.64-.12-4.12-.12-15.68-.12-4.24,0-6.36,0-10,.16h-1.16a10.44,10.44,0,0,0-2.24.16c-.2,0-.36,0-.44,0a.73.73,0,0,1-.8-.56,25.61,25.61,0,0,1-.4-4.88A140.17,140.17,0,0,0,650.19,459Z"/><circle class="cls-1" cx="287.64" cy="458.34" r="36"/><path class="cls-4" d="M284,468c-.25.66-.31.86-.56,1.61a33.74,33.74,0,0,1-4.89-6.8c.26,3.38.31,4,.31,5.49v8a34.18,34.18,0,0,0,.25,5h-5.55a35.37,35.37,0,0,0,.31-5.14V470c0-1.92.1-4.14.2-5.75-2.17,5.24-3.73,8-6.3,10.84a14.49,14.49,0,0,0-2.47-5c3.17-3.28,5.19-6.5,7.81-12.6h-2.52a24.61,24.61,0,0,0-4.38.25v-5.14a23,23,0,0,0,4.33.25h3.28V441.4a27.69,27.69,0,0,0-.26-4.74h5.55a28,28,0,0,0-.25,4.69v11.49h2.26a23.41,23.41,0,0,0,3.73-.2v5a26.57,26.57,0,0,0-3.83-.2h-1.71a25.5,25.5,0,0,0,6.2,7.41,20.72,20.72,0,0,0-1.31,2.72,37.51,37.51,0,0,0,4.43-.71L300,464.38V442.31a32.45,32.45,0,0,0-.3-5.65h5.85a33.61,33.61,0,0,0-.3,5.6v21a22.27,22.27,0,0,0,4.08-1.21l1.06,5.55c-1.26.15-2.42.35-4.69.8l-.45.1v7.11a34.66,34.66,0,0,0,.3,5.7h-5.85a33.9,33.9,0,0,0,.3-5.75v-5.85L289.67,472a39.1,39.1,0,0,0-4.58,1.21Zm-14-28.73a62.87,62.87,0,0,1,3,10.44l-4.08,1.76a36.15,36.15,0,0,0-3-10.33ZM286.55,441a56.57,56.57,0,0,1-3.83,10.48l-3.58-1.81a38.56,38.56,0,0,0,3.33-10.49ZM289,451.93a48.23,48.23,0,0,1,8.46,7.11l-3.32,4a39.53,39.53,0,0,0-8.52-7.46Zm1.56-12.09A48.28,48.28,0,0,1,299,447l-3.28,4.09c-3.63-3.88-3.68-3.94-8.57-7.51Z"/><circle class="cls-1" cx="210.45" cy="458.34" r="36"/><path class="cls-4" d="M195.25,447.5a40.7,40.7,0,0,1-4,3.43,22.5,22.5,0,0,0-3.53-3.68c4.54-3.28,7.21-6.05,9-9.33a9.87,9.87,0,0,0,1-2.42l5.65,1.11c-.36.56-.36.56-1,1.72-.41.75-.81,1.41-1.51,2.47h23.38a44.87,44.87,0,0,0,6.15-.31v5.35a45.49,45.49,0,0,0-4.79-.26V452h1.92a30.09,30.09,0,0,0,4.73-.25v5.34a30.47,30.47,0,0,0-4.73-.25h-1.92v6.45h1a27.65,27.65,0,0,0,4.64-.25v5.29a27.4,27.4,0,0,0-4.54-.25h-33a27.14,27.14,0,0,0-4.29.25v-5.29a29.38,29.38,0,0,0,4.74.25h1.11v-6.45h-2.07a30.87,30.87,0,0,0-4.73.25v-5.34a29.7,29.7,0,0,0,4.73.25h2.07Zm-6.9,30.24a22.37,22.37,0,0,0,6-9.12l4.44,2.26a31.18,31.18,0,0,1-6.2,10.18ZM200,452H204v-6.45H200Zm0,11.29H204v-6.45H200Zm2.22,17.54c.05-1.21.05-1.21.05-2a78.7,78.7,0,0,0-.76-8.57l4.74-.56a68.57,68.57,0,0,1,1.26,10.59ZM212.39,452v-6.45h-4V452Zm0,11.29v-6.45h-4v6.45Zm1.16,17.39a64.67,64.67,0,0,0-2.27-10.18l4.64-1.06a65.13,65.13,0,0,1,2.87,10.08ZM220.8,452v-6.45h-4.08V452Zm0,11.29v-6.45h-4.08v6.45Zm6.51,17.44a49,49,0,0,0-5.8-10.13l4.18-2.06a54.82,54.82,0,0,1,6.25,9.27Z"/></g></g></svg>