<svg xmlns="http://www.w3.org/2000/svg" xmlns:xlink="http://www.w3.org/1999/xlink" viewBox="0 0 329.01 516.44"><defs><style>.cls-1{fill:#64c264;}.cls-2{fill:#ffe238;}.cls-3{fill:#fff;}.cls-4{fill:url(#名称未設定グラデーション_6);}.cls-5{fill:url(#名称未設定グラデーション_6-5);}.cls-6{fill:#167640;}.cls-7{fill:none;stroke:#fff;stroke-miterlimit:10;}</style><linearGradient id="名称未設定グラデーション_6" x1="20.63" y1="369.4" x2="311.09" y2="369.4" gradientUnits="userSpaceOnUse"><stop offset="0" stop-color="#ffe038"/><stop offset="0.89" stop-color="#fff"/></linearGradient><linearGradient id="名称未設定グラデーション_6-5" x1="38.84" y1="432.89" x2="292.82" y2="432.89" xlink:href="#名称未設定グラデーション_6"/></defs><g id="レイヤー_2" data-name="レイヤー 2"><g id="text"><rect class="cls-1" y="219.63" width="149.81" height="7.34"/><rect class="cls-2" x="1.01" y="42.61" width="76.83" height="31.12" rx="15.56"/><rect class="cls-2" x="86.36" y="42.61" width="123.98" height="31.12" rx="15.56"/><path class="cls-2" d="M4.31,210.19a15.85,15.85,0,0,1,3.12,2.44l-1.37,1.59A12.85,12.85,0,0,0,3,211.64ZM7.49,217a37.38,37.38,0,0,1-1.67,4.46L5.07,223l-1.83-1.53a2.14,2.14,0,0,0,.38-.53,22.79,22.79,0,0,0,2.14-5.33ZM5.21,205.31a17,17,0,0,1,3,2.52l-1.49,1.55a13.43,13.43,0,0,0-2.93-2.66Zm12.88,1.55a18.61,18.61,0,0,0,2.76-.12v2.07a23,23,0,0,0-2.54-.08H11.05c-.35.59-.51.83-.87,1.38h7.46c.93,0,1.52,0,2-.06,0,.28-.06.46-.1,1.09s0,.9-.06,2c0,.63,0,.63,0,.81a9.34,9.34,0,0,0,1.72-.1v2.06a11.18,11.18,0,0,0-1.62-.1h-.2c0,.76-.12,1.83-.18,2.4a6.53,6.53,0,0,0,1.45-.1v2a10.3,10.3,0,0,0-1.47-.08H19c-.39,2.39-.85,2.85-2.89,2.85-.32,0-.54,0-1.73-.1a4.71,4.71,0,0,0-.43-2,12.93,12.93,0,0,0,2,.18c.7,0,.81-.1,1-.95H10.36c-.14.63-.18.81-.36,1.52l-2.16-.2a33.49,33.49,0,0,0,1.27-5.57H8.83a9,9,0,0,0-1.52.1v-2.06a11,11,0,0,0,1.82.1h.2a28.36,28.36,0,0,0,.2-3,11.52,11.52,0,0,1-1.17,1.27,5.55,5.55,0,0,0-1.45-1.57,11.06,11.06,0,0,0,2.48-2.94,8.84,8.84,0,0,0,1.09-2.77l2.22.41a4.42,4.42,0,0,1-.2.48c-.18.44-.2.48-.45,1Zm-5.15,11.38c.14-1,.18-1.19.31-2.4H11.07c-.15,1-.19,1.29-.37,2.4Zm.49-4.26c0-.69,0-.69.1-2.1h-2.1c-.06,1-.08,1.33-.16,2.1Zm3.79,4.26c.08-.77.16-1.49.22-2.4H15.1c-.08.8-.18,1.59-.28,2.4Zm.3-4.26c0-1.33,0-1.33.06-2.1H15.4c0,.73-.08,1.41-.14,2.1Z"/><path class="cls-2" d="M29.27,212.1a15.42,15.42,0,0,1,2.12,2,20.89,20.89,0,0,0,1.23-4.6H29.79a19.13,19.13,0,0,1-3.71,6,5.64,5.64,0,0,0-1.29-1.85,15.68,15.68,0,0,0,3.55-6,14.18,14.18,0,0,0,.54-2.52l2.24.39a10.19,10.19,0,0,0-.36,1.1c-.12.45-.16.63-.3,1.09h2.78c.71,0,1.13,0,1.58-.06a12.81,12.81,0,0,0-.19,1.32,9.39,9.39,0,0,0,1.9,2.8v-4.28a14.66,14.66,0,0,0-.12-2.24h2.36a14.81,14.81,0,0,0-.12,2.24v6.28a17.94,17.94,0,0,0,1.86,1.19,11.34,11.34,0,0,0,2.6,1.29A10.49,10.49,0,0,0,42,218.3a21.62,21.62,0,0,1-3.33-2.06v4.2a16.28,16.28,0,0,0,.14,2.56h-2.4a19.33,19.33,0,0,0,.14-2.56v-6a14.56,14.56,0,0,1-2.34-2.8,18.34,18.34,0,0,1-2.58,6.46A19.72,19.72,0,0,1,26.76,223a6,6,0,0,0-1.55-1.76,11.07,11.07,0,0,0,2.3-1.71A13.51,13.51,0,0,0,30.46,216a13.88,13.88,0,0,0-2.36-2.28Z"/><path class="cls-2" d="M48,215.23c0-.64,0-1,0-2.14a9.84,9.84,0,0,1-1.47,2,11.25,11.25,0,0,0-1-2.34,13.74,13.74,0,0,0,3.27-5.13,12.43,12.43,0,0,0,.75-2.64l2.16.71c-.1.28-.1.28-.29.86A20.9,20.9,0,0,1,50,210.13v10.63a20.3,20.3,0,0,0,.1,2.24H47.87a16.53,16.53,0,0,0,.12-2.28Zm8.24-3H54.15c-.85,0-1.48,0-2,.06a16.31,16.31,0,0,0,.08-1.86v-2.81a15.3,15.3,0,0,0-.08-1.77,14.56,14.56,0,0,0,2.14.1h6.19a15.33,15.33,0,0,0,2.14-.1,16.51,16.51,0,0,0-.08,1.9v2.7a15.71,15.71,0,0,0,.08,1.84,4.21,4.21,0,0,0-.56,0l-.43,0c-.34,0-.64,0-.92,0H58.28v1.61h3.39a17.35,17.35,0,0,0,2.1-.12v2.18a18.94,18.94,0,0,0-2-.12h-2.6a13.92,13.92,0,0,0,5.17,4.07A11.53,11.53,0,0,0,63,221.93a21.34,21.34,0,0,1-2.47-1.81,11.91,11.91,0,0,1-2.3-2.75c0,.69,0,1.49,0,2.06v1.79a11.38,11.38,0,0,0,.13,1.78H56.13a17.77,17.77,0,0,0,.1-1.8v-1.81c0-.24,0-.93,0-2.06a10.61,10.61,0,0,1-2.51,3,15.2,15.2,0,0,1-2.3,1.73,6.84,6.84,0,0,0-1.31-1.94,14.76,14.76,0,0,0,3.33-2.32,12.12,12.12,0,0,0,1.86-2H53c-.75,0-1.5,0-2.1.1v-2.14a20.37,20.37,0,0,0,2.1.1h3.21Zm-1.94-1.9H60.5v-2.48H54.29Z"/><path class="cls-2" d="M77.19,211.22a14.32,14.32,0,0,0-1.55.06v-.93a14.11,14.11,0,0,1-1.8,1.05,3.69,3.69,0,0,0-.71-1.19c-.4,1-.42,1-.76,1.77a5.83,5.83,0,0,1,1,1.82,8,8,0,0,1,.38,2.46c0,1.45-.38,2.14-1.35,2.46a5,5,0,0,1-1.72.18,4.32,4.32,0,0,0-.54-2A7,7,0,0,0,71,217c.72,0,.9-.18.9-.87a7.91,7.91,0,0,0-.2-1.7,4.21,4.21,0,0,0-1.25-2.19,33.43,33.43,0,0,0,1.7-4.63h-2v13.18a14.73,14.73,0,0,0,.1,2.2H68a15.77,15.77,0,0,0,.12-2.22v-13.3c0-.6,0-1.17-.08-1.79.42,0,.85.06,1.49.06h2.67a6.61,6.61,0,0,0,1.31-.08l1,1.15a4.31,4.31,0,0,0-.24.56c-.13.3-.23.57-.37.95-.24.63-.24.63-.34.91a12,12,0,0,0,2.38-1.58,9,9,0,0,0,2.1-2.48h2.1a10.14,10.14,0,0,0,5.79,4.16,5.55,5.55,0,0,0-1.21,2,15.2,15.2,0,0,1-1.78-.93v.93a13.94,13.94,0,0,0-1.55-.06H80.14v1.15H82.7c.79,0,1.25,0,1.72-.06a13.52,13.52,0,0,0-.07,1.53v2.46a13.14,13.14,0,0,0,.07,1.55,15.34,15.34,0,0,0-1.82-.08H80.28c1.17,1.6,2.78,2.57,5.39,3.25a6.72,6.72,0,0,0-1.19,2,11.46,11.46,0,0,1-3.13-1.61A8.54,8.54,0,0,1,79.07,219c-1,1.95-2.69,3.2-5.49,4.09a6.71,6.71,0,0,0-1.31-1.88c2.66-.5,4.42-1.67,5.24-3.43H75.86a14.9,14.9,0,0,0-1.76.08c0-.2,0-.2,0-.54,0-.12,0-.52,0-.77V213.7a11.34,11.34,0,0,0-.06-1.37c.55,0,.71,0,1.66,0h2.46v-1.15Zm-1.25,2.88V216H78a15.69,15.69,0,0,0,.18-1.88Zm5.67-4.68a12.21,12.21,0,0,1-2.46-2.58,12.22,12.22,0,0,1-2.34,2.58h4.8ZM80.1,214.1A15.78,15.78,0,0,1,80,216H82.5V214.1Z"/><path class="cls-2" d="M96.2,218.12c-1,1.67-2.3,2.6-3.67,2.6-2.1,0-3.59-2.06-3.59-4.92a8.14,8.14,0,0,1,4.37-7.39,9.51,9.51,0,0,1,4.73-1,7,7,0,0,1,7.34,7,7.67,7.67,0,0,1-5.08,7.51,4.84,4.84,0,0,1-1.46.44c-.24,0-.34-.08-.6-.46A4.39,4.39,0,0,0,97,220.56c4.15-1.07,6-3,6-6.3a4.73,4.73,0,0,0-2-4,5,5,0,0,0-2.38-.87C98.1,213.68,97.43,216,96.2,218.12ZM93.29,211a6.31,6.31,0,0,0-2.12,4.79c0,1.55.51,2.46,1.36,2.46,1,0,2-1.39,2.8-3.8a24.67,24.67,0,0,0,1-4.9A5.88,5.88,0,0,0,93.29,211Z"/><path class="cls-2" d="M110.12,210.15a22.08,22.08,0,0,1,3.62,2.26l-1.18,1.77a19.55,19.55,0,0,0-3.61-2.46Zm3.66,6.56a40.29,40.29,0,0,1-2.87,6L109,221.2a5.25,5.25,0,0,0,.71-.84,21.12,21.12,0,0,0,2.34-4.87Zm-2.89-11.47a25.06,25.06,0,0,1,3.43,2.55l-1.27,1.65a21,21,0,0,0-3.47-2.68Zm8.31,3.15c-2,.24-2.36.26-4,.36a5.6,5.6,0,0,0-.77-1.91c4.28-.1,8.6-.81,10.43-1.72l1.44,2-1,.24c-.93.26-2.73.61-4.06.81v2.56h3.37a15.11,15.11,0,0,0,2.16-.12v2.22a14.8,14.8,0,0,0-2.14-.12H121.3v2.5h2.93a15.24,15.24,0,0,0,1.55-.06,13.81,13.81,0,0,0-.08,1.74V221a18.2,18.2,0,0,0,.1,2h-2.2V222h-6.47V223H115c0-.5.08-1.25.08-2v-4.21c0-.63,0-1.19-.06-1.66a15,15,0,0,0,1.51.06h2.68v-2.5h-3a16.54,16.54,0,0,0-2.16.12v-2.22a15.51,15.51,0,0,0,2.16.12h3Zm-2.07,11.66h6.47v-3h-6.47Z"/><path class="cls-2" d="M133.65,216.93a12.85,12.85,0,0,1-2,6.13,9.61,9.61,0,0,0-1.87-1.53c1.61-2.36,2-4.7,2-13a21.84,21.84,0,0,0-.11-2.72c.67.06,1.2.08,2.22.08h10.86a21.06,21.06,0,0,0,2.24-.08,21.24,21.24,0,0,0-.08,2.18v12.73c0,1.61-.59,2-2.78,2-.59,0-1.6,0-2.16-.08a8.2,8.2,0,0,0-.55-2,21.32,21.32,0,0,0,2.42.18c.81,0,1-.08,1-.5v-3.39h-4.62v3.19a16,16,0,0,0,.1,2.3H138a13.22,13.22,0,0,0,.12-2.29v-3.2Zm4.46-4.56h-4.3c0,.52,0,.94,0,1.21,0,.88,0,1.09,0,1.43h4.34Zm0-4.46h-4.24v2l0,.55h4.26Zm6.7,2.56v-2.56h-4.62v2.56Zm0,4.54v-2.64h-4.62V215Z"/><path class="cls-3" d="M152.6,214.38a6.13,6.13,0,0,0-.95.3,1,1,0,0,1-.35.09c-.3,0-.57-.55-.81-1.7a20.27,20.27,0,0,0,2.67-.31c1.61-.25,3.66-.55,4.73-.69s2.18-.32,2.69-.43a.56.56,0,0,1,.2,0c.18,0,.25.08.37.42a3.44,3.44,0,0,1,.19.87c0,.17-.06.22-.25.22a4.94,4.94,0,0,0-.79.07,4.82,4.82,0,0,0-4.09,4.46c0,1.58,1.24,2.61,3.34,2.8.18,0,.25.08.25.24a4.54,4.54,0,0,1-.25,1.28.35.35,0,0,1-.35.22,4.32,4.32,0,0,1-1-.21c-2.29-.67-3.48-2.12-3.48-4.18a4.83,4.83,0,0,1,1.06-3,5.75,5.75,0,0,1,1.47-1.28C155.48,213.78,153.63,214.13,152.6,214.38Zm6.89.35a4.85,4.85,0,0,1,1.33,1.48c0,.07-.08.15-.32.37s-.27.21-.38.25l-.09,0c-.05,0-.07,0-.31-.39a6.19,6.19,0,0,0-.87-1.08.26.26,0,0,1-.07-.1c0-.07,0-.11.05-.11a2.22,2.22,0,0,1,.33-.28,1.4,1.4,0,0,0,.22-.14s0,0,0,0h.07Zm2.3.93c-.2.15-.32.23-.39.23s-.08,0-.15-.13a6.32,6.32,0,0,0-1-1.28.21.21,0,0,1-.05-.11c0-.07.08-.15.26-.28a1,1,0,0,1,.42-.22c.1,0,.26.12.54.41a3.37,3.37,0,0,1,.75,1C162.14,215.38,162.05,215.47,161.79,215.66Z"/><rect class="cls-1" x="52.75" y="250.23" width="170.67" height="7.34"/><path class="cls-3" d="M4.17,245.28l-.56,0H3.47c-.11,0-.17,0-.21-.17a8.21,8.21,0,0,1-.17-1.33l1,0c.15,0,1.21-.06,1.68-.1a10.52,10.52,0,0,0,.31-2.38c1.39.18,1.89.34,1.89.6,0,.1,0,.12-.22.43a4.07,4.07,0,0,0-.38,1.14,8.83,8.83,0,0,0,1.51-.36.54.54,0,0,1,.2,0c.1,0,.12.07.2.46a4.46,4.46,0,0,1,.11.77c0,.16,0,.18-.39.26A20.2,20.2,0,0,1,7,245a24.26,24.26,0,0,1-1.45,3.58,19,19,0,0,1-1.11,2c-.1.16-.17.21-.27.21a2.77,2.77,0,0,1-1-.55c-.21-.15-.27-.21-.27-.31s.06-.17.23-.42a13.46,13.46,0,0,0,1.35-2.2,16.23,16.23,0,0,0,.9-2.11ZM8.59,253c-1.47,0-2.46-.81-2.46-2a2.25,2.25,0,0,1,2.42-2.16,5.71,5.71,0,0,1,1,.09c-.05-.64-.05-.9-.1-2.15,0-.26,0-.6-.06-1a6.24,6.24,0,0,1,1.47.26.21.21,0,0,1,.16.22,1,1,0,0,1,0,.21,3.11,3.11,0,0,0-.08.85c0,.5,0,1.34.08,2a8.14,8.14,0,0,1,2,1.17c.3.23.4.35.4.46s-.06.26-.44.86c-.16.27-.28.39-.38.39s-.08,0-.45-.35a6.26,6.26,0,0,0-1.11-.81C11.05,252.28,10.14,253,8.59,253Zm0-2.88c-.64,0-1.09.31-1.09.78s.41.73,1,.73a1,1,0,0,0,1.09-1.08.82.82,0,0,0,0-.21A2.23,2.23,0,0,0,8.56,250.15Zm5-3.82c-.16.23-.24.29-.33.29s-.12,0-.22-.12a8,8,0,0,0-1.3-1,5.25,5.25,0,0,0-.92-.47c-.18-.08-.25-.13-.25-.24s.07-.22.27-.53c.32-.47.4-.55.52-.55a6.83,6.83,0,0,1,2,1c.57.39.75.55.75.7A3.16,3.16,0,0,1,13.59,246.33Z"/><path class="cls-3" d="M22.84,246a3.06,3.06,0,0,1,3.24,3.12,3.53,3.53,0,0,1-1.76,3,5.35,5.35,0,0,1-2.77.69c-1.71,0-2.71-.69-2.71-1.86A1.93,1.93,0,0,1,21,249.19,2.64,2.64,0,0,1,23.51,251a2,2,0,0,0,1-1.75,1.89,1.89,0,0,0-2.11-1.91,5.7,5.7,0,0,0-3.9,1.83,6.5,6.5,0,0,0-.66.75c-.1.14-.17.19-.25.19a2.82,2.82,0,0,1-1.19-1.18c0-.13.05-.19.35-.41A17.49,17.49,0,0,0,18,247.31a38.9,38.9,0,0,0,3.68-4,21.59,21.59,0,0,0-3.23.55l-.15,0c-.11,0-.17-.06-.25-.26a4.42,4.42,0,0,1-.29-1.44,6.24,6.24,0,0,0,.92.06c.64,0,1.73-.09,3.15-.25a3.63,3.63,0,0,0,1-.24.54.54,0,0,1,.27-.07c.19,0,.38.16.73.7.25.35.33.52.33.63s0,.23-.33.42a3.33,3.33,0,0,0-.7.56c-.68.65-.69.65-1.52,1.5l-1.2,1.21A4.55,4.55,0,0,1,22.84,246Zm-1.29,4.65a1.27,1.27,0,0,0-.69-.2c-.42,0-.69.2-.69.53s.42.63,1.07.63a3.15,3.15,0,0,0,.88-.12A1.43,1.43,0,0,0,21.55,250.67Z"/><path class="cls-3" d="M31.7,245.06c.57-.63.85-.79,1.4-.79s.86.16,1.41.75a20.16,20.16,0,0,0,2.82,2.61,17,17,0,0,0,2.79,1.77c.31.16.35.2.35.29a4.16,4.16,0,0,1-.64,1.2c-.19.27-.24.32-.35.32a6.86,6.86,0,0,1-1.75-1.09A24.57,24.57,0,0,1,34.26,247c-.88-1-.88-1-1.12-1s-.28,0-.89.76c-.43.53-.82,1-1.45,1.73a5,5,0,0,0-.56.72c-.1.16-.17.22-.26.22s-.39-.18-.74-.54a3.06,3.06,0,0,1-.65-.89A15.32,15.32,0,0,0,31.7,245.06Zm5.65.76a.17.17,0,0,1-.15-.11,6,6,0,0,0-1.11-1.28c-.07-.06-.08-.09-.08-.13s.16-.24.44-.45.16-.12.24-.12.41.25.82.68.58.63.58.74A1.61,1.61,0,0,1,37.35,245.82Zm2-1.67a1.54,1.54,0,0,1-.7.63s-.1,0-.16-.13a7.76,7.76,0,0,0-1.11-1.23c-.06,0-.07-.06-.07-.09a1.35,1.35,0,0,1,.67-.54A3.8,3.8,0,0,1,39.38,244.15Z"/><path class="cls-3" d="M49.24,242.62c0,.12-.05.16-.28.29a1.5,1.5,0,0,0-.33.31c-.84,1-2,2.28-3.1,3.35a.86.86,0,0,0-.32.57c0,.14.11.31.36.53.8.73,2.09,2.05,3,3.14.67.75.85,1,.85,1.13s-.23.38-.78.81a1.22,1.22,0,0,1-.5.29c-.12,0-.17,0-.31-.27a28.49,28.49,0,0,0-3.07-3.71,6.77,6.77,0,0,1-.91-1,1.46,1.46,0,0,1-.32-.9,1.61,1.61,0,0,1,.24-.82,6.57,6.57,0,0,1,1-1.12,23.32,23.32,0,0,0,2.14-2.58,5.46,5.46,0,0,0,.7-1.28C48.67,241.93,49.24,242.37,49.24,242.62Z"/><path class="cls-2" d="M56.44,238.69c-.79.16-1,.2-2,.36a5.41,5.41,0,0,0-.76-1.79A18.65,18.65,0,0,0,58.74,236a4.65,4.65,0,0,0,.83-.44l1.19,1.7-.51.2a11.29,11.29,0,0,1-1.79.66v2.61h.6a7.82,7.82,0,0,0,1.34-.08v2a8.12,8.12,0,0,0-1.34-.08h-.54a9.61,9.61,0,0,0,2.16,3.27l-.16.35a8.3,8.3,0,0,0-.69,1.51,10.86,10.86,0,0,1-1.49-2.58c.06.48.12,1.63.12,2.24v3.87a18.21,18.21,0,0,0,.1,2.38H56.32a18.33,18.33,0,0,0,.12-2.38v-3.35c0-.36.08-1.88.12-2.4A12.88,12.88,0,0,1,54.2,250a6.93,6.93,0,0,0-1-2,13.76,13.76,0,0,0,1.84-2.66,16.52,16.52,0,0,0,1.13-2.69h-1a7.78,7.78,0,0,0-1.55.1v-2.05a7.78,7.78,0,0,0,1.55.1h1.25Zm9.75.93a16.38,16.38,0,0,0,1.57-3.94l2.14.69a28,28,0,0,1-1.61,3.25h.6a13.29,13.29,0,0,0,1.62-.08,7.85,7.85,0,0,0-.09,1.37v3.55a8.82,8.82,0,0,0,.09,1.43,13.72,13.72,0,0,0-1.62-.08H68v5.27c0,.38.08.42.83.42s.83-.08.87-2.78a5.48,5.48,0,0,0,1.83.86c-.14,2.12-.26,2.73-.6,3.19s-1,.67-2.79.67S66,253.08,66,251.78v-6H64.8a11.77,11.77,0,0,1-.91,4.38,7,7,0,0,1-3.35,3.55A6.11,6.11,0,0,0,59.08,252c2.51-1.15,3.66-3.11,3.68-6.22h-.31a12,12,0,0,0-1.53.08c0-.48.06-.91.06-1.45V241c0-.47,0-.93-.06-1.41a12.43,12.43,0,0,0,1.55.08ZM63,239.54a12.82,12.82,0,0,0-1.59-3l1.89-.89a17.69,17.69,0,0,1,1.6,3Zm-.12,4.38h5.43v-2.45H62.92Z"/><path class="cls-2" d="M80.8,242.89a17.42,17.42,0,0,0-1.9.08V242a21.05,21.05,0,0,1-3.15,1.61,9.37,9.37,0,0,0-1.13-2c3.63-1.27,6.52-3.34,7.93-5.67h2.38a12.5,12.5,0,0,0,3,3,16.7,16.7,0,0,0,5.15,2.58,8.8,8.8,0,0,0-1,2.16A20.39,20.39,0,0,1,88.61,242v1a16.18,16.18,0,0,0-1.9-.08h-2v1.87h4.91a13.64,13.64,0,0,0,2.09-.1v2.14a14.49,14.49,0,0,0-2.12-.12H84.75V251H90a17.58,17.58,0,0,0,2.28-.12v2.22A21.52,21.52,0,0,0,90,253H77.73a22.78,22.78,0,0,0-2.42.12V250.9a20,20,0,0,0,2.4.12h4.88v-4.34H78a16,16,0,0,0-2.12.12v-2.14a14.75,14.75,0,0,0,2.12.1h4.58v-1.87Zm-1.38,4A23,23,0,0,1,81,250.07l-1.94.77a13.81,13.81,0,0,0-1.53-3.21Zm1.34-5.77h6.47a15.47,15.47,0,0,1-3.47-3.25,14.59,14.59,0,0,1-3.41,3.25ZM90,247.65c-.24.44-.24.44-1,1.85-.08.15-.14.27-.81,1.38l-1.81-.69A16.2,16.2,0,0,0,88,246.86Z"/><path class="cls-2" d="M103.64,248.72c-1,1.67-2.3,2.6-3.67,2.6-2.1,0-3.59-2.06-3.59-4.92a8.14,8.14,0,0,1,4.37-7.39,9.61,9.61,0,0,1,4.73-1,7,7,0,0,1,7.34,7,7.67,7.67,0,0,1-5.08,7.51,4.84,4.84,0,0,1-1.46.44c-.24,0-.34-.08-.6-.46a4.39,4.39,0,0,0-1.27-1.27c4.15-1.07,6-3,6-6.3a4.73,4.73,0,0,0-2-4,5,5,0,0,0-2.38-.87C105.54,244.28,104.87,246.6,103.64,248.72Zm-2.91-7.15a6.29,6.29,0,0,0-2.12,4.79c0,1.55.51,2.46,1.36,2.46,1,0,2-1.39,2.8-3.8a24.67,24.67,0,0,0,1-4.9A5.88,5.88,0,0,0,100.73,241.57Z"/><path class="cls-2" d="M129.75,240c1.15,0,1.51,0,2.16-.06a17.27,17.27,0,0,0-.08,2V248a18.48,18.48,0,0,0,.08,2.22c-.69-.06-1.29-.08-2.1-.08h-1.39a9.67,9.67,0,0,0,1.13.54,17,17,0,0,0,4.48,1.09,10,10,0,0,0-1.07,2,18.32,18.32,0,0,1-3.91-1.11,16.1,16.1,0,0,1-2.71-1.41l1.15-1.07h-4.86l1.09,1a15.1,15.1,0,0,1-6.3,2.58,6.9,6.9,0,0,0-1.21-1.92,12.75,12.75,0,0,0,5.37-1.71h-1c-.83,0-1.37,0-2.1.08a19.25,19.25,0,0,0,.08-2.22v-6.5a13.3,13.3,0,0,1-1.47,1,6.08,6.08,0,0,0-1-1.85,14,14,0,0,0,3.57-2.67,7.8,7.8,0,0,0,1.86-2.54l2.44.42-.67,1h3.53a13.32,13.32,0,0,0,1.88-.08l1.07,1a9,9,0,0,0-1.05,1.27,13.25,13.25,0,0,1-.87,1Zm-4.42,0a10.29,10.29,0,0,0,1.11-1.41h-4.58c-.48.5-.77.78-1.47,1.41Zm-4.72,2.83h9.18v-1.06h-9.18Zm0,2.72h9.18v-1h-9.18Zm0,2.76h9.18V247.2h-9.18Z"/><path class="cls-2" d="M138.73,241.27a10.33,10.33,0,0,0-1.49.1v-2.08a8.48,8.48,0,0,0,1.51.1h.89v-1.57a13.3,13.3,0,0,0-.1-2h2.28a13,13,0,0,0-.1,2v1.59h.72a10.76,10.76,0,0,0,1.17-.06v2a11.71,11.71,0,0,0-1.19-.06h-.7v2.93c.8-.27,1-.33,1.87-.65l0,1.9c-1,.36-1.15.42-1.89.71v5.5c0,1.34-.69,1.84-2.47,1.84-.44,0-1,0-1.61-.06a7.18,7.18,0,0,0-.44-2.06,17.66,17.66,0,0,0,1.81.12c.53,0,.63-.1.63-.56v-4.08l-1.35.43a4.6,4.6,0,0,0-.83.3l-.41-2.16a13.1,13.1,0,0,0,2.59-.59v-3.57Zm3.87,9.57c.65.06,1.38.1,2.28.1h7.73a17.44,17.44,0,0,0,2.24-.12V253a18.46,18.46,0,0,0-2.26-.12h-7.71a18.1,18.1,0,0,0-2.28.1Zm3.57-1.76c-.7,0-1.33,0-1.95.06,0-.42.06-1,.06-1.81v-8.64c0-.95,0-1.49-.06-2.08a15.83,15.83,0,0,0,2,.08h5.26a16.54,16.54,0,0,0,2.06-.08c-.06.65-.08,1.23-.08,2.34v8c0,1,0,1.51.08,2.22-.5,0-1.15-.06-2-.06Zm.17-7.12h5v-3.37h-5Zm0,5.25h5v-3.4h-5Z"/><path class="cls-2" d="M166.19,247.37c-2,1.17-2.56,1.75-2.56,2.64a.86.86,0,0,0,.44.79,6.42,6.42,0,0,0,2.71.4,30.73,30.73,0,0,0,3.63-.24,11.52,11.52,0,0,0,1.47-.33h.1a.35.35,0,0,1,.31.25,6.68,6.68,0,0,1,.2,1.75c0,.3-.1.43-.36.49a37.87,37.87,0,0,1-4.2.22,12.42,12.42,0,0,1-4.74-.57,2.67,2.67,0,0,1-1.76-2.66,3.85,3.85,0,0,1,1.63-3.07,16.76,16.76,0,0,1,2.93-1.87c-.16-.67-.46-.95-1.09-.95a4.82,4.82,0,0,0-2.64.95,12.92,12.92,0,0,0-1.7,1.39c-.6.62-.66.66-.82.66s-.63-.46-1.05-1.17a1.88,1.88,0,0,1-.33-.74c0-.19,0-.23.53-.53a12.48,12.48,0,0,0,3.85-4c-1.43.1-2.18.12-3,.12-.31,0-.37-.06-.47-.41a17.45,17.45,0,0,1-.18-1.87,12.12,12.12,0,0,0,2.06.12c.78,0,1.65,0,2.56-.06a8,8,0,0,0,.59-2.83c1.79.31,2.62.61,2.62,1a.48.48,0,0,1-.08.24c-.14.27-.3.59-.57,1.22a.73.73,0,0,0-.06.14c1.15-.17,2.16-.37,2.87-.53a2.68,2.68,0,0,1,.64-.14.26.26,0,0,1,.29.18,12,12,0,0,1,.2,1.58c0,.22-.08.32-.34.38a43.38,43.38,0,0,1-4.73.71,11.71,11.71,0,0,1-1.65,2.44,5.23,5.23,0,0,1,2.4-.59c.91,0,1.51.53,1.92,1.66l3.19-1.76a6.16,6.16,0,0,0,1.75-1.35,7.44,7.44,0,0,1,1.72,2.46c0,.12-.09.2-.35.26a41.92,41.92,0,0,0-5.89,2.55c0,.36.06,1.29.06,1.93v1c0,.24,0,.36-.14.43a3,3,0,0,1-1.25.16c-.69,0-.81-.06-.81-.39v-.08c0-.58.06-1.35.06-1.83Z"/><path class="cls-2" d="M179,240.87a14.7,14.7,0,0,1,3,2.3l-1.35,1.57a15.43,15.43,0,0,0-3.09-2.42Zm2.46,6.39a30.24,30.24,0,0,1-1.88,5.63l-.18.45-1.78-1.58a3.54,3.54,0,0,0,.47-.66,22.25,22.25,0,0,0,.95-2.22,20,20,0,0,0,.84-2.91Zm8.11,1.6c0,.4,0,.7,0,1a13.57,13.57,0,0,0,1.27-1.78,39.49,39.49,0,0,1-1-8.23H184.5a62.43,62.43,0,0,1-.39,9,10.71,10.71,0,0,1-1.57,4.72,8,8,0,0,0-1.72-1.37,8.46,8.46,0,0,0,1.35-3.51,49.09,49.09,0,0,0,.49-8.26c0-.8,0-1.51-.06-2L181.1,240a12.47,12.47,0,0,0-2.92-2.6l1.49-1.39a14.17,14.17,0,0,1,2.93,2.52c0-.26,0-.34-.08-.61a17.53,17.53,0,0,0,2.18.1h5.14a13.48,13.48,0,0,0-.1-2.26h2.14a10.66,10.66,0,0,0-.14,2,1.5,1.5,0,0,0,0,.24h2.1a13.15,13.15,0,0,0-1.8-1.33l1.23-1.13a11.06,11.06,0,0,1,2,1.46l-1.05,1a6.84,6.84,0,0,0,1.15-.08V240a17.39,17.39,0,0,0-2.06-.08h-1.57a49.45,49.45,0,0,0,.44,5.69,14.64,14.64,0,0,0,1-4.36l2,.71a10.42,10.42,0,0,0-.34,1.11,21.68,21.68,0,0,1-2.06,5.24,9,9,0,0,0,1.31,2.65s0,0,0,.06l0,0a6.81,6.81,0,0,0,.32-2.67,6.78,6.78,0,0,0,1.58,1,9.93,9.93,0,0,1-.43,2.65c-.3.86-.8,1.37-1.41,1.37-.91,0-1.81-1-2.68-3a14,14,0,0,1-3.59,3.45,6.46,6.46,0,0,0-1.52-1.41,14.72,14.72,0,0,0,2.91-2.24c-.49,0-.65,0-1,0h-1.8v1.05H185a10.48,10.48,0,0,0,.08-1.68v-3.87c0-.49,0-1.09,0-1.33.24,0,.69,0,1.31,0h2.16c.4,0,.79,0,1.11,0,0,.16,0,.56,0,1Zm-4.76-7.65a6.9,6.9,0,0,0,1.07.06h2.64a6.84,6.84,0,0,0,1.09-.06v1.84c-.28,0-.56,0-1.07,0h-2.68c-.47,0-.73,0-1,0Zm1.81,7.1h1.42v-2.42h-1.42Z"/><path class="cls-3" d="M205.49,246.32a2.72,2.72,0,0,1,3,2.74c0,1.59-1,2.7-3,3.35a10.87,10.87,0,0,1-2.46.44c-.29,0-.36-.06-.54-.45a1.8,1.8,0,0,0-.72-.78c3.38-.27,5.05-1.13,5.05-2.6,0-.82-.58-1.31-1.55-1.31a5,5,0,0,0-3.52,1.75,3.41,3.41,0,0,0-.49.62c-.12.2-.2.27-.32.27a2.36,2.36,0,0,1-1-.44.45.45,0,0,1-.21-.43,2.64,2.64,0,0,1,0-.43s0-.14,0-.29c.07-.86.11-1.22.27-2.43,0-.15,0-.15.12-.78,0,0,0-.3.11-.79a4.16,4.16,0,0,0,0-.45,5.32,5.32,0,0,1,1.5.39c.11.06.17.12.15.2a.32.32,0,0,1-.07.18,2.4,2.4,0,0,0-.3.86,17.52,17.52,0,0,0-.34,2.14A5.68,5.68,0,0,1,205.49,246.32Zm-.24-3.84c.53.31.69.46.69.61a2.94,2.94,0,0,1-.45.86c-.21.31-.29.38-.4.38s-.11,0-.27-.15a8.52,8.52,0,0,0-2.62-1.43c-.2-.08-.24-.11-.24-.21a1.56,1.56,0,0,1,.34-.72c.22-.32.31-.4.46-.4A9.24,9.24,0,0,1,205.25,242.48Z"/><path class="cls-3" d="M214.41,241.89c.34.09.43.16.43.31a.78.78,0,0,1-.08.32,7.81,7.81,0,0,0-.31,2c-.11,2.17-.16,3.85-.16,5.18a3.35,3.35,0,0,0,.11,1c.15.44.62.67,1.37.67a4.93,4.93,0,0,0,3.4-1.48,8,8,0,0,0,1.28-1.56,4.55,4.55,0,0,0,.49,1.32.81.81,0,0,1,.06.31c0,.24-.25.56-.93,1.17a6.44,6.44,0,0,1-4.35,1.81,3,3,0,0,1-2.26-.74,3.38,3.38,0,0,1-.72-2.57c0-1,0-1.85.12-5,0-.47,0-.75,0-.87a13,13,0,0,0-.09-2.06A7.7,7.7,0,0,1,214.41,241.89Z"/><path class="cls-3" d="M223.76,249.76c.24-.22.31-.27.4-.27a5.57,5.57,0,0,1,1.58,1.16,6.44,6.44,0,0,1,1.42,1.71c0,.12,0,.14-.41.49s-.62.56-.72.56-.16-.06-.23-.19a8.55,8.55,0,0,0-2.5-2.56c-.1-.08-.16-.13-.16-.21S223.17,250.31,223.76,249.76Z"/><rect class="cls-1" x="30.04" y="280.83" width="190.23" height="7.34"/><path class="cls-3" d="M6.24,282.49a6.75,6.75,0,0,0,.08,1.31H4.76a9.51,9.51,0,0,0,.08-1.34v-3.24a11.12,11.12,0,0,1-1.44,1.1A5,5,0,0,0,2.74,279,9.24,9.24,0,0,0,5,277.23a8,8,0,0,0,1.4-2H4.26a8,8,0,0,0-1.08.06v-1.44a7.75,7.75,0,0,0,1,0h.66v-1.07a6.11,6.11,0,0,0-.08-1H6.32a4.94,4.94,0,0,0-.07,1v1.06h.54a4.4,4.4,0,0,0,.74,0l.62.68a4,4,0,0,0-.29.55,10,10,0,0,1-1.29,2.2,7.17,7.17,0,0,0,2,1.63,5.83,5.83,0,0,0-.7,1.28,7.12,7.12,0,0,1-1.68-1.45Zm5.48-.62h1.55a13.78,13.78,0,0,0,1.48-.07v1.55a11.5,11.5,0,0,0-1.48-.08H8.86a10.73,10.73,0,0,0-1.45.08V281.8a14.24,14.24,0,0,0,1.46.07h1.42v-5.05h-1c-.43,0-.86,0-1.27.07v-1.47a7.72,7.72,0,0,0,1.27.07h1v-2.27a11.67,11.67,0,0,0-.08-1.35h1.6a8.19,8.19,0,0,0-.09,1.35v2.27h1.36a7.31,7.31,0,0,0,1.28-.07v1.47c-.42,0-.82-.07-1.28-.07H11.72Z"/><path class="cls-3" d="M27.73,279.5c-.12.09-.18.16-.74.64a8.05,8.05,0,0,1-1.22.9,11.36,11.36,0,0,0,3.38,1.15,6.55,6.55,0,0,0-.69,1.48,11.19,11.19,0,0,1-4.64-2.25,6.83,6.83,0,0,1-2-2.55H20.72v2.93a23.41,23.41,0,0,0,2.59-.7l0,1.29a36.69,36.69,0,0,1-5.06,1.24l-.6.12-.26-1.44a10.43,10.43,0,0,0,1.84-.23v-3.21h-.7a10.56,10.56,0,0,0-1.32.06v-1.37a10.57,10.57,0,0,0,1.35.07h.67v-4.06a9.69,9.69,0,0,0-.05-1.28,13.24,13.24,0,0,0,1.41,0h5.77a11.22,11.22,0,0,0,1.5-.06v1.35a13.78,13.78,0,0,0-1.49-.05H20.75v.63h5.46a9.25,9.25,0,0,0,1.19,0v1.15c-.27,0-.85-.05-1.19-.05H20.75v.63h5.46a10.86,10.86,0,0,0,1.19-.05V277a10,10,0,0,0-1.19-.05H20.75v.67h6.88a10.33,10.33,0,0,0,1.27-.07v1.37a9.64,9.64,0,0,0-1.17-.06H26.52Zm-4.42-.63a4.07,4.07,0,0,0,1.34,1.49,9,9,0,0,0,1.74-1.49Z"/><path class="cls-2" d="M35.61,282a20.3,20.3,0,0,0,.1,2.24H33.43a16.41,16.41,0,0,0,.12-2.26v-5.77c0-.69,0-.85,0-2.16a10.21,10.21,0,0,1-1.39,2,9.41,9.41,0,0,0-.89-2.3,14.2,14.2,0,0,0,2.95-5,11.65,11.65,0,0,0,.72-2.7l2.12.75c-.14.38-.18.52-.36,1.05a26.3,26.3,0,0,1-1.13,2.88Zm1.47-12.71c0-1,0-1.55-.08-2.2.73.06,1.21.08,2.12.08h7.61a21.22,21.22,0,0,0,2.32-.08,22.6,22.6,0,0,0-.08,2.4v12.07a19.79,19.79,0,0,0,.1,2.54H47v-.85H39v.85H37a14.94,14.94,0,0,0,.12-2.38ZM39,281.38h8V269.07H39Zm5.41-6.72a12,12,0,0,0,1.43-.07,10.61,10.61,0,0,0,0,1.34v3a6.69,6.69,0,0,0,.06,1.35c-.47,0-1-.06-1.43-.06H41.54q-.81,0-1.41.06a10.14,10.14,0,0,0,0-1.31v-3a10.24,10.24,0,0,0,0-1.32,10.78,10.78,0,0,0,1.41.07H42v-1.72H40.65a7.25,7.25,0,0,0-1.17.08v-1.95a6.64,6.64,0,0,0,1.17.08H42v-.43a6.46,6.46,0,0,0-.09-1.29h2a7.18,7.18,0,0,0-.08,1.29v.43h1.41a7.24,7.24,0,0,0,1.26-.08V273a10.08,10.08,0,0,0-1.22-.06H43.9v1.72Zm-2.53,3.83h2.19v-2.12H41.88Z"/><path class="cls-2" d="M63.31,266.6a15.75,15.75,0,0,0-.12,2,14,14,0,0,0,1.9,7.65,13.21,13.21,0,0,0,3,3.67,13.83,13.83,0,0,0,3,2.08,7.2,7.2,0,0,0-1.49,2.16,19.19,19.19,0,0,1-4.92-4.56,15.2,15.2,0,0,1-2.57-5.31,13.82,13.82,0,0,1-1.53,3.92,13.51,13.51,0,0,1-3,3.71,16.86,16.86,0,0,1-3,2.24,5.71,5.71,0,0,0-1.52-2,12.65,12.65,0,0,0,4.24-3.25c2.5-2.86,3.55-6,3.55-10.67a9.58,9.58,0,0,0-.1-1.64Z"/><path class="cls-2" d="M81.94,279.32c-1,1.67-2.3,2.6-3.67,2.6-2.1,0-3.59-2.06-3.59-4.92a8.14,8.14,0,0,1,4.37-7.39,9.51,9.51,0,0,1,4.73-1.05,7,7,0,0,1,7.34,7A7.67,7.67,0,0,1,86,283.05a4.84,4.84,0,0,1-1.46.44c-.24,0-.34-.08-.6-.46a4.27,4.27,0,0,0-1.27-1.27c4.15-1.07,6-3,6-6.3a4.73,4.73,0,0,0-2-4,5,5,0,0,0-2.38-.87C83.84,274.88,83.17,277.2,81.94,279.32ZM79,272.17A6.29,6.29,0,0,0,76.92,277c0,1.55.5,2.46,1.35,2.46,1,0,2-1.39,2.8-3.8a24.67,24.67,0,0,0,1-4.9A5.88,5.88,0,0,0,79,272.17Z"/><path class="cls-2" d="M97.44,274.45a16.76,16.76,0,0,0-2.34.13V272.4a16.63,16.63,0,0,0,2.34.12h4.36v-1.94h-3a21.12,21.12,0,0,0-2.22.08v-2.14a15.17,15.17,0,0,0,2.26.12h2.91v-.56a7.5,7.5,0,0,0-.13-1.72h2.41a8.41,8.41,0,0,0-.12,1.76v.52h1.67a15.29,15.29,0,0,0,2.14-.12V270a12.82,12.82,0,0,0,2-2.73l2,1.21c-.2.22-.2.22-.8.93a32.82,32.82,0,0,1-2.87,3.07h2.08a15.77,15.77,0,0,0,2.22-.12v2.18a16.83,16.83,0,0,0-2.3-.13h-4.24a38.85,38.85,0,0,1-4.11,2.81v.87l.78-.18a26,26,0,0,0,6.28-2.35l1.63,1.8a2.41,2.41,0,0,0-.38.14l-.65.26c-.6.25-2.46.89-3.43,1.17a37.21,37.21,0,0,1-4.23,1.09v1.11c0,.65.36.73,3.57.73,2.3,0,3.08-.1,3.39-.4s.36-.89.4-2.57a7.17,7.17,0,0,0,2.14.79c-.2,2.44-.42,3.19-1.13,3.67s-1.86.53-5.61.53c-4.28,0-4.92-.28-4.92-2.12v-3.35c-1.4.71-2.14,1-3.66,1.65a6.55,6.55,0,0,0-1.27-1.91,32.65,32.65,0,0,0,7.83-3.74Zm7.69-1.93a23.74,23.74,0,0,0,2.09-1.92c-.32,0-.74,0-1.43,0H104v1.94Z"/><path class="cls-2" d="M118.24,278.45v-1.17s0-.42,0-1.23a9.56,9.56,0,0,1-1.43,1.41,7.65,7.65,0,0,0-.91-2.06,13.59,13.59,0,0,0,4.38-5l1.73,1.13c-.16.22-.32.48-.52.78a1.35,1.35,0,0,1-.22.33l-.32.48a6.06,6.06,0,0,0-.45.61l-.22.3v7.85a22,22,0,0,0,.08,2.28h-2.26a14.43,14.43,0,0,0,.12-2.14Zm3.61-11.14c-.38.51-.8,1-1.21,1.51a16.29,16.29,0,0,1-3.37,2.85,6.61,6.61,0,0,0-1.09-1.8,9.27,9.27,0,0,0,4-3.79Zm6.2-.26-.51.66a29.48,29.48,0,0,1-2.05,2.47c.58.5.74.66,1.17,1.07a20,20,0,0,0,2.9-3.68l2,1.07c-.14.14-.3.33-.71.83a50.55,50.55,0,0,1-3.79,4c1.37-.07,1.37-.07,3.67-.25-.34-.48-.48-.66-1-1.33l1.6-1a34.88,34.88,0,0,1,3,4.26l-1.75,1.13c-.43-.79-.53-1-.83-1.53-2.48.28-3,.32-4.52.44a8.36,8.36,0,0,1-.59,1h3a14.05,14.05,0,0,0,1.55-.08l1.22,1.11a4.71,4.71,0,0,0-.33.42,16.82,16.82,0,0,1-2.84,3,17.55,17.55,0,0,0,5.16,1.39,10.47,10.47,0,0,0-1,2.1,17.8,17.8,0,0,1-6-2.18,16.7,16.7,0,0,1-5.87,2.28,6.35,6.35,0,0,0-1-1.88,15.11,15.11,0,0,0,5.13-1.67,13.53,13.53,0,0,1-1.62-1.64,11.62,11.62,0,0,1-2.28,1.54,6.79,6.79,0,0,0-1.29-1.68,9.43,9.43,0,0,0,4.4-3.57,33.46,33.46,0,0,0-3.47.26l-.24-2.09a6.74,6.74,0,0,0,1.19.08l2,0c.59-.53.89-.83,1-.87a23.73,23.73,0,0,0-3.57-2.87l1.37-1.51c.53.38.65.48,1,.75a11.72,11.72,0,0,0,2-2.89Zm-2.5,10.79a7.13,7.13,0,0,0,1.81,1.74,9.6,9.6,0,0,0,1.92-1.74Z"/><path class="cls-2" d="M145.42,269.29a13.53,13.53,0,0,1-1.83,1.63,5.18,5.18,0,0,0-1.32-1.29,7.9,7.9,0,0,0,3.11-3.47l2,.36c-.14.21-.14.21-.34.55a6,6,0,0,1-.43.62h5.69a10,10,0,0,0,1.62-.08l1.15.91a4.73,4.73,0,0,0-.35.49,11.34,11.34,0,0,1-1.79,2.18,8.6,8.6,0,0,0-1.8-.75,5,5,0,0,0,1.29-1.15h-3c.6,1.92,2.62,3,6.11,3.15a6.58,6.58,0,0,0-.79,1.89c-.8-.14-1.1-.2-1.77-.36,0,.56,0,1.09,0,1.66v3.59a11.3,11.3,0,0,0,.08,2c-.42,0-1.23-.06-2.06-.06h-.91a14.57,14.57,0,0,0,5.37,1.29,10.1,10.1,0,0,0-1.21,1.78,15.22,15.22,0,0,1-6.32-2.22l1.13-.85h-5.3l1.19.85a15.34,15.34,0,0,1-6.14,2.22,7.65,7.65,0,0,0-1.19-1.72,13.12,13.12,0,0,0,5.17-1.35H142c-.91,0-1.59,0-2.06.06,0-.36.08-1.15.08-1.93V275.5a17.3,17.3,0,0,0-.08-2c.39,0,1.11,0,2,0h1a4.86,4.86,0,0,0-.81-1.25c-1,.48-1.31.6-2.8,1.21-.28.12-.49.2-.83.38l-.77-2a19.63,19.63,0,0,0,4.75-1.73l.58,1.69-.69.34a10.54,10.54,0,0,0,2.93-.7,3.13,3.13,0,0,0,2.06-2.22Zm-4.11.62a12.83,12.83,0,0,0-3.07-1.89l1.25-1.48a18,18,0,0,1,3.15,1.78Zm.76,5.8H151V275h-8.92Zm0,2H151V277h-8.92Zm0,2H151V279h-8.92Zm9-6.13h.67a5.84,5.84,0,0,1-3.31-2.57,4.55,4.55,0,0,1-1.8,1.76,6.73,6.73,0,0,1-2.18.81Z"/><path class="cls-2" d="M164.92,273.49a17.42,17.42,0,0,0-1.9.08v-.93a21.05,21.05,0,0,1-3.15,1.61,9.82,9.82,0,0,0-1.13-2c3.63-1.27,6.52-3.35,7.93-5.67h2.38a12.5,12.5,0,0,0,3,3,16.76,16.76,0,0,0,5.14,2.58,9.58,9.58,0,0,0-1.05,2.16,20.79,20.79,0,0,1-3.41-1.73v1a16,16,0,0,0-1.89-.08h-2v1.87h4.9a13.7,13.7,0,0,0,2.1-.1v2.14a14.49,14.49,0,0,0-2.12-.12h-4.88v4.34h5.27a17.58,17.58,0,0,0,2.28-.12v2.22a21.57,21.57,0,0,0-2.34-.13H161.85a22.52,22.52,0,0,0-2.42.13V281.5a20,20,0,0,0,2.4.12h4.88v-4.34h-4.58a16,16,0,0,0-2.12.12v-2.14a14.75,14.75,0,0,0,2.12.1h4.58v-1.87Zm-1.38,3.95a23,23,0,0,1,1.56,3.23l-1.94.77a14,14,0,0,0-1.53-3.21Zm1.33-5.77h6.48a15.47,15.47,0,0,1-3.47-3.25,14.79,14.79,0,0,1-3.41,3.25Zm9.25,6.58c-.25.44-.25.44-1,1.85-.08.15-.14.27-.81,1.38l-1.82-.69a16.19,16.19,0,0,0,1.54-3.33Z"/><path class="cls-3" d="M183,276.15a5.78,5.78,0,0,1-2.18-.82c-.24-.16-.3-.23-.3-.35a3.77,3.77,0,0,1,.49-1.17,6.74,6.74,0,0,0,2.24.89,14.27,14.27,0,0,0,.29-2.6,5.71,5.71,0,0,1,1.63.51c.14.08.2.16.18.27a.54.54,0,0,1-.09.24,6,6,0,0,0-.5,1.78H186c.12,0,.16.05.16.23a4.77,4.77,0,0,1-.09,1.17c0,.06-.22.09-.78.09l-.84,0c-.28,1.39-.28,1.39-.4,2.12a6.87,6.87,0,0,0,.78,0l.75,0c.14,0,.2,0,.24.1a3,3,0,0,1,.1,1c0,.24,0,.31-.1.35a4.26,4.26,0,0,1-.87,0c-.24,0-.61,0-1.08,0,0,.24,0,.41,0,.51,0,1.24.58,1.81,1.84,1.81,1.42,0,2.26-.69,2.26-1.85a2.5,2.5,0,0,0-.31-1.21,3.74,3.74,0,0,0-1.17-1.32h.12a6.93,6.93,0,0,0,1.08-.14l.36-.06c.21,0,.34.1.61.43a3.72,3.72,0,0,1,.93,2.38c0,1.9-1.54,3.15-3.86,3.15s-3.27-1.09-3.27-3.29c0-.19,0-.34,0-.57-1.33-.28-2.05-.94-2.05-1.9a1.57,1.57,0,0,1,.52-1.23.17.17,0,0,1,.15-.07c.08,0,.17.07.48.32s.29.24.29.31,0,.06-.09.18a.84.84,0,0,0-.1.32.47.47,0,0,0,.31.42,2.6,2.6,0,0,0,.67.2Z"/><path class="cls-3" d="M202.71,276.79a9.33,9.33,0,0,0,1.41-.08v1.48a11.2,11.2,0,0,0-1.41-.08h-1.44v4.2c0,.67-.2,1.09-.64,1.25a4.36,4.36,0,0,1-1.45.16c-.31,0-.78,0-1.28,0a4.62,4.62,0,0,0-.47-1.42,12.88,12.88,0,0,0,1.77.14c.51,0,.63-.06.63-.32v-4H194a11.09,11.09,0,0,0-1.41.08v-1.48a9.5,9.5,0,0,0,1.41.08h5.84v-.43a11.19,11.19,0,0,0-.07-1.33h1.58a7.74,7.74,0,0,0-.07,1.33v.43Zm-5.25-4.08a3.67,3.67,0,0,0-.07-.83H199a4.15,4.15,0,0,0-.07.83v.43h3.57a13.63,13.63,0,0,0,1.42-.06,6.29,6.29,0,0,0-.05,1v1a7.52,7.52,0,0,0,.05,1h-1.39v-1.64h-8.37v1.64h-1.41a7.16,7.16,0,0,0,.05-1v-1a6.62,6.62,0,0,0-.05-1,13.63,13.63,0,0,0,1.42.06h3.31Zm-.87,9.33a10.83,10.83,0,0,0-2.21-2.76l1.18-.83a12.88,12.88,0,0,1,2.26,2.61Z"/><path class="cls-3" d="M213.13,276.62a3.05,3.05,0,0,1,3.24,3.12,3.51,3.51,0,0,1-1.76,3,5.35,5.35,0,0,1-2.77.69c-1.71,0-2.7-.69-2.7-1.86a1.92,1.92,0,0,1,2.15-1.82,2.64,2.64,0,0,1,2.51,1.77,2,2,0,0,0,1-1.75,1.89,1.89,0,0,0-2.11-1.91,5.7,5.7,0,0,0-3.9,1.83,7.61,7.61,0,0,0-.66.75c-.09.14-.16.19-.24.19a2.85,2.85,0,0,1-1.2-1.18c0-.13.06-.19.35-.41s.75-.63,1.32-1.17a40.06,40.06,0,0,0,3.67-4,21.59,21.59,0,0,0-3.23.55l-.14,0c-.11,0-.18-.06-.26-.26a4.71,4.71,0,0,1-.28-1.44,6.11,6.11,0,0,0,.91.06c.65,0,1.74-.09,3.15-.25a3.62,3.62,0,0,0,1-.24.52.52,0,0,1,.27-.07c.18,0,.37.16.72.7.26.35.34.52.34.63s0,.23-.34.42a4,4,0,0,0-.7.56c-.67.65-.68.65-1.52,1.5l-1.2,1.21A4.6,4.6,0,0,1,213.13,276.62Zm-1.29,4.65a1.24,1.24,0,0,0-.69-.2c-.41,0-.68.2-.68.53s.42.63,1.06.63a3.22,3.22,0,0,0,.89-.12A1.47,1.47,0,0,0,211.84,281.27Z"/><path class="cls-4" d="M49,372.57H32.09a54.87,54.87,0,0,0-6.55.3v-6.26a49.26,49.26,0,0,0,6.7.3H49v-2.75H33.88c-2.53,0-4.32.07-6,.22a47.8,47.8,0,0,0,.22-4.84v-4.69c0-2-.07-3.13-.22-5,2,.15,3.42.22,6.1.22H49V347.4H29.41a68.65,68.65,0,0,0-8.34.37V340.7a63.19,63.19,0,0,0,8.79.45H49a26.7,26.7,0,0,0-.45-4.92h8.56a24.78,24.78,0,0,0-.45,4.92H76.77a63.62,63.62,0,0,0,8.78-.45v7.07c-2.38-.22-4.91-.37-8.33-.37H56.66v2.68H72.9c2.75,0,4.17-.07,5.95-.22a49.64,49.64,0,0,0-.22,5v4.69a45.5,45.5,0,0,0,.22,4.84c-1.63-.15-3.35-.22-5.66-.22H56.66v2.75H72.82c4.17,0,5.36-.07,7.6-.22a45.19,45.19,0,0,0-.23,6.48v2.53a37.27,37.27,0,0,0,6.18-.38v6.78a40.81,40.81,0,0,0-6.18-.37v4.17a50.4,50.4,0,0,0,.38,7.67h-8v-2.76H56.66v4c0,6.41-1.78,7.75-10.42,7.75-1.79,0-4.39-.08-6.92-.23a19.92,19.92,0,0,0-2.16-7.14,77.84,77.84,0,0,0,8.93.67c2.38,0,2.91-.3,2.91-1.72v-3.35H32.17a62.74,62.74,0,0,0-7.08.3v-6.55a50.73,50.73,0,0,0,6.85.3H49v-3.13H28.52a49.81,49.81,0,0,0-7.89.37v-6.78a46.71,46.71,0,0,0,7.74.38H49Zm-13.33-16.9v2.9H49v-2.9Zm21,2.9H71v-2.9H56.66ZM72.6,375.7v-3.13H56.66v3.13Zm-15.94,9.16H72.6v-3.13H56.66Z"/><path class="cls-4" d="M105.56,365.27a67.91,67.91,0,0,0-7.3.3v-6.78a59.8,59.8,0,0,0,7.3.3h8.71a50.17,50.17,0,0,0-2.68-5.36h-7.67c-3.43,0-6.26.15-8.49.37V347a59.22,59.22,0,0,0,8.12.44h2.3a30.74,30.74,0,0,0-4.84-6.62l7.15-2.69a51.08,51.08,0,0,1,5.51,9.31h4v-5a38.41,38.41,0,0,0-.37-5.58h7.74a49.84,49.84,0,0,0-.22,5.29v5.28h5.29v-5.28a35.36,35.36,0,0,0-.3-5.29h7.82a35.71,35.71,0,0,0-.37,5.58v5h4.46a36.73,36.73,0,0,0,5.14-9.45l7.3,2.68a74.9,74.9,0,0,1-4.39,6.77h2a57.66,57.66,0,0,0,8.11-.44v7.14c-2.23-.22-5.06-.37-8.49-.37H144.2a50.59,50.59,0,0,1-2.61,5.36h8.27a61.83,61.83,0,0,0,7.37-.3v6.78a67.52,67.52,0,0,0-7.37-.3H131.17v3.43h15a65.31,65.31,0,0,0,7.3-.3v6.25a64.79,64.79,0,0,0-7.3-.29h-15v3.57h20a58.7,58.7,0,0,0,8.56-.45v7.15a71.78,71.78,0,0,0-8.49-.44H136.9a39,39,0,0,0,9.68,5.73,64.3,64.3,0,0,0,14.9,4.09,26.24,26.24,0,0,0-4.1,7.3c-12-3.27-20.1-7.59-26.43-14.22.15,2.53.15,3.42.15,5.06v3.58a47.62,47.62,0,0,0,.44,7.22h-8.41a50.69,50.69,0,0,0,.45-7.3v-3.42c0-1.64,0-2.24.14-4.92a36.1,36.1,0,0,1-10.27,7.9,68.15,68.15,0,0,1-14.6,6,28.75,28.75,0,0,0-4.31-6.93c10.35-2.16,17.57-5.28,23.38-10.12H104.66a74.06,74.06,0,0,0-8.71.44v-7.15a62.81,62.81,0,0,0,8.64.45H123.5v-3.57H109.35a64.7,64.7,0,0,0-7.29.29V368.4a64.19,64.19,0,0,0,7.29.3H123.5v-3.43Zm28.07-6.18a33.55,33.55,0,0,0,2.38-5.36H119.7a50.94,50.94,0,0,1,2.16,5.36Z"/><path class="cls-4" d="M190.84,358.27c-.37,1-.37,1-1.49,6.26-2.23,10.5-3.94,15.78-7.37,22a60.69,60.69,0,0,1-8.41,11.62,31.15,31.15,0,0,0-5.36-6.55,40.22,40.22,0,0,0,8.86-12,59.81,59.81,0,0,0,5.43-17.5h-6.77a36.6,36.6,0,0,0-5.51.3v-7.45a38.76,38.76,0,0,0,5.95.3H183a25.63,25.63,0,0,0,4.69-.37Zm24,8.34a24.36,24.36,0,0,0-4.32-.29h-4.46v4.09h5.36a25.27,25.27,0,0,0,4.69-.3v6.63a26.17,26.17,0,0,0-4.69-.3h-5.36v4.47h8.11a28,28,0,0,0,4.92-.3v6.85a41.33,41.33,0,0,0-5.81-.3h-7.22v7.45c0,5.44-2.24,7-10.13,7-2.09,0-2.9,0-7.45-.15a22.57,22.57,0,0,0-1.93-7.52,75.56,75.56,0,0,0,9,.74c2.68,0,3.2-.29,3.2-1.93v-5.59h-7a41.24,41.24,0,0,0-5.81.3v-6.85a31.8,31.8,0,0,0,5,.3h7.82v-4.47H194a29.77,29.77,0,0,0-4.84.3v-6.63a28.68,28.68,0,0,0,4.84.3h4.77v-4.09h-3.72a27.89,27.89,0,0,0-4.47.29V360a27.89,27.89,0,0,0,4.47.29h3.72V357.6c0-2.23-.08-3.42-.22-5.13h2.15A60.3,60.3,0,0,0,210.8,346H188.46a58.79,58.79,0,0,0-9.09.44v-7.59a77.2,77.2,0,0,0,9.09.45H213.1a43.35,43.35,0,0,0,7.3-.38l4.17,4.92c-.89.67-1.71,1.26-3,2.38a121.71,121.71,0,0,1-15.41,10.28v3.79h4.46a31.29,31.29,0,0,0,4.1-.22c-.37-1.79-.75-3.65-1.12-5.81l7.08-2a70.88,70.88,0,0,0,1.71,10.87,45.3,45.3,0,0,0,8.11-9.3l5.51,5.65c-.37.38-.52.45-1,1.05-2.83,3.2-7,7.44-10.27,10.42,3.35,9.16,6.25,13.63,12.88,19.81a34.81,34.81,0,0,0-6,7.07c-6-6.77-8.72-11.17-11.54-18.24a80.34,80.34,0,0,1-4.1-13.48c-.07-.3-.22-1.12-.52-2.38-.08-.52-.22-1.34-.45-2.38Z"/><path class="cls-4" d="M252.87,377.19c-.75,11.91-1.12,14.52-2.91,21.66l-6.18-2.75a74.8,74.8,0,0,0,2.91-19.88Zm-8.72-10.73a26.79,26.79,0,0,0,5.22.23c1.26-1.64,2.08-2.68,3.35-4.4a66.14,66.14,0,0,0-8.49-10.94l3.65-6.18c1,1.26,1.41,1.64,2.23,2.6,2.53-4.17,4.69-9,5.29-11.91l6.92,3a15.37,15.37,0,0,0-1.49,2.61,106.46,106.46,0,0,1-6.55,11.46,41.48,41.48,0,0,1,2.61,3.43c3.5-5.29,6-9.76,6.77-11.92l6.56,3.28c-.82,1.12-.82,1.12-4.25,6.25a154.86,154.86,0,0,1-9.31,12.51c3.35-.14,3.95-.22,7.38-.52-.6-1.56-1.05-2.53-2.16-5l5.13-2.23a63.8,63.8,0,0,1,4.62,12V344.87a38.89,38.89,0,0,0-.37-6.25h7.89a35.82,35.82,0,0,0-.37,6.18V380A38.61,38.61,0,0,0,289,366.17h-3.72a43.57,43.57,0,0,0-4.92.22v-7.15a46.46,46.46,0,0,0,4.92.22h5.28V343.08a46.31,46.31,0,0,0-.29-5.8h7.44a46,46,0,0,0-.3,5.88v16.3h6a33.47,33.47,0,0,0,6.11-.37v7.37a44.92,44.92,0,0,0-6.11-.29h-4.31a41.87,41.87,0,0,0,12,13.18,30.16,30.16,0,0,0-3.57,7.29,54.77,54.77,0,0,1-10.35-13.47c0,1,0,1,.15,3.27.07.52.07,1.86.07,2.68v5.36a32.94,32.94,0,0,0,.3,5.29h-7.37a31.84,31.84,0,0,0,.3-5.21v-5.14c0-1.79,0-2.68.22-5.88-2.16,5.28-4.09,8.11-8.79,13.18a17,17,0,0,0-3.27-4.84v10.35h24.5a53.17,53.17,0,0,0,6.85-.38v7.75a61.26,61.26,0,0,0-8-.45H278.78v3.35h-7.6a58.27,58.27,0,0,0,.45-7.89V373.54l-5,2.16a32,32,0,0,0-.74-3.5c-1.64.22-2,.3-4.4.52v22.56a42,42,0,0,0,.45,7.52h-7.59a44.57,44.57,0,0,0,.44-7.52v-22c-.15,0-2.23.08-6.33.3a23.11,23.11,0,0,0-3.57.37Zm24.13,10.06c1,5.58,1,6.47,1.94,17.12l-5.59,1.19a112.62,112.62,0,0,0-1.71-17Zm17.13-35.3A80.66,80.66,0,0,1,290,355l-5.66,2.68a66.89,66.89,0,0,0-4.39-14.08Zm23.52,2.83a81.73,81.73,0,0,1-5.51,13.85l-5.5-2.83a55.14,55.14,0,0,0,4.76-13.77Z"/><path class="cls-5" d="M53.52,421.31a14.55,14.55,0,0,0-.24-3.29h4.78a16.93,16.93,0,0,0-.2,3.29v1.48H68a34.48,34.48,0,0,0,4.62-.23v4.31a33.21,33.21,0,0,0-4.58-.24H57.86v4.81h5a15.69,15.69,0,0,0,3.25-.19l2.51,2.54a22.17,22.17,0,0,0-1.8,2.43,34,34,0,0,1-7.05,7.63,38.06,38.06,0,0,0,13.54,4.35,17.85,17.85,0,0,0-2,4.34c-6.54-1.44-10.69-3.09-15.15-6.06a41.49,41.49,0,0,1-15.31,5.95,16.63,16.63,0,0,0-2-4A41,41,0,0,0,52.77,444a27.17,27.17,0,0,1-7.16-8.89,24.18,24.18,0,0,0-3.52.24v-4.11a34,34,0,0,0,4.54.23h6.89v-4.81H44a33.94,33.94,0,0,0-4.55.24v-4.31a35.23,35.23,0,0,0,4.58.23h9.52Zm-3.33,13.77a19.77,19.77,0,0,0,6.15,6.58,22.07,22.07,0,0,0,6.14-6.58Z"/><path class="cls-5" d="M93.31,431.8c-1.21,0-2.39,0-3.33.12v-3.53a18.89,18.89,0,0,0,2.86.16H93a14.48,14.48,0,0,0-2-4l3.21-1a16.85,16.85,0,0,1,1.88,4l-2.19,1h5.44A17,17,0,0,0,97.5,424l3.25-1a18.57,18.57,0,0,1,1.92,4.54l-2.78,1h4.3a22.4,22.4,0,0,0,2.9-6.3l3.8,1a48.59,48.59,0,0,1-3,5.33h.86a14.46,14.46,0,0,0,2.94-.2V432a33.14,33.14,0,0,0-3.6-.15H98.48c-.08.78-.16,1.37-.24,2H108a30.25,30.25,0,0,0,4.27-.19v3.83a33.27,33.27,0,0,0-4.27-.23H97.58c-.2.74-.28,1-.47,1.64h7.59a20.92,20.92,0,0,0,3.21-.15l2,2.42a12.29,12.29,0,0,0-1.29,1.73,24.76,24.76,0,0,1-3.72,4,28.29,28.29,0,0,0,8,2,30.93,30.93,0,0,0-1.68,4c-4.54-1.14-6.69-2-9.47-3.64a30.39,30.39,0,0,1-8.89,3.64,13.29,13.29,0,0,0-1.8-3.13,23.44,23.44,0,0,1-2.94,2.74,10.33,10.33,0,0,0-2-2.74c-.27,2.19-1.33,2.82-5,2.82-.43,0-1,0-2.23-.12a13.37,13.37,0,0,0-.86-3.84,21.49,21.49,0,0,0,3.21.28c.74,0,.93-.2.93-1V439.2c-1,.31-1.17.39-2.07.66-.39.12-1,.31-1.8.59l-.78-4.11a22.93,22.93,0,0,0,4.65-1.1v-6.57H80.51a19,19,0,0,0-2.54.15v-4a12.75,12.75,0,0,0,2.58.2h1.6v-3.1a24.67,24.67,0,0,0-.19-3.87H86.3a25.13,25.13,0,0,0-.19,3.83V425h1a16,16,0,0,0,2-.12v3.87a15.93,15.93,0,0,0-2-.11h-1V434c.86-.31,1.29-.47,2.46-1l.08,3.68c-1.37.59-1.76.74-2.54,1.06v11a21.5,21.5,0,0,0,7.55-11.55H93a29.1,29.1,0,0,0-3.57.16v-3.72a33.66,33.66,0,0,0,3.65.15h1.21c.12-.9.16-1.25.23-2Zm18-10.77a6,6,0,0,0-1,.2,142.37,142.37,0,0,1-20.51,2.11,9.8,9.8,0,0,0-1.22-3.25h1.22c7.16,0,16-1,18.83-2.27Zm-19.81,28a25.94,25.94,0,0,0,6.89-2.27,23.26,23.26,0,0,1-3.29-3.13A29.69,29.69,0,0,1,91.55,449.06Zm6.65-6.89a27.19,27.19,0,0,0,3.25,2.7,14.88,14.88,0,0,0,2.78-2.7Z"/><path class="cls-5" d="M131.86,425.31c-7.62,0-13,.3-14.34.68a.16.16,0,0,1-.13,0c-.8,0-1.06-1.4-1.19-5.79a82,82,0,0,0,11.11.43c5.7,0,12.38-.13,13.44-.26a5.3,5.3,0,0,0,1.79-.42,1,1,0,0,1,.47-.09c.72,0,1.61.68,3,2.3.81,1,1,1.28,1,1.75a1.5,1.5,0,0,1-.43.93c-.43.51-.47.64-1.41,3.62a39.46,39.46,0,0,1-13.48,19.15c-2.56,2-5,3.44-5.62,3.44-.47,0-.55,0-1.53-1a12,12,0,0,0-3.19-2.42c6.25-3.15,9.66-5.75,12.93-9.92A28.63,28.63,0,0,0,140,425.26C136.67,425.31,136.67,425.31,131.86,425.31Zm22.89-7.75A4.55,4.55,0,1,1,150.2,413,4.51,4.51,0,0,1,154.75,417.56Zm-6.81,0a2.26,2.26,0,1,0,2.26-2.25A2.28,2.28,0,0,0,147.94,417.56Z"/><path class="cls-5" d="M163.16,447.52c0,.47-.13.76-.38.89a17,17,0,0,1-3.49.26c-1.45,0-1.58-.09-1.58-1.11,0-.21,0-.68,0-1.36.12-2.26.33-16,.33-21.36,0-1.11,0-3.15,0-4.38,3.7.21,9.53.34,15.87.34,5.19,0,9.28-.05,11.87-.17-.08,1.74-.12,8.42-.12,13.95,0,3.24.08,7.19.25,12.38v.6c0,.51-.08.77-.34.85a13.14,13.14,0,0,1-3.36.3c-1.62,0-1.7,0-1.7-.94V445.6H163.16Zm17.36-21.91H163.16v15.14h17.36Z"/><path class="cls-5" d="M203.21,426.92c-2.93,3.92-8,8.6-9.19,8.6-.38,0-.55-.09-1.4-.81a21.83,21.83,0,0,0-3.15-2.13,31.39,31.39,0,0,0,14-16.12,23.62,23.62,0,0,1,4.59,2c.6.33.81.59.81,1a.93.93,0,0,1-.51.81,12.26,12.26,0,0,0-2,2.38l6.34.05a9.06,9.06,0,0,0,4-.51,1.56,1.56,0,0,1,.47-.09c.68,0,1.4.64,2.64,2.21.81,1,1,1.45,1,1.92s-.13.68-.72,1.27a10.39,10.39,0,0,0-1.32,1.92c-4.6,8.3-9,13.53-15.79,18.55-2.93,2.21-6.81,4.47-7.62,4.47a1.4,1.4,0,0,1-1-.6,14.35,14.35,0,0,0-3.53-2.47,49.3,49.3,0,0,0,14.81-10.25,37.16,37.16,0,0,0,7-9.49c.38-.72.64-1.27,1.32-2.68Zm20.26-4.59c-.94.81-1.49,1.19-1.75,1.19s-.25,0-1-1.28A18.64,18.64,0,0,0,218,418.8c-.17-.17-.21-.26-.21-.38,0-.35,1.61-1.54,2.08-1.54s.85.43,2.13,1.87a9.86,9.86,0,0,1,2,2.77C224,421.82,223.85,422,223.47,422.33Zm1.91-2.17a18.25,18.25,0,0,0-3.15-4.09c-.17-.17-.21-.25-.21-.34s.21-.42.94-.93a1.69,1.69,0,0,1,1.1-.51c.47,0,1.58,1.1,3,3a4.77,4.77,0,0,1,1,1.61c0,.22-.13.43-.64.81a4.34,4.34,0,0,1-1.57.89C225.68,420.58,225.55,420.5,225.38,420.16Z"/><path class="cls-5" d="M230.2,432.84c-.09,0-.3,0-.34,0-.94,0-1.32-1.45-1.62-5.83,2.09.34,5,.47,12.94.47,8.51,0,10.8,0,11.61-.09a5.27,5.27,0,0,0,1.62-.34,2.1,2.1,0,0,1,.81-.17,2.46,2.46,0,0,1,1.83,1,7.36,7.36,0,0,1,1.91,3c0,.46-.21.8-.72,1.36-.34.3-.55.68-1.36,2.51-2.85,6.25-6,10.08-11.07,13.27-2.29,1.49-6,3.19-6.85,3.19-.59,0-.93-.25-1.66-1.1a7.39,7.39,0,0,0-2.8-2.38,31,31,0,0,0,12.42-6.9,21.68,21.68,0,0,0,5.4-9C236.2,432.16,233.22,432.29,230.2,432.84Zm13.91-15.11a89.69,89.69,0,0,0,9.32-.34h.51c.55,0,.77.43.81,1.71,0,.51,0,1,0,1.4v.17c0,1.53-.17,2-.72,2-.17,0-.51-.05-.9-.05-.8-.08-4-.17-5.31-.17-6.39,0-10.94.09-13.45.3h-.34c-1.1,0-1.28-.64-1.53-5.4A92.33,92.33,0,0,0,244.11,417.73Z"/><path class="cls-5" d="M272.52,443.18c5.06-.43,9.28-.9,11.79-1.32a44.5,44.5,0,0,0-4.73-7.06.94.94,0,0,1-.25-.6c0-.38.47-.72,2.12-1.7a2.74,2.74,0,0,1,1.49-.51,1,1,0,0,1,.81.34,44.21,44.21,0,0,1,6.94,10.25,24.41,24.41,0,0,1,2.13,5.28c0,.38-.43.76-1.41,1.27a10.52,10.52,0,0,1-2.93,1.11c-.39,0-.64-.25-.86-.85a29.34,29.34,0,0,0-1.36-3.53c-3.57.64-6.21,1.06-7.95,1.32-5.92.85-7.49,1.06-14.9,1.78a10.27,10.27,0,0,0-3.1.69,1.93,1.93,0,0,1-.47.08.87.87,0,0,1-.81-.6,14.31,14.31,0,0,1-1.4-4.93l1.15,0c.89,0,.89,0,4.08-.21l.89-2a130,130,0,0,0,6.73-20,20.23,20.23,0,0,0,.76-4.42,33.49,33.49,0,0,1,5.15,1.23c.9.3,1.28.55,1.28.94,0,.21-.09.34-.56.89a10.41,10.41,0,0,0-.93,2c-.17.38-.6,1.74-2.26,7-1.27,3.83-3.74,10.22-5.44,14C270.09,443.39,271.71,443.26,272.52,443.18Z"/><path class="cls-3" d="M126.61,485.56a21.4,21.4,0,0,1-4.85,4.62,15.84,15.84,0,0,1-3.36,1.92c-.2,0-.24-.05-.73-.64a5.79,5.79,0,0,0-1.32-1.3,17.63,17.63,0,0,0,5-2.88,20.59,20.59,0,0,0,4-4.09,62,62,0,0,0-6.49.2,1.79,1.79,0,0,1-.4,0c-.31,0-.4,0-.48-.24a11.57,11.57,0,0,1-.22-2.47c1,.14,4.33.25,7.1.25h1.48l0-1a14.7,14.7,0,0,0-.31-3,13.75,13.75,0,0,1,2.84.29c.2,0,.29.15.29.3s0,.2-.15.42a1.67,1.67,0,0,0-.18,1c0,.33,0,.73,0,1.12l0,.9c3.87-.06,4.33-.06,4.79-.08a1.9,1.9,0,0,1,.38,0c.5,0,.54.11.54,1.26s0,1.21-.43,1.21h-.14a3.19,3.19,0,0,1-.37,0h-.81c-1.3,0-3.08-.07-3.85-.07l.24,5.41c0,.2,0,.31.11,1.45.06.86.06,1,.06,1.35,0,2.42-.83,3.12-3.74,3.12a5.17,5.17,0,0,1-1.47-.11c-.22-.11-.26-.18-.44-.86a12,12,0,0,0-.77-1.82,13.87,13.87,0,0,0,2.55.28c1.08,0,1.28-.15,1.28-.94a.12.12,0,0,0,0-.07Z"/><path class="cls-3" d="M154.83,482.84a1.13,1.13,0,0,1,.15.5c0,.22-.08.38-.37.77a22.74,22.74,0,0,1-4.47,4.38,32.57,32.57,0,0,1-6.71,4.11c-1.69.8-1.78.84-2,1.08s-.26.22-.4.22-.37-.17-.7-.66a9.76,9.76,0,0,1-1.1-2.33,25.38,25.38,0,0,0,7.46-3.32,19.73,19.73,0,0,0,7.17-7.13A12.31,12.31,0,0,0,154.83,482.84Zm-14.65-3.7c.37-.42.53-.53.72-.53a12.9,12.9,0,0,1,3.44,2.18c.83.68,1.1,1,1.1,1.19a4.4,4.4,0,0,1-.93,1.34c-.48.55-.72.75-.9.75s-.15,0-1.06-.86a19.24,19.24,0,0,0-2.28-1.83c-.77-.5-.77-.5-.93-.59s-.13-.13-.13-.2A4.42,4.42,0,0,1,140.18,479.14Z"/><path class="cls-3" d="M159.87,485.32l-.18,0c-.48,0-.68-.74-.83-3a46,46,0,0,0,6.69.24c4.4,0,5.58,0,6,0a2.89,2.89,0,0,0,.84-.18,1.1,1.1,0,0,1,.42-.09,1.3,1.3,0,0,1,.94.53,3.92,3.92,0,0,1,1,1.56c0,.25-.11.42-.37.71s-.29.35-.71,1.3a14.48,14.48,0,0,1-5.72,6.86,12.79,12.79,0,0,1-3.54,1.65c-.31,0-.48-.13-.86-.57a3.78,3.78,0,0,0-1.45-1.23,16.07,16.07,0,0,0,6.43-3.57,11.29,11.29,0,0,0,2.79-4.64C163,485,161.43,485,159.87,485.32Zm7.19-7.81a48,48,0,0,0,4.82-.17h.27c.28,0,.39.22.41.88a5.47,5.47,0,0,0,0,.72V479c0,.79-.09,1-.38,1l-.46,0c-.42,0-2.07-.09-2.75-.09-3.3,0-5.66.05-6.95.16h-.18c-.57,0-.66-.33-.79-2.8A46.79,46.79,0,0,0,167.06,477.51Z"/><path class="cls-3" d="M189.48,487.81c0,2.77.05,4.82.13,6.31v.16c0,.24-.06.33-.28.35a14.44,14.44,0,0,1-1.94.11c-.68,0-.75-.05-.75-.42v-.11c.09-1.12.14-3.63.14-6.4V484.9a36.68,36.68,0,0,1-3.5,2.07,9.91,9.91,0,0,1-2.64,1.17.57.57,0,0,1-.46-.24,8.06,8.06,0,0,0-1.85-1.61,30.78,30.78,0,0,0,12.76-8.36,5.32,5.32,0,0,0,.72-1c1.39.92,2.38,1.84,2.38,2.26,0,.13-.09.24-.35.35a5.86,5.86,0,0,0-1.58,1.19c-1,.86-1.92,1.63-2.78,2.27Z"/><path class="cls-3" d="M215.33,482.84a1.17,1.17,0,0,1,.16.5c0,.22-.09.38-.38.77a23,23,0,0,1-4.46,4.38,32.84,32.84,0,0,1-6.71,4.11c-1.7.8-1.79.84-2.05,1.08s-.26.22-.4.22-.37-.17-.7-.66a9.76,9.76,0,0,1-1.1-2.33,25.38,25.38,0,0,0,7.46-3.32,19.73,19.73,0,0,0,7.17-7.13A12.31,12.31,0,0,0,215.33,482.84Zm-14.65-3.7c.37-.42.53-.53.73-.53a13.06,13.06,0,0,1,3.43,2.18c.83.68,1.1,1,1.1,1.19a4.4,4.4,0,0,1-.93,1.34c-.48.55-.72.75-.9.75s-.15,0-1.05-.86a20.15,20.15,0,0,0-2.29-1.83c-.77-.5-.77-.5-.93-.59s-.13-.13-.13-.2A4.42,4.42,0,0,1,200.68,479.14Z"/><path class="cls-3" d="M226.46,482.7c6.16-1.51,6.74-1.69,7.24-2.13a.86.86,0,0,1,.53-.22c.33,0,.86.4,1.41,1.06a3.41,3.41,0,0,1,.9,1.4c0,.31,0,.38-.57.75a8.47,8.47,0,0,0-1.37,1.76,20,20,0,0,1-3,3.17c-.26.22-.39.29-.55.29s-.22,0-.37-.2a5.25,5.25,0,0,0-1.78-1.23,13,13,0,0,0,4-4.12l-.88.27c-.09,0-1.93.52-5.59,1.54v4c0,1.16.27,1.74.88,2a8.65,8.65,0,0,0,2.89.35,36.65,36.65,0,0,0,3.93-.26l.64-.07c.46,0,.57.35.64,2v.17c0,.27-.09.44-.26.51a25.11,25.11,0,0,1-4.05.17c-2.75,0-4.18-.17-5.28-.68a3.57,3.57,0,0,1-2-3.56v-3.92a17.22,17.22,0,0,0-3.61,1.23.84.84,0,0,1-.33.11c-.4,0-.86-1-1.32-2.77a39,39,0,0,0,5.26-1v-2.09a23.69,23.69,0,0,0-.2-3.8,14.21,14.21,0,0,1,2.84.28c.2.07.33.18.33.31s0,.13-.18.51a7.09,7.09,0,0,0-.2,2.17Z"/><path class="cls-3" d="M245,489.35a42.48,42.48,0,0,1,7.32,2.07c1.85.7,2.16.88,2.16,1.18a9.59,9.59,0,0,1-.55,1.9c-.15.39-.29.52-.48.52s-.14,0-2.36-1a37.55,37.55,0,0,0-8.67-2.42c-.83-.11-.9-.13-.9-.37a9.34,9.34,0,0,1,.53-1.81c.11-.3.24-.44.48-.44C242.61,489,244.35,489.24,245,489.35Zm7.15-7.46a35.17,35.17,0,0,0-4.31-1.5,41.31,41.31,0,0,0-4.4-.88c-.33,0-.47-.13-.47-.33a12.64,12.64,0,0,1,.49-1.89.4.4,0,0,1,.42-.31,1.2,1.2,0,0,1,.3,0c.05,0,.29,0,.62.11a42.26,42.26,0,0,1,7.06,1.67c1.32.46,1.45.53,1.45.81a20.09,20.09,0,0,1-.5,2c-.09.26-.2.35-.38.35A.79.79,0,0,1,252.14,481.89Zm-1.7,2.55c1.13.42,1.35.57,1.35.88a15.12,15.12,0,0,1-.51,2c-.09.24-.18.31-.35.31a.65.65,0,0,1-.33-.11,24.37,24.37,0,0,0-2.84-1.12,32.28,32.28,0,0,0-4.18-1c-.37-.06-.44-.11-.44-.35a8.63,8.63,0,0,1,.53-2,.37.37,0,0,1,.35-.2A41.8,41.8,0,0,1,250.44,484.44Z"/><path class="cls-3" d="M276.6,483.41c0,1,0,1.14-.31,1.14h-.11c-.77,0-1,0-6.64,0a14.26,14.26,0,0,1-2.86,7.9,9.19,9.19,0,0,1-2.51,2.33.9.9,0,0,1-.46.17.63.63,0,0,1-.46-.19,5.73,5.73,0,0,0-2.05-1.15c3.74-2.29,5.22-4.68,5.61-9-4.09,0-6.33.09-6.93.18a.56.56,0,0,1-.17,0,.31.31,0,0,1-.33-.29,8.5,8.5,0,0,1-.31-2.44,65.8,65.8,0,0,0,7.87.2v-1a17.4,17.4,0,0,0-.28-3.92,21.91,21.91,0,0,1,2.88.22c.33.07.46.18.46.4s0,.15-.15.55a6.93,6.93,0,0,0-.16,1.82c0,.53,0,.58,0,1.9,3,0,5.39-.14,6.4-.25a.65.65,0,0,1,.18,0c.29,0,.35.2.35,1v.53Z"/><path class="cls-3" d="M289,484.64c4,0,6.34,0,8.56-.2h.29c.66,0,.66,0,.66,1.78,0,.91-.07,1.06-.44,1.06H298c-1.45-.07-2.27-.07-8.63-.07-2.33,0-3.49,0-5.52.09h-.64a5.48,5.48,0,0,0-1.23.09l-.24,0a.4.4,0,0,1-.44-.31,14.22,14.22,0,0,1-.22-2.68A75.8,75.8,0,0,0,289,484.64Z"/><path class="cls-3" d="M30.62,97.57a21,21,0,0,0,3.45-.22v1.78a21.91,21.91,0,0,0-3.45-.22H7.06a22.17,22.17,0,0,0-3.45.22V97.35a21,21,0,0,0,3.45.22H17.71V92.8H9.46A22.12,22.12,0,0,0,6,93V91.25a21.92,21.92,0,0,0,3.44.22h8.25v-1a18.65,18.65,0,0,0-.22-3.07h2a18.78,18.78,0,0,0-.22,3.1v.93H28a22.52,22.52,0,0,0,3.45-.22V93A22.89,22.89,0,0,0,28,92.8h-8.8v4.77Zm-21.75,15a22.12,22.12,0,0,0-3.44.22V111a20.76,20.76,0,0,0,3.44.22h8.84v-4.84H7.06a22.52,22.52,0,0,0-3.45.22v-1.78a21,21,0,0,0,3.45.22h15.2a26.51,26.51,0,0,0,3.07-5.66l1.59.6a42.11,42.11,0,0,1-3.1,5.06h6.8a21.31,21.31,0,0,0,3.45-.22v1.78a22.26,22.26,0,0,0-3.45-.22H19.23v4.84h9.4a20.92,20.92,0,0,0,3.44-.22v1.78a21.77,21.77,0,0,0-3.44-.22h-9.4v3.62a21.37,21.37,0,0,0,.26,3.52h-2a21.37,21.37,0,0,0,.26-3.52V112.6Zm4.25-7.89A19.19,19.19,0,0,0,10.39,100l1.37-.59A27,27,0,0,1,14.53,104Z"/><path class="cls-3" d="M47.47,101.53c-4.58.78-5.88,1.08-6.91,1.63a.33.33,0,0,1-.19,0c-.18,0-.44-.74-.7-1.93a15.8,15.8,0,0,0,2.48-.29c1.37-.23,1.37-.23,5.32-.85,0-6.29,0-6.74-.25-8.14,1.62.22,2.25.4,2.25.77,0,.11,0,.11-.14.45S49.1,95,49,99.9c5.1-.7,6.51-.88,11.25-1.33,0-1,0-1.81,0-3.66a24.41,24.41,0,0,0-.22-5.11L61,90c1.22.15,1.44.26,1.4.59,0,.08,0,.08-.14.34s-.23.4-.41,7.54c2.37-.22,3.77-.29,7.73-.48.26,0,.26.08.26.82s0,.77-.3.77c-3.77.08-5.14.15-7.77.34-.18,4-.33,5.44-.66,6.44-.59,1.59-1.67,2.25-3.59,2.25a6.32,6.32,0,0,1-2.52-.48c-.18-.11-.22-.18-.26-.44a7,7,0,0,0-.44-1.56,6.42,6.42,0,0,0,3.33.89c1.89,0,2.29-1,2.52-6.51a3.24,3.24,0,0,0,0-.48c-4.33.33-7.47.7-11.21,1.29v.6c0,1,0,2.07,0,2.92,0,6.4.07,7.21.88,8.25a3.83,3.83,0,0,0,2.26,1.37,21.22,21.22,0,0,0,4.55.41,36.5,36.5,0,0,0,7.22-.71.77.77,0,0,1,.22,0c.15,0,.18.07.22.33s.11.92.11,1.18,0,.26-.22.3a70.3,70.3,0,0,1-7.22.44c-7.17,0-9.51-1.66-9.51-6.81v-8Z"/><path class="cls-3" d="M77,113.12c.51-1.18.51-1.18.64-1.46a3.2,3.2,0,0,0,.47.88.42.42,0,0,1,.09.27c0,.13,0,.22-.31.84a23.67,23.67,0,0,0-1.13,3.44.83.83,0,0,1-.16.45,3.29,3.29,0,0,1-.91.09c-.29,0-.4-.07-.46-.31a23,23,0,0,1-.71-5.95,38,38,0,0,1,.79-7.4,17,17,0,0,0,.34-2.48c1.15.24,1.88.55,1.88.77a.94.94,0,0,1-.15.38,4.9,4.9,0,0,0-.53,1.47,30.72,30.72,0,0,0-1,7.3,32.16,32.16,0,0,0,.22,3.73Zm9,2.11a15.34,15.34,0,0,0,3.66-.47.34.34,0,0,1,.14,0c.11,0,.15.05.18.16a11.18,11.18,0,0,1,.15,1.26c0,.16,0,.2-.47.27a19.2,19.2,0,0,1-3.44.33c-2.33,0-3.64-.33-4.66-1.2a4,4,0,0,1-1.2-1.64c0-.16.47-.53,1.07-.87C82.19,114.61,83.47,115.23,86,115.23Zm-3.86-11.86a21.49,21.49,0,0,0,2.55.16,23,23,0,0,0,4.09-.36l.15,0c.11,0,.16,0,.18.16a7.08,7.08,0,0,1,.09,1.09c0,.2-.05.26-.29.31a32.72,32.72,0,0,1-4.13.29,19.13,19.13,0,0,1-3.15-.23c-.11,0-.13-.09-.16-.26v-.36c0-.57.09-.82.29-.82Z"/><path class="cls-3" d="M95.11,105.4c-.11,0-.31,0-.54,0s-.55,0-.71,0c-.31,0-.35,0-.4-.18a7.88,7.88,0,0,1-.2-1.26l1.25,0c.77,0,2.28-.11,3.46-.24a12.9,12.9,0,0,0,.69-4,14.5,14.5,0,0,1,1.62.38c.31.11.35.16.35.27a.74.74,0,0,1-.13.33,11,11,0,0,0-.91,2.73,23.91,23.91,0,0,0,3-.66.3.3,0,0,1,.18,0c.15,0,.2.14.26.69a2.4,2.4,0,0,1,0,.33.79.79,0,0,1,0,.2c0,.18-.07.23-.47.31l-.19,0c-.78.15-2.4.44-3.31.58a45.73,45.73,0,0,1-3.51,7.74c-.71,1.22-1.09,1.73-1.31,1.73s-1.18-.68-1.18-.88a.77.77,0,0,1,.2-.4,13.48,13.48,0,0,0,1.22-1.73,30.57,30.57,0,0,0,3-6.24C96.08,105.35,95.91,105.37,95.11,105.4Zm10.54,2a.83.83,0,0,1-.06.29,4.42,4.42,0,0,0-.16,1.42c0,1,.07,2.35.2,3.9a14.51,14.51,0,0,1,3.09,1.67c.75.53,1,.73,1,.89,0,.33-.57,1.22-.8,1.22-.06,0-.15,0-.33-.22a11.36,11.36,0,0,0-2.89-2,4.39,4.39,0,0,1-.26,1.76c-.47,1.22-1.65,1.86-3.38,1.86-2.15,0-3.59-1.11-3.59-2.75,0-1.8,1.62-3.06,3.9-3.06a7.43,7.43,0,0,1,1.85.22c-.11-1.56-.18-2.78-.22-4.27a10.78,10.78,0,0,0-.12-1.42C105.3,107.1,105.65,107.22,105.65,107.44Zm-3.37,6.32c-1.51,0-2.49.65-2.49,1.65s.8,1.48,2.15,1.48c1.6,0,2.29-.75,2.29-2.44,0-.13,0-.31,0-.31A4.78,4.78,0,0,0,102.28,113.76Zm3.46-9.14.18-.25c.22-.33.29-.4.44-.4a11.63,11.63,0,0,1,3,1.45c.91.62,1.24.91,1.24,1.08a2.39,2.39,0,0,1-.44.92c-.14.2-.25.28-.36.28s-.09,0-.51-.37a11.41,11.41,0,0,0-3.48-2.09c-.16-.07-.23-.13-.23-.24A.72.72,0,0,1,105.74,104.62Z"/><path class="cls-3" d="M117,101.6c.65,0,2.93-.22,5-.49a4.54,4.54,0,0,0,1.84-.44.71.71,0,0,1,.33-.11c.2,0,.45.24,1,1a1.3,1.3,0,0,1,.27.6c0,.16,0,.18-.43.45s-.33.22-2.57,2.59c-.38.4-1.38,1.47-2.8,2.93-.75.8-.91.94-1.66,1.76a7.84,7.84,0,0,1,2.64-1.58,7.54,7.54,0,0,1,2.73-.51c3.13,0,5.17,1.91,5.17,4.77a5,5,0,0,1-1.46,3.64,7.89,7.89,0,0,1-5.6,2,4.54,4.54,0,0,1-3.31-1,2.28,2.28,0,0,1-.66-1.62c0-1.42,1.24-2.42,3-2.42s3.11,1,3.91,3.09a4.36,4.36,0,0,0,2-1.76,3.9,3.9,0,0,0,.54-2c0-2.14-1.47-3.42-3.91-3.42-2.64,0-6,1.77-7.91,4.26-.17.22-.26.29-.37.29a2.67,2.67,0,0,1-1.2-1.22c0-.09.07-.18.2-.27a11,11,0,0,0,1.55-1.38,85.43,85.43,0,0,0,7.64-8.43c-4.46.6-5.91.8-6.37.95a.53.53,0,0,1-.22.05c-.25,0-.49-.76-.58-1.78C116.17,101.55,116.7,101.6,117,101.6Zm3.31,12.79c-.93,0-1.53.44-1.53,1.13,0,.86,1,1.44,2.46,1.44a5.54,5.54,0,0,0,1.71-.22C122.41,115.14,121.54,114.39,120.32,114.39Z"/><path class="cls-3" d="M136,91a14.57,14.57,0,0,0-2.92.19V89.47a12.29,12.29,0,0,0,2.92.22h5.55a11.73,11.73,0,0,0,2.81-.22v1.7a19.84,19.84,0,0,0-2.81-.15h-2v9h1.71a11.33,11.33,0,0,0,2.4-.19v1.63a16.17,16.17,0,0,0-2.4-.15H139.5v10c1.93-.81,2.56-1.15,4.48-2.11l.19,1.48a74.72,74.72,0,0,1-9.29,4,9.64,9.64,0,0,0-1.41.59l-.59-1.74a28,28,0,0,0,5.18-1.63V101.31h-2.22a11.5,11.5,0,0,0-2.37.19V99.83a10.86,10.86,0,0,0,2.37.19h2.22V91Zm26.16,25.65a18,18,0,0,0,3.25-.19v1.7a19.05,19.05,0,0,0-3.25-.18H145.79a19.39,19.39,0,0,0-3.33.18v-1.7a18.91,18.91,0,0,0,3.33.19h7.81v-6h-5a19.52,19.52,0,0,0-3.3.19v-1.67a18.67,18.67,0,0,0,3.3.19h5v-4.67h-3.7a42.62,42.62,0,0,0-4.48.15,28.15,28.15,0,0,0,.15-3.92V93.61a32,32,0,0,0-.18-4.36,31.23,31.23,0,0,0,4.47.18H159a31.29,31.29,0,0,0,4.51-.18,40,40,0,0,0-.14,4.29v6.92a39.83,39.83,0,0,0,.14,4.4c-1.14-.11-2.51-.15-4.44-.15H155v4.67h5.66a18.61,18.61,0,0,0,3.29-.19v1.67a19.39,19.39,0,0,0-3.29-.19H155v6ZM147,90.73v5.73h6.59V90.73Zm0,7v5.7h6.59v-5.7Zm8-1.26h7V90.73h-7Zm0,7h7v-5.7h-7Z"/><path class="cls-3" d="M174.31,94.06a15,15,0,0,0-2.51.15V92.65a14.12,14.12,0,0,0,2.51.15h4.15v-2a12.82,12.82,0,0,0-.22-3h1.85a11.44,11.44,0,0,0-.23,3v2h3.26a14.64,14.64,0,0,0,2.44-.15v1.56a15.77,15.77,0,0,0-2.44-.15h-3.18a21.2,21.2,0,0,0,6,6.25,4.58,4.58,0,0,0-.93,1.22,21.37,21.37,0,0,1-5.4-6.32c.19,2.4.22,3.51.22,5.14v3.11a20.59,20.59,0,0,0,.23,4h-1.85a22.21,22.21,0,0,0,.22-4v-3.11c0-1.48,0-2.93.18-5.11a31.83,31.83,0,0,1-6.84,9.51,4.82,4.82,0,0,0-1.11-1.18,29.65,29.65,0,0,0,7.4-9.51Zm3,15.43a23.69,23.69,0,0,1-4.44,8.25l-1.3-.93a18.84,18.84,0,0,0,4.29-7.88Zm4.62,6c0,1.52.48,1.67,5.4,1.67,4.41,0,5.85-.23,6.33-.89s.63-1.81.7-4.07a4.87,4.87,0,0,0,1.48.7c-.37,3.26-.7,4.22-1.51,4.77s-2.63.86-7.25.86a17.67,17.67,0,0,1-5.19-.45c-1.1-.37-1.4-1-1.4-2.55V111.6a23.55,23.55,0,0,0-.22-3.22h1.88a15.5,15.5,0,0,0-.22,3.22Zm3.52-7.77a36.75,36.75,0,0,1,5.51,5l-1,1.14a28.13,28.13,0,0,0-5.47-5.25Zm14.76-4.29a27.84,27.84,0,0,0,.18,3.59c-1.14-.11-2.36-.15-4-.15h-5.74c-1.33,0-2.63,0-3.88.11.11-1.15.18-2.26.18-3.55V92.54a29.88,29.88,0,0,0-.15-3.55,36.42,36.42,0,0,0,3.7.15h6c1.63,0,2.52,0,3.78-.15a27.17,27.17,0,0,0-.15,3.55Zm-11.84-13v4.18h10.43V90.4Zm0,5.4v4.25h10.43V95.8Zm0,5.47v4.33h10.43v-4.33Zm8.88,7.55a49,49,0,0,1,5.44,7.51l-1.37,1.11A31.76,31.76,0,0,0,196,109.6Z"/><path class="cls-3" d="M215.71,111.41q-1.94,4.4-4.42,4.4a3,3,0,0,1-2.51-1.51,6.79,6.79,0,0,1-.89-3.6,8.53,8.53,0,0,1,3.58-7,9.61,9.61,0,0,1,5.7-1.71c4.84,0,8,2.93,8,7.37a8,8,0,0,1-4.09,7,9.32,9.32,0,0,1-2.77,1.27c-.14,0-.22-.07-.38-.27a2.88,2.88,0,0,0-1-.84,12.34,12.34,0,0,0,3.49-1.47,6.8,6.8,0,0,0,3.19-5.77,5.73,5.73,0,0,0-3.39-5.42,6.32,6.32,0,0,0-2.51-.58A29.59,29.59,0,0,1,215.71,111.41Zm-2.49-7.24a7.24,7.24,0,0,0-3.89,6.62c0,2,.83,3.42,2,3.42.93,0,1.93-1.11,2.89-3.24a26.44,26.44,0,0,0,2-7.62A8.27,8.27,0,0,0,213.22,104.17Z"/><path class="cls-3" d="M25.13,148.62H14.3a31.52,31.52,0,0,0-4.24.22,24.47,24.47,0,0,0,.22-3.52v-1.87a25.3,25.3,0,0,0-.22-3.58,30.07,30.07,0,0,0,4.24.22H25.13V136.3H9.57a41.72,41.72,0,0,0-5.83.33V134a27.92,27.92,0,0,0,5.83.33H25.13V134a24.46,24.46,0,0,0-.33-5h2.86a19.88,19.88,0,0,0-.38,5v.33H44.05a28.21,28.21,0,0,0,5.83-.33v2.59a42.22,42.22,0,0,0-5.83-.33H27.28v3.79H39.54a30.07,30.07,0,0,0,4.24-.22,23.82,23.82,0,0,0-.22,3.58v1.87a23.09,23.09,0,0,0,.22,3.52,31.84,31.84,0,0,0-4.29-.22H27.28v4H38.61a55.24,55.24,0,0,0,6-.22,41.29,41.29,0,0,0-.16,4.73v1.81h.38a27.61,27.61,0,0,0,5.72-.33v2.53a36.81,36.81,0,0,0-5.72-.27h-.38v4.07a23.19,23.19,0,0,0,.33,5.11H42.35v-2.25H27.28v5.11c0,3.14-1,3.8-5.39,3.8-.94,0-3.58-.11-5.12-.28a5.16,5.16,0,0,0-.55-2.42,40.17,40.17,0,0,0,6.44.61c2,0,2.47-.33,2.47-1.54v-5.28H12.37A32.77,32.77,0,0,0,7.2,168v-2.42a31.8,31.8,0,0,0,5.12.28H25.13v-5.06h-16a36.83,36.83,0,0,0-5.78.27v-2.53a33.2,33.2,0,0,0,5.78.33h16v-4.45H12.87a31.77,31.77,0,0,0-5,.27v-2.47a25.22,25.22,0,0,0,5.12.33H25.13Zm0-6.71H12.37v4.89H25.13Zm16.34,4.89v-4.89H27.28v4.89Zm.88,7.65H27.28v4.45H42.35Zm0,11.44v-5.06H27.28v5.06Z"/><path class="cls-3" d="M65.47,140.81a40.25,40.25,0,0,0-5.77.27v-2.53a36.2,36.2,0,0,0,5.77.33H70a28.68,28.68,0,0,0-4.67-5.94l1.92-1.15a34.41,34.41,0,0,1,5.06,7.09h5.06v-4.23a26,26,0,0,0-.33-4.57h2.64a32.25,32.25,0,0,0-.22,4.57v4.23h6.33v-4.23a34.34,34.34,0,0,0-.22-4.57h2.64a24.68,24.68,0,0,0-.33,4.57v4.23h5.77a25.81,25.81,0,0,0,4.46-7.42l2.31,1.1a51.26,51.26,0,0,1-4.35,6.32H100a37.6,37.6,0,0,0,5.83-.33v2.53a40.76,40.76,0,0,0-5.83-.27H93.3a64.91,64.91,0,0,1-3.3,6.93h8.2a37.64,37.64,0,0,0,5.77-.28v2.48a40.41,40.41,0,0,0-5.77-.28H83.68v4.4h11a40.34,40.34,0,0,0,5.83-.27v2.42a40.48,40.48,0,0,0-5.83-.28h-11v4.84h16.5a29.59,29.59,0,0,0,5.83-.33v2.64a44.62,44.62,0,0,0-5.83-.33H85.38A32.78,32.78,0,0,0,92,167.54a49.1,49.1,0,0,0,15.18,5.28,8.18,8.18,0,0,0-1.65,2.31,52.07,52.07,0,0,1-13.7-5.39,32.33,32.33,0,0,1-8.41-6.55c.16,2.92.22,3.69.22,4.84v4A39.89,39.89,0,0,0,84,177.6H81.2a42.15,42.15,0,0,0,.33-5.61v-4c0-1.21.06-2.75.22-4.84-4.84,5.34-11.44,9.19-20.51,11.88a8.22,8.22,0,0,0-1.65-2.14c8.47-2,14.79-5.17,20.18-10.18h-14a43.05,43.05,0,0,0-5.66.33v-2.64a27.92,27.92,0,0,0,5.66.33H81.53v-4.84H71.08a39.3,39.3,0,0,0-5.72.28v-2.42a39.56,39.56,0,0,0,5.72.27H81.53v-4.4h-14a39.64,39.64,0,0,0-5.72.28v-2.48a36.9,36.9,0,0,0,5.72.28H75.7a28.12,28.12,0,0,0-3.13-6.93Zm9.46,0a48.9,48.9,0,0,1,2.86,6.93h10a29.24,29.24,0,0,0,3.19-6.93Z"/><path class="cls-3" d="M116.3,144.38a18.8,18.8,0,0,0,4.07.28h6.16a12.38,12.38,0,0,0,2.86-.22l1.21,1.32c-.33.88-.33.88-1.59,5.22a42.86,42.86,0,0,1-12.71,21.29,4.88,4.88,0,0,0-1.76-1.6,34.46,34.46,0,0,0,8.2-9.57c2.25-4,3.74-7.92,5.28-14.52h-7.65a19.09,19.09,0,0,0-4.07.28Zm24.26,28.49c0,2.81-.88,3.52-4.29,3.52A52.44,52.44,0,0,1,129,176a10.32,10.32,0,0,0-.5-2.36,41.87,41.87,0,0,0,8.09.77c1.43,0,1.81-.33,1.81-1.6V165.5h-6.76a23.93,23.93,0,0,0-4.35.28v-2.42a23.34,23.34,0,0,0,4.35.27h6.76v-5.88h-3.79a24.06,24.06,0,0,0-4.35.27v-2.36a23,23,0,0,0,4.35.27h3.79v-5.28h-3.35a27.53,27.53,0,0,0-4,.28v-2.37a27.53,27.53,0,0,0,4,.28h3.35v-2a42.17,42.17,0,0,0-.27-5.17h1.54a68.39,68.39,0,0,0,11.77-7.2H129.06a39.53,39.53,0,0,0-5.72.33v-2.64a38.49,38.49,0,0,0,5.72.33h20a30,30,0,0,0,4.73-.22l1.15,1.81c-.66.55-1.32,1.05-2.2,1.82a75.38,75.38,0,0,1-12.15,7.53v5.45H144a22.18,22.18,0,0,0,4-.28v2.37a22.18,22.18,0,0,0-4-.28h-3.41v5.28h4.34a21.28,21.28,0,0,0,4.29-.27V158a21.28,21.28,0,0,0-4.29-.27h-4.34v5.88h7a21.89,21.89,0,0,0,4.29-.27v2.42a22.5,22.5,0,0,0-4.29-.28h-7Zm22.27-29a10.24,10.24,0,0,0-1.1,1.21,85.71,85.71,0,0,1-8.69,8.53,41.75,41.75,0,0,0,3.63,7.15,37.53,37.53,0,0,0,8.14,9.35,8.55,8.55,0,0,0-1.87,1.81,50.8,50.8,0,0,1-9.13-12,51.33,51.33,0,0,1-5.28-14.13,24.91,24.91,0,0,0-.88-3l2.26-.71a50.63,50.63,0,0,0,2.42,9.62,42,42,0,0,0,8.47-9.46Z"/><path class="cls-3" d="M177.63,158.35c-.72,7.21-1.38,10.23-3.47,15.4l-2-1c2-4.62,2.75-7.81,3.3-14.85Zm-5.34-5.55c.66,0,1.38.11,2,.11h1.43c2.53-3.14,2.53-3.14,4.23-5.5a50.91,50.91,0,0,0-7.31-8.31l1.43-1.43c1.1,1.16,1.48,1.49,2.31,2.37,2.86-4.35,4.78-8.25,5.28-10.73l2.36,1.32a15.93,15.93,0,0,0-1.21,2,77.78,77.78,0,0,1-5.22,8.69c1.54,1.76,2.47,2.8,3.57,4.29,3.74-5.34,5.12-7.65,5.78-9.68l2.14,1.43c-1.1,1.54-1.1,1.54-3.13,4.67a107.77,107.77,0,0,1-7.92,10.78c3.79-.22,5.83-.38,9.46-.82a41.31,41.31,0,0,0-2.42-4.4l1.48-.94a49.42,49.42,0,0,1,4.73,9.52l-1.92.93a29.42,29.42,0,0,0-1.21-3.52c-2.31.39-3,.5-5,.72v17.82a36.14,36.14,0,0,0,.33,5.06h-2.75a35.63,35.63,0,0,0,.33-5.06v-17.6c-1.87.16-2.69.22-3.41.27a37.68,37.68,0,0,0-5,.44Zm15.46,5.33A84.14,84.14,0,0,1,190.17,170l-2.15.66a53.83,53.83,0,0,0-2.14-11.82Zm4.51,18.81a40.07,40.07,0,0,0,.33-5.55V135.91a29.57,29.57,0,0,0-.28-4.67H195a27.33,27.33,0,0,0-.27,4.62v35.86h19.85a26.44,26.44,0,0,0,5.34-.39V174a36.1,36.1,0,0,0-5.28-.33H194.68v3.24Zm9.18-27a26.29,26.29,0,0,0-4.62.27v-2.36a39.14,39.14,0,0,0,4.62.27h4.68v-13a29.52,29.52,0,0,0-.28-4.73h2.59a27.91,27.91,0,0,0-.28,4.67v13.09h6.11a28.26,28.26,0,0,0,4.78-.27v2.36a28.69,28.69,0,0,0-4.78-.27h-5.5a39.61,39.61,0,0,0,11.16,15.62,6.31,6.31,0,0,0-1.7,1.87,41,41,0,0,1-10.34-15.62c.22,3.24.27,5.55.27,8.08v4.4a34,34,0,0,0,.33,5.83h-2.69a34.36,34.36,0,0,0,.33-5.83v-4.4c0-2.42,0-4.89.22-8a38.5,38.5,0,0,1-9,14.52,5.09,5.09,0,0,0-1.87-1.48,37.78,37.78,0,0,0,10.07-15Zm-2.25-16.17a65.5,65.5,0,0,1,4.07,10.83l-2,1.05a49.5,49.5,0,0,0-4-11ZM211,144.71a35,35,0,0,0,4.4-11.33l2.2,1a52.16,52.16,0,0,1-4.95,11.55Z"/><path class="cls-3" d="M218.37,59.25c1,.17,1.51.39,1.51.61,0,.06,0,.11-.1.23a8.32,8.32,0,0,0-.79,2.28l-.1.35a13.23,13.23,0,0,1,1.71-.18c1.49,0,2.18.89,2.18,2.83a13,13,0,0,1-1.18,5.41,2.11,2.11,0,0,1-2,1.34,3.85,3.85,0,0,1-1.52-.32c-.11-.07-.14-.12-.14-.3a3.49,3.49,0,0,0-.18-1,3,3,0,0,0,1.66.54c.63,0,1-.4,1.41-1.34a12.86,12.86,0,0,0,.8-4.46c0-1.21-.4-1.75-1.27-1.75a10.62,10.62,0,0,0-1.8.22,46.25,46.25,0,0,1-1.74,4.68,20.35,20.35,0,0,1-1.8,3.41.27.27,0,0,1-.18.08,2.07,2.07,0,0,1-.79-.44c-.08-.08-.12-.11-.12-.16a.29.29,0,0,1,.07-.17,26.72,26.72,0,0,0,3.42-7.18,13.94,13.94,0,0,0-3,.7.32.32,0,0,1-.15.05c-.19,0-.35-.4-.51-1.24a16.86,16.86,0,0,0,3.23-.4l.67-.1A14.46,14.46,0,0,0,218.37,59.25Zm8,7.6a9.27,9.27,0,0,0-2.55-3.92c-.06-.06-.08-.1-.08-.14a1.61,1.61,0,0,1,.69-.65A6.72,6.72,0,0,1,226,63.7a7.44,7.44,0,0,1,1.44,2.63c0,.09,0,.15-.22.29a1.82,1.82,0,0,1-.67.38C226.44,67,226.39,67,226.35,66.85Zm-.92-5.12A7.07,7.07,0,0,0,224,60.16c-.06-.07-.11-.12-.11-.15s0,0,.26-.27.26-.2.34-.2.35.15.77.53a4.67,4.67,0,0,1,1,1.18,1.44,1.44,0,0,1-.67.62C225.53,61.87,225.48,61.83,225.43,61.73Zm.45-3.28a5.09,5.09,0,0,1,1.7,1.69c0,.1,0,.13-.34.35s-.28.2-.33.2-.09,0-.11-.06A6.21,6.21,0,0,0,225.33,59c-.05,0-.07-.07-.07-.1S225.73,58.45,225.88,58.45Z"/><rect class="cls-2" x="1.01" width="209.34" height="31.12" rx="15.56"/><path class="cls-6" d="M39.38,17.09a9.51,9.51,0,0,0,1.5-.09,8.51,8.51,0,0,0-.09.92,17.62,17.62,0,0,1-.94,5c-.32.74-.93,1-2.18,1a21,21,0,0,1-2.88-.22,4.48,4.48,0,0,0-.25-1.24,15.81,15.81,0,0,0,3.1.38c.66,0,1-.14,1.19-.52a15.48,15.48,0,0,0,.79-4.27H34.87c-.49,0-.85,0-1.3.06a21.07,21.07,0,0,0,.83-4.81,13.21,13.21,0,0,0,1.51.07h3.65V10.59H35.32a12.06,12.06,0,0,0-1.66.11V9.48a11.08,11.08,0,0,0,1.67.11h3.89a12.84,12.84,0,0,0,1.51-.08c0,.42,0,.83,0,1.34v2.32c0,.56,0,.93,0,1.28-.61,0-1-.06-1.47-.06h-3.8c-.18,1.08-.32,1.84-.54,2.7Zm6.9-8a10.07,10.07,0,0,0-.11,1.69V22.24a13.86,13.86,0,0,0,.11,2H44.89a14.09,14.09,0,0,0,.13-2V10.77a10.08,10.08,0,0,0-.13-1.69Z"/><path class="cls-6" d="M62.64,18.75c.11.09.13.14.13.23a2.26,2.26,0,0,1-.31.74c-.16.31-.31.45-.45.45a.24.24,0,0,1-.13-.05A8.62,8.62,0,0,0,57.38,19c-2.12,0-3.31.61-3.31,1.71C54.07,22,56,22.85,59,22.85c.45,0,.84,0,1.67-.07a4.09,4.09,0,0,0-.41,1c-.08.27-.15.29-.8.29-4.23,0-6.57-1.19-6.57-3.32C52.88,19,54.45,18,57.24,18a10.27,10.27,0,0,1,4,.77,15.21,15.21,0,0,1-2.57-3.18A27.94,27.94,0,0,1,53,16.3c-.32,0-.34,0-.47-1.06a24.27,24.27,0,0,0,5.57-.6,19.1,19.1,0,0,1-.94-2.07,32.46,32.46,0,0,1-4.41.51c-.14,0-.18,0-.23-.27a5.1,5.1,0,0,1-.09-.78,26.6,26.6,0,0,0,4.35-.43l-.34-1a4.55,4.55,0,0,0-.54-1.28,6.24,6.24,0,0,1,1.35-.16c.22,0,.29,0,.29.21s0,.11,0,.16a.43.43,0,0,0,0,.13,7.48,7.48,0,0,0,.42,1.73,18,18,0,0,0,2.17-.61l1.57-.6a.1.1,0,0,1,.07,0c.06,0,.09.06.2.31a3.22,3.22,0,0,1,.22.65s-.06.09-.15.12a24.41,24.41,0,0,1-3.74,1.12,17.22,17.22,0,0,0,.92,2,13.49,13.49,0,0,0,3.54-1.44.25.25,0,0,1,.15,0,2.92,2.92,0,0,1,.43,1s0,.07-.09.11a17.5,17.5,0,0,1-3.48,1.37,16.58,16.58,0,0,0,2.52,3.08Z"/><path class="cls-6" d="M70,18.24a18,18,0,0,1-1,5.12l-.91-.44a15.05,15.05,0,0,0,1-4.84Zm-.68-2c.67-.85.67-.85,1.21-1.59A18.41,18.41,0,0,0,68.24,12l.59-.81.69.74A11.6,11.6,0,0,0,71.1,8.58l1.08.52a4.5,4.5,0,0,0-.4.65,22.85,22.85,0,0,1-1.67,2.82c.52.62.72.85,1,1.23l.72-1.12a7.42,7.42,0,0,0,1.08-2l1,.58a15.79,15.79,0,0,0-1,1.53c-.79,1.18-1.73,2.44-2.48,3.36,1.28-.07,1.47-.09,2.66-.23a11.76,11.76,0,0,0-.7-1.35l.74-.4a17.9,17.9,0,0,1,1.46,3.24l-.87.42c-.14-.53-.18-.69-.3-1.07-.78.13-.81.13-1.48.2v5.71A12.39,12.39,0,0,0,72,24.42H70.81a12.71,12.71,0,0,0,.11-1.71v-5.6l-2,.13a4.9,4.9,0,0,0-.67.07l-.16-1.14a5.12,5.12,0,0,0,.74.06h.43Zm4.14,1.92a28.79,28.79,0,0,1,.68,4l-.91.24a20.48,20.48,0,0,0-.6-3.94Zm8.68,4.25a9.59,9.59,0,0,0,1.71-.11v1.19a13.24,13.24,0,0,0-1.8-.11H75.8v1H74.66a12.45,12.45,0,0,0,.11-1.84V10.76a8.8,8.8,0,0,0-.09-1.53h1.21a9.1,9.1,0,0,0-.09,1.51V22.4Zm-4.34-6.89a10.86,10.86,0,0,0-1.39.07V14.52a11.84,11.84,0,0,0,1.39.07h1.47V10.43a8.2,8.2,0,0,0-.09-1.49h1.16a7.9,7.9,0,0,0-.09,1.49v4.16h1.83a9.22,9.22,0,0,0,1.53-.09v1.1a9.22,9.22,0,0,0-1.53-.09H80.44a10.88,10.88,0,0,0,3.48,4.32,3.15,3.15,0,0,0-.67,1A11.89,11.89,0,0,1,80.1,16.3a11.53,11.53,0,0,1,.13,2.12v1.71a9.74,9.74,0,0,0,.09,1.71H79.16a10.07,10.07,0,0,0,.09-1.71V18.44a16.51,16.51,0,0,1,.13-2.14,11.57,11.57,0,0,1-2.74,4.46,2.44,2.44,0,0,0-.73-.77A11.34,11.34,0,0,0,79,15.51ZM77.31,10a19.36,19.36,0,0,1,1.24,3.48l-.86.45a15.57,15.57,0,0,0-1.24-3.53Zm5.9.36A16,16,0,0,1,81.68,14l-.79-.47a12,12,0,0,0,1.35-3.6Z"/><path class="cls-6" d="M96.05,10.16a.31.31,0,0,1-.2.27,3.21,3.21,0,0,0-.77.78,59.5,59.5,0,0,1-4.22,4.6,1.05,1.05,0,0,0-.37.78.9.9,0,0,0,.34.68C92.2,18.51,93.76,20.1,95,21.5a8.87,8.87,0,0,1,1.41,1.77c0,.12-.22.34-.65.66a.92.92,0,0,1-.42.24c-.07,0-.12,0-.18-.15A32.09,32.09,0,0,0,90,18.14a2.06,2.06,0,0,1-.79-1.53,1.92,1.92,0,0,1,.3-1,12.44,12.44,0,0,1,1.35-1.48A32.72,32.72,0,0,0,94,10.36a6.3,6.3,0,0,0,.65-1.3C95.49,9.51,96.05,9.93,96.05,10.16Zm-.52,2.72a.54.54,0,0,0,.14-.11c.23-.18.34-.23.43-.21a3.28,3.28,0,0,1,1,.86,4.86,4.86,0,0,1,.8,1.08c0,.09-.08.16-.31.34s-.38.29-.45.29S97,15.09,97,15a6,6,0,0,0-1.44-1.8c-.06-.08-.09-.11-.09-.17S95.45,12.93,95.53,12.88Zm3.69.45c0,.11-.06.14-.4.38s-.27.18-.34.18-.09,0-.15-.13A5.78,5.78,0,0,0,96.89,12c0-.05-.07-.07-.07-.11a1.34,1.34,0,0,1,.69-.48A5.27,5.27,0,0,1,99.22,13.33Z"/><path class="cls-6" d="M107.78,22.74a11,11,0,0,0,.11,1.7h-1.28a10.58,10.58,0,0,0,.11-1.71V17.34a18.08,18.08,0,0,1-2.37,2,3.44,3.44,0,0,0-.65-1,14.29,14.29,0,0,0,3.11-2.58,11.76,11.76,0,0,0,2.14-3.2h-3.24a12.5,12.5,0,0,0-1.38.07V11.57a12.19,12.19,0,0,0,1.37.07h1V10a6.71,6.71,0,0,0-.11-1.32h1.3a7.2,7.2,0,0,0-.11,1.35v1.59h1a5.08,5.08,0,0,0,1-.06l.54.6a5.2,5.2,0,0,0-.41.74A15,15,0,0,1,108,15.87a10.43,10.43,0,0,0,2.79,2.36,3.78,3.78,0,0,0-.62.95,11.38,11.38,0,0,1-2.43-2.2Zm6-12.42a9.83,9.83,0,0,0-.13-1.56H115a9.12,9.12,0,0,0-.13,1.56v3.75h2.27a10.63,10.63,0,0,0,1.69-.11v1.22c-.54,0-1.08-.09-1.69-.09h-2.27v7.38h2.74a11.73,11.73,0,0,0,1.87-.1v1.29a11.67,11.67,0,0,0-1.87-.12h-6.21a11.54,11.54,0,0,0-1.86.12V22.37a12.09,12.09,0,0,0,1.86.1h2.36V15.09h-1.7c-.61,0-1.17,0-1.71.09V14a10.82,10.82,0,0,0,1.71.11h1.7Z"/><path class="cls-6" d="M131.17,17.49a7.34,7.34,0,0,0,2.21,2.64,11,11,0,0,0,2.7-2.46l1,.63-.31.28a1.65,1.65,0,0,0-.2.19,14,14,0,0,1-2.45,1.92,15.43,15.43,0,0,0,5.28,2.22,4,4,0,0,0-.61,1.15,15.34,15.34,0,0,1-6.16-3.14A10.14,10.14,0,0,1,130,17.49h-2.09v4.79a35.82,35.82,0,0,0,3.78-1.17l0,1a58.68,58.68,0,0,1-6.55,1.91l-.74.19-.36-1.2a15,15,0,0,0,2.72-.51V17.49h-1.35a12,12,0,0,0-1.71.1V16.43a10.73,10.73,0,0,0,1.71.11h1.35V11.19a14.29,14.29,0,0,0-.07-1.71,11.85,11.85,0,0,0,1.78.09h7.38a10.61,10.61,0,0,0,1.83-.11v1.17a13.13,13.13,0,0,0-1.83-.09h-8v1.33h7.46a10.83,10.83,0,0,0,1.67-.09V12.9a13.67,13.67,0,0,0-1.67-.09h-7.46v1.35h7.46a9.46,9.46,0,0,0,1.67-.09v1.11a11.23,11.23,0,0,0-1.67-.09h-7.46v1.45h9.53a11,11,0,0,0,1.69-.11v1.16a10.9,10.9,0,0,0-1.64-.1Z"/><path class="cls-6" d="M145.76,12.84a16.51,16.51,0,0,0-1.88.11V11.69a11.89,11.89,0,0,0,1.88.13h4.85V10.34a9.56,9.56,0,0,0-.13-1.56h1.37a8.64,8.64,0,0,0-.13,1.56v1.48h5.11a10.68,10.68,0,0,0,1.93-.13V13a18.58,18.58,0,0,0-1.93-.11h-4.68a18.17,18.17,0,0,0,7.13,7.49,3.4,3.4,0,0,0-.79,1.12,19.93,19.93,0,0,1-3.6-3,16.26,16.26,0,0,1-3.24-4.87c0,1,.07,1.67.07,2.25v3.94h1.89a10,10,0,0,0,1.68-.09v1.2a9.34,9.34,0,0,0-1.71-.1h-1.86V22.4a12.28,12.28,0,0,0,.13,2h-1.37a13.25,13.25,0,0,0,.13-2V20.75H149a9.56,9.56,0,0,0-1.75.1v-1.2a10.14,10.14,0,0,0,1.71.09h1.7V15.81c0-.66,0-1.29.07-2.23a16.61,16.61,0,0,1-3.26,5,18.21,18.21,0,0,1-3.29,2.9,3.41,3.41,0,0,0-.81-1A15.59,15.59,0,0,0,147.37,17a18.28,18.28,0,0,0,2.8-4.11Z"/><path class="cls-6" d="M171.79,9a12.36,12.36,0,0,0-.09,1.51,25.61,25.61,0,0,0,.38,3.76,15.22,15.22,0,0,0,2.23,4.84,15.86,15.86,0,0,0,2.56,2.76,16.69,16.69,0,0,0,2,1.33,3.88,3.88,0,0,0-.9,1.1,15.93,15.93,0,0,1-4.58-4.43,14.89,14.89,0,0,1-2.25-5.49,13.71,13.71,0,0,1-2.37,5.88,15.94,15.94,0,0,1-2.18,2.38,18.19,18.19,0,0,1-2.3,1.66,3.15,3.15,0,0,0-.92-1,11.94,11.94,0,0,0,3.53-2.61c2.41-2.57,3.58-5.89,3.58-10.15A11.79,11.79,0,0,0,170.41,9Z"/><path class="cls-6" d="M14.33,61.16c0-.59,0-1,0-1.22s0-.14,0-1.1a9.22,9.22,0,0,1-1.71,1.71A2.69,2.69,0,0,0,12,59.6a12.9,12.9,0,0,0,3.05-3,7.4,7.4,0,0,0,1-1.76l1,.59c-.19.26-.28.42-.5.76a12.93,12.93,0,0,1-1.13,1.58v7.15a18.66,18.66,0,0,0,.07,2H14.22a14.06,14.06,0,0,0,.11-2Zm2.52-9.32a6.07,6.07,0,0,0-.38.52A14.1,14.1,0,0,1,13,55.75a2.59,2.59,0,0,0-.66-.85,9.22,9.22,0,0,0,3.54-3.71Zm5.5,0c-.14.18-.19.26-.43.62A22.76,22.76,0,0,1,20,54.76c.73.63.88.75,1.54,1.38a16.54,16.54,0,0,0,2.79-3.51l1.08.65c-.18.2-.27.31-.68.81A36,36,0,0,1,21,58c2.45-.12,2.45-.12,4.59-.34a15.93,15.93,0,0,0-1.35-1.49l.83-.54a37.46,37.46,0,0,1,3,3.58l-.9.63c-.45-.68-.58-.86-1-1.39-2.84.31-2.84.31-4.86.45a9.71,9.71,0,0,1-.82,1.35h3.29a7.94,7.94,0,0,0,1.4-.09l.71.67a3.8,3.8,0,0,0-.38.5A13.65,13.65,0,0,1,23,63.94a14.62,14.62,0,0,0,5.09,1.83,4.63,4.63,0,0,0-.57,1.1,15.65,15.65,0,0,1-3.89-1.42,12.43,12.43,0,0,1-1.53-.88,15.16,15.16,0,0,1-5.49,2.35,3.16,3.16,0,0,0-.65-1,14.48,14.48,0,0,0,5.31-2,10.83,10.83,0,0,1-2-2.14,12.13,12.13,0,0,1-2.37,1.89,3.49,3.49,0,0,0-.78-.81A9.39,9.39,0,0,0,20.23,59c-.11,0-1,.07-2.72.16a5,5,0,0,0-.83.07l-.19-1.15c.34,0,.68,0,1.22,0l1.89,0,1.24-1.19a26.33,26.33,0,0,0-3.47-2.85l.75-.79c.6.45.74.58,1.14.88a10.05,10.05,0,0,0,2-2.88ZM20,61.15a10.65,10.65,0,0,0,2.15,2.19,8.85,8.85,0,0,0,2.21-2.19Z"/><path class="cls-6" d="M34,60.86A18.25,18.25,0,0,1,33,66l-.92-.43a15.42,15.42,0,0,0,1-4.84Zm-.68-2C34,58,34,58,34.52,57.26a17.41,17.41,0,0,0-2.27-2.68l.6-.81c.36.37.39.43.68.73a11.41,11.41,0,0,0,1.59-3.31l1.08.52a3.54,3.54,0,0,0-.4.65,25.88,25.88,0,0,1-1.67,2.83c.52.61.72.84,1,1.22.22-.32.22-.32.72-1.11a7.41,7.41,0,0,0,1.08-2l1,.58a16.77,16.77,0,0,0-1,1.53c-.79,1.19-1.73,2.45-2.49,3.37,1.28-.08,1.48-.09,2.67-.24a11.76,11.76,0,0,0-.7-1.35l.73-.39a17.9,17.9,0,0,1,1.46,3.24l-.86.41c-.15-.52-.18-.68-.31-1.06-.77.12-.81.12-1.47.2v5.7A12.4,12.4,0,0,0,36,67h-1.2a12.71,12.71,0,0,0,.11-1.71v-5.6l-2,.13-.66.07-.16-1.13a6.72,6.72,0,0,0,.73.05h.44Zm4.14,1.93a28.52,28.52,0,0,1,.68,4l-.92.23A21.35,21.35,0,0,0,36.63,61ZM46.13,65a10.55,10.55,0,0,0,1.71-.11V66.1A11.63,11.63,0,0,0,46,66H39.81v1H38.68a14,14,0,0,0,.11-1.84V53.37a10,10,0,0,0-.09-1.53h1.2a9.18,9.18,0,0,0-.09,1.51V65Zm-4.34-6.9a10.69,10.69,0,0,0-1.38.07V57.13a9.86,9.86,0,0,0,1.38.07h1.48V53.05a9.43,9.43,0,0,0-.09-1.5h1.15a9,9,0,0,0-.09,1.5V57.2h1.84a8.3,8.3,0,0,0,1.53-.09v1.1a9.29,9.29,0,0,0-1.53-.09H44.46a10.86,10.86,0,0,0,3.47,4.32,3.42,3.42,0,0,0-.66,1,11.89,11.89,0,0,1-3.15-4.52A13,13,0,0,1,44.24,61v1.71a11,11,0,0,0,.09,1.71H43.18a11.4,11.4,0,0,0,.09-1.71V61.06a16.56,16.56,0,0,1,.13-2.15,11.73,11.73,0,0,1-2.74,4.47,2.3,2.3,0,0,0-.74-.78A11.3,11.3,0,0,0,43,58.12Zm-.46-5.52a19,19,0,0,1,1.24,3.47l-.87.45A15.74,15.74,0,0,0,40.46,53Zm5.9.36a16.86,16.86,0,0,1-1.53,3.63l-.79-.47a12.31,12.31,0,0,0,1.35-3.6Z"/><path class="cls-6" d="M54.2,57.67a15,15,0,0,0-1.93.11V56.57a10.79,10.79,0,0,0,1.94.11h4.36V54.52H55.78a13,13,0,0,0-1.87.09V53.46a11.72,11.72,0,0,0,1.89.11h2.77V53a8.36,8.36,0,0,0-.11-1.65h1.32A8.44,8.44,0,0,0,59.67,53v.6h1.6a11.89,11.89,0,0,0,1.89-.11v1.15a11.76,11.76,0,0,0-1.84-.09H59.67v2.16h1.55a16.46,16.46,0,0,0,4.35-4.59l1,.69c-.25.27-.29.3-.72.82a24.81,24.81,0,0,1-3.17,3.08h2.83a10.3,10.3,0,0,0,1.83-.11v1.21a14.59,14.59,0,0,0-1.89-.11H61.41c-1,.72-1.71,1.17-2.79,1.82.9,0,1.28,0,1.82,0h3a17,17,0,0,0,1.88-.08,14.35,14.35,0,0,0-.08,1.89v3.89a9.09,9.09,0,0,0,.11,1.78H64.1v-.81H57v.81H55.74a11,11,0,0,0,.11-1.78V62.23c0-.4,0-.83,0-1.27a32.17,32.17,0,0,1-3.42,1.55,4,4,0,0,0-.67-1,32.64,32.64,0,0,0,8-3.85ZM57,62.23H64.1V60.37H57Zm0,3H64.1v-2H57Z"/><path class="cls-6" d="M100.89,60.07c0-1,0-1.62,0-2.56a11.38,11.38,0,0,1-1.2,2,4.16,4.16,0,0,0-.67-1,14.16,14.16,0,0,0,2.16-3.47,16.12,16.12,0,0,0,1.17-3.74l1.12.32c-.09.23-.13.34-.24.67A21.19,21.19,0,0,1,101.91,56v8.83c0,1,0,1.5.07,2.14h-1.2a17.08,17.08,0,0,0,.11-2.16Zm5.06-6.7c-.9.14-1.17.18-2.24.29a2.14,2.14,0,0,0-.37-.88,22.65,22.65,0,0,0,4.08-.56,5.86,5.86,0,0,0,1.68-.6l.59.92a17.85,17.85,0,0,1-2.81.65v1.3h1.5a8.34,8.34,0,0,0,1.45-.09v1a13.17,13.17,0,0,0-1.45-.07h-1.5v1.1h1.57a9.28,9.28,0,0,0,1.33,0,10.54,10.54,0,0,0-.06,1.44v2.11a13.31,13.31,0,0,0,0,1.49c-.41,0-.81,0-1.35,0h-1.53v1.17h1.21a9.48,9.48,0,0,0,1.4-.07v1a7.75,7.75,0,0,0-1.38-.08h-1.23v1.37c1.14-.14,1.37-.2,2.38-.38v.89c-2.15.36-3.85.59-5.35.75l-1,.13-.22-1.1.41,0c.53,0,1.64-.09,2.87-.22V63.39h-1.44a8.41,8.41,0,0,0-1.43.08v-1a9.78,9.78,0,0,0,1.43.07H106V61.4h-1.32c-.59,0-1,0-1.47.05a12.61,12.61,0,0,0,.07-1.49V57.87a12,12,0,0,0-.07-1.49,9.6,9.6,0,0,0,1.43,0H106v-1.1h-1.54a10.17,10.17,0,0,0-1.42.07v-1a9.71,9.71,0,0,0,1.42.07H106Zm-1.84,3.85V58.5H106V57.22Zm0,2v1.36H106V59.25Zm4.73-.75V57.22h-2V58.5Zm0,2.11V59.25h-2v1.36Zm5-5.37a12.25,12.25,0,0,0,1.29-.05c0,.38,0,.54-.07,2.36a48.66,48.66,0,0,1-.56,7.7c-.27,1.24-.57,1.55-1.58,1.55-.33,0-.76,0-1.44-.11a6,6,0,0,0-.22-1.12,6.64,6.64,0,0,0,1.5.2c.59,0,.72-.25.93-1.78a57,57,0,0,0,.38-7.78h-1.46a28.41,28.41,0,0,1-.38,4.34,13.63,13.63,0,0,1-2.5,6.37,2.77,2.77,0,0,0-.9-.64,9.35,9.35,0,0,0,2-3.82,27.31,27.31,0,0,0,.82-6.25h-.27a7,7,0,0,0-1.17.08V55.17a7.63,7.63,0,0,0,1.17.07h.31c0-.59,0-1.11,0-1.71a12.4,12.4,0,0,0-.09-2h1.2a9.49,9.49,0,0,0-.09,1.64c0,1.13,0,1.13,0,2.05Z"/><path class="cls-6" d="M127.65,52.67a.32.32,0,0,1-.19.27,3.27,3.27,0,0,0-.78.77,59,59,0,0,1-4.21,4.61,1.05,1.05,0,0,0-.38.77,1,1,0,0,0,.34.69c1.37,1.24,2.94,2.82,4.2,4.23a8.68,8.68,0,0,1,1.4,1.76c0,.13-.21.34-.65.67a1,1,0,0,1-.41.23c-.07,0-.13,0-.18-.14a32.4,32.4,0,0,0-5.18-5.89,2.07,2.07,0,0,1-.8-1.53,1.9,1.9,0,0,1,.31-1,11.68,11.68,0,0,1,1.35-1.47,35.5,35.5,0,0,0,3.11-3.76,6.56,6.56,0,0,0,.65-1.3C127.09,52,127.65,52.43,127.65,52.67Z"/><path class="cls-6" d="M135.64,65.27c-.61.36-.73.43-.86.43s-.11,0-.36-.27a3.16,3.16,0,0,0-.76-.54,22.09,22.09,0,0,0,6-4.45A23.21,23.21,0,0,0,144,54.7c-.9,0-.9,0-4,0-.69,0-3,.05-3.44.07l-.4,0-.22,0h0c-.18,0-.25-.36-.27-1.44a44.61,44.61,0,0,0,5.45.14,17.79,17.79,0,0,0,3.39-.14,1,1,0,0,1,.32-.06c.25,0,.42.13.74.52a1.33,1.33,0,0,1,.34.67c0,.11-.05.18-.18.27a3.64,3.64,0,0,0-.83,1,24,24,0,0,1-2.82,4,25.94,25.94,0,0,1,4.39,3.46c.86.81,1.31,1.31,1.31,1.47a2.28,2.28,0,0,1-.9.92c-.1,0-.1,0-1.22-1.26a22.89,22.89,0,0,0-3.38-3c-.18-.15-.49-.36-1-.7A26.1,26.1,0,0,1,135.64,65.27Z"/><path class="cls-6" d="M154.13,58.73a2.74,2.74,0,0,1-.93.58.24.24,0,0,1-.18-.09,3.25,3.25,0,0,0-.9-.58,13,13,0,0,0,5.09-5.23,8.33,8.33,0,0,0,.58-1.44c.82.28,1.4.63,1.4.84s0,.13-.14.22a2.25,2.25,0,0,0-.56.72,6.76,6.76,0,0,1-.38.61h2.75c2.13,0,2.18,0,2.49-.13a.46.46,0,0,1,.2,0c.14,0,.3.14.64.56a1.49,1.49,0,0,1,.35.59c0,.09,0,.13-.15.25a2.88,2.88,0,0,0-.48.78,23.23,23.23,0,0,1-3.59,5.4A21,21,0,0,1,155.05,66a2.88,2.88,0,0,1-1,.51.35.35,0,0,1-.27-.13,3.62,3.62,0,0,0-.92-.65,21,21,0,0,0,6.28-4.55,15.07,15.07,0,0,0-2.7-2.38c-.09-.07-.14-.12-.14-.18s.07-.18.34-.45.3-.29.41-.29A11.36,11.36,0,0,1,160,60.28c.32-.38.73-.92,1.08-1.42a14.72,14.72,0,0,0,1.81-3.44c-2.14,0-2.17,0-5.45,0A15,15,0,0,1,154.13,58.73Z"/><path class="cls-6" d="M172.28,59.89c0,.12,0,.18-.27.32a2.29,2.29,0,0,1-.69.31c-.09,0-.16-.08-.2-.2a11.1,11.1,0,0,0-1.4-2.63c-.07-.09-.09-.13-.09-.16s.65-.6.86-.6.26.17.65.76a8.85,8.85,0,0,1,.69,1.17c.14.27.41.83.43.88A.47.47,0,0,1,172.28,59.89Zm8-2.51c0,.08,0,.13-.18.29a2.53,2.53,0,0,0-.41.78,18.12,18.12,0,0,1-2.4,4.24,14.43,14.43,0,0,1-3.6,3.33,1.9,1.9,0,0,1-.57.29c-.09,0-.13,0-.38-.23a3.39,3.39,0,0,0-.72-.45,13.2,13.2,0,0,0,5.68-5.87,8.49,8.49,0,0,0,1.05-3.19C179.75,56.9,180.25,57.17,180.25,57.38ZM174,56.16c.14,0,.27.16.61.74a8.65,8.65,0,0,1,1,2.19c0,.15-.11.22-.56.44a1.59,1.59,0,0,1-.45.14c-.09,0-.1,0-.25-.47a9.48,9.48,0,0,0-1.12-2.28.85.85,0,0,1,0-.18.24.24,0,0,1,.09-.18A1.81,1.81,0,0,1,174,56.16Z"/><path class="cls-6" d="M193.05,54.9c-4.47,0-6.28,0-7.11.14a.56.56,0,0,1-.16,0c-.13,0-.2-.05-.24-.2a4.69,4.69,0,0,1-.14-1.27,28.18,28.18,0,0,0,3.49.14c2.45,0,6.41,0,6.7,0a2.08,2.08,0,0,0,.75-.14.59.59,0,0,1,.22,0c.21,0,.36.09.66.43s.47.54.47.68a.3.3,0,0,1-.12.25c-.13.13-.2.29-.36.83a16.83,16.83,0,0,1-4.63,7.83A13.86,13.86,0,0,1,189,66a.34.34,0,0,1-.2-.11,4.21,4.21,0,0,0-1-.7,14,14,0,0,0,3.53-2.29,13.51,13.51,0,0,0,3.15-4,16.16,16.16,0,0,0,1.47-4Z"/><polyline class="cls-7" points="329.01 515.94 1.01 515.94 1.01 320.45 322.96 320.45"/><circle class="cls-2" cx="89.63" cy="484.3" r="19.8"/><path class="cls-6" d="M87.62,489.62c-.14.36-.17.47-.31.88a18.17,18.17,0,0,1-2.69-3.74c.14,1.86.17,2.22.17,3v4.41a18.58,18.58,0,0,0,.14,2.77H81.88a20.27,20.27,0,0,0,.16-2.82V490.7c0-1.05.06-2.27.12-3.16a18.56,18.56,0,0,1-3.47,6,8,8,0,0,0-1.36-2.75,20.39,20.39,0,0,0,4.3-6.93H80.24a13.55,13.55,0,0,0-2.41.14v-2.83a11.88,11.88,0,0,0,2.39.14H82V475a15.77,15.77,0,0,0-.14-2.6h3.05a15.21,15.21,0,0,0-.14,2.57v6.32H86a12.09,12.09,0,0,0,2-.11v2.77a15.14,15.14,0,0,0-2.11-.11H85a14,14,0,0,0,3.41,4.08,10.38,10.38,0,0,0-.72,1.5,24,24,0,0,0,2.44-.39l6.23-1.39V475.48a17.65,17.65,0,0,0-.16-3.1h3.21a18.14,18.14,0,0,0-.16,3.07V487a11.79,11.79,0,0,0,2.24-.66l.58,3.05c-.69.08-1.33.19-2.57.44l-.25.06v3.91a18.86,18.86,0,0,0,.16,3.13H96.24a18.5,18.5,0,0,0,.16-3.16v-3.22l-5.65,1.28a21,21,0,0,0-2.52.66Zm-7.71-15.8a34.29,34.29,0,0,1,1.64,5.73l-2.25,1a20.24,20.24,0,0,0-1.66-5.69Zm9.12.94a31.35,31.35,0,0,1-2.11,5.77l-2-1a20.74,20.74,0,0,0,1.83-5.77Zm1.33,6A26.62,26.62,0,0,1,95,484.68l-1.83,2.19a21.81,21.81,0,0,0-4.69-4.1Zm.86-6.65a26.37,26.37,0,0,1,4.63,3.94l-1.8,2.24a22.86,22.86,0,0,0-4.72-4.13Z"/><circle class="cls-2" cx="47.18" cy="484.3" r="19.8"/><path class="cls-6" d="M38.82,478.33a20.7,20.7,0,0,1-2.19,1.89,11.86,11.86,0,0,0-1.94-2,15.42,15.42,0,0,0,4.93-5.13,5.45,5.45,0,0,0,.55-1.33l3.11.61c-.19.3-.19.3-.55.94-.23.42-.45.78-.84,1.36H54.76a24.79,24.79,0,0,0,3.38-.17v2.94c-1-.08-1.11-.11-2.64-.14v3.55h1.06a16.53,16.53,0,0,0,2.6-.14v2.94a16.69,16.69,0,0,0-2.6-.14H55.5V487H56a15.16,15.16,0,0,0,2.55-.14v2.91a15,15,0,0,0-2.5-.14H38a15,15,0,0,0-2.36.14V486.9a16.21,16.21,0,0,0,2.61.14h.61v-3.55H37.68a16.85,16.85,0,0,0-2.6.14v-2.94a16.14,16.14,0,0,0,2.6.14h1.14ZM35,495a12.28,12.28,0,0,0,3.3-5l2.44,1.25a17.23,17.23,0,0,1-3.41,5.6Zm6.43-14.14h2.16v-3.55H41.45Zm0,6.21h2.16v-3.55H41.45Zm1.22,9.65c0-.67,0-.67,0-1.09a41.66,41.66,0,0,0-.42-4.71l2.61-.3a37.52,37.52,0,0,1,.69,5.82Zm5.57-15.86v-3.55H46v3.55Zm0,6.21v-3.55H46V487Zm.64,9.56a34.42,34.42,0,0,0-1.25-5.6l2.55-.58A35.2,35.2,0,0,1,51.76,496Zm4-15.77v-3.55H50.62v3.55Zm0,6.21v-3.55H50.62V487Zm3.57,9.59a26.44,26.44,0,0,0-3.18-5.57l2.3-1.14A31.26,31.26,0,0,1,59,495Z"/></g></g></svg>