<svg xmlns="http://www.w3.org/2000/svg" viewBox="0 0 312.16 28.98"><defs><style>.cls-1{fill:#fff;}.cls-2{fill:#ffe238;}</style></defs><g id="レイヤー_2" data-name="レイヤー 2"><g id="text"><path class="cls-1" d="M4.21,7.26c2.19,0,4,0,4.87-.11h.27a.41.41,0,0,1,.14,0c.09,0,.11.26.11.92s0,.67-.23.67h-.2c-.64-.06-1.37-.08-2.92-.08a51.76,51.76,0,0,0-5.61.15l-.22,0C.14,8.83.1,8.62,0,7.18,1,7.24,2.15,7.26,4.21,7.26ZM4.58,2.1A28.82,28.82,0,0,0,7.8,2h.13c.13,0,.18,0,.21.2s0,.52,0,.85,0,.51-.19.51H7.76c-.24,0-2,0-3.38,0-.92,0-1.55,0-2.21.06l-.37,0a.27.27,0,0,1-.28-.18A7.27,7.27,0,0,1,1.4,2,22.78,22.78,0,0,0,4.58,2.1Z"/><path class="cls-1" d="M14.34,5.3a7.84,7.84,0,0,0-1,.06.18.18,0,0,1-.09,0c-.11,0-.18-.06-.2-.2A5.41,5.41,0,0,1,13,4a15.07,15.07,0,0,0,2.46.12c1.09,0,1.2,0,1.42-.11L17,4a1,1,0,0,1,.68.36,1.09,1.09,0,0,1,.42.58.38.38,0,0,1-.09.21c-.15.19-.15.19-.34,1.33-.14.95-.21,1.33-.3,1.73a.15.15,0,0,0,0,.07c1.07,0,1.27,0,1.79,0h.07c.17,0,.2.12.2.75s0,.56-.18.56l-.57,0c-.4,0-1.68,0-2.82,0-1.86,0-3.25,0-3.76.1H12c-.17,0-.24,0-.29-.14a7.68,7.68,0,0,1-.14-1.23c.84.07,1.18.08,4.47.08a1.38,1.38,0,0,0,0-.2c.16-.76.3-1.77.41-2.79Z"/><path class="cls-1" d="M26.14,4.67c2.19,0,3.45,0,4.66-.11H31c.36,0,.36,0,.36,1,0,.49,0,.58-.24.58h0c-.79,0-1.23,0-4.7,0-1.27,0-1.91,0-3,0H23a2.78,2.78,0,0,0-.67,0h-.14A.22.22,0,0,1,21.92,6a7.82,7.82,0,0,1-.12-1.46C22.78,4.64,23.63,4.67,26.14,4.67Z"/><path class="cls-1" d="M41,1.58c.09,0,.14.11.14.18s-.05.17-.16.29a2,2,0,0,0-.28.59,17.87,17.87,0,0,1-1.32,2.89A12.68,12.68,0,0,1,35,9.77c-.29.17-.35.19-.43.19a.41.41,0,0,1-.27-.12,3.54,3.54,0,0,0-1.11-.72,16.12,16.12,0,0,0,2.31-1.46,10.4,10.4,0,0,0,3.52-5.44A5.23,5.23,0,0,0,39.23,1,7.8,7.8,0,0,1,41,1.58Z"/><path class="cls-1" d="M48,4.67c2.19,0,3.45,0,4.66-.11h.16c.36,0,.36,0,.36,1,0,.49,0,.58-.24.58h0c-.79,0-1.23,0-4.7,0-1.27,0-1.91,0-3,0h-.34a2.78,2.78,0,0,0-.67,0h-.14A.22.22,0,0,1,43.82,6a7.82,7.82,0,0,1-.12-1.46C44.67,4.64,45.53,4.67,48,4.67Z"/><path class="cls-1" d="M62.68,3.16c-4.18.06-4.18.06-5.57.12a6.5,6.5,0,0,0-1.37.1l-.14,0c-.15,0-.23-.08-.29-.23a5,5,0,0,1-.22-1.38c.83.09,2.09.14,3.61.14,1.71,0,3.27,0,3.94-.06a1.94,1.94,0,0,0,.62-.12.91.91,0,0,1,.26-.05c.23,0,.48.21.88.78a1.51,1.51,0,0,1,.34.68c0,.13,0,.15-.23.3a3.14,3.14,0,0,0-.67.7A17.88,17.88,0,0,1,60.71,7.3,6,6,0,0,1,62,8.81c0,.13-.16.31-.53.61a1.45,1.45,0,0,1-.55.34c-.08,0-.14,0-.22-.15A14,14,0,0,0,59,7.69a15.66,15.66,0,0,0-2.15-1.86.16.16,0,0,1-.08-.15c0-.1.2-.34.52-.65s.29-.23.37-.23a.26.26,0,0,1,.16.06,11.42,11.42,0,0,1,1.88,1.48A17.08,17.08,0,0,0,62.68,3.16Z"/><path class="cls-1" d="M69.32,1.52a.21.21,0,0,1,.15.21.45.45,0,0,1,0,.17,3.2,3.2,0,0,0-.08.93c0,2.93-.55,4.8-1.81,6.4-.28.33-.39.44-.51.44a.52.52,0,0,1-.2-.07,3.36,3.36,0,0,0-1.16-.43,6.29,6.29,0,0,0,1.51-2.1,9.23,9.23,0,0,0,.71-4,9.94,9.94,0,0,0-.12-1.75A5.94,5.94,0,0,1,69.32,1.52Zm1.29,1.17a10.7,10.7,0,0,0-.11-1.56c1.3.05,1.76.14,1.76.38a.58.58,0,0,1-.06.24,1.74,1.74,0,0,0-.08.45c0,.32,0,.32-.06,5.6a11.14,11.14,0,0,0,3.53-3,5.7,5.7,0,0,0,.18,1.44.56.56,0,0,1,0,.2c0,.19-.12.35-.67.86a10.76,10.76,0,0,1-2.6,1.83,2.34,2.34,0,0,0-.57.37.46.46,0,0,1-.27.12,2.28,2.28,0,0,1-.89-.59c-.24-.24-.35-.42-.35-.57a.55.55,0,0,1,0-.21,3.09,3.09,0,0,0,.11-1.1Z"/><path class="cls-1" d="M77.69,1.84a9.58,9.58,0,0,0,0-1.17,8,8,0,0,0,1,0h1.4a7.87,7.87,0,0,0,1,0,10.18,10.18,0,0,0,0,1.14V8.4a11,11,0,0,0,0,1.16H79.87V9h-1v1H77.62a11.69,11.69,0,0,0,.07-1.37Zm1.15,2.37h1V1.8h-1Zm0,3.65h1V5.28h-1Zm4-5.45c-.41,0-1,0-1.23,0V1.25a7.83,7.83,0,0,0,1.19.07h1V1A4.61,4.61,0,0,0,83.7.16H85A4.23,4.23,0,0,0,85,1v.31h1.26a8,8,0,0,0,1.2-.07V2.46a9.58,9.58,0,0,0-1.17,0H85V3.5h1.61a10,10,0,0,0,1.25-.06V4.66A7,7,0,0,0,86.7,4.6h-.19v1h.15a6.19,6.19,0,0,0,1.12-.06V6.77a6.88,6.88,0,0,0-1.12-.06h-.15v2.6c0,.67-.12.95-.47,1.11a3.22,3.22,0,0,1-1.28.19h-.9a2.93,2.93,0,0,0-.28-1.22,9.7,9.7,0,0,0,1.3.09c.36,0,.44-.05.44-.31V6.71H82.55a11.92,11.92,0,0,0-1.23.06V5.52a7.65,7.65,0,0,0,1.25.06h2.75v-1H82.57a11,11,0,0,0-1.25.06V3.44a9.91,9.91,0,0,0,1.26.06h1.19V2.41Zm.45,7A8.82,8.82,0,0,0,81.77,7.5l1-.65A9.39,9.39,0,0,1,84.26,8.6Z"/><path class="cls-1" d="M90.72,6.16c0-.59,0-.87,0-1.34a7.26,7.26,0,0,1-1.18,1.44A4.68,4.68,0,0,0,89,4.94a10,10,0,0,0,2.31-3.42A7.23,7.23,0,0,0,91.74,0l1.31.44A19.88,19.88,0,0,1,92,2.92V9.3a11.5,11.5,0,0,0,.07,1.39h-1.4a10.39,10.39,0,0,0,.07-1.41Zm5.4-1.8A9,9,0,0,0,97.3,7.9c.39.64.92,1.22,1.12,1.22s.39-.56.51-1.93a4.89,4.89,0,0,0,1.09.74c-.26,2-.67,2.71-1.49,2.71s-2-1.1-2.72-2.72a12.14,12.14,0,0,1-1-3.47l-1.22.1c-.51,0-.8.08-1.15.14l0-1.29h.36c.21,0,.6,0,.88,0l1-.08a21.49,21.49,0,0,1-.09-2.19c0-.21,0-.66-.07-.85l1.4,0a4.1,4.1,0,0,0-.06.87A18.84,18.84,0,0,0,96,3.18L98.46,3a9.31,9.31,0,0,0,1.26-.16l0,1.31h-.34c-.19,0-.48,0-.85,0ZM97.33.22A15.39,15.39,0,0,1,99.1,2l-1,.87a6.72,6.72,0,0,0-.84-1A9.39,9.39,0,0,0,96.43,1Z"/><path class="cls-1" d="M104.13,7.2a.28.28,0,0,1,.05.17c0,.08,0,.09-.12.36a13.44,13.44,0,0,0-.67,2.06c0,.13-.07.21-.12.23a4.18,4.18,0,0,1-.6.08h-.29c-.15,0-.19,0-.24-.18a16.37,16.37,0,0,1-.4-3.6,18,18,0,0,1,.42-3.93c.12-.65.17-1,.22-1.41a5.57,5.57,0,0,1,1.3.39c.2.08.26.14.26.26s0,.12-.14.31a14.07,14.07,0,0,0-.84,4.9c0,.27,0,.65.05,1.25.33-.76.45-1,.73-1.58A3.66,3.66,0,0,0,104.13,7.2Zm2.61.85a3.28,3.28,0,0,0,1.64.28,6,6,0,0,0,2-.28l.17,0c.08,0,.14,0,.15.16a8,8,0,0,1,.11,1.13c0,.12,0,.16-.2.21a8.54,8.54,0,0,1-2.11.25,4.33,4.33,0,0,1-2.35-.47C105.59,9,105,8.32,105,8c0-.17.25-.39.9-.79A1.66,1.66,0,0,0,106.74,8.05Zm-.84-6.12a10.46,10.46,0,0,0,1.62.11,13.74,13.74,0,0,0,2.33-.19H110c.08,0,.12,0,.14.13a9.52,9.52,0,0,1,.06,1c0,.18,0,.24-.17.26a12.26,12.26,0,0,1-2.17.16,10.25,10.25,0,0,1-2.08-.13c-.06,0-.08-.12-.08-.34a7.59,7.59,0,0,1,.06-.9c0-.05,0-.07.12-.07Z"/><path class="cls-1" d="M115.34,3.28a6,6,0,0,0,1.53,2.22,1.53,1.53,0,0,0-.13.21,4.15,4.15,0,0,0-.47,1,7.94,7.94,0,0,1-1.08-1.94c0,.66,0,1,0,1.58v3a10.65,10.65,0,0,0,.07,1.42h-1.37A11.06,11.06,0,0,0,114,9.3V6.94c0-.52,0-1.34.07-1.74A9.86,9.86,0,0,1,113.4,7a8.34,8.34,0,0,1-.68,1.17,4.64,4.64,0,0,0-.64-1.26,9.23,9.23,0,0,0,1.76-3.58h-.56a6.54,6.54,0,0,0-.84,0V2.1a4.61,4.61,0,0,0,.85,0H114V1.21a7.32,7.32,0,0,0-.06-1.2h1.36a7.61,7.61,0,0,0-.06,1.2v.94h.64a3.9,3.9,0,0,0,.74,0V3.31c-.27,0-.47,0-.72,0Zm1.56,7.4c0-.46.06-.9.06-1.48V1.66c0-.4,0-.65,0-1.23a9.46,9.46,0,0,0,1,0h3.45a6.24,6.24,0,0,0,1,0c0,.34,0,.66,0,1.18V9.19c0,.6,0,1.11.06,1.45h-1.32V10h-2.88v.68Zm1.31-7.4h2.88V1.64h-2.88Zm0,2.72h2.88V4.37h-2.88Zm0,2.84h2.88V7.09h-2.88Z"/><path class="cls-1" d="M126.29,2.32c0,5-.21,6.46-1.19,8.26a4.38,4.38,0,0,0-1-1,5.31,5.31,0,0,0,.74-2,30.89,30.89,0,0,0,.25-4.85c0-.88,0-1.21,0-1.63.36,0,.7,0,1.2,0h2.94V.66A4.49,4.49,0,0,0,129.1,0h1.4a2.42,2.42,0,0,0-.06.67v.49h3a9.24,9.24,0,0,0,1.35-.07V2.38a10.23,10.23,0,0,0-1.35-.06h-3.81a15.11,15.11,0,0,1,2.88,1.9l-.89,1a10.27,10.27,0,0,0-2.92-2.1l.88-.79Zm-.09,6.76a7.45,7.45,0,0,0,.62-1.89A15.82,15.82,0,0,0,127.08,5l1.19.3a15,15,0,0,1-.9,4.55Zm3.94-4.8a6.47,6.47,0,0,0-.06,1.1V9c0,.3.1.35.78.35.91,0,.92,0,.92-2.12a5.22,5.22,0,0,0,1.23.41c-.09,1.56-.19,2.14-.46,2.46s-.72.46-1.7.46c-1.59,0-2-.18-2-.87V5.36a5.64,5.64,0,0,0-.08-1.08Zm3.58,5.33a13,13,0,0,0-1.34-4.16l1.11-.55A19.24,19.24,0,0,1,135,9Z"/><path class="cls-1" d="M139.09.61c.3.09.39.15.39.28a.84.84,0,0,1-.08.29,7,7,0,0,0-.27,1.8C139,4.91,139,6.41,139,7.6a3,3,0,0,0,.1.86c.13.4.55.6,1.22.6a4.39,4.39,0,0,0,3-1.32,7.12,7.12,0,0,0,1.14-1.39,4.16,4.16,0,0,0,.43,1.17.67.67,0,0,1,.06.28c0,.22-.23.5-.83,1a5.73,5.73,0,0,1-3.88,1.62,2.71,2.71,0,0,1-2-.66,3,3,0,0,1-.64-2.29c0-.93,0-1.65.11-4.45,0-.42,0-.67,0-.78a11.52,11.52,0,0,0-.09-1.84A7.78,7.78,0,0,1,139.09.61Z"/><path class="cls-1" d="M146.84,2.62c0-.35,0-.82,0-1.08a5.38,5.38,0,0,1,1.28.26c.29.11.39.18.39.31a.35.35,0,0,1,0,.19,5.29,5.29,0,0,0-.21,2,10.58,10.58,0,0,0,.34,3.23c.18.56.46.89.78.89.49,0,.9-.58,1.34-1.91a3.7,3.7,0,0,0,.65,1.22.47.47,0,0,1,.1.25,2.23,2.23,0,0,1-.42,1A2.11,2.11,0,0,1,149.3,10c-.92,0-1.62-.75-2.05-2.22a14.31,14.31,0,0,1-.41-3.85Zm7.14.19a.31.31,0,0,1,.23.12,7.74,7.74,0,0,1,1.62,2.47,7.25,7.25,0,0,1,.52,1.74c0,.12-.06.18-.31.31a3.63,3.63,0,0,1-1,.34c-.11,0-.15-.06-.19-.28a8.53,8.53,0,0,0-.74-2.37,6.5,6.5,0,0,0-1.18-1.74A2.84,2.84,0,0,1,154,2.81Z"/><path class="cls-1" d="M1,23.38V17.75H4.79v1.31H2.39v4.32Z"/><path class="cls-1" d="M9,21.28a6,6,0,0,0,1.53,2.22,1.53,1.53,0,0,0-.13.21,3.8,3.8,0,0,0-.47,1,7.63,7.63,0,0,1-1.08-1.94c0,.66.05,1,.05,1.58v3A10.65,10.65,0,0,0,9,28.72H7.62a11.06,11.06,0,0,0,.07-1.42V24.94c0-.52,0-1.34.07-1.74A9.86,9.86,0,0,1,7.08,25a8.34,8.34,0,0,1-.68,1.17,4.64,4.64,0,0,0-.64-1.26,9.23,9.23,0,0,0,1.76-3.58H7a6.54,6.54,0,0,0-.84,0V20.1a4.55,4.55,0,0,0,.85,0h.71v-.94A7.32,7.32,0,0,0,7.62,18H9a7.61,7.61,0,0,0-.06,1.2v.94h.64a3.73,3.73,0,0,0,.73,0v1.21c-.26,0-.46,0-.71,0Zm1.56,7.4c0-.46.06-.9.06-1.48V19.66c0-.4,0-.65-.05-1.23a9.78,9.78,0,0,0,1,0h3.45a6.24,6.24,0,0,0,1,0c0,.34,0,.66,0,1.18v7.59a13.61,13.61,0,0,0,.06,1.45H14.77V28H11.89v.68Zm1.31-7.4h2.88V19.64H11.89Zm0,2.72h2.88V22.37H11.89Zm0,2.84h2.88V25.09H11.89Z"/><path class="cls-1" d="M19.32,24.64a14.67,14.67,0,0,1-.47,3.51l-1-.5a10.27,10.27,0,0,0,.45-3.16Zm-1.42-1.7a2.18,2.18,0,0,0,.47,0h.42l.6-.84a14.51,14.51,0,0,0-1.5-1.74l.57-1,.43.47A7.7,7.7,0,0,0,19.73,18l1.11.43a2.87,2.87,0,0,0-.24.43,18.39,18.39,0,0,1-1,1.79c.18.23.24.3.45.54a10.3,10.3,0,0,0,1-1.91l1,.55a8.3,8.3,0,0,0-.55.88c-.37.6-1.06,1.59-1.54,2.22.65,0,.89-.05,1.18-.09a7.78,7.78,0,0,0-.32-.88l.77-.28a10.61,10.61,0,0,1,.65,1.92V23.3a7.56,7.56,0,0,0,0-.82c.2,0,.44,0,1,0h4a7.74,7.74,0,0,0,1.11-.05,6.3,6.3,0,0,0,0,.82V24a4.58,4.58,0,0,0,.05.82h-1.2V23.52H23.36v1.26H22.25a6.86,6.86,0,0,0,0-.74l-.74.25c0-.23-.06-.31-.1-.48l-.68.07v3.65a6.45,6.45,0,0,0,.07,1.21H19.58a6.77,6.77,0,0,0,.08-1.21V24c-.57,0-.87.06-.91.07a4.29,4.29,0,0,0-.73.07Zm4,1.49A21.12,21.12,0,0,1,22.27,27l-.94.28A14.34,14.34,0,0,0,21,24.66Zm3-.37a7.21,7.21,0,0,0-.06.83,4.14,4.14,0,0,1-.78,2.41,4.35,4.35,0,0,1-1.86,1.36,2.53,2.53,0,0,0-.79-1.06,3.47,3.47,0,0,0,1.69-1,3.14,3.14,0,0,0,.58-2,4.41,4.41,0,0,0,0-.54Zm-1.46-4a8.09,8.09,0,0,0-1.26.06V19a8.54,8.54,0,0,0,1.28.07h1.08v-.11a4.28,4.28,0,0,0-.06-.86H25.8a3.59,3.59,0,0,0-.07.87V19h1.4A8.47,8.47,0,0,0,28.4,19v1.16a7.74,7.74,0,0,0-1.23-.06H25.73v.82H26.9a7.56,7.56,0,0,0,1.18-.06v1.13a7.06,7.06,0,0,0-1.16-.06H23.55a7.27,7.27,0,0,0-1.17.06V20.81a7.62,7.62,0,0,0,1.19.06h1v-.82Zm3.19,4a3.87,3.87,0,0,0-.06.82v2.25c0,.18.07.23.35.23a.68.68,0,0,0,.43-.11,3.4,3.4,0,0,0,.19-1.5,3.4,3.4,0,0,0,1.11.41,6.41,6.41,0,0,1-.29,1.73c-.22.44-.59.59-1.53.59-1.13,0-1.41-.2-1.41-.95V24.88a3.76,3.76,0,0,0-.06-.82Z"/><path class="cls-1" d="M32.17,19.19a6.22,6.22,0,0,0-.06-1.08h1.33a8.11,8.11,0,0,0-.06,1.08v.65h.82a8.33,8.33,0,0,0,1.1-.06V21c-.28,0-.43,0-.88,0a12.37,12.37,0,0,1-.8,3.5c.62.76.88,1.12,1.63,2.19l-.91,1a14.58,14.58,0,0,0-1.32-2,11.05,11.05,0,0,1-2.3,2.84,3.84,3.84,0,0,0-.86-1.06,8.1,8.1,0,0,0,2.36-2.84,24.06,24.06,0,0,0-2-2.11l.84-.86.9.93c.11.1.29.32.74.83A10.08,10.08,0,0,0,33.18,21H31.05A8.27,8.27,0,0,0,30,21V19.76a7.53,7.53,0,0,0,1.14.08h1.05ZM36,22.31A13.49,13.49,0,0,1,37.63,25l-1,.69A10.62,10.62,0,0,0,35,22.87Zm.65-.72a6.57,6.57,0,0,0-1.08.06V20.38a7.57,7.57,0,0,0,1.09.06h1.45v-.92A8.87,8.87,0,0,0,38,18.16h1.38a9.68,9.68,0,0,0-.07,1.36v.92h.14a5.91,5.91,0,0,0,1.07-.08v1.29a1.07,1.07,0,0,1-.27,0,7.38,7.38,0,0,0-.8,0h-.14v5.57c0,.6,0,.79-.21,1s-.63.4-1.39.4c-.47,0-.91,0-1.35,0A3.9,3.9,0,0,0,36,27.23a12.92,12.92,0,0,0,1.34.12c.66,0,.73,0,.73-.27V21.59Z"/><path class="cls-1" d="M43.87,20a6.77,6.77,0,0,1-1.17,1.23,5.14,5.14,0,0,0-.82-.87A4.81,4.81,0,0,0,43.67,18l1.22.22-.18.33a4,4,0,0,1-.18.36h1.52a8.84,8.84,0,0,0,1.13-.06v.81A4.13,4.13,0,0,0,48.06,18l1.22.22-.32.69h2.27a9.23,9.23,0,0,0,1.26-.06v1.19c-.37,0-.67-.05-1.2-.05h-.95a9.77,9.77,0,0,1,.48.86l-1.16.31A6.84,6.84,0,0,0,49.1,20h-.75a5.86,5.86,0,0,1-.68.8h.17c0,.19,0,.32-.05.62h3.4a7.72,7.72,0,0,0,1.23-.07v1.19a8.36,8.36,0,0,0-1.23-.06h-3.4v.58H50.4l1.08,0a5.91,5.91,0,0,0,0,1v1.08a.76.76,0,0,1-.34.74,1.87,1.87,0,0,1-.85.12l-.8,0a2.82,2.82,0,0,0-.24-1,5,5,0,0,0,.73.06c.25,0,.32-.05.32-.2v-.68H47.79v.41a7.34,7.34,0,0,0,2.27,1.84,12.71,12.71,0,0,0,2.53,1,4.25,4.25,0,0,0-.82,1.14,12.59,12.59,0,0,1-2.26-1.06,9.33,9.33,0,0,1-1-.78,3.83,3.83,0,0,1-.73-.78c0,.32,0,.53,0,.84v.88a5.67,5.67,0,0,0,.1,1.2H46.46a5.79,5.79,0,0,0,.1-1.22v-.84c0-.15,0-.46,0-.8a6,6,0,0,1-1.79,1.6,14.46,14.46,0,0,1-1.93,1A4.17,4.17,0,0,0,42,27.31a14.35,14.35,0,0,0,2.43-1,9.52,9.52,0,0,0,1.32-.94,4.45,4.45,0,0,0,.84-.89v-.41H44.3v1a6.78,6.78,0,0,0,.05.94h-1.3A6.16,6.16,0,0,0,43.12,25V24a8.7,8.7,0,0,0,0-.93c.27,0,.63,0,1,0h2.47v-.58H43.4a10.8,10.8,0,0,0-1.22.06V21.35a8.45,8.45,0,0,0,1.22.07h3.15a5.91,5.91,0,0,0,0-.62h.77a4.64,4.64,0,0,0-.66-.58l.25-.22H45.67c.19.31.27.45.47.84L45,21.16A6.17,6.17,0,0,0,44.48,20Z"/><path class="cls-1" d="M57.53,23.36V29H53.7V27.67h2.41V23.36Z"/><path class="cls-1" d="M64.62,25c-1.19.7-1.52,1.05-1.52,1.57a.5.5,0,0,0,.26.47,3.68,3.68,0,0,0,1.61.24,19,19,0,0,0,2.16-.14,8.72,8.72,0,0,0,.87-.19h.06a.19.19,0,0,1,.18.14,3.61,3.61,0,0,1,.12,1c0,.18-.06.26-.21.29a22.37,22.37,0,0,1-2.5.13,7.56,7.56,0,0,1-2.82-.33,1.6,1.6,0,0,1-1-1.59,2.29,2.29,0,0,1,1-1.82,10.56,10.56,0,0,1,1.74-1.12c-.1-.39-.28-.56-.65-.56a2.89,2.89,0,0,0-1.57.56,8,8,0,0,0-1,.83c-.36.37-.39.4-.49.4s-.37-.28-.62-.7a1.24,1.24,0,0,1-.2-.44c0-.11,0-.13.32-.31a7.35,7.35,0,0,0,2.29-2.37c-.86.06-1.3.07-1.77.07-.18,0-.21,0-.27-.24a8.79,8.79,0,0,1-.11-1.11,7.15,7.15,0,0,0,1.22.07c.47,0,1,0,1.53,0a4.86,4.86,0,0,0,.35-1.68c1.06.18,1.56.36,1.56.57,0,.05,0,.07,0,.14a7.67,7.67,0,0,0-.34.72l0,.09c.68-.1,1.28-.22,1.7-.32a1.55,1.55,0,0,1,.38-.08.15.15,0,0,1,.17.11,6.78,6.78,0,0,1,.12.93c0,.14,0,.2-.2.23A24.78,24.78,0,0,1,64,21a6.61,6.61,0,0,1-1,1.45,3.13,3.13,0,0,1,1.42-.34c.54,0,.9.31,1.14,1l1.9-1a3.7,3.7,0,0,0,1-.81,4.28,4.28,0,0,1,1,1.47c0,.07,0,.12-.2.15a25.74,25.74,0,0,0-3.5,1.51c0,.22,0,.77,0,1.16v.57c0,.15,0,.22-.08.25a1.79,1.79,0,0,1-.75.1c-.4,0-.48,0-.48-.23v-.05c0-.34,0-.8,0-1.09Z"/><path class="cls-1" d="M74.87,21.61c3.36-.83,3.67-.92,3.95-1.16a.4.4,0,0,1,.28-.12c.18,0,.47.21.77.57a1.82,1.82,0,0,1,.49.77c0,.17,0,.21-.31.41-.13.11-.17.14-.74,1a11.63,11.63,0,0,1-1.62,1.73c-.15.12-.22.15-.3.15a.29.29,0,0,1-.21-.1,2.9,2.9,0,0,0-1-.68A7.21,7.21,0,0,0,78.4,21.9l-.48.14-3,.84v2.18c0,.63.14.94.48,1.09a4.71,4.71,0,0,0,1.57.19,20.55,20.55,0,0,0,2.15-.14l.35,0c.25,0,.31.19.34,1.1v.1a.28.28,0,0,1-.14.28,13.81,13.81,0,0,1-2.21.09,6.89,6.89,0,0,1-2.88-.37,2,2,0,0,1-1.08-1.94V23.28a9.9,9.9,0,0,0-2,.67.42.42,0,0,1-.18.06c-.21,0-.47-.55-.72-1.51A20.41,20.41,0,0,0,73.45,22V20.82a12.14,12.14,0,0,0-.11-2.08,7.69,7.69,0,0,1,1.55.16c.11,0,.18.1.18.17s0,.07-.09.27a3.66,3.66,0,0,0-.11,1.19Z"/><path class="cls-1" d="M83.36,24.22a9.86,9.86,0,0,0-.73-1.43c-.26-.39-.27-.41-.27-.48s.13-.22.45-.4.41-.23.48-.23.13.05.33.3a7.84,7.84,0,0,1,1,1.78c0,.08-.08.17-.32.31a3.3,3.3,0,0,1-.73.35C83.47,24.42,83.44,24.37,83.36,24.22Zm6.54-2a.21.21,0,0,1-.07.15,3.21,3.21,0,0,0-.35.61,11.09,11.09,0,0,1-2.38,3.78A7.12,7.12,0,0,1,85,28.26a.23.23,0,0,1-.2-.1,4.77,4.77,0,0,0-.94-.69A7.92,7.92,0,0,0,87.54,24a7,7,0,0,0,.83-2.52C89.36,21.73,89.9,22,89.9,22.18Zm-4.33,1.48a9.07,9.07,0,0,0-.86-1.81.15.15,0,0,1,0-.12c0-.08.09-.14.46-.35s.47-.25.53-.25.15.06.3.3a7.5,7.5,0,0,1,.85,1.77c0,.07-.06.13-.25.25a3.55,3.55,0,0,1-.83.38C85.66,23.83,85.62,23.78,85.57,23.66Z"/><path class="cls-1" d="M95,24.59c0,.73,0,2.69.06,3.25v.06a.26.26,0,0,1-.09.23,2.76,2.76,0,0,1-1,.13c-.39,0-.46,0-.46-.28v0c0-.32.06-3.77.06-5.2a30.12,30.12,0,0,0-.13-4.24,12.32,12.32,0,0,1,1.59.17c.12,0,.18.1.18.19a1.16,1.16,0,0,1,0,.27,1.79,1.79,0,0,0-.09.5s0,.75-.06,2.16a13.78,13.78,0,0,1,1.35.42,18.29,18.29,0,0,1,3,1.3c.09.07.14.13.14.2A4.16,4.16,0,0,1,99,24.77c-.09.2-.15.26-.22.26a.37.37,0,0,1-.2-.08A13.48,13.48,0,0,0,95,23.23Z"/><path class="cls-1" d="M104,25.2a.37.37,0,0,1,0,.17c0,.08,0,.09-.12.36a13.44,13.44,0,0,0-.68,2.06c0,.13-.07.21-.12.23a4,4,0,0,1-.6.08h-.28c-.16,0-.2,0-.24-.18a15.73,15.73,0,0,1-.41-3.6,18,18,0,0,1,.42-3.93c.12-.65.18-1,.23-1.41a5.63,5.63,0,0,1,1.29.39c.21.08.27.14.27.26s0,.12-.15.31a14.31,14.31,0,0,0-.84,4.9c0,.27,0,.65,0,1.25.34-.76.46-1,.73-1.58A3.28,3.28,0,0,0,104,25.2Zm2.6.85a3.32,3.32,0,0,0,1.65.28,6,6,0,0,0,2-.28l.17,0c.09,0,.15,0,.16.16a9.81,9.81,0,0,1,.11,1.13c0,.12,0,.16-.21.21a8.54,8.54,0,0,1-2.11.25A4.35,4.35,0,0,1,106,27.3c-.53-.32-1.08-1-1.08-1.31,0-.17.25-.39.9-.79A1.66,1.66,0,0,0,106.64,26.05Zm-.84-6.12a10.57,10.57,0,0,0,1.62.11,13.65,13.65,0,0,0,2.33-.19h.11c.08,0,.12,0,.14.13a7.28,7.28,0,0,1,.06,1c0,.18,0,.24-.17.26a12.18,12.18,0,0,1-2.17.16,10.12,10.12,0,0,1-2.07-.13c-.06,0-.09-.12-.09-.34a7.59,7.59,0,0,1,.06-.9s0-.07.12-.07Z"/><path class="cls-1" d="M113.78,22.31a11.78,11.78,0,0,0-1.48.07V21.12a10,10,0,0,0,1.47.07h2.53v-.93h-1.57c-.66,0-.93,0-1.31,0V19.06a10.14,10.14,0,0,0,1.3.07h1.58V19a4.48,4.48,0,0,0-.07-1h1.38a4.07,4.07,0,0,0-.07,1v.12h.89a10.44,10.44,0,0,0,1.31-.07v.87A7.31,7.31,0,0,0,121,18.29l1.13.77a1,1,0,0,0-.16.18,18,18,0,0,1-2,2h1.24a9.06,9.06,0,0,0,1.39-.07v1.26a10.78,10.78,0,0,0-1.41-.07h-2.66a15.25,15.25,0,0,1-1.72,1.08v.06a26.5,26.5,0,0,0,3.22-.4,4.74,4.74,0,0,0,1.1-.31l.82,1.07-.27.05-.9.16a41.47,41.47,0,0,1-4.29.48s-.07.2-.17.46h3.8a7.81,7.81,0,0,0,1.2-.05.64.64,0,0,1,0,.16c0,.06,0,.35-.07.54a6.61,6.61,0,0,1-.49,2.34c-.28.53-.74.69-1.9.69-.34,0-1,0-1.57-.08a3.32,3.32,0,0,0-.3-1.25,16,16,0,0,0,1.92.17c.43,0,.6-.06.73-.25a3.15,3.15,0,0,0,.29-1.17h-4c-.12.27-.18.4-.38.78l-1.3-.21a15.82,15.82,0,0,0,1.09-2.45c-.77.37-1,.47-2.59,1.1a4,4,0,0,0-.7-1.08,22.81,22.81,0,0,0,4.58-1.89Zm4.5-1.12c.44-.33.78-.62,1.1-.91-.29,0-.41,0-.83,0h-1v.93Z"/><path class="cls-1" d="M128.36,24.35a2.13,2.13,0,0,1,.69-.12c.83,0,1.21.49,1.37,1.73.08.7.12.84.28,1a1.13,1.13,0,0,0,.8.19,6,6,0,0,0,1.82-.31h.08c.08,0,.11,0,.16.11a4.5,4.5,0,0,1,.18,1.17c0,.11,0,.16-.13.18a12.92,12.92,0,0,1-2.16.18c-1,0-1.6-.19-1.92-.68a3,3,0,0,1-.37-1.43c-.09-.92-.23-1.15-.71-1.15s-.77.21-1.48.92a13.38,13.38,0,0,0-1.67,2c-.07.12-.15.19-.22.19s-.17-.07-.54-.47-.5-.55-.5-.62,0-.11.24-.3.29-.24,4.76-5c-1.94.35-3.16.6-3.45.71a.89.89,0,0,1-.24.06c-.11,0-.13,0-.2-.28a5.84,5.84,0,0,1-.23-1.19h.42a33.17,33.17,0,0,0,3.34-.33,4,4,0,0,0,1.42-.3.49.49,0,0,1,.19-.06c.31,0,1,.78,1,1.13,0,.14-.05.2-.2.28a2.94,2.94,0,0,0-.65.42l-.65.59Zm-1.42-6c0-.15.08-.21.14-.19l.12,0a9.19,9.19,0,0,0,1.46.37,10.41,10.41,0,0,0,2.14.22c.14,0,.16.05.16.33a2.85,2.85,0,0,1-.11.9.16.16,0,0,1-.15.11l-1.54-.17a12.33,12.33,0,0,1-2.3-.55c-.11-.05-.14-.08-.14-.17A4.16,4.16,0,0,1,126.94,18.35Z"/><path class="cls-1" d="M135.55,21.94h-.2c-.11,0-.17-.05-.21-.21a6.18,6.18,0,0,1-.14-1.12h.38a17.19,17.19,0,0,0,2-.13,13.26,13.26,0,0,0,.18-1.9v-.28c1.4.18,1.66.27,1.65.48a.71.71,0,0,1-.07.21,3.43,3.43,0,0,0-.35,1.26,10.67,10.67,0,0,0,1.31-.33.16.16,0,0,1,.09,0c.11,0,.13,0,.23.47a5.18,5.18,0,0,1,.1.67c0,.08,0,.13-.15.16a13.89,13.89,0,0,1-1.86.36A34.6,34.6,0,0,1,136.5,28c-.06.16-.12.22-.19.22a3,3,0,0,1-1-.4c-.2-.11-.26-.17-.26-.23a.87.87,0,0,1,.1-.25,22.48,22.48,0,0,0,2-5.54C136.66,21.84,136.28,21.88,135.55,21.94Zm5.13,4.56a2.9,2.9,0,0,0,1.56.33,6.88,6.88,0,0,0,1.83-.19,1.2,1.2,0,0,1,.17,0,.17.17,0,0,1,.19.15,4,4,0,0,1,.15,1.11c0,.16-.05.22-.21.26a10.1,10.1,0,0,1-1.77.13c-1.5,0-2.34-.24-2.9-.82a2,2,0,0,1-.46-.79,1.32,1.32,0,0,1-.12-.44c0-.21.36-.42,1-.63A1.36,1.36,0,0,0,140.68,26.5Zm3.37-3.5a11.53,11.53,0,0,0-1.17-.06,11,11,0,0,0-2.31.22h-.09a.12.12,0,0,1-.13-.09,6.56,6.56,0,0,1-.08-.93c0-.15,0-.23.12-.26a1.48,1.48,0,0,1,.37-.09,13,13,0,0,1,2.34-.2,3.56,3.56,0,0,1,1.14.08c.06.05.07.15.07.54a3.54,3.54,0,0,1-.05.74.13.13,0,0,1-.12.06A.16.16,0,0,1,144.05,23Z"/><path class="cls-2" d="M147.14,23.38V17.75H151v1.31h-2.4v4.32Z"/><path class="cls-2" d="M153.2,22.91a7.48,7.48,0,0,0-1,.05V21.72a5.76,5.76,0,0,0,1.07.06h.27a4.6,4.6,0,0,0-.49-1.37l1-.25h-.54a7.85,7.85,0,0,0-1.09.05V19a6.13,6.13,0,0,0,1.1.06h.89v-.17a5.25,5.25,0,0,0-.05-.85h1.39a3.9,3.9,0,0,0-.06.84V19h.78A5.89,5.89,0,0,0,157.5,19v1.24a7.87,7.87,0,0,0-1.08-.05H156l1,.28a13.89,13.89,0,0,1-.62,1.34h.24a5.83,5.83,0,0,0,1.06-.06V23a7.9,7.9,0,0,0-1.06-.05h-.94v.81h.89a6,6,0,0,0,1-.06v1.22a7.48,7.48,0,0,0-1-.05h-.42a4.86,4.86,0,0,0,1.18,1,8,8,0,0,0-.55,1.09,5.26,5.26,0,0,1-1.12-1.24c0,.54,0,.83,0,.9v1.14a7.89,7.89,0,0,0,.06,1h-1.32a5.84,5.84,0,0,0,.06-.91V26.63c0-.23,0-.47,0-.78A5.61,5.61,0,0,1,152.52,28a3.47,3.47,0,0,0-.58-1.17,5.81,5.81,0,0,0,2-2h-.74a6,6,0,0,0-1.06.06V23.66a6,6,0,0,0,1.08.06h1.16v-.81Zm.89-2.75a6,6,0,0,1,.51,1.34l-1,.28h1.59a6.9,6.9,0,0,0,.66-1.62Zm7.68,1.4a4.85,4.85,0,0,0,1.06-.07v1.29a5.87,5.87,0,0,0-.93-.05h-.28v4.63a7.66,7.66,0,0,0,.07,1.36h-1.36a7.93,7.93,0,0,0,.07-1.36V22.73h-1.22a14.9,14.9,0,0,1-.42,3.72,7,7,0,0,1-1,2.3A5.15,5.15,0,0,0,156.6,28c1.09-1.35,1.38-2.85,1.38-7.2a12.71,12.71,0,0,0-.07-1.8,9.1,9.1,0,0,0,3.86-1l.95,1.12c-.12,0-.14.05-.38.13a15.45,15.45,0,0,1-3.15.78v1.52Z"/><path class="cls-2" d="M167,18.61c.3.09.38.15.38.28a.75.75,0,0,1-.07.29A6.85,6.85,0,0,0,167,21c-.09,1.93-.14,3.43-.14,4.62a3.07,3.07,0,0,0,.09.86c.14.4.56.6,1.23.6a4.35,4.35,0,0,0,3-1.32,6.78,6.78,0,0,0,1.14-1.39,4.24,4.24,0,0,0,.44,1.17.88.88,0,0,1,.06.28c0,.22-.23.5-.83,1a5.77,5.77,0,0,1-3.89,1.62,2.74,2.74,0,0,1-2-.66,3,3,0,0,1-.63-2.29c0-.93,0-1.65.11-4.45,0-.42,0-.67,0-.78a11.85,11.85,0,0,0-.08-1.84A7.78,7.78,0,0,1,167,18.61Z"/><path class="cls-2" d="M174.71,20.62c0-.35,0-.82,0-1.08a5.59,5.59,0,0,1,1.29.26c.28.11.38.18.38.31a.35.35,0,0,1-.05.19,5.6,5.6,0,0,0-.2,2,10.65,10.65,0,0,0,.33,3.23c.18.56.46.89.78.89.5,0,.9-.58,1.35-1.91a3.53,3.53,0,0,0,.65,1.22.45.45,0,0,1,.09.25,2.23,2.23,0,0,1-.42.95,2.11,2.11,0,0,1-1.7,1.06c-.93,0-1.62-.75-2-2.22a13.91,13.91,0,0,1-.41-3.85Zm7.14.19a.34.34,0,0,1,.23.12,7.91,7.91,0,0,1,1.62,2.47,7.6,7.6,0,0,1,.51,1.74c0,.12-.06.18-.31.31a3.7,3.7,0,0,1-1,.34c-.11,0-.16-.06-.2-.28a8.21,8.21,0,0,0-.74-2.37,6.26,6.26,0,0,0-1.18-1.74A2.85,2.85,0,0,1,181.85,20.81Z"/><path class="cls-2" d="M190.08,23.86h-2.72c-.42,0-.75,0-1.06,0v-1a9.75,9.75,0,0,0,1.08,0h2.7V22.5h-2.44a8.93,8.93,0,0,0-1,0,6.35,6.35,0,0,0,0-.78V21a6.91,6.91,0,0,0,0-.8c.33,0,.55,0,1,0h2.42V19.8h-3.16a10.43,10.43,0,0,0-1.34.06V18.72a10,10,0,0,0,1.42.07h3.08A3.88,3.88,0,0,0,190,18h1.38a3.67,3.67,0,0,0-.07.79h3.24a10,10,0,0,0,1.41-.07v1.14a12.51,12.51,0,0,0-1.34-.06h-3.31v.43h2.61c.45,0,.67,0,1,0,0,.26,0,.44,0,.8v.76c0,.36,0,.52,0,.78a7.89,7.89,0,0,0-.91,0h-2.66v.44h2.6c.67,0,.86,0,1.22,0a8.91,8.91,0,0,0,0,1v.41a5.68,5.68,0,0,0,1-.06v1.09a7.26,7.26,0,0,0-1-.06V26a8,8,0,0,0,.06,1.24h-1.29V26.8h-2.56v.64c0,1-.29,1.25-1.68,1.25l-1.12,0a3.16,3.16,0,0,0-.35-1.16,10.89,10.89,0,0,0,1.44.11c.39,0,.47-.05.47-.27V26.8h-2.71c-.51,0-.81,0-1.14,0V25.79a9,9,0,0,0,1.1.05h2.75v-.51h-3.3a7.78,7.78,0,0,0-1.27.06V24.3a7.35,7.35,0,0,0,1.25.06h3.32Zm-2.15-2.73v.47h2.15v-.47Zm3.39.47h2.31v-.47h-2.31Zm2.56,2.76v-.5h-2.56v.5Zm-2.56,1.48h2.56v-.51h-2.56Z"/><path class="cls-2" d="M199.22,22.68a9.68,9.68,0,0,0-1.17.05V21.64a11.69,11.69,0,0,0,1.17,0h1.41a8.4,8.4,0,0,0-.43-.86H199a12.86,12.86,0,0,0-1.37.06V19.73a9.08,9.08,0,0,0,1.31.07h.37a4.74,4.74,0,0,0-.78-1.07l1.15-.43a8,8,0,0,1,.89,1.5h.65V19a5.53,5.53,0,0,0-.06-.9h1.25a6.13,6.13,0,0,0,0,.85v.85h.85V19a6.71,6.71,0,0,0,0-.85h1.26a5.36,5.36,0,0,0-.06.9v.8h.72a6,6,0,0,0,.82-1.52l1.18.43a10.89,10.89,0,0,1-.71,1.09h.33a8.66,8.66,0,0,0,1.3-.07v1.15a12.65,12.65,0,0,0-1.36-.06h-1.17a7,7,0,0,1-.42.86h1.33c.57,0,.86,0,1.19,0v1.09a9.73,9.73,0,0,0-1.19-.05h-3v.55h2.43a9.38,9.38,0,0,0,1.17-.05v1a11.69,11.69,0,0,0-1.17-.05h-2.43v.58h3.23a9.26,9.26,0,0,0,1.38-.07V25.8a11.26,11.26,0,0,0-1.37-.07h-2.31a6.35,6.35,0,0,0,1.56.92,10.26,10.26,0,0,0,2.4.66,4.05,4.05,0,0,0-.66,1.18,8.75,8.75,0,0,1-4.26-2.29c0,.4,0,.55,0,.81v.58a7.41,7.41,0,0,0,.07,1.16h-1.35a9.55,9.55,0,0,0,.07-1.17V27c0-.26,0-.36,0-.79a5.73,5.73,0,0,1-1.65,1.27,11.44,11.44,0,0,1-2.36,1,4.3,4.3,0,0,0-.69-1.12,8.28,8.28,0,0,0,3.77-1.63h-2.14a11.56,11.56,0,0,0-1.4.07V24.65a9.87,9.87,0,0,0,1.39.07h3.05v-.58h-2.28a11.76,11.76,0,0,0-1.18.05v-1a9.36,9.36,0,0,0,1.18.05h2.28v-.55Zm4.53-1a5.38,5.38,0,0,0,.38-.86H201.5a8.2,8.2,0,0,1,.35.86Z"/><path class="cls-2" d="M212.94,21.55a6.27,6.27,0,0,0-.24,1,11.54,11.54,0,0,1-1.19,3.54A9.64,9.64,0,0,1,210.16,28a5,5,0,0,0-.87-1A6.39,6.39,0,0,0,210.72,25a9.84,9.84,0,0,0,.88-2.82h-1.1a6.63,6.63,0,0,0-.88.05V21a5.83,5.83,0,0,0,1,0h1.09a3.71,3.71,0,0,0,.75-.06Zm3.88,1.35a3.58,3.58,0,0,0-.7,0h-.72v.66h.86a3.81,3.81,0,0,0,.76-.05v1.07a3.81,3.81,0,0,0-.76-.05h-.86v.72h1.31a4,4,0,0,0,.79-.05v1.11a6,6,0,0,0-.94-.05H215.4v1.2c0,.87-.36,1.13-1.63,1.13-.34,0-.47,0-1.2,0a3.79,3.79,0,0,0-.31-1.21,12.57,12.57,0,0,0,1.45.12c.43,0,.51-.05.51-.31v-.9H213.1a6,6,0,0,0-.94.05V25.15a4.61,4.61,0,0,0,.8.05h1.26v-.72h-.76a4.3,4.3,0,0,0-.78.05V23.46a4.3,4.3,0,0,0,.78.05h.76v-.66h-.6a4.07,4.07,0,0,0-.72,0V21.83a5.31,5.31,0,0,0,.72.05h.6v-.44c0-.36,0-.55,0-.82h.35a10.56,10.56,0,0,0,1.62-1.05h-3.6a9.45,9.45,0,0,0-1.47.07V18.42a12.14,12.14,0,0,0,1.47.07h4a6.77,6.77,0,0,0,1.17-.06l.68.79-.5.39a18.34,18.34,0,0,1-2.48,1.65v.62h.72a5.68,5.68,0,0,0,.66,0c-.06-.29-.12-.59-.18-.94l1.14-.32a10.83,10.83,0,0,0,.28,1.75,7.38,7.38,0,0,0,1.3-1.5l.89.91-.17.17a21.73,21.73,0,0,1-1.65,1.68,7,7,0,0,0,2.07,3.19,6,6,0,0,0-1,1.14A9,9,0,0,1,217.63,25a13.67,13.67,0,0,1-.66-2.17s0-.18-.08-.38,0-.22-.07-.39Z"/><path class="cls-2" d="M222.89,24.6a14.91,14.91,0,0,1-.47,3.49l-1-.44a12.1,12.1,0,0,0,.47-3.21Zm-1.41-1.73a4.05,4.05,0,0,0,.84,0c.21-.27.34-.43.54-.71a10.19,10.19,0,0,0-1.36-1.76l.58-1,.36.42a7.28,7.28,0,0,0,.86-1.92l1.11.48a3.45,3.45,0,0,0-.24.42,18.2,18.2,0,0,1-1,1.85c.22.27.27.35.42.55a11.41,11.41,0,0,0,1.09-1.92l1.05.53c-.13.18-.13.18-.68,1-.4.61-1.12,1.56-1.5,2,.54,0,.64,0,1.19-.08-.1-.25-.17-.41-.35-.81l.83-.36a11.12,11.12,0,0,1,.74,1.94V19.39a6.16,6.16,0,0,0-.06-1h1.27a6.86,6.86,0,0,0-.06,1v5.68a6.26,6.26,0,0,0,1.65-2.24h-.6c-.36,0-.55,0-.79,0V21.71c.26,0,.44,0,.79,0H229V19.1a6.6,6.6,0,0,0-.05-.93h1.2a8.52,8.52,0,0,0-.05.95v2.62h1a5.19,5.19,0,0,0,1-.06v1.19a8.18,8.18,0,0,0-1-.05h-.7A6.73,6.73,0,0,0,232.27,25a4.55,4.55,0,0,0-.57,1.17A8.54,8.54,0,0,1,230,24c0,.17,0,.17,0,.53,0,.08,0,.3,0,.43v.87a6,6,0,0,0,.05.85h-1.19a4.69,4.69,0,0,0,.05-.84V25c0-.29,0-.43,0-.95a6.15,6.15,0,0,1-1.42,2.13,2.58,2.58,0,0,0-.53-.78V27H231a8.19,8.19,0,0,0,1.11-.06v1.25a9.72,9.72,0,0,0-1.29-.07h-3.77v.54h-1.22a9.11,9.11,0,0,0,.07-1.27V24l-.8.35a4.25,4.25,0,0,0-.12-.56l-.71.08v3.64a6.77,6.77,0,0,0,.07,1.21h-1.22a7.23,7.23,0,0,0,.07-1.21V24l-1,0-.58.06Zm3.89,1.62a22.24,22.24,0,0,1,.31,2.76l-.9.19a17.51,17.51,0,0,0-.27-2.73Zm2.76-5.69a12.29,12.29,0,0,1,.73,2.22l-.91.44a10.11,10.11,0,0,0-.71-2.27Zm3.79.46a12.8,12.8,0,0,1-.88,2.23l-.89-.45a9.15,9.15,0,0,0,.77-2.22Z"/><path class="cls-2" d="M237.08,23.36V29h-3.82V27.67h2.41V23.36Z"/><path class="cls-1" d="M243.88,25.78a2.67,2.67,0,0,1-2.19,1.54c-1.25,0-2.13-1.22-2.13-2.92a4.86,4.86,0,0,1,2.6-4.4,5.67,5.67,0,0,1,2.81-.62,4.16,4.16,0,0,1,4.37,4.15,4.59,4.59,0,0,1-3,4.47,3.06,3.06,0,0,1-.86.26c-.15,0-.21-.05-.36-.28a2.47,2.47,0,0,0-.76-.75c2.47-.64,3.59-1.8,3.59-3.75a2.82,2.82,0,0,0-1.16-2.36,3.06,3.06,0,0,0-1.42-.52A13.17,13.17,0,0,1,243.88,25.78Zm-1.73-4.25a3.7,3.7,0,0,0-1.26,2.84c0,.93.3,1.47.8,1.47s1.21-.83,1.67-2.26a14.89,14.89,0,0,0,.61-2.92A3.46,3.46,0,0,0,242.15,21.53Z"/><path class="cls-1" d="M259.94,19.46a9.66,9.66,0,0,0,1.4-.07v1.35a13.21,13.21,0,0,0-1.4-.06H255.2a13.1,13.1,0,0,1-1.51,2.4v4.26a9.31,9.31,0,0,0,.06,1.33h-1.4a9.48,9.48,0,0,0,.07-1.33V24.47a9.72,9.72,0,0,1-.88.78,3.85,3.85,0,0,0-.86-1.14,11.46,11.46,0,0,0,1.74-1.53,3.87,3.87,0,0,0,0-.64H253a9,9,0,0,0,.82-1.26H252.4a13.21,13.21,0,0,0-1.4.06V19.39a9.66,9.66,0,0,0,1.4.07h1.95a6.07,6.07,0,0,0,.47-1.53l1.44.27a2.74,2.74,0,0,0-.19.47c-.07.19-.21.57-.3.79Zm-.36,3.71a6.88,6.88,0,0,0,1.23-.07v1.31a8.59,8.59,0,0,0-1.24-.06h-1.43v2.7H260a12.38,12.38,0,0,0,1.28-.06v1.32a10.35,10.35,0,0,0-1.29-.07h-4.61a9.43,9.43,0,0,0-1.29.07V27c.35,0,.74.06,1.28.06h1.52v-2.7h-1.2a8.74,8.74,0,0,0-1.25.06V23.1a6.94,6.94,0,0,0,1.24.07h1.21v-.74a7.32,7.32,0,0,0-.06-1.2h1.4a7.86,7.86,0,0,0-.06,1.22v.72Z"/><path class="cls-1" d="M265.42,22.58c.06-.09.06-.09.58-1a2.13,2.13,0,0,0,.29.53.49.49,0,0,1,.12.27c0,.08,0,.14-.31.6s-.55,1.11-.7,1.47-.16.36-.56.36a1.43,1.43,0,0,1-.76-.12,6.16,6.16,0,0,1-.12-1.63,25,25,0,0,1,.4-4.1,3.12,3.12,0,0,0,.05-.62c.93.17,1.55.44,1.55.67,0,.06,0,.1-.1.21a3,3,0,0,0-.37,1.17,15.88,15.88,0,0,0-.25,2.5Zm4.35-3.5v.2s0,.15,0,.28,0,.19,0,.49c0,.13,0,.13,0,.58s.06,1.15.06,1.44a8,8,0,0,1-1.84,5.48c-.48.57-.9.89-1.14.89s-.16,0-.41-.19a2.42,2.42,0,0,0-.85-.42,6.34,6.34,0,0,0,1.74-1.66,6.61,6.61,0,0,0,1.1-3.89,9.85,9.85,0,0,0-.38-3.38,10,10,0,0,1,1.22-.08c.36,0,.41,0,.41.22Z"/><path class="cls-1" d="M277,19a6.23,6.23,0,0,0-.07-.94h1.47a4.6,4.6,0,0,0-.07.94v.71h3.18a9.24,9.24,0,0,0,1.45-.08v1.4A9.73,9.73,0,0,0,281.5,21h-4.22a1.55,1.55,0,0,0,0,.23c0,.42,0,.65-.08,1h3.19a10.68,10.68,0,0,0,1.2,0,.49.49,0,0,0,0,.11,5.87,5.87,0,0,0-.05.8,21.9,21.9,0,0,1-.4,4c-.26,1.1-.64,1.38-1.8,1.38-.4,0-.67,0-1.56-.07a4.12,4.12,0,0,0-.32-1.34,10.2,10.2,0,0,0,1.73.15c.5,0,.61-.13.77-.92a16.87,16.87,0,0,0,.25-2.89H277a7.54,7.54,0,0,1-3.71,5.22,3.34,3.34,0,0,0-.92-1.11,7.17,7.17,0,0,0,2.06-1.69c1-1.2,1.38-2.52,1.44-4.87H274a12.07,12.07,0,0,0-1.46.07v-1.4a9.85,9.85,0,0,0,1.44.08h3Z"/><path class="cls-1" d="M286.87,22.09a11.2,11.2,0,0,1-.35-2.33,5.78,5.78,0,0,0-.21-1.27,7.14,7.14,0,0,1,1.52.13c.18.05.26.14.26.27a1,1,0,0,1,0,.2,2.51,2.51,0,0,0-.12.82,8.74,8.74,0,0,0,.25,2c.07.22.14.31.28.31a5.89,5.89,0,0,0,1.92-1c.15-.12.18-.13.24-.13s.21.08.39.31a2.78,2.78,0,0,1,.54,1c0,.13-.08.22-.29.28a19.37,19.37,0,0,0-2.79,1.08c-1.47.72-2.13,1.38-2.13,2.12s.62,1,2.16,1a16.5,16.5,0,0,0,2.82-.26l.16,0a.19.19,0,0,1,.2.14,7.53,7.53,0,0,1,.12,1.14c0,.17,0,.23-.2.28a23.67,23.67,0,0,1-2.63.14,5.75,5.75,0,0,1-3.19-.64A2,2,0,0,1,285,26a2.66,2.66,0,0,1,.48-1.52,5.16,5.16,0,0,1,1.89-1.62A1.37,1.37,0,0,1,286.87,22.09Z"/><path class="cls-1" d="M296.83,25.43a.18.18,0,0,1,.05.13c0,.07,0,.07-.2.62a8.46,8.46,0,0,0-.46,1.8.24.24,0,0,1-.22.26,4,4,0,0,1-.8.07c-.12,0-.18,0-.22-.1a9.34,9.34,0,0,1-.39-1.73,11.14,11.14,0,0,1-.12-1.76,25.94,25.94,0,0,1,.59-5c.07-.38.09-.56.13-.94a4.19,4.19,0,0,1,1.28.35c.18.1.25.18.25.29a.42.42,0,0,1-.08.23,14.52,14.52,0,0,0-.95,5.35c0,.29,0,.74.05,1.32.29-.74.42-1.08.68-1.66A2.07,2.07,0,0,0,296.83,25.43Zm2-3.16c-.58,0-.7,0-.73-.15a3.48,3.48,0,0,1-.08-.77,3.78,3.78,0,0,1,0-.41c.32,0,.51,0,.91,0,.65,0,1,0,1.68-.06a9.08,9.08,0,0,0-.15-2.28,6.63,6.63,0,0,1,1.42.15c.18.05.25.11.25.23a.44.44,0,0,1-.05.18,4.7,4.7,0,0,0-.2,1.58,14.9,14.9,0,0,0,1.55-.31.3.3,0,0,1,.12,0c.07,0,.11,0,.13.12a5.38,5.38,0,0,1,.06.81c0,.3,0,.35-.13.4a7.91,7.91,0,0,1-1.74.31c0,.83.07,2.2.15,3a9.19,9.19,0,0,1,1.81,1c.33.24.4.32.4.41a2.53,2.53,0,0,1-.47.89c-.14.2-.21.26-.3.26s-.08,0-.36-.26a6.14,6.14,0,0,0-1.06-.82v.1c0,1.05-.88,1.75-2.21,1.75s-2.25-.72-2.25-1.8a2,2,0,0,1,2.13-1.89,7.15,7.15,0,0,1,1,.06c-.05-.93-.05-.93-.09-2.54C300.14,22.24,299.33,22.27,298.85,22.27Zm1,3.53c-.6,0-1,.28-1,.7s.37.62,1,.62,1-.29,1-.84c0-.17,0-.3,0-.3A2.47,2.47,0,0,0,299.83,25.8Z"/><path class="cls-1" d="M306.16,20.47a3.25,3.25,0,0,1,1-1.49,3.13,3.13,0,0,1,2.06-.67c1.79,0,3,1,3,2.52a2.52,2.52,0,0,1-.42,1.41,5.81,5.81,0,0,1-1,1c-.93.84-1.14,1.16-1.14,1.8v.63h-1.22V25a2.9,2.9,0,0,1,.32-1.4,4.41,4.41,0,0,1,.83-1,4.48,4.48,0,0,0,.79-.89,1.59,1.59,0,0,0,.27-.9,1.25,1.25,0,0,0-1.39-1.3c-.86,0-1.36.44-1.72,1.48Zm3.82,7a.95.95,0,1,1-.94-.95A.94.94,0,0,1,310,27.47Z"/></g></g></svg>