<svg id="コンポーネント_13_1" data-name="コンポーネント 13 – 1" xmlns="http://www.w3.org/2000/svg" width="312.157" height="28.98" viewBox="0 0 312.157 28.98">
  <path id="パス_121" data-name="パス 121" d="M6035.183,759.574c2.183,0,4.007-.036,4.872-.108.132-.012.216-.012.263-.012a.383.383,0,0,1,.144.024c.084.048.108.252.108.912,0,.612-.024.672-.227.672-.025,0-.025,0-.2-.012-.637-.06-1.368-.072-2.916-.072a53.328,53.328,0,0,0-5.617.144.927.927,0,0,1-.215.024c-.277,0-.325-.216-.42-1.656C6031.942,759.55,6033.118,759.574,6035.183,759.574Zm.372-5.16a27.868,27.868,0,0,0,3.216-.12.578.578,0,0,1,.131-.012c.132,0,.18.036.2.2.012.1.024.516.024.852,0,.408-.035.5-.192.5a1.489,1.489,0,0,1-.2-.012c-.24-.012-1.992-.024-3.383-.024-.924,0-1.548.012-2.208.06-.157.012-.349.024-.372.024a.265.265,0,0,1-.277-.18,7.291,7.291,0,0,1-.12-1.44A21.342,21.342,0,0,0,6035.555,754.414Z" transform="translate(-6030.971 -752.314)" fill="#fff"/>
  <path id="パス_122" data-name="パス 122" d="M6045.31,757.618a6.917,6.917,0,0,0-.984.06.234.234,0,0,1-.084.012c-.108,0-.18-.06-.2-.192a5.565,5.565,0,0,1-.1-1.176,14.587,14.587,0,0,0,2.46.12c1.092,0,1.2-.012,1.416-.108a.626.626,0,0,1,.132-.024,1.082,1.082,0,0,1,.684.36,1.18,1.18,0,0,1,.42.588.367.367,0,0,1-.1.2c-.145.192-.145.192-.336,1.332-.144.948-.216,1.332-.3,1.728a.156.156,0,0,0-.012.072c1.068,0,1.272-.012,1.788-.048h.072c.168,0,.2.12.2.744,0,.492-.024.564-.18.564-.06,0-.084,0-.576-.024-.4-.024-1.68-.036-2.82-.036-1.86,0-3.252.036-3.756.1h-.108c-.168,0-.24-.036-.288-.132a6.489,6.489,0,0,1-.144-1.236c.84.072,1.176.084,4.464.084a1.147,1.147,0,0,0,.036-.2c.156-.756.3-1.764.408-2.784Z" transform="translate(-6030.971 -752.314)" fill="#fff"/>
  <path id="パス_123" data-name="パス 123" d="M6057.106,756.982c2.2,0,3.457-.024,4.668-.108h.157c.359,0,.359.012.359.972,0,.492-.035.576-.239.576H6062c-.792-.036-1.236-.036-4.7-.036-1.273,0-1.908.012-3.013.048h-.348a3.123,3.123,0,0,0-.671.048c-.061,0-.109.012-.132.012a.218.218,0,0,1-.24-.168,7.569,7.569,0,0,1-.121-1.464A42.066,42.066,0,0,0,6057.106,756.982Z" transform="translate(-6030.971 -752.314)" fill="#fff"/>
  <path id="パス_124" data-name="パス 124" d="M6071.927,753.9q.143.072.143.18a.459.459,0,0,1-.156.288,1.815,1.815,0,0,0-.287.588,18.232,18.232,0,0,1-1.32,2.892,12.668,12.668,0,0,1-4.309,4.236c-.287.168-.348.192-.432.192a.376.376,0,0,1-.263-.12,3.445,3.445,0,0,0-1.116-.72,15.891,15.891,0,0,0,2.316-1.464,10.317,10.317,0,0,0,3.516-5.436,5.026,5.026,0,0,0,.179-1.2A7.114,7.114,0,0,1,6071.927,753.9Z" transform="translate(-6030.971 -752.314)" fill="#fff"/>
  <path id="パス_125" data-name="パス 125" d="M6079.006,756.982c2.2,0,3.456-.024,4.668-.108h.156c.359,0,.359.012.359.972,0,.492-.035.576-.239.576h-.048c-.792-.036-1.236-.036-4.7-.036-1.272,0-1.908.012-3.012.048h-.348a3.133,3.133,0,0,0-.672.048c-.061,0-.108.012-.132.012a.218.218,0,0,1-.24-.168,7.7,7.7,0,0,1-.12-1.464A42.054,42.054,0,0,0,6079.006,756.982Z" transform="translate(-6030.971 -752.314)" fill="#fff"/>
  <path id="パス_126" data-name="パス 126" d="M6093.646,755.47c-4.176.06-4.176.06-5.568.12a6.556,6.556,0,0,0-1.368.108c-.06,0-.12.012-.144.012-.144,0-.228-.072-.288-.228a4.719,4.719,0,0,1-.215-1.38,34.489,34.489,0,0,0,3.611.144c1.7,0,3.264-.024,3.936-.06a2.052,2.052,0,0,0,.624-.12.711.711,0,0,1,.252-.048c.24,0,.48.2.888.78a1.5,1.5,0,0,1,.336.672c0,.132-.023.156-.228.3a3.155,3.155,0,0,0-.672.708,18,18,0,0,1-3.132,3.132,6.029,6.029,0,0,1,1.248,1.512c0,.132-.155.312-.528.612a1.407,1.407,0,0,1-.552.336c-.072,0-.132-.036-.216-.144a13.9,13.9,0,0,0-1.62-1.92,15.554,15.554,0,0,0-2.148-1.86.175.175,0,0,1-.084-.156c0-.1.2-.336.528-.648.192-.156.288-.228.36-.228a.285.285,0,0,1,.168.06,11.449,11.449,0,0,1,1.872,1.476A16.15,16.15,0,0,0,6093.646,755.47Z" transform="translate(-6030.971 -752.314)" fill="#fff"/>
  <path id="パス_127" data-name="パス 127" d="M6100.295,753.838a.2.2,0,0,1,.143.2.564.564,0,0,1-.023.168,3.153,3.153,0,0,0-.084.936c-.024,2.928-.553,4.8-1.812,6.4-.276.336-.384.444-.5.444a.515.515,0,0,1-.2-.072,3.34,3.34,0,0,0-1.165-.432,6.123,6.123,0,0,0,1.513-2.1,9.15,9.15,0,0,0,.708-3.984,9.426,9.426,0,0,0-.12-1.752A5.746,5.746,0,0,1,6100.295,753.838Zm1.284,1.164a10.529,10.529,0,0,0-.108-1.56c1.3.048,1.763.144,1.763.384a.6.6,0,0,1-.059.24,1.543,1.543,0,0,0-.084.444c-.036.324-.036.324-.06,5.6a11.1,11.1,0,0,0,3.528-2.964,5.971,5.971,0,0,0,.18,1.44.524.524,0,0,1,.035.2c0,.192-.12.348-.671.864a10.668,10.668,0,0,1-2.6,1.824,2.266,2.266,0,0,0-.564.372.467.467,0,0,1-.276.12,2.324,2.324,0,0,1-.888-.588c-.24-.24-.348-.42-.348-.576a.589.589,0,0,1,.048-.2,3.028,3.028,0,0,0,.108-1.1Z" transform="translate(-6030.971 -752.314)" fill="#fff"/>
  <path id="パス_128" data-name="パス 128" d="M6108.658,754.15a10.39,10.39,0,0,0-.048-1.164,9.62,9.62,0,0,0,1.008.036h1.4a9.527,9.527,0,0,0,1-.036c-.025.276-.025.48-.025,1.14v6.588c0,.6,0,.9.025,1.164h-1.177v-.588H6109.8v.972h-1.212a10.064,10.064,0,0,0,.072-1.368Zm1.153,2.376h1.043v-2.412h-1.043Zm0,3.648h1.043v-2.58h-1.043Zm3.947-5.448c-.407,0-.947.024-1.224.048v-1.212a7.944,7.944,0,0,0,1.188.072h1.02v-.3a4.851,4.851,0,0,0-.072-.864H6116a4.445,4.445,0,0,0-.06.852v.312h1.26a8.233,8.233,0,0,0,1.2-.072v1.212a10.657,10.657,0,0,0-1.175-.048h-1.285v1.092h1.608a10.74,10.74,0,0,0,1.248-.06v1.212a7.2,7.2,0,0,0-1.128-.06h-.191v.984h.155a6.339,6.339,0,0,0,1.116-.06v1.248a7.143,7.143,0,0,0-1.116-.06h-.155v2.6c0,.672-.121.948-.469,1.1a3.159,3.159,0,0,1-1.283.192c-.1,0-.1,0-.9-.012a2.825,2.825,0,0,0-.276-1.212,10.075,10.075,0,0,0,1.3.084c.36,0,.444-.048.444-.312v-2.448h-2.771c-.433,0-.853.024-1.225.06v-1.248a7.806,7.806,0,0,0,1.248.06h2.748v-.984h-2.748a11.915,11.915,0,0,0-1.248.06v-1.212a10.677,10.677,0,0,0,1.26.06h1.188v-1.092Zm.456,6.972a8.784,8.784,0,0,0-1.476-1.884l.984-.648a9.156,9.156,0,0,1,1.512,1.752Z" transform="translate(-6030.971 -752.314)" fill="#fff"/>
  <path id="パス_129" data-name="パス 129" d="M6121.69,758.47c0-.588.012-.864.037-1.332a7.259,7.259,0,0,1-1.177,1.44,4.392,4.392,0,0,0-.612-1.32,10.041,10.041,0,0,0,2.316-3.42,7.5,7.5,0,0,0,.456-1.5l1.309.432a17.97,17.97,0,0,1-1.069,2.46v6.384a12.181,12.181,0,0,0,.072,1.392h-1.4a10.759,10.759,0,0,0,.072-1.416Zm5.4-1.8a9.062,9.062,0,0,0,1.177,3.54c.4.648.923,1.224,1.128,1.224.239,0,.383-.564.5-1.932a4.9,4.9,0,0,0,1.092.744c-.263,1.98-.672,2.712-1.488,2.712-.864,0-1.968-1.1-2.724-2.724a11.934,11.934,0,0,1-.972-3.468l-1.224.1c-.516.048-.8.084-1.152.144l-.035-1.3c.179.012.275.012.359.012.2,0,.6-.012.876-.036l1.044-.084a20.7,20.7,0,0,1-.1-2.184c-.012-.216-.048-.66-.072-.852l1.4-.024a4.243,4.243,0,0,0-.059.876,20.314,20.314,0,0,0,.107,2.076l2.472-.2a9.153,9.153,0,0,0,1.26-.156l.037,1.308c-.181-.012-.265-.012-.336-.012-.193,0-.481.012-.853.048Zm1.212-4.14a15.455,15.455,0,0,1,1.764,1.788l-.96.864a6.417,6.417,0,0,0-.839-1.008,10.378,10.378,0,0,0-.865-.888Z" transform="translate(-6030.971 -752.314)" fill="#fff"/>
  <path id="パス_130" data-name="パス 130" d="M6135.1,759.514a.293.293,0,0,1,.049.168c0,.084-.012.1-.12.36a12.977,12.977,0,0,0-.672,2.064c-.036.132-.072.2-.12.228a3.612,3.612,0,0,1-.6.084h-.048c-.06,0-.144-.012-.24-.012-.156,0-.192-.036-.24-.18a15.869,15.869,0,0,1-.408-3.6,18.327,18.327,0,0,1,.42-3.936c.12-.648.18-1.008.228-1.4a5.537,5.537,0,0,1,1.3.384c.2.084.264.144.264.264,0,.084-.012.12-.144.312a14.145,14.145,0,0,0-.84,4.9c0,.276.012.648.048,1.248.335-.756.456-.984.732-1.572A3.682,3.682,0,0,0,6135.1,759.514Zm2.6.852a3.376,3.376,0,0,0,1.644.276,6.1,6.1,0,0,0,1.968-.276.6.6,0,0,1,.168-.036c.084,0,.144.048.156.168a9.656,9.656,0,0,1,.108,1.128c0,.12-.036.156-.2.2a8.153,8.153,0,0,1-2.112.252,4.4,4.4,0,0,1-2.352-.468c-.528-.324-1.08-.984-1.08-1.308,0-.168.252-.4.9-.792A1.7,1.7,0,0,0,6137.71,760.366Zm-.84-6.12a10.56,10.56,0,0,0,1.62.108,13.438,13.438,0,0,0,2.328-.192.371.371,0,0,1,.108-.012c.084,0,.12.036.144.132a8.356,8.356,0,0,1,.06.972c0,.18-.036.24-.168.264a12.731,12.731,0,0,1-2.172.156,9.963,9.963,0,0,1-2.076-.132c-.06-.036-.084-.12-.084-.336a6.92,6.92,0,0,1,.059-.9c.013-.048.049-.072.121-.072A.131.131,0,0,1,6136.87,754.246Z" transform="translate(-6030.971 -752.314)" fill="#fff"/>
  <path id="パス_131" data-name="パス 131" d="M6146.314,755.59a5.874,5.874,0,0,0,1.524,2.22c-.06.1-.108.168-.132.216a4.218,4.218,0,0,0-.468.984,7.919,7.919,0,0,1-1.08-1.932c.036.66.048.96.048,1.572v2.964a10.879,10.879,0,0,0,.072,1.415h-1.368a11.27,11.27,0,0,0,.072-1.415v-2.365c0-.515.037-1.331.072-1.739a10.2,10.2,0,0,1-.684,1.751,7.9,7.9,0,0,1-.683,1.177,4.439,4.439,0,0,0-.637-1.261,9.341,9.341,0,0,0,1.764-3.587h-.564a5.449,5.449,0,0,0-.84.049v-1.225a5.055,5.055,0,0,0,.852.048h.708v-.936a7.5,7.5,0,0,0-.06-1.2h1.357a7.658,7.658,0,0,0-.061,1.2v.936h.648a4.216,4.216,0,0,0,.732-.048v1.213c-.264-.024-.468-.037-.72-.037Zm1.56,7.4c.036-.456.061-.9.061-1.475v-7.549c0-.4-.013-.647-.049-1.222.312.024.552.036,1.02.036h3.456a6.759,6.759,0,0,0,1-.048c-.024.335-.036.659-.036,1.174v7.6c0,.6.024,1.1.06,1.451h-1.319v-.648h-2.88v.684Zm1.309-7.4h2.88v-1.633h-2.88Zm0,2.725h2.88v-1.634h-2.88Zm0,2.844h2.88v-1.754h-2.88Z" transform="translate(-6030.971 -752.314)" fill="#fff"/>
  <path id="パス_132" data-name="パス 132" d="M6157.258,754.63c0,5.028-.2,6.468-1.188,8.268a4.262,4.262,0,0,0-1.032-1,5.309,5.309,0,0,0,.744-1.992,30.972,30.972,0,0,0,.252-4.848c0-.876-.012-1.212-.048-1.632a11.6,11.6,0,0,0,1.2.048h2.939v-.5a3.642,3.642,0,0,0-.06-.66h1.4a2.494,2.494,0,0,0-.06.672v.492h2.976a9.621,9.621,0,0,0,1.356-.072v1.284a10.669,10.669,0,0,0-1.356-.06h-3.8a15.107,15.107,0,0,1,2.88,1.908l-.888.984a10.523,10.523,0,0,0-2.928-2.1l.888-.792Zm-.084,6.768a7.213,7.213,0,0,0,.612-1.9,15.15,15.15,0,0,0,.264-2.22l1.188.3a14.8,14.8,0,0,1-.9,4.548Zm3.936-4.8a6.662,6.662,0,0,0-.06,1.092V761.3c0,.3.1.348.78.348.912,0,.924-.036.924-2.112a5.617,5.617,0,0,0,1.225.408c-.084,1.56-.193,2.136-.457,2.46s-.72.456-1.7.456c-1.584,0-1.992-.18-1.992-.864v-4.32a5.882,5.882,0,0,0-.072-1.08Zm3.577,5.328a13.074,13.074,0,0,0-1.333-4.164l1.1-.552a19.675,19.675,0,0,1,1.464,4.14Z" transform="translate(-6030.971 -752.314)" fill="#fff"/>
  <path id="パス_133" data-name="パス 133" d="M6170.063,752.926c.3.084.383.144.383.276a.718.718,0,0,1-.072.288,6.781,6.781,0,0,0-.276,1.8c-.1,1.932-.144,3.432-.144,4.62a3.072,3.072,0,0,0,.1.864c.132.4.553.6,1.224.6a4.4,4.4,0,0,0,3.037-1.32,7.2,7.2,0,0,0,1.139-1.392,4.1,4.1,0,0,0,.432,1.176.709.709,0,0,1,.06.276c0,.216-.228.5-.828,1.044a5.769,5.769,0,0,1-3.887,1.62,2.755,2.755,0,0,1-2.017-.66,3.031,3.031,0,0,1-.636-2.292c0-.936.012-1.656.108-4.452.012-.42.024-.672.024-.78a11.41,11.41,0,0,0-.084-1.836A6.884,6.884,0,0,1,6170.063,752.926Z" transform="translate(-6030.971 -752.314)" fill="#fff"/>
  <path id="パス_134" data-name="パス 134" d="M6177.814,754.93c0-.348-.012-.816-.036-1.08a5.433,5.433,0,0,1,1.285.264c.287.108.383.18.383.312a.364.364,0,0,1-.048.192,5.389,5.389,0,0,0-.2,1.956,10.629,10.629,0,0,0,.336,3.228c.18.564.456.888.78.888.492,0,.9-.576,1.344-1.908a3.582,3.582,0,0,0,.648,1.224.441.441,0,0,1,.1.252,2.267,2.267,0,0,1-.419.948,2.117,2.117,0,0,1-1.705,1.056c-.924,0-1.62-.744-2.052-2.22a14.077,14.077,0,0,1-.408-3.852Zm7.14.192a.353.353,0,0,1,.228.12,7.962,7.962,0,0,1,1.62,2.472,7.4,7.4,0,0,1,.516,1.74c0,.12-.06.18-.312.312a3.807,3.807,0,0,1-.984.336c-.108,0-.156-.06-.192-.276a8.341,8.341,0,0,0-.744-2.376,6.4,6.4,0,0,0-1.176-1.74A2.964,2.964,0,0,1,6184.954,755.122Z" transform="translate(-6030.971 -752.314)" fill="#fff"/>
  <path id="パス_135" data-name="パス 135" d="M6031.93,775.69v-5.628h3.828v1.308h-2.4v4.32Z" transform="translate(-6030.971 -752.314)" fill="#fff"/>
  <path id="パス_136" data-name="パス 136" d="M6039.994,773.59a5.874,5.874,0,0,0,1.524,2.22c-.06.1-.108.168-.132.216a4.16,4.16,0,0,0-.468.984,7.936,7.936,0,0,1-1.08-1.932c.036.66.048.96.048,1.572v2.964a10.879,10.879,0,0,0,.072,1.415h-1.368a11.164,11.164,0,0,0,.072-1.415v-2.365c0-.515.036-1.331.071-1.739a10.091,10.091,0,0,1-.683,1.751,8.029,8.029,0,0,1-.684,1.177,4.414,4.414,0,0,0-.637-1.261,9.369,9.369,0,0,0,1.765-3.587h-.564a5.456,5.456,0,0,0-.84.049v-1.225a5.057,5.057,0,0,0,.851.048h.708v-.936a7.466,7.466,0,0,0-.059-1.2h1.356a7.755,7.755,0,0,0-.06,1.2v.936h.648a4.22,4.22,0,0,0,.732-.048v1.213c-.264-.024-.468-.037-.72-.037Zm1.56,7.4c.036-.456.06-.9.06-1.475v-7.549c0-.4-.012-.647-.049-1.222.313.024.553.036,1.021.036h3.456a6.759,6.759,0,0,0,1-.048c-.024.335-.036.659-.036,1.174v7.6c0,.6.023,1.1.06,1.451h-1.32v-.648h-2.88v.684Zm1.308-7.4h2.88v-1.633h-2.88Zm0,2.725h2.88v-1.634h-2.88Zm0,2.844h2.88v-1.754h-2.88Z" transform="translate(-6030.971 -752.314)" fill="#fff"/>
  <path id="パス_137" data-name="パス 137" d="M6050.29,776.95a15.014,15.014,0,0,1-.468,3.516l-.984-.5a10.284,10.284,0,0,0,.456-3.156Zm-1.416-1.692a2.687,2.687,0,0,0,.468.024h.42c.336-.468.336-.468.6-.84a15.112,15.112,0,0,0-1.5-1.74l.564-1,.431.468a7.623,7.623,0,0,0,.841-1.884l1.115.432a2.534,2.534,0,0,0-.239.432,19.036,19.036,0,0,1-1.02,1.788c.179.228.24.3.444.54a9.559,9.559,0,0,0,1.032-1.908l1.032.552a7.7,7.7,0,0,0-.552.876c-.372.6-1.056,1.6-1.536,2.22.648-.036.888-.048,1.175-.084a6.492,6.492,0,0,0-.323-.888l.779-.276a11.618,11.618,0,0,1,.649,1.92v-.276a6.4,6.4,0,0,0-.036-.828,8.894,8.894,0,0,0,1.044.036h3.971a8.438,8.438,0,0,0,1.1-.048,7.285,7.285,0,0,0-.036.816v.684a4.815,4.815,0,0,0,.048.816h-1.2v-1.26h-3.815v1.26h-1.116a5.654,5.654,0,0,0,.036-.744l-.744.252c-.036-.228-.06-.312-.1-.48-.265.036-.408.048-.685.072v3.648a6.451,6.451,0,0,0,.073,1.212h-1.248a6.94,6.94,0,0,0,.072-1.212V776.29q-.846.054-.9.072a5.17,5.17,0,0,0-.732.072Zm4,1.488a21.867,21.867,0,0,1,.372,2.532l-.936.276a14.425,14.425,0,0,0-.312-2.58Zm3.012-.372a5.044,5.044,0,0,0-.06.828,4.149,4.149,0,0,1-.78,2.412,4.324,4.324,0,0,1-1.86,1.356,2.562,2.562,0,0,0-.792-1.056,3.458,3.458,0,0,0,1.692-.984,3.106,3.106,0,0,0,.576-2.016,3.833,3.833,0,0,0-.036-.54Zm-1.464-4.008a8.36,8.36,0,0,0-1.26.06v-1.164a8.821,8.821,0,0,0,1.283.072h1.08v-.108a4.51,4.51,0,0,0-.059-.864h1.308a3.616,3.616,0,0,0-.072.876v.1h1.4a8.758,8.758,0,0,0,1.272-.072v1.164a8,8,0,0,0-1.236-.06h-1.44v.816h1.176a7.8,7.8,0,0,0,1.176-.06v1.128a7.347,7.347,0,0,0-1.164-.06h-3.361a7.606,7.606,0,0,0-1.175.06v-1.128a7.884,7.884,0,0,0,1.188.06h.983v-.816Zm3.192,4.008a3.984,3.984,0,0,0-.06.816v2.256c0,.18.072.228.347.228a.673.673,0,0,0,.433-.108,3.444,3.444,0,0,0,.191-1.5,3.648,3.648,0,0,0,1.1.408,6.087,6.087,0,0,1-.288,1.728c-.216.444-.588.588-1.525.588-1.127,0-1.416-.192-1.416-.948V777.19a3.821,3.821,0,0,0-.059-.816Z" transform="translate(-6030.971 -752.314)" fill="#fff"/>
  <path id="パス_138" data-name="パス 138" d="M6063.142,771.5a6.482,6.482,0,0,0-.06-1.08h1.332a7.031,7.031,0,0,0-.06,1.08v.648h.816a7.243,7.243,0,0,0,1.1-.06v1.224a8.342,8.342,0,0,0-.887-.036,12.066,12.066,0,0,1-.792,3.492c.612.768.876,1.128,1.632,2.2l-.913,1.02a14.931,14.931,0,0,0-1.319-1.992,11.272,11.272,0,0,1-2.305,2.844,3.853,3.853,0,0,0-.863-1.068,8.008,8.008,0,0,0,2.363-2.832,22.98,22.98,0,0,0-1.956-2.112l.841-.864c.228.24.228.24.9.936.108.1.288.312.732.828a9.97,9.97,0,0,0,.443-2.448h-2.124a7.2,7.2,0,0,0-1.079.06v-1.26a8.05,8.05,0,0,0,1.14.072h1.056Zm3.828,3.12a13.482,13.482,0,0,1,1.632,2.664l-1.044.684a10.511,10.511,0,0,0-1.608-2.784Zm.648-.72a6.821,6.821,0,0,0-1.08.06V772.69a6.627,6.627,0,0,0,1.092.06h1.452v-.912a9.178,9.178,0,0,0-.072-1.368h1.38a9.957,9.957,0,0,0-.073,1.368v.912h.145a6.183,6.183,0,0,0,1.068-.072v1.284a1.292,1.292,0,0,1-.264-.024,6.312,6.312,0,0,0-.8-.036h-.145v5.568c0,.6-.035.792-.2.984-.217.276-.636.4-1.392.4-.468,0-.912-.012-1.356-.036a3.7,3.7,0,0,0-.36-1.272,13.128,13.128,0,0,0,1.344.12c.66,0,.732-.024.732-.264v-5.5Z" transform="translate(-6030.971 -752.314)" fill="#fff"/>
  <path id="パス_139" data-name="パス 139" d="M6074.842,772.306a6.635,6.635,0,0,1-1.176,1.224,5,5,0,0,0-.816-.864,4.771,4.771,0,0,0,1.788-2.34l1.224.216c-.084.144-.084.144-.18.336s-.108.228-.18.36h1.523a9.673,9.673,0,0,0,1.129-.06v.8a4.111,4.111,0,0,0,.876-1.656l1.224.216c-.252.54-.252.54-.324.7h2.268a9.5,9.5,0,0,0,1.26-.06v1.188a11.29,11.29,0,0,0-1.2-.048h-.948a9.325,9.325,0,0,1,.48.852l-1.164.312a6.74,6.74,0,0,0-.552-1.164h-.757a5.916,5.916,0,0,1-.671.792h.167c-.023.192-.035.324-.047.624h3.4a7.819,7.819,0,0,0,1.224-.072v1.188a8.53,8.53,0,0,0-1.224-.06h-3.4v.588h2.6c.588-.012.947-.024,1.08-.036a6.49,6.49,0,0,0-.048.96v1.08a.761.761,0,0,1-.337.744,1.975,1.975,0,0,1-.851.12c-.2,0-.492-.012-.8-.036a2.974,2.974,0,0,0-.24-1,5.619,5.619,0,0,0,.732.06c.252,0,.324-.048.324-.2V776.4h-2.46v.408a7.4,7.4,0,0,0,2.268,1.836,12.1,12.1,0,0,0,2.531.948,4.565,4.565,0,0,0-.827,1.14,12.44,12.44,0,0,1-2.257-1.056,9.428,9.428,0,0,1-1.031-.78,4.043,4.043,0,0,1-.732-.78c.011.324.024.528.024.84l.012.876a5.665,5.665,0,0,0,.1,1.2h-1.416a6.3,6.3,0,0,0,.1-1.212l-.012-.84c0-.156.012-.468.024-.8a5.972,5.972,0,0,1-1.788,1.6,13.141,13.141,0,0,1-1.932.96,4.506,4.506,0,0,0-.888-1.1,14.189,14.189,0,0,0,2.423-1,8.144,8.144,0,0,0,1.321-.936,4.553,4.553,0,0,0,.84-.888V776.4h-2.245v1.008a5.976,5.976,0,0,0,.049.936h-1.3a6.34,6.34,0,0,0,.061-1.056v-1.008a7.471,7.471,0,0,0-.048-.936c.275.024.636.036,1.008.036h2.472v-.588h-3.144a11.962,11.962,0,0,0-1.225.06v-1.188a8.722,8.722,0,0,0,1.225.072h3.144a5.589,5.589,0,0,0-.048-.624h.768a4.449,4.449,0,0,0-.66-.576c.12-.1.155-.132.252-.216-.288-.012-.372-.012-.528-.012h-.66c.192.312.264.444.468.84l-1.14.324a6.359,6.359,0,0,0-.516-1.164Z" transform="translate(-6030.971 -752.314)" fill="#fff"/>
  <path id="パス_140" data-name="パス 140" d="M6088.5,775.678v5.616h-3.828v-1.308h2.412v-4.308Z" transform="translate(-6030.971 -752.314)" fill="#fff"/>
  <path id="パス_141" data-name="パス 141" d="M6095.59,777.286c-1.188.7-1.524,1.044-1.524,1.572a.5.5,0,0,0,.264.468,3.752,3.752,0,0,0,1.608.24,18.145,18.145,0,0,0,2.16-.144,7.751,7.751,0,0,0,.876-.192h.06a.2.2,0,0,1,.18.144,3.944,3.944,0,0,1,.12,1.044c0,.18-.06.252-.216.288a22.211,22.211,0,0,1-2.5.132,7.506,7.506,0,0,1-2.82-.336,1.588,1.588,0,0,1-1.044-1.584,2.288,2.288,0,0,1,.971-1.824,10.079,10.079,0,0,1,1.741-1.116c-.1-.4-.276-.564-.648-.564a2.891,2.891,0,0,0-1.572.564,8.062,8.062,0,0,0-1.008.828c-.36.372-.4.4-.492.4-.12,0-.372-.276-.624-.7a1.183,1.183,0,0,1-.192-.444c0-.108.024-.132.312-.312a7.389,7.389,0,0,0,2.292-2.364c-.852.06-1.3.072-1.764.072-.18,0-.216-.036-.276-.24a10.236,10.236,0,0,1-.108-1.116,7.12,7.12,0,0,0,1.224.072c.468,0,.984-.012,1.524-.036a4.667,4.667,0,0,0,.348-1.68c1.068.18,1.56.36,1.56.564a.284.284,0,0,1-.048.144,7.644,7.644,0,0,0-.336.72.459.459,0,0,0-.036.084c.684-.1,1.284-.216,1.7-.312a1.611,1.611,0,0,1,.384-.084.151.151,0,0,1,.168.108,7.091,7.091,0,0,1,.12.936c0,.132-.048.192-.2.228a24.341,24.341,0,0,1-2.808.42,6.766,6.766,0,0,1-.984,1.452,3.155,3.155,0,0,1,1.428-.348c.54,0,.9.312,1.14.984,1.188-.648,1.824-1,1.9-1.044a3.672,3.672,0,0,0,1.044-.8,4.4,4.4,0,0,1,1.02,1.464c0,.072-.048.12-.2.156a24.563,24.563,0,0,0-3.5,1.512c.012.216.036.768.036,1.152v.576c0,.144-.024.216-.084.252a1.775,1.775,0,0,1-.744.1c-.408,0-.48-.036-.48-.228v-.048c.024-.348.036-.8.036-1.092Z" transform="translate(-6030.971 -752.314)" fill="#fff"/>
  <path id="パス_142" data-name="パス 142" d="M6105.838,773.926c3.36-.828,3.672-.924,3.948-1.164a.453.453,0,0,1,.288-.12c.18,0,.468.216.768.576a1.851,1.851,0,0,1,.492.768c0,.168-.024.2-.312.408-.132.108-.168.144-.744.96a11.14,11.14,0,0,1-1.62,1.728c-.144.12-.216.156-.3.156s-.12-.024-.2-.108a3,3,0,0,0-.972-.672,7.117,7.117,0,0,0,2.184-2.244l-.48.144c-.048.012-1.056.288-3.048.84v2.172c0,.636.144.948.48,1.092a4.65,4.65,0,0,0,1.572.192,19.556,19.556,0,0,0,2.148-.144c.252-.024.312-.036.348-.036.252,0,.312.192.348,1.1v.1c0,.144-.048.24-.144.276a13.449,13.449,0,0,1-2.208.1,6.951,6.951,0,0,1-2.88-.372,1.954,1.954,0,0,1-1.08-1.944v-2.136a9.128,9.128,0,0,0-1.968.672.516.516,0,0,1-.18.06c-.216,0-.468-.552-.72-1.512a21.706,21.706,0,0,0,2.868-.54v-1.14a12.781,12.781,0,0,0-.108-2.076,7.516,7.516,0,0,1,1.548.156c.108.036.18.1.18.168s0,.072-.1.276a3.9,3.9,0,0,0-.108,1.188Z" transform="translate(-6030.971 -752.314)" fill="#fff"/>
  <path id="パス_143" data-name="パス 143" d="M6114.334,776.53a10.384,10.384,0,0,0-.731-1.428c-.265-.384-.277-.408-.277-.48,0-.1.132-.216.456-.4.384-.216.408-.228.48-.228s.133.048.324.3a7.624,7.624,0,0,1,1,1.776c0,.084-.084.168-.324.312a3.207,3.207,0,0,1-.732.348C6114.442,776.734,6114.406,776.686,6114.334,776.53Zm6.54-2.04a.227.227,0,0,1-.072.156,2.826,2.826,0,0,0-.348.612,11.158,11.158,0,0,1-2.388,3.78,7.055,7.055,0,0,1-2.076,1.536.253.253,0,0,1-.2-.1,4.541,4.541,0,0,0-.935-.7,7.913,7.913,0,0,0,3.659-3.492,6.9,6.9,0,0,0,.828-2.52C6120.334,774.046,6120.874,774.31,6120.874,774.49Zm-4.332,1.488a9.355,9.355,0,0,0-.864-1.812.177.177,0,0,1-.035-.12c0-.084.084-.144.456-.348.443-.24.467-.252.527-.252.084,0,.156.06.3.3a7.483,7.483,0,0,1,.852,1.764c0,.072-.06.132-.252.252a3.506,3.506,0,0,1-.828.384C6116.626,776.146,6116.59,776.1,6116.542,775.978Z" transform="translate(-6030.971 -752.314)" fill="#fff"/>
  <path id="パス_144" data-name="パス 144" d="M6125.938,776.9c0,.732.037,2.688.06,3.252v.06c0,.108-.023.192-.084.228a2.747,2.747,0,0,1-1.008.132c-.384,0-.456-.036-.456-.276v-.048c.025-.312.061-3.768.061-5.2a30.092,30.092,0,0,0-.133-4.236,12.325,12.325,0,0,1,1.6.168c.12.036.179.1.179.192a.93.93,0,0,1-.048.264,2.068,2.068,0,0,0-.084.5c0,.024-.024.744-.06,2.16a12.844,12.844,0,0,1,1.345.42,18.806,18.806,0,0,1,2.952,1.3c.1.072.143.132.143.2a4.415,4.415,0,0,1-.408,1.056c-.1.2-.155.264-.227.264a.357.357,0,0,1-.193-.084,13.529,13.529,0,0,0-3.636-1.716Z" transform="translate(-6030.971 -752.314)" fill="#fff"/>
  <path id="パス_145" data-name="パス 145" d="M6135.009,777.514a.3.3,0,0,1,.049.168c0,.084-.013.1-.12.36a12.782,12.782,0,0,0-.672,2.064c-.037.132-.073.2-.12.228a3.617,3.617,0,0,1-.6.084h-.048c-.059,0-.143-.012-.24-.012-.155,0-.192-.036-.239-.18a15.778,15.778,0,0,1-.409-3.6,18.327,18.327,0,0,1,.42-3.936c.12-.648.18-1.008.228-1.4a5.55,5.55,0,0,1,1.3.384c.2.084.263.144.263.264,0,.084-.011.12-.144.312a14.145,14.145,0,0,0-.84,4.9c0,.276.013.648.048,1.248.336-.756.456-.984.732-1.572A3.721,3.721,0,0,0,6135.009,777.514Zm2.6.852a3.377,3.377,0,0,0,1.644.276,6.113,6.113,0,0,0,1.969-.276.585.585,0,0,1,.168-.036c.084,0,.143.048.155.168a9.673,9.673,0,0,1,.108,1.128c0,.12-.036.156-.2.2a8.147,8.147,0,0,1-2.112.252,4.4,4.4,0,0,1-2.352-.468c-.528-.324-1.08-.984-1.08-1.308,0-.168.252-.4.9-.792A1.686,1.686,0,0,0,6137.613,778.366Zm-.84-6.12a10.584,10.584,0,0,0,1.621.108,13.447,13.447,0,0,0,2.328-.192.359.359,0,0,1,.107-.012c.084,0,.12.036.145.132a8.748,8.748,0,0,1,.059.972c0,.18-.036.24-.168.264a12.729,12.729,0,0,1-2.172.156,9.956,9.956,0,0,1-2.076-.132c-.059-.036-.084-.12-.084-.336a6.727,6.727,0,0,1,.06-.9c.012-.048.049-.072.12-.072A.128.128,0,0,1,6136.773,772.246Z" transform="translate(-6030.971 -752.314)" fill="#fff"/>
  <path id="パス_146" data-name="パス 146" d="M6144.755,774.622a12.247,12.247,0,0,0-1.488.072v-1.26a10.272,10.272,0,0,0,1.475.072h2.532v-.936H6145.7a11.929,11.929,0,0,0-1.307.048V771.37a8.661,8.661,0,0,0,1.295.072h1.584v-.12a4.4,4.4,0,0,0-.072-.96h1.38a4.1,4.1,0,0,0-.071.96v.12h.887a8.964,8.964,0,0,0,1.308-.072v.876a7.184,7.184,0,0,0,1.284-1.644l1.128.768a1.2,1.2,0,0,0-.155.18,17.735,17.735,0,0,1-1.992,1.956h1.235a9.294,9.294,0,0,0,1.393-.072v1.26a11.063,11.063,0,0,0-1.405-.072h-2.664a16.067,16.067,0,0,1-1.716,1.08l-.011.06a27.883,27.883,0,0,0,3.216-.4,5.135,5.135,0,0,0,1.1-.312l.816,1.068c-.108.024-.108.024-.263.048s-.456.084-.9.168a42.1,42.1,0,0,1-4.295.48c-.012.036-.073.192-.168.456h3.8a8.483,8.483,0,0,0,1.2-.048.523.523,0,0,1-.024.156c-.012.06-.048.348-.071.54a6.623,6.623,0,0,1-.492,2.34c-.277.528-.733.7-1.9.7-.336,0-1.031-.036-1.571-.084a3.172,3.172,0,0,0-.3-1.248,15.96,15.96,0,0,0,1.921.168c.432,0,.6-.06.731-.252a2.939,2.939,0,0,0,.288-1.164h-4.007c-.12.264-.18.4-.384.78l-1.3-.216a15.923,15.923,0,0,0,1.092-2.448c-.769.372-1,.468-2.592,1.1a4.019,4.019,0,0,0-.7-1.08,22.9,22.9,0,0,0,4.572-1.9Zm4.5-1.116c.432-.336.779-.624,1.092-.912a8.131,8.131,0,0,0-.828-.024h-1.008v.936Z" transform="translate(-6030.971 -752.314)" fill="#fff"/>
  <path id="パス_147" data-name="パス 147" d="M6159.334,776.662a2.281,2.281,0,0,1,.684-.12c.828,0,1.212.492,1.368,1.728.084.708.12.84.288.984.144.144.372.192.792.192a5.856,5.856,0,0,0,1.824-.312.235.235,0,0,1,.084-.012c.072,0,.108.024.156.108a4.41,4.41,0,0,1,.18,1.176c0,.108-.024.156-.132.18a13.479,13.479,0,0,1-2.16.18c-1.044,0-1.6-.192-1.92-.684a3.044,3.044,0,0,1-.372-1.428c-.084-.924-.228-1.152-.708-1.152-.432,0-.768.216-1.476.924a12.446,12.446,0,0,0-1.668,2.028c-.072.12-.156.192-.228.192s-.168-.072-.54-.468-.492-.552-.492-.624.024-.108.24-.3c.288-.24.288-.24,4.752-4.992-1.932.348-3.156.6-3.443.708a.672.672,0,0,1-.241.06c-.108,0-.132-.036-.2-.276a5.626,5.626,0,0,1-.228-1.188c.252.012.336.012.42.012a32.806,32.806,0,0,0,3.336-.336,4.034,4.034,0,0,0,1.428-.3.49.49,0,0,1,.192-.06c.3,0,.984.78.984,1.128,0,.144-.048.2-.2.288a2.794,2.794,0,0,0-.648.42c-.12.1-.48.432-.648.588Zm-1.428-6c.048-.144.084-.2.144-.192a.673.673,0,0,1,.12.024,10.084,10.084,0,0,0,1.464.372,10.8,10.8,0,0,0,2.137.216c.143.012.155.048.155.336a2.892,2.892,0,0,1-.108.9.162.162,0,0,1-.144.108c-.06,0-1.356-.144-1.548-.168a12.355,12.355,0,0,1-2.292-.552c-.108-.048-.144-.084-.144-.168A4.489,4.489,0,0,1,6157.906,770.662Z" transform="translate(-6030.971 -752.314)" fill="#fff"/>
  <path id="パス_148" data-name="パス 148" d="M6166.522,774.25h-.072a.638.638,0,0,1-.132.012c-.107,0-.168-.048-.2-.2a6.379,6.379,0,0,1-.143-1.128c.168.012.3.012.383.012a16.492,16.492,0,0,0,2.041-.132,13.054,13.054,0,0,0,.179-1.9v-.276c1.393.18,1.656.264,1.645.48a.525.525,0,0,1-.073.2,3.729,3.729,0,0,0-.347,1.26,10.839,10.839,0,0,0,1.307-.324.163.163,0,0,1,.1-.024c.109,0,.133.048.229.468a5.479,5.479,0,0,1,.095.672c0,.084-.036.132-.143.156a13.615,13.615,0,0,1-1.861.36,34.291,34.291,0,0,1-2.051,6.4c-.061.156-.12.216-.193.216a3.057,3.057,0,0,1-.983-.4c-.2-.108-.265-.168-.265-.228a.742.742,0,0,1,.1-.252,22.632,22.632,0,0,0,2.027-5.544C6167.627,774.154,6167.255,774.19,6166.522,774.25Zm5.124,4.56a2.846,2.846,0,0,0,1.561.336,6.947,6.947,0,0,0,1.836-.192.7.7,0,0,1,.168-.036.172.172,0,0,1,.191.144,4.272,4.272,0,0,1,.145,1.116c0,.156-.048.216-.2.252a9.767,9.767,0,0,1-1.777.132c-1.5,0-2.339-.24-2.891-.816a2.11,2.11,0,0,1-.468-.792,1.535,1.535,0,0,1-.12-.444c0-.2.359-.42.983-.624A1.358,1.358,0,0,0,6171.646,778.81Zm3.373-3.492a9.926,9.926,0,0,0-1.165-.06,11.011,11.011,0,0,0-2.315.216.2.2,0,0,1-.084.012.121.121,0,0,1-.133-.1,5.678,5.678,0,0,1-.084-.924c0-.156.025-.228.12-.264a1.913,1.913,0,0,1,.372-.084,12.671,12.671,0,0,1,2.34-.2,3.53,3.53,0,0,1,1.141.084c.06.048.071.144.071.54a3.852,3.852,0,0,1-.048.732c-.011.036-.059.06-.12.06A.294.294,0,0,1,6175.019,775.318Z" transform="translate(-6030.971 -752.314)" fill="#fff"/>
  <path id="パス_149" data-name="パス 149" d="M6178.114,775.69v-5.628h3.828v1.308h-2.4v4.32Z" transform="translate(-6030.971 -752.314)" fill="#fff"/>
  <path id="パス_150" data-name="パス 150" d="M6184.175,775.222a8.309,8.309,0,0,0-1.057.048v-1.236a5.985,5.985,0,0,0,1.069.06h.276a4.865,4.865,0,0,0-.492-1.368l1.008-.252h-.541a8.692,8.692,0,0,0-1.091.048v-1.236a6.341,6.341,0,0,0,1.1.06h.889v-.168a5.7,5.7,0,0,0-.049-.852h1.393a3.98,3.98,0,0,0-.061.84v.18h.78a6.079,6.079,0,0,0,1.069-.06v1.236a8.631,8.631,0,0,0-1.08-.048h-.468l.972.276c-.252.6-.5,1.14-.624,1.344h.24a5.98,5.98,0,0,0,1.055-.06v1.236a8.539,8.539,0,0,0-1.055-.048h-.937v.816h.889a6.092,6.092,0,0,0,1.044-.06v1.212a8.121,8.121,0,0,0-1.044-.048h-.421a4.552,4.552,0,0,0,1.177,1.008,7.86,7.86,0,0,0-.553,1.092,5.21,5.21,0,0,1-1.115-1.236c.012.54.023.828.023.9v1.14a6.965,6.965,0,0,0,.061.96h-1.321a6.271,6.271,0,0,0,.06-.912v-1.152c0-.228.013-.468.024-.78a5.648,5.648,0,0,1-1.908,2.136,3.665,3.665,0,0,0-.576-1.176,5.794,5.794,0,0,0,2.017-1.98h-.744a6.23,6.23,0,0,0-1.056.06v-1.224a6.119,6.119,0,0,0,1.079.06h1.164v-.816Zm.888-2.748a5.952,5.952,0,0,1,.5,1.344l-1.044.276h1.584a6.764,6.764,0,0,0,.661-1.62Zm7.679,1.4a4.789,4.789,0,0,0,1.057-.072v1.284a6.4,6.4,0,0,0-.925-.048h-.287v4.632a7.682,7.682,0,0,0,.071,1.356H6191.3a8,8,0,0,0,.071-1.356v-4.632h-1.224a15.034,15.034,0,0,1-.42,3.72,6.88,6.88,0,0,1-1.032,2.3,5,5,0,0,0-1.128-.756c1.092-1.344,1.38-2.844,1.38-7.2a12.8,12.8,0,0,0-.071-1.8,9.187,9.187,0,0,0,3.863-.984l.948,1.116c-.12.036-.143.048-.383.132a15.693,15.693,0,0,1-3.145.78v1.524Z" transform="translate(-6030.971 -752.314)" fill="#fff"/>
  <path id="パス_151" data-name="パス 151" d="M6197.927,770.926c.3.084.384.144.384.276a.728.728,0,0,1-.073.288,6.843,6.843,0,0,0-.276,1.8c-.1,1.932-.144,3.432-.144,4.62a3.05,3.05,0,0,0,.1.864c.132.4.553.6,1.225.6a4.4,4.4,0,0,0,3.036-1.32,7.177,7.177,0,0,0,1.139-1.392,4.13,4.13,0,0,0,.432,1.176.71.71,0,0,1,.061.276c0,.216-.229.5-.828,1.044a5.772,5.772,0,0,1-3.888,1.62,2.755,2.755,0,0,1-2.017-.66,3.031,3.031,0,0,1-.636-2.292c0-.936.012-1.656.108-4.452.013-.42.024-.672.024-.78a11.237,11.237,0,0,0-.084-1.836A6.871,6.871,0,0,1,6197.927,770.926Z" transform="translate(-6030.971 -752.314)" fill="#fff"/>
  <path id="パス_152" data-name="パス 152" d="M6205.679,772.93c0-.348-.013-.816-.036-1.08a5.419,5.419,0,0,1,1.284.264c.287.108.384.18.384.312a.364.364,0,0,1-.048.192,5.355,5.355,0,0,0-.2,1.956,10.582,10.582,0,0,0,.336,3.228c.179.564.456.888.779.888.492,0,.9-.576,1.345-1.908a3.564,3.564,0,0,0,.647,1.224.436.436,0,0,1,.1.252,2.267,2.267,0,0,1-.42.948,2.116,2.116,0,0,1-1.7,1.056c-.925,0-1.62-.744-2.053-2.22a14.144,14.144,0,0,1-.407-3.852Zm7.139.192a.349.349,0,0,1,.228.12,7.946,7.946,0,0,1,1.62,2.472,7.362,7.362,0,0,1,.517,1.74c0,.12-.061.18-.313.312a3.808,3.808,0,0,1-.983.336c-.109,0-.157-.06-.193-.276a8.341,8.341,0,0,0-.744-2.376,6.419,6.419,0,0,0-1.176-1.74A2.964,2.964,0,0,1,6212.818,773.122Z" transform="translate(-6030.971 -752.314)" fill="#fff"/>
  <path id="パス_153" data-name="パス 153" d="M6221.051,776.169h-2.725a9.052,9.052,0,0,0-1.055.048V775.21a7.93,7.93,0,0,0,1.08.049h2.7v-.446h-2.437c-.408,0-.695.012-.971.036a7.734,7.734,0,0,0,.036-.779v-.757c0-.323-.012-.5-.036-.8.324.025.551.037.984.037h2.424v-.434H6217.9a10.8,10.8,0,0,0-1.344.06v-1.138a10.226,10.226,0,0,0,1.416.072h3.084a4.412,4.412,0,0,0-.072-.792h1.379a4.086,4.086,0,0,0-.072.792h3.24a10.348,10.348,0,0,0,1.416-.072v1.138c-.383-.036-.792-.06-1.343-.06h-3.313v.434h2.616c.445,0,.672-.012.96-.037a7.879,7.879,0,0,0-.036.8v.757a7.19,7.19,0,0,0,.036.779c-.263-.024-.54-.036-.912-.036h-2.664v.446h2.6c.672,0,.864-.012,1.223-.036a7.551,7.551,0,0,0-.036,1.043v.409a6.163,6.163,0,0,0,1-.06v1.09a6.5,6.5,0,0,0-1-.06v.673a8.147,8.147,0,0,0,.061,1.236h-1.285v-.445h-2.568v.649c0,1.032-.288,1.248-1.68,1.248-.288,0-.708-.012-1.116-.036a3.19,3.19,0,0,0-.347-1.152,12.331,12.331,0,0,0,1.439.108c.385,0,.469-.048.469-.276v-.541h-2.712a9.982,9.982,0,0,0-1.141.048V778.1a8.115,8.115,0,0,0,1.1.048h2.748v-.506h-3.3a8.053,8.053,0,0,0-1.272.06v-1.09a7.614,7.614,0,0,0,1.248.06h3.324Zm-2.149-2.724v.47h2.149v-.47Zm3.384.47h2.317v-.47h-2.317Zm2.568,2.76v-.506h-2.568v.506Zm-2.568,1.476h2.568v-.506h-2.568Z" transform="translate(-6030.971 -752.314)" fill="#fff"/>
  <path id="パス_154" data-name="パス 154" d="M6230.194,774.993a10.769,10.769,0,0,0-1.175.048v-1.09a9.849,9.849,0,0,0,1.175.048h1.405a8.439,8.439,0,0,0-.432-.866h-1.236c-.552,0-1.008.024-1.368.06v-1.15a9.307,9.307,0,0,0,1.307.072h.372a5.032,5.032,0,0,0-.779-1.068l1.151-.432a8.3,8.3,0,0,1,.889,1.5h.647v-.8a6.124,6.124,0,0,0-.059-.9h1.248a7.441,7.441,0,0,0-.036.852v.852h.851v-.852a5.493,5.493,0,0,0-.048-.852h1.26a5.887,5.887,0,0,0-.059.9v.8h.719a5.94,5.94,0,0,0,.828-1.524l1.176.432a11.32,11.32,0,0,1-.708,1.092h.324a9.09,9.09,0,0,0,1.308-.072v1.15c-.359-.036-.815-.06-1.367-.06h-1.164a8.984,8.984,0,0,1-.42.866h1.332a10.2,10.2,0,0,0,1.187-.048v1.09a10.743,10.743,0,0,0-1.187-.048h-3.013v.554h2.424a10.425,10.425,0,0,0,1.177-.048v1.006a10.271,10.271,0,0,0-1.177-.048h-2.424v.578h3.229a9.563,9.563,0,0,0,1.38-.072v1.15a11.65,11.65,0,0,0-1.368-.072h-2.317a6.227,6.227,0,0,0,1.561.924,10.353,10.353,0,0,0,2.4.66,4.212,4.212,0,0,0-.659,1.176,8.707,8.707,0,0,1-4.261-2.292c.025.408.025.552.025.816v.576a7.726,7.726,0,0,0,.072,1.164h-1.357a8.154,8.154,0,0,0,.073-1.176v-.552c0-.264,0-.36.023-.792a5.786,5.786,0,0,1-1.655,1.272,10.973,10.973,0,0,1-2.353.972,4.628,4.628,0,0,0-.695-1.116,8.24,8.24,0,0,0,3.768-1.632h-2.136a12.008,12.008,0,0,0-1.4.072v-1.15a10.213,10.213,0,0,0,1.392.072h3.049v-.578h-2.28a10.267,10.267,0,0,0-1.176.048V775.5a10.256,10.256,0,0,0,1.176.048h2.28v-.554Zm4.525-.994a5.548,5.548,0,0,0,.384-.866h-2.628a7.959,7.959,0,0,1,.347.866Z" transform="translate(-6030.971 -752.314)" fill="#fff"/>
  <path id="パス_155" data-name="パス 155" d="M6243.91,773.866a6.174,6.174,0,0,0-.239,1.008,11.419,11.419,0,0,1-1.189,3.54,9.786,9.786,0,0,1-1.355,1.872,5,5,0,0,0-.864-1.056,6.487,6.487,0,0,0,1.427-1.932,9.616,9.616,0,0,0,.876-2.82h-1.091a5.842,5.842,0,0,0-.888.048v-1.2a6.4,6.4,0,0,0,.96.048h1.092a4.092,4.092,0,0,0,.756-.06Zm3.876,1.343a3.861,3.861,0,0,0-.7-.048h-.721v.662h.864a4.173,4.173,0,0,0,.756-.048v1.066a4.168,4.168,0,0,0-.756-.048h-.864v.722h1.309a4.452,4.452,0,0,0,.792-.048v1.1a6.605,6.605,0,0,0-.937-.048h-1.164v1.2c0,.876-.359,1.128-1.632,1.128-.336,0-.467,0-1.2-.024a3.65,3.65,0,0,0-.311-1.212,12.316,12.316,0,0,0,1.452.12c.431,0,.515-.048.515-.312v-.9h-1.128a6.566,6.566,0,0,0-.935.048v-1.1a5.056,5.056,0,0,0,.8.048h1.259v-.722h-.767a4.755,4.755,0,0,0-.781.048v-1.066a4.762,4.762,0,0,0,.781.048h.767v-.662h-.6a4.446,4.446,0,0,0-.721.048v-1.066a4.446,4.446,0,0,0,.721.048h.6v-.433a8,8,0,0,0-.036-.828h.349a9.765,9.765,0,0,0,1.62-1.045h-3.6a9.372,9.372,0,0,0-1.463.072v-1.222a12.482,12.482,0,0,0,1.463.072h3.972a7.083,7.083,0,0,0,1.177-.06l.672.791c-.145.108-.277.2-.493.383a19.192,19.192,0,0,1-2.484,1.657v.613h.721a5.075,5.075,0,0,0,.66-.036c-.061-.289-.12-.589-.181-.937l1.141-.324a11.715,11.715,0,0,0,.275,1.752,7.311,7.311,0,0,0,1.309-1.5l.888.913a2,2,0,0,0-.168.168c-.456.515-1.128,1.2-1.657,1.679a6.986,6.986,0,0,0,2.077,3.192,5.608,5.608,0,0,0-.972,1.14,9.008,9.008,0,0,1-1.86-2.94,13.076,13.076,0,0,1-.661-2.173c-.011-.048-.036-.179-.084-.383-.011-.084-.036-.216-.072-.384Z" transform="translate(-6030.971 -752.314)" fill="#fff"/>
  <path id="パス_156" data-name="パス 156" d="M6253.858,776.914a15.1,15.1,0,0,1-.467,3.492l-1-.444a12.053,12.053,0,0,0,.467-3.2Zm-1.4-1.728a4.437,4.437,0,0,0,.841.036c.2-.264.336-.432.54-.708a10.691,10.691,0,0,0-1.368-1.764l.588-1c.168.2.227.264.359.42a7.237,7.237,0,0,0,.853-1.92l1.116.48a2.384,2.384,0,0,0-.24.42,17.586,17.586,0,0,1-1.056,1.848c.227.276.275.348.42.552a11.414,11.414,0,0,0,1.092-1.92l1.055.528c-.132.18-.132.18-.683,1.008-.4.612-1.117,1.56-1.5,2.016.54-.024.635-.036,1.187-.084-.1-.252-.168-.408-.347-.8l.828-.36a10.6,10.6,0,0,1,.744,1.932v-4.164a6.269,6.269,0,0,0-.061-1.008h1.273a5.763,5.763,0,0,0-.061,1v5.676a6.226,6.226,0,0,0,1.645-2.232h-.6a7.05,7.05,0,0,0-.792.036v-1.152a7.492,7.492,0,0,0,.792.036h.853v-2.64a7.342,7.342,0,0,0-.048-.936h1.2a7.484,7.484,0,0,0-.048.948v2.628h.973a5.4,5.4,0,0,0,.983-.06v1.188a7.106,7.106,0,0,0-.983-.048h-.7a6.729,6.729,0,0,0,1.931,2.124,4.911,4.911,0,0,0-.575,1.176,8.794,8.794,0,0,1-1.669-2.172c0,.168,0,.168.024.528.012.084.012.3.012.432v.864a5.345,5.345,0,0,0,.048.852H6259.9a5.088,5.088,0,0,0,.047-.84v-.828c0-.288,0-.432.037-.948a6.109,6.109,0,0,1-1.416,2.124,2.755,2.755,0,0,0-.529-.78v1.668h3.948a8.806,8.806,0,0,0,1.1-.06v1.248a9.921,9.921,0,0,0-1.284-.072h-3.769v.54h-1.223a9.665,9.665,0,0,0,.072-1.272v-3.4l-.8.348a4.981,4.981,0,0,0-.119-.564c-.265.036-.324.048-.708.084v3.636a6.887,6.887,0,0,0,.071,1.212H6254.1a7.238,7.238,0,0,0,.072-1.212v-3.54c-.025,0-.36.012-1.021.048a3.563,3.563,0,0,0-.576.06Zm3.889,1.62a23.564,23.564,0,0,1,.311,2.76l-.9.192a18.382,18.382,0,0,0-.276-2.736Zm2.76-5.688a13.109,13.109,0,0,1,.732,2.22l-.912.432a10.845,10.845,0,0,0-.708-2.268Zm3.792.456a13.434,13.434,0,0,1-.888,2.232l-.889-.456a8.88,8.88,0,0,0,.769-2.22Z" transform="translate(-6030.971 -752.314)" fill="#fff"/>
  <path id="パス_157" data-name="パス 157" d="M6268.055,775.678v5.616h-3.828v-1.308h2.412v-4.308Z" transform="translate(-6030.971 -752.314)" fill="#fff"/>
  <path id="パス_158" data-name="パス 158" d="M6274.847,778.09a2.665,2.665,0,0,1-2.185,1.548c-1.248,0-2.136-1.224-2.136-2.928a4.842,4.842,0,0,1,2.6-4.392,5.652,5.652,0,0,1,2.808-.624,4.156,4.156,0,0,1,4.369,4.152,4.566,4.566,0,0,1-3.025,4.464,2.853,2.853,0,0,1-.864.264c-.144,0-.2-.048-.359-.276a2.55,2.55,0,0,0-.756-.756c2.471-.636,3.588-1.8,3.588-3.744a2.809,2.809,0,0,0-1.164-2.364,3.039,3.039,0,0,0-1.416-.516A13.078,13.078,0,0,1,6274.847,778.09Zm-1.729-4.248a3.732,3.732,0,0,0-1.26,2.844c0,.924.3,1.464.8,1.464.6,0,1.212-.828,1.668-2.256a15,15,0,0,0,.612-2.916A3.462,3.462,0,0,0,6273.118,773.842Z" transform="translate(-6030.971 -752.314)" fill="#fff"/>
  <path id="パス_159" data-name="パス 159" d="M6290.915,771.778a9.726,9.726,0,0,0,1.392-.072v1.344c-.384-.036-.792-.06-1.392-.06h-4.74a13.068,13.068,0,0,1-1.512,2.4v4.26a9.54,9.54,0,0,0,.06,1.332h-1.405a9.614,9.614,0,0,0,.073-1.332v-2.868a8.571,8.571,0,0,1-.876.78,3.842,3.842,0,0,0-.865-1.14,11.5,11.5,0,0,0,1.741-1.524,6.279,6.279,0,0,0-.048-.648h.588a8.659,8.659,0,0,0,.816-1.26h-1.381c-.6,0-1.008.024-1.391.06v-1.344a9.706,9.706,0,0,0,1.391.072h1.956a6.435,6.435,0,0,0,.469-1.536l1.439.276a2.531,2.531,0,0,0-.191.468c-.072.192-.2.564-.3.792Zm-.36,3.708a6.784,6.784,0,0,0,1.223-.072v1.308a8.8,8.8,0,0,0-1.235-.06h-1.429v2.7h1.824a11.019,11.019,0,0,0,1.285-.06v1.32a10.805,10.805,0,0,0-1.3-.072h-4.609a9.547,9.547,0,0,0-1.284.072V779.3a11.893,11.893,0,0,0,1.273.06h1.524v-2.7h-1.2a9.006,9.006,0,0,0-1.248.06v-1.308a6.862,6.862,0,0,0,1.235.072h1.213v-.744a7.72,7.72,0,0,0-.06-1.2h1.4a7,7,0,0,0-.061,1.224v.72Z" transform="translate(-6030.971 -752.314)" fill="#fff"/>
  <path id="パス_160" data-name="パス 160" d="M6296.387,774.9c.06-.1.06-.1.588-.984a1.755,1.755,0,0,0,.288.528.55.55,0,0,1,.12.276c0,.072-.024.132-.312.6-.2.36-.552,1.1-.7,1.464-.12.336-.168.36-.564.36a1.385,1.385,0,0,1-.756-.12,6,6,0,0,1-.12-1.632,24.6,24.6,0,0,1,.4-4.092,3.453,3.453,0,0,0,.048-.624c.936.168,1.548.444,1.548.672,0,.06-.012.1-.1.2a3.083,3.083,0,0,0-.372,1.176,16.566,16.566,0,0,0-.252,2.5C6296.315,775.03,6296.315,775.03,6296.387,774.9Zm4.356-3.5v.2c.012.048.012.144.024.276.012.192.012.192.036.492,0,.132,0,.132.024.576.036.576.06,1.152.06,1.44a8.044,8.044,0,0,1-1.836,5.484c-.48.564-.9.888-1.14.888-.144,0-.156,0-.408-.192a2.462,2.462,0,0,0-.852-.42,6.447,6.447,0,0,0,1.74-1.656,6.577,6.577,0,0,0,1.1-3.888,9.938,9.938,0,0,0-.384-3.384,10.12,10.12,0,0,1,1.224-.084c.36,0,.408.024.408.228Z" transform="translate(-6030.971 -752.314)" fill="#fff"/>
  <path id="パス_161" data-name="パス 161" d="M6307.918,771.358a5.463,5.463,0,0,0-.072-.948h1.476a4.757,4.757,0,0,0-.072.948v.708h3.18a9.223,9.223,0,0,0,1.452-.084v1.4a10.013,10.013,0,0,0-1.416-.072h-4.212a1.267,1.267,0,0,0-.012.228c-.024.42-.049.648-.084,1.008h3.192a9.431,9.431,0,0,0,1.2-.048.423.423,0,0,0-.012.108c-.024.18-.024.264-.048.8a22.622,22.622,0,0,1-.4,4.044c-.264,1.092-.648,1.38-1.8,1.38-.408,0-.672-.012-1.561-.072a4.073,4.073,0,0,0-.323-1.344,10.46,10.46,0,0,0,1.728.156c.5,0,.612-.132.768-.924a16.291,16.291,0,0,0,.252-2.892h-3.18a7.534,7.534,0,0,1-3.708,5.22,3.349,3.349,0,0,0-.924-1.1,7.279,7.279,0,0,0,2.064-1.692c1-1.2,1.38-2.52,1.44-4.872h-1.884a12.3,12.3,0,0,0-1.452.072v-1.4a9.783,9.783,0,0,0,1.44.084h2.964Z" transform="translate(-6030.971 -752.314)" fill="#fff"/>
  <path id="パス_162" data-name="パス 162" d="M6317.842,774.406a11.176,11.176,0,0,1-.349-2.328,5.583,5.583,0,0,0-.216-1.272,7.036,7.036,0,0,1,1.525.132c.179.048.263.132.263.264a.834.834,0,0,1-.036.2,2.634,2.634,0,0,0-.12.816,8.6,8.6,0,0,0,.252,1.968c.072.228.145.312.277.312a5.861,5.861,0,0,0,1.919-1c.157-.12.18-.132.241-.132.107,0,.215.084.4.312a2.788,2.788,0,0,1,.54,1.02c0,.132-.084.216-.288.276a20.094,20.094,0,0,0-2.8,1.08c-1.464.72-2.124,1.38-2.124,2.124s.613,1.032,2.16,1.032a16.677,16.677,0,0,0,2.821-.264,1.006,1.006,0,0,1,.155-.024.214.214,0,0,1,.2.144,8.1,8.1,0,0,1,.12,1.14.237.237,0,0,1-.2.276,23.418,23.418,0,0,1-2.628.144,5.8,5.8,0,0,1-3.191-.636,1.95,1.95,0,0,1-.828-1.68,2.632,2.632,0,0,1,.479-1.524,5.116,5.116,0,0,1,1.884-1.62A1.378,1.378,0,0,1,6317.842,774.406Z" transform="translate(-6030.971 -752.314)" fill="#fff"/>
  <path id="パス_163" data-name="パス 163" d="M6327.8,777.742a.2.2,0,0,1,.048.132c0,.072,0,.072-.205.624a8.6,8.6,0,0,0-.456,1.8.23.23,0,0,1-.215.252,3.538,3.538,0,0,1-.8.072c-.12,0-.181-.024-.217-.1a9.159,9.159,0,0,1-.4-1.728,11.98,11.98,0,0,1-.121-1.764,26.681,26.681,0,0,1,.588-5.04,8.5,8.5,0,0,0,.132-.936,4.012,4.012,0,0,1,1.284.348c.18.1.252.18.252.288a.4.4,0,0,1-.084.228,14.508,14.508,0,0,0-.948,5.352c0,.288.013.744.049,1.32.287-.744.42-1.08.684-1.656A1.941,1.941,0,0,0,6327.8,777.742Zm2.015-3.156c-.576,0-.7-.024-.731-.156a3.755,3.755,0,0,1-.072-.768c0-.1,0-.192.011-.408.325.024.517.036.912.036.649,0,1.056-.012,1.68-.06a9.393,9.393,0,0,0-.143-2.28,6.353,6.353,0,0,1,1.416.156c.179.048.252.108.252.228a.5.5,0,0,1-.048.18,4.751,4.751,0,0,0-.2,1.584c.444-.06.828-.144,1.547-.312a.263.263,0,0,1,.121-.024c.072,0,.107.036.131.12a6.174,6.174,0,0,1,.061.816c0,.3-.013.348-.133.4a8.279,8.279,0,0,1-1.739.312c0,.828.071,2.2.155,2.976a9.259,9.259,0,0,1,1.8.972c.336.24.407.324.407.408a2.631,2.631,0,0,1-.468.888c-.143.2-.215.264-.3.264s-.084,0-.361-.264a6.3,6.3,0,0,0-1.067-.816v.1c0,1.056-.876,1.752-2.208,1.752-1.357,0-2.244-.72-2.244-1.8A1.966,1.966,0,0,1,6330.72,777a5.988,5.988,0,0,1,1,.06c-.049-.936-.049-.936-.084-2.544C6331.115,774.55,6330.3,774.586,6329.819,774.586Zm.985,3.528c-.6,0-1,.276-1,.7,0,.384.372.624.948.624.636,0,.972-.288.972-.84,0-.168-.012-.3-.012-.3A2.425,2.425,0,0,0,6330.8,778.114Z" transform="translate(-6030.971 -752.314)" fill="#fff"/>
  <path id="パス_164" data-name="パス 164" d="M6337.128,772.786a3.22,3.22,0,0,1,1-1.488,3.067,3.067,0,0,1,2.053-.672c1.8,0,2.952.984,2.952,2.52a2.453,2.453,0,0,1-.421,1.4,5.147,5.147,0,0,1-.983,1.02c-.937.84-1.14,1.164-1.14,1.8v.636h-1.225v-.672a2.853,2.853,0,0,1,.325-1.4,4.3,4.3,0,0,1,.828-.984,4.651,4.651,0,0,0,.792-.888,1.619,1.619,0,0,0,.263-.9,1.259,1.259,0,0,0-1.391-1.308c-.853,0-1.357.444-1.716,1.488Zm3.827,7a.948.948,0,1,1-.947-.948A.942.942,0,0,1,6340.955,779.782Z" transform="translate(-6030.971 -752.314)" fill="#fff"/>
</svg>
